<svg width="12" height="12" viewBox="0 0 12 12" fill="none" xmlns="http://www.w3.org/2000/svg">
<path d="M4.5 11.375C1.785 11.375 0.625 10.215 0.625 7.5V4.5C0.625 1.785 1.785 0.625 4.5 0.625H7C7.205 0.625 7.375 0.795 7.375 1C7.375 1.205 7.205 1.375 7 1.375H4.5C2.195 1.375 1.375 2.195 1.375 4.5V7.5C1.375 9.805 2.195 10.625 4.5 10.625C4.705 10.625 4.875 10.795 4.875 11C4.875 11.205 4.705 11.375 4.5 11.375Z" fill="white"/>
<path d="M11 6.875C10.795 6.875 10.625 6.705 10.625 6.5V5C10.625 4.795 10.795 4.625 11 4.625C11.205 4.625 11.375 4.795 11.375 5V6.5C11.375 6.705 11.205 6.875 11 6.875Z" fill="white"/>
<path d="M11 5.375H9C7.29 5.375 6.625 4.71 6.625 2.99999V0.999995C6.625 0.849995 6.715 0.709994 6.855 0.654994C6.995 0.594994 7.155 0.629996 7.265 0.734996L11.265 4.735C11.37 4.84 11.405 5.005 11.345 5.145C11.285 5.285 11.15 5.375 11 5.375ZM7.375 1.90499V2.99999C7.375 4.28999 7.71 4.62499 9 4.62499H10.095L7.375 1.90499Z" fill="white"/>
<path d="M9.67 11.375C9.665 11.375 9.66 11.375 9.66 11.375H6.88C6.045 11.315 5.625 10.675 5.625 10.065C5.625 9.57502 5.9 9.06002 6.43 8.85002C6.32 8.22502 6.48 7.64502 6.895 7.21002C7.405 6.67502 8.225 6.46001 8.935 6.68001C9.555 6.87001 10 7.36001 10.185 8.04001C10.71 8.20001 11.125 8.61501 11.295 9.18001C11.495 9.83501 11.31 10.505 10.815 10.935C10.51 11.215 10.1 11.375 9.67 11.375ZM6.895 9.50502C6.515 9.54002 6.375 9.82502 6.375 10.065C6.375 10.305 6.515 10.595 6.905 10.625H9.66C9.915 10.61 10.14 10.535 10.32 10.375C10.645 10.09 10.67 9.68502 10.58 9.39502C10.49 9.10502 10.245 8.78002 9.825 8.72502C9.66 8.70502 9.53 8.58001 9.5 8.41501C9.39 7.74001 9.01 7.49001 8.715 7.40001C8.28 7.26501 7.755 7.40002 7.44 7.73502C7.225 7.96002 7.015 8.36501 7.25 9.01001C7.32 9.20501 7.22 9.42002 7.025 9.49002C6.98 9.50002 6.935 9.50502 6.895 9.50502Z" fill="white"/>
</svg>
