<svg width="21" height="21" viewBox="0 0 21 21" fill="none" xmlns="http://www.w3.org/2000/svg">
<path d="M13.125 19.9062H7.875C3.12375 19.9062 1.09375 17.8762 1.09375 13.125V7.875C1.09375 3.12375 3.12375 1.09375 7.875 1.09375H13.125C17.8762 1.09375 19.9062 3.12375 19.9062 7.875V13.125C19.9062 17.8762 17.8762 19.9062 13.125 19.9062ZM7.875 2.40625C3.84125 2.40625 2.40625 3.84125 2.40625 7.875V13.125C2.40625 17.1588 3.84125 18.5938 7.875 18.5938H13.125C17.1588 18.5938 18.5938 17.1588 18.5938 13.125V7.875C18.5938 3.84125 17.1588 2.40625 13.125 2.40625H7.875Z" fill="white"/>
<path d="M7.875 9.40625C6.545 9.40625 5.46875 8.33 5.46875 7C5.46875 5.67 6.545 4.59375 7.875 4.59375C9.205 4.59375 10.2812 5.67 10.2812 7C10.2812 8.33 9.205 9.40625 7.875 9.40625ZM7.875 5.90625C7.27125 5.90625 6.78125 6.39625 6.78125 7C6.78125 7.60375 7.27125 8.09375 7.875 8.09375C8.47875 8.09375 8.96875 7.60375 8.96875 7C8.96875 6.39625 8.47875 5.90625 7.875 5.90625Z" fill="white"/>
<path d="M2.33715 17.2375C2.12715 17.2375 1.91715 17.1325 1.79465 16.9487C1.5934 16.6512 1.67215 16.24 1.9784 16.0387L6.29215 13.1425C7.23715 12.5037 8.5409 12.5825 9.3984 13.3087L9.68715 13.5625C10.1246 13.9387 10.8684 13.9387 11.2971 13.5625L14.9371 10.4387C15.8646 9.64249 17.3259 9.64249 18.2621 10.4387L19.6884 11.6637C19.9596 11.9 19.9946 12.3112 19.7584 12.5912C19.5221 12.8625 19.1109 12.8975 18.8309 12.6612L17.4046 11.4362C16.9671 11.06 16.2234 11.06 15.7859 11.4362L12.1459 14.56C11.2184 15.3562 9.75715 15.3562 8.8209 14.56L8.53215 14.3062C8.12965 13.965 7.46465 13.93 7.0184 14.2362L2.70465 17.1325C2.5909 17.2025 2.45965 17.2375 2.33715 17.2375Z" fill="white"/>
</svg>
