<svg width="21" height="21" viewBox="0 0 21 21" fill="none" xmlns="http://www.w3.org/2000/svg">
<path d="M10.5 10.7188C10.115 10.7188 9.73 10.6225 9.38 10.4388L3.68375 7.36753C3.1675 7.08752 2.84375 6.53627 2.84375 5.92377C2.84375 5.31128 3.1675 4.76002 3.68375 4.48002L9.38 1.40877C10.08 1.03252 10.92 1.03252 11.6112 1.40877L17.3075 4.48002C17.8237 4.76002 18.1475 5.31128 18.1475 5.92377C18.1475 6.53627 17.8237 7.08752 17.3075 7.36753L11.6112 10.4388C11.27 10.6313 10.885 10.7188 10.5 10.7188ZM10.5 2.43252C10.3337 2.43252 10.1587 2.47627 10.0012 2.56377L4.31375 5.62627C4.165 5.70502 4.15625 5.87127 4.15625 5.92377C4.15625 5.97627 4.165 6.14252 4.31375 6.21252L10.01 9.28377C10.325 9.45002 10.6837 9.45002 10.9987 9.28377L16.695 6.21252C16.835 6.13377 16.8525 5.96753 16.8525 5.92377C16.8525 5.87127 16.8437 5.70502 16.695 5.63503L10.9987 2.56377C10.8412 2.47627 10.6662 2.43252 10.5 2.43252Z" fill="white"/>
<path d="M8.5575 19.88C8.3125 19.88 8.05875 19.8187 7.83125 19.705L2.52875 17.0625C1.645 16.6162 1.09375 15.7237 1.09375 14.735V9.72998C1.09375 9.16123 1.3825 8.64498 1.86375 8.34748C2.35375 8.04998 2.94 8.02373 3.4475 8.27748L8.75 10.92C9.63375 11.3662 10.185 12.25 10.185 13.2475V18.2525C10.185 18.8212 9.89625 19.3375 9.415 19.635C9.1525 19.8012 8.855 19.88 8.5575 19.88ZM2.72125 9.41498C2.65125 9.41498 2.59 9.44123 2.555 9.45873C2.5025 9.49373 2.40625 9.57248 2.40625 9.72998V14.735C2.40625 15.225 2.6775 15.6712 3.115 15.89L8.40875 18.5412C8.54875 18.6112 8.6625 18.5587 8.715 18.5325C8.7675 18.4975 8.86375 18.4187 8.86375 18.2612V13.2562C8.86375 12.7662 8.5925 12.32 8.155 12.1012L2.86125 9.44998C2.80875 9.42373 2.765 9.41498 2.72125 9.41498Z" fill="white"/>
<path d="M12.4439 19.88C12.1464 19.88 11.8489 19.8013 11.5864 19.635C11.1052 19.3375 10.8164 18.8213 10.8164 18.2525V13.2475C10.8164 12.2588 11.3677 11.3663 12.2514 10.92L17.5452 8.26875C18.0527 8.015 18.6477 8.04125 19.1289 8.33875C19.6102 8.63625 19.8989 9.1525 19.8989 9.72125V14.7263C19.8989 15.715 19.3477 16.6075 18.4639 17.0538L13.1702 19.705C12.9427 19.8275 12.6889 19.88 12.4439 19.88ZM18.2802 9.415C18.2364 9.415 18.1927 9.42375 18.1402 9.45L12.8464 12.1013C12.4089 12.32 12.1377 12.7575 12.1377 13.2563V18.2613C12.1377 18.4188 12.2339 18.4975 12.2864 18.5325C12.3389 18.5675 12.4527 18.6113 12.5927 18.5413L17.8864 15.89C18.3239 15.6713 18.5952 15.225 18.5952 14.735V9.73C18.5952 9.5725 18.4989 9.49375 18.4464 9.45875C18.4114 9.44125 18.3502 9.415 18.2802 9.415Z" fill="white"/>
</svg>
