<svg width="23" height="23" viewBox="0 0 23 23" fill="none" xmlns="http://www.w3.org/2000/svg">
<path d="M15.3327 12.3626V16.3876C15.3327 19.7417 13.991 21.0834 10.6368 21.0834H6.61185C3.25768 21.0834 1.91602 19.7417 1.91602 16.3876V12.3626C1.91602 9.00841 3.25768 7.66675 6.61185 7.66675H10.6368C13.991 7.66675 15.3327 9.00841 15.3327 12.3626Z" stroke="current" stroke-width="1.40522" stroke-linecap="round" stroke-linejoin="round"/>
<path d="M21.0827 6.61258V10.6376C21.0827 13.9917 19.741 15.3334 16.3868 15.3334H15.3327V12.3626C15.3327 9.00841 13.991 7.66675 10.6368 7.66675H7.66602V6.61258C7.66602 3.25841 9.00768 1.91675 12.3618 1.91675H16.3868C19.741 1.91675 21.0827 3.25841 21.0827 6.61258Z" stroke="current" stroke-width="1.40522" stroke-linecap="round" stroke-linejoin="round"/>
</svg>
