<svg width="15" height="14" viewBox="0 0 15 14" fill="none" xmlns="http://www.w3.org/2000/svg">
<path d="M3.4375 6.27083C1.975 6.27083 0.78125 5.15667 0.78125 3.79167C0.78125 2.42667 1.975 1.3125 3.4375 1.3125C4.9 1.3125 6.09375 2.42667 6.09375 3.79167C6.09375 5.15667 4.9 6.27083 3.4375 6.27083ZM3.4375 2.1875C2.4875 2.1875 1.71875 2.905 1.71875 3.79167C1.71875 4.67833 2.4875 5.39583 3.4375 5.39583C4.3875 5.39583 5.15625 4.67833 5.15625 3.79167C5.15625 2.905 4.3875 2.1875 3.4375 2.1875Z" fill="current"/>
<path d="M3.4375 12.6875C1.975 12.6875 0.78125 11.5733 0.78125 10.2083C0.78125 8.84332 1.975 7.72916 3.4375 7.72916C4.9 7.72916 6.09375 8.84332 6.09375 10.2083C6.09375 11.5733 4.9 12.6875 3.4375 12.6875ZM3.4375 8.60416C2.4875 8.60416 1.71875 9.32166 1.71875 10.2083C1.71875 11.095 2.4875 11.8125 3.4375 11.8125C4.3875 11.8125 5.15625 11.095 5.15625 10.2083C5.15625 9.32166 4.3875 8.60416 3.4375 8.60416Z" fill="current"/>
<path d="M5.40642 9.75917C5.26267 9.75917 5.12517 9.70084 5.03142 9.58417C4.87517 9.39167 4.91893 9.1175 5.12518 8.97167L13.4689 3.15001C13.6752 3.00417 13.9689 3.04501 14.1252 3.23751C14.2814 3.43001 14.2377 3.70417 14.0314 3.85L5.68768 9.67167C5.60643 9.73001 5.50642 9.75917 5.40642 9.75917Z" fill="current"/>
<path d="M13.7502 10.92C13.6502 10.92 13.5564 10.8908 13.4689 10.8325L5.12518 5.01083C4.91893 4.865 4.87517 4.59083 5.03142 4.39833C5.18767 4.20583 5.48143 4.165 5.68768 4.31083L14.0314 10.1325C14.2377 10.2783 14.2814 10.5525 14.1252 10.745C14.0314 10.8558 13.8939 10.92 13.7502 10.92Z" fill="current"/>
</svg>
