<svg width="21" height="21" viewBox="0 0 21 21" fill="none" xmlns="http://www.w3.org/2000/svg">
<path d="M19.2505 10.85H14.1755C12.513 10.85 11.2617 9.59876 11.2617 7.93626V5.11873C11.2617 3.45623 12.513 2.20502 14.1755 2.20502H16.993C18.5942 2.20502 19.9067 3.50873 19.9067 5.11873V10.1938C19.9067 10.5613 19.6092 10.85 19.2505 10.85ZM14.1755 3.52628C13.248 3.52628 12.5742 4.19999 12.5742 5.12749V7.94501C12.5742 8.87251 13.248 9.54623 14.1755 9.54623H18.5942V5.12749C18.5942 4.24374 17.8767 3.52628 16.993 3.52628H14.1755Z" fill="white"/>
<path d="M15.2845 18.7862C15.057 18.7862 14.8382 18.6725 14.7157 18.4625C14.532 18.1475 14.637 17.745 14.9432 17.5613C17.7695 15.8813 18.592 15.1813 18.592 10.1938C18.592 9.83504 18.8895 9.53754 19.2482 9.53754C19.607 9.53754 19.9045 9.83504 19.9045 10.1938C19.9045 15.6625 18.7932 16.8088 15.617 18.69C15.512 18.76 15.3982 18.7862 15.2845 18.7862Z" fill="white"/>
<path d="M9.07469 10.85H3.99969C2.33719 10.85 1.08594 9.59876 1.08594 7.93626V5.11873C1.08594 3.45623 2.33719 2.20502 3.99969 2.20502H6.82594C8.42719 2.20502 9.73969 3.50873 9.73969 5.11873V10.1938C9.73094 10.5613 9.44219 10.85 9.07469 10.85ZM4.00844 3.52628C3.08094 3.52628 2.40719 4.19999 2.40719 5.12749V7.94501C2.40719 8.87251 3.08094 9.54623 4.00844 9.54623H8.42719V5.12749C8.42719 4.24374 7.70969 3.52628 6.82594 3.52628H4.00844Z" fill="white"/>
<path d="M5.10871 18.7862C4.88121 18.7862 4.66246 18.6725 4.53996 18.4625C4.35621 18.1475 4.46121 17.745 4.76746 17.5613C7.59371 15.8813 8.41621 15.1813 8.41621 10.1938C8.41621 9.83504 8.71371 9.53754 9.07246 9.53754C9.43121 9.53754 9.72871 9.83504 9.72871 10.1938C9.72871 15.6625 8.61746 16.8088 5.44121 18.69C5.33621 18.76 5.22246 18.7862 5.10871 18.7862Z" fill="white"/>
</svg>
