<svg width="18" height="17" viewBox="0 0 18 17" fill="none" xmlns="http://www.w3.org/2000/svg">
<g clip-path="url(#clip0_1_22330)">
<path d="M11.5006 9.06369V12.0146C11.5006 14.4738 10.5169 15.4574 8.0578 15.4574H5.10684C2.64771 15.4574 1.66406 14.4738 1.66406 12.0146V9.06369C1.66406 6.60456 2.64771 5.62091 5.10684 5.62091H8.0578C10.5169 5.62091 11.5006 6.60456 11.5006 9.06369Z" stroke="current" stroke-width="1.40522" stroke-linecap="round" stroke-linejoin="round"/>
<path d="M15.7154 4.84799V7.79895C15.7154 10.2581 14.7318 11.2417 12.2726 11.2417H11.4998V9.06364C11.4998 6.60451 10.5161 5.62086 8.05699 5.62086H5.87891V4.84799C5.87891 2.38886 6.86256 1.40521 9.32169 1.40521H12.2726C14.7318 1.40521 15.7154 2.38886 15.7154 4.84799Z" stroke="current" stroke-width="1.40522" stroke-linecap="round" stroke-linejoin="round"/>
</g>
<defs>
<clipPath id="clip0_1_22330">
<rect width="16.8626" height="16.8626" transform="translate(0.257812)"/>
</clipPath>
</defs>
</svg>
