<svg width="14" height="14" viewBox="0 0 14 14" fill="none" xmlns="http://www.w3.org/2000/svg">
<path d="M5.26297 11.5208C4.7613 11.5208 4.25963 11.2817 3.7813 10.8034L1.44214 8.46418C0.969636 7.99168 0.730469 7.49583 0.730469 6.98249C0.730469 6.47499 0.969636 5.97334 1.44214 5.50084L5.3388 1.60418C5.42047 1.52251 5.5313 1.47586 5.64797 1.47586C5.76464 1.47586 5.87547 1.52251 5.95713 1.60418L10.2446 5.89166C10.4313 6.07833 10.5363 6.32334 10.5363 6.59167C10.5363 6.85417 10.4313 7.10501 10.2446 7.29168L6.73297 10.8034C6.2663 11.2817 5.76464 11.5208 5.26297 11.5208ZM5.6538 2.5375L2.0663 6.12501C1.76297 6.42834 1.6113 6.72 1.6113 6.98833C1.6113 7.25667 1.76297 7.54832 2.0663 7.84581L4.40547 10.185C5.01797 10.7975 5.5138 10.7975 6.1263 10.185L9.63797 6.67334C9.67297 6.63834 9.6788 6.55083 9.63797 6.50999L5.6538 2.5375Z" fill="current"/>
<path d="M5.6513 2.35659C5.54047 2.35659 5.42964 2.31577 5.34214 2.22827L4.56047 1.44659C4.3913 1.27743 4.3913 0.997427 4.56047 0.82826C4.72964 0.659094 5.00964 0.659094 5.1788 0.82826L5.96047 1.60994C6.12964 1.77911 6.12964 2.05911 5.96047 2.22827C5.87297 2.31577 5.76213 2.35659 5.6513 2.35659Z" fill="current"/>
<path d="M1.20755 7.39082C0.974216 7.39082 0.781716 7.20997 0.77005 6.9708C0.758383 6.73163 0.94505 6.52745 1.19005 6.51578L10.0159 6.1308C10.255 6.11913 10.4592 6.30578 10.4709 6.55078C10.4825 6.78995 10.2959 6.99413 10.0509 7.0058L1.22505 7.39082C1.21922 7.39082 1.21338 7.39082 1.20755 7.39082Z" fill="current"/>
<path d="M9.33333 13.2708H1.75C1.51083 13.2708 1.3125 13.0725 1.3125 12.8333C1.3125 12.5942 1.51083 12.3958 1.75 12.3958H9.33333C9.5725 12.3958 9.77083 12.5942 9.77083 12.8333C9.77083 13.0725 9.5725 13.2708 9.33333 13.2708Z" fill="current"/>
<path d="M10.9971 12.1508C10.163 12.1508 9.48047 11.4683 9.48047 10.6341C9.48047 9.7883 10.478 8.6683 10.6763 8.44663C10.8396 8.2658 11.1546 8.2658 11.318 8.44663C11.5163 8.66246 12.5138 9.78246 12.5138 10.6283C12.5138 11.4741 11.8313 12.1508 10.9971 12.1508ZM10.9971 9.4325C10.6763 9.8525 10.3555 10.3658 10.3555 10.64C10.3555 10.9958 10.6413 11.2816 10.9971 11.2816C11.353 11.2816 11.6388 10.9958 11.6388 10.64C11.6388 10.36 11.318 9.84667 10.9971 9.4325Z" fill="current"/>
</svg>
