<svg width="21" height="21" viewBox="0 0 21 21" fill="none" xmlns="http://www.w3.org/2000/svg">
<path d="M10.4727 19.9062C5.29266 19.9062 1.06641 15.6887 1.06641 10.5C1.06641 5.31125 5.29266 1.09375 10.4727 1.09375C15.6527 1.09375 19.8789 5.31125 19.8789 10.5C19.8789 15.6887 15.6614 19.9062 10.4727 19.9062ZM10.4727 2.40625C6.01016 2.40625 2.37891 6.0375 2.37891 10.5C2.37891 14.9625 6.01016 18.5938 10.4727 18.5938C14.9352 18.5938 18.5664 14.9625 18.5664 10.5C18.5664 6.0375 14.9352 2.40625 10.4727 2.40625Z" fill="white"/>
<path d="M10.4994 16.8437C8.61816 16.8437 6.85066 15.925 5.77441 14.3762C5.56441 14.0787 5.64316 13.6675 5.94066 13.4662C6.23816 13.2562 6.64941 13.335 6.85066 13.6325C7.68191 14.8225 9.04691 15.54 10.4994 15.54C11.9519 15.54 13.3169 14.8312 14.1482 13.6325C14.3582 13.335 14.7607 13.265 15.0582 13.4662C15.3557 13.6762 15.4257 14.0787 15.2244 14.3762C14.1482 15.925 12.3807 16.8437 10.4994 16.8437Z" fill="white"/>
</svg>
