<svg width="20" height="20" viewBox="0 0 20 20" fill="none" xmlns="http://www.w3.org/2000/svg">
<path d="M4.29297 18.9583C3.9513 18.9583 3.66797 18.675 3.66797 18.3333V1.66663C3.66797 1.32496 3.9513 1.04163 4.29297 1.04163C4.63464 1.04163 4.91797 1.32496 4.91797 1.66663V18.3333C4.91797 18.675 4.63464 18.9583 4.29297 18.9583Z" fill="white"/>
<path d="M13.6263 13.9584H4.29297C3.9513 13.9584 3.66797 13.675 3.66797 13.3334C3.66797 12.9917 3.9513 12.7084 4.29297 12.7084H13.6263C14.5346 12.7084 14.9596 12.4667 15.043 12.2584C15.1263 12.05 15.0013 11.5834 14.3513 10.9417L13.3513 9.94171C12.943 9.58337 12.693 9.04171 12.668 8.44171C12.643 7.80837 12.893 7.18337 13.3513 6.72504L14.3513 5.72504C14.968 5.10837 15.1596 4.60837 15.068 4.39171C14.9763 4.17504 14.5013 3.95837 13.6263 3.95837H4.29297C3.94297 3.95837 3.66797 3.67504 3.66797 3.33337C3.66797 2.99171 3.9513 2.70837 4.29297 2.70837H13.6263C15.4513 2.70837 16.0346 3.46671 16.2263 3.91671C16.4096 4.36671 16.5346 5.31671 15.2346 6.61671L14.2346 7.61671C14.0263 7.82504 13.9096 8.11671 13.918 8.40837C13.9263 8.65837 14.0263 8.88337 14.2013 9.04171L15.2346 10.0667C16.5096 11.3417 16.3846 12.2917 16.2013 12.75C16.0096 13.1917 15.418 13.9584 13.6263 13.9584Z" fill="white"/>
</svg>
