<svg width="14" height="14" viewBox="0 0 14 14" fill="none" xmlns="http://www.w3.org/2000/svg">
<path d="M10.8552 3.89665C10.616 3.89665 10.4177 3.69831 10.4177 3.45915V2.57831C10.4177 2.22831 10.1318 1.93665 9.77599 1.93665H2.23349C1.88349 1.93665 1.59182 2.22248 1.59182 2.57831V3.45915C1.59182 3.69831 1.39349 3.89665 1.15432 3.89665C0.915156 3.89665 0.722656 3.69831 0.722656 3.45915V2.57831C0.722656 1.74415 1.40516 1.06165 2.23932 1.06165H9.77599C10.6102 1.06165 11.2927 1.73831 11.2927 2.57831V3.45915C11.2927 3.69831 11.0943 3.89665 10.8552 3.89665Z" fill="#292D32"/>
<path d="M6.00781 10.9958C5.76865 10.9958 5.57031 10.7975 5.57031 10.5583V1.93665C5.57031 1.69748 5.76865 1.49915 6.00781 1.49915C6.24698 1.49915 6.44531 1.69748 6.44531 1.93665V10.5583C6.44531 10.8033 6.24698 10.9958 6.00781 10.9958Z" fill="#292D32"/>
<path d="M7.27844 10.9958H4.02344C3.78427 10.9958 3.58594 10.7975 3.58594 10.5583C3.58594 10.3192 3.78427 10.1208 4.02344 10.1208H7.27844C7.5176 10.1208 7.71594 10.3192 7.71594 10.5583C7.71594 10.7975 7.5176 10.9958 7.27844 10.9958Z" fill="#292D32"/>
<path d="M12.8396 7.69998C12.6005 7.69998 12.4021 7.50165 12.4021 7.26248V6.79582C12.4021 6.61498 12.2505 6.46332 12.0696 6.46332H7.98047C7.7413 6.46332 7.54297 6.26498 7.54297 6.02582C7.54297 5.78665 7.7413 5.58832 7.98047 5.58832H12.0696C12.7346 5.58832 13.2771 6.13082 13.2771 6.79582V7.26248C13.2771 7.50748 13.0846 7.69998 12.8396 7.69998Z" fill="#292D32"/>
<path d="M9.37891 12.9383C9.13974 12.9383 8.94141 12.74 8.94141 12.5008V6.34082C8.94141 6.10165 9.13974 5.90332 9.37891 5.90332C9.61807 5.90332 9.81641 6.10165 9.81641 6.34082V12.5008C9.81641 12.74 9.61807 12.9383 9.37891 12.9383Z" fill="#292D32"/>
<path d="M10.6295 12.9384H8.13281C7.89365 12.9384 7.69531 12.74 7.69531 12.5009C7.69531 12.2617 7.89365 12.0634 8.13281 12.0634H10.6295C10.8686 12.0634 11.067 12.2617 11.067 12.5009C11.067 12.74 10.8686 12.9384 10.6295 12.9384Z" fill="#292D32"/>
</svg>
