<svg width="14" height="14" viewBox="0 0 14 14" fill="none" xmlns="http://www.w3.org/2000/svg">
<path d="M12.4436 4.62C12.2044 4.62 12.0061 4.42166 12.0061 4.1825V3.12083C12.0061 2.695 11.6619 2.35083 11.2361 2.35083H2.76609C2.34026 2.35083 1.99609 2.695 1.99609 3.12083V4.18833C1.99609 4.4275 1.79776 4.62583 1.55859 4.62583C1.31943 4.62583 1.12109 4.4275 1.12109 4.1825V3.12083C1.12109 2.21083 1.86193 1.47583 2.76609 1.47583H11.2361C12.1461 1.47583 12.8811 2.21666 12.8811 3.12083V4.18833C12.8811 4.4275 12.6886 4.62 12.4436 4.62Z" fill="#292D32"/>
<path d="M7 12.5242C6.76083 12.5242 6.5625 12.3259 6.5625 12.0867V2.39752C6.5625 2.15836 6.76083 1.96002 7 1.96002C7.23917 1.96002 7.4375 2.15836 7.4375 2.39752V12.0867C7.4375 12.3317 7.23917 12.5242 7 12.5242Z" fill="#292D32"/>
<path d="M9.29979 12.5242H4.70313C4.46396 12.5242 4.26562 12.3258 4.26562 12.0867C4.26562 11.8475 4.46396 11.6492 4.70313 11.6492H9.29979C9.53896 11.6492 9.73729 11.8475 9.73729 12.0867C9.73729 12.3258 9.53896 12.5242 9.29979 12.5242Z" fill="#292D32"/>
</svg>
