<svg width="13" height="13" viewBox="0 0 13 13" fill="none" xmlns="http://www.w3.org/2000/svg">
<path d="M9.122 2.11535C10.2423 2.11535 11.1431 2.99058 11.1431 4.06651C11.1431 5.12013 10.2769 5.97864 9.19707 6.01767C9.14719 6.01209 9.09681 6.01209 9.04693 6.01767M10.2365 11.0349C10.6523 10.9513 11.0449 10.7896 11.3683 10.5499C12.2692 9.89768 12.2692 8.82176 11.3683 8.16951C11.0507 7.93537 10.6638 7.77928 10.2538 7.69009M4.9354 5.94519C4.87766 5.93962 4.80836 5.93962 4.74484 5.94519C4.08203 5.92347 3.45401 5.65354 2.99376 5.19258C2.53352 4.73162 2.2772 4.11582 2.27908 3.47559C2.27908 2.10978 3.42245 1.0004 4.84301 1.0004C5.52224 0.988575 6.17852 1.23771 6.66747 1.69302C7.15642 2.14832 7.438 2.77248 7.45025 3.4282C7.4625 4.08392 7.20443 4.71748 6.7328 5.18951C6.26118 5.66154 5.61463 5.93337 4.9354 5.94519ZM2.04809 8.00227C0.650636 8.90538 0.650636 10.3771 2.04809 11.2746C3.63611 12.3004 6.24047 12.3004 7.82849 11.2746C9.22594 10.3715 9.22594 8.8998 7.82849 8.00227C6.24624 6.9821 3.64189 6.9821 2.04809 8.00227Z" stroke="white" stroke-width="1.3125" stroke-linecap="round" stroke-linejoin="round"/>
</svg>
