<svg width="20" height="20" viewBox="0 0 20 20" fill="none" xmlns="http://www.w3.org/2000/svg">
<path d="M9.9987 10.2083C9.63203 10.2083 9.26536 10.1166 8.93203 9.94163L3.50703 7.01663C3.01536 6.74996 2.70703 6.22496 2.70703 5.64163C2.70703 5.05829 3.01536 4.53329 3.50703 4.26663L8.93203 1.34163C9.5987 0.983293 10.3987 0.983293 11.057 1.34163L16.482 4.26663C16.9737 4.53329 17.282 5.05829 17.282 5.64163C17.282 6.22496 16.9737 6.74996 16.482 7.01663L11.057 9.94163C10.732 10.125 10.3654 10.2083 9.9987 10.2083ZM9.9987 2.31663C9.84036 2.31663 9.6737 2.35829 9.5237 2.44163L4.10703 5.35829C3.96536 5.43329 3.95703 5.59163 3.95703 5.64163C3.95703 5.69163 3.96536 5.84996 4.10703 5.91663L9.53203 8.84163C9.83203 8.99996 10.1737 8.99996 10.4737 8.84163L15.8987 5.91663C16.032 5.84163 16.0487 5.68329 16.0487 5.64163C16.0487 5.59163 16.0404 5.43329 15.8987 5.36663L10.4737 2.44163C10.3237 2.35829 10.157 2.31663 9.9987 2.31663Z" fill="white"/>
<path d="M8.1513 18.9333C7.91797 18.9333 7.6763 18.875 7.45964 18.7666L2.40964 16.25C1.56797 15.825 1.04297 14.975 1.04297 14.0333V9.26664C1.04297 8.72497 1.31797 8.2333 1.7763 7.94997C2.24297 7.66664 2.8013 7.64164 3.28464 7.8833L8.33464 10.4C9.1763 10.825 9.7013 11.6666 9.7013 12.6166V17.3833C9.7013 17.925 9.4263 18.4166 8.96797 18.7C8.71797 18.8583 8.43464 18.9333 8.1513 18.9333ZM2.59297 8.96664C2.5263 8.96664 2.46797 8.99164 2.43464 9.0083C2.38464 9.04164 2.29297 9.11664 2.29297 9.26664V14.0333C2.29297 14.5 2.5513 14.925 2.96797 15.1333L8.00964 17.6583C8.14297 17.725 8.2513 17.675 8.3013 17.65C8.3513 17.6166 8.44297 17.5416 8.44297 17.3916V12.625C8.44297 12.1583 8.18464 11.7333 7.76797 11.525L2.7263 8.99997C2.6763 8.97497 2.63464 8.96664 2.59297 8.96664Z" fill="white"/>
<path d="M11.8508 18.9333C11.5674 18.9333 11.2841 18.8583 11.0341 18.7C10.5758 18.4167 10.3008 17.925 10.3008 17.3833V12.6167C10.3008 11.675 10.8258 10.825 11.6674 10.4L16.7091 7.875C17.1924 7.63334 17.7591 7.65834 18.2175 7.94167C18.6758 8.225 18.9508 8.71667 18.9508 9.25834V14.025C18.9508 14.9667 18.4258 15.8167 17.5841 16.2417L12.5424 18.7667C12.3258 18.8833 12.0841 18.9333 11.8508 18.9333ZM17.4091 8.96667C17.3674 8.96667 17.3258 8.975 17.2758 9L12.2341 11.525C11.8174 11.7333 11.5591 12.15 11.5591 12.625V17.3917C11.5591 17.5417 11.6508 17.6167 11.7008 17.65C11.7508 17.6833 11.8591 17.725 11.9924 17.6583L17.0341 15.1333C17.4508 14.925 17.7091 14.5 17.7091 14.0333V9.26667C17.7091 9.11667 17.6174 9.04167 17.5674 9.00834C17.5341 8.99167 17.4758 8.96667 17.4091 8.96667Z" fill="white"/>
</svg>
