<svg width="20" height="19" viewBox="0 0 20 19" fill="none" xmlns="http://www.w3.org/2000/svg">
<path d="M10.125 15.3188C9.78333 15.3188 9.5 15.0496 9.5 14.725V13.0625C9.5 12.7379 9.78333 12.4688 10.125 12.4688C10.4667 12.4688 10.75 12.7379 10.75 13.0625V14.725C10.75 15.0496 10.4667 15.3188 10.125 15.3188Z" fill="white"/>
<path d="M14.9154 18.0104H5.33203V16.625C5.33203 15.4216 6.35703 14.4479 7.6237 14.4479H12.6237C13.8904 14.4479 14.9154 15.4216 14.9154 16.625V18.0104ZM6.58203 16.8229H13.6654V16.625C13.6654 16.0787 13.1987 15.6354 12.6237 15.6354H7.6237C7.0487 15.6354 6.58203 16.0787 6.58203 16.625V16.8229Z" fill="white"/>
<path d="M15.125 18.0104H5.125C4.78333 18.0104 4.5 17.7412 4.5 17.4166C4.5 17.092 4.78333 16.8229 5.125 16.8229H15.125C15.4667 16.8229 15.75 17.092 15.75 17.4166C15.75 17.7412 15.4667 18.0104 15.125 18.0104Z" fill="white"/>
<path d="M15.3596 9.84836C15.1846 9.84836 15.0096 9.77711 14.8846 9.64253C14.7262 9.46836 14.6846 9.22294 14.7846 9.01711C15.0679 8.39961 15.2096 7.74253 15.2096 7.05378V4.67878C15.2096 4.40169 15.1596 4.13253 15.0596 3.84753C15.0512 3.82378 15.0429 3.79211 15.0346 3.76044C15.0096 3.64169 15.0012 3.52294 15.0012 3.41211C15.0012 3.08753 15.2846 2.81836 15.6262 2.81836H16.1262C17.6179 2.81836 18.8346 4.00586 18.8346 5.47044C18.8346 6.68169 18.3096 7.87711 17.4012 8.74003C17.3846 8.75586 17.3346 8.79544 17.3262 8.80336C16.8346 9.19128 16.2762 9.62669 15.5262 9.82461C15.4679 9.84044 15.4179 9.84836 15.3596 9.84836ZM16.4012 4.02961C16.4429 4.24336 16.4596 4.46503 16.4596 4.67878V7.05378C16.4596 7.37836 16.4346 7.68711 16.3846 8.00378C16.4346 7.96419 16.4762 7.93253 16.5262 7.89294C17.1929 7.25961 17.5846 6.37294 17.5846 5.47044C17.5846 4.75794 17.0762 4.15628 16.4012 4.02961Z" fill="white"/>
<path d="M4.6513 9.81664C4.58464 9.81664 4.5263 9.80873 4.45964 9.78498C3.7763 9.57914 3.13464 9.19914 2.6013 8.69247C1.64297 7.68706 1.16797 6.58664 1.16797 5.42289C1.16797 3.98206 2.35964 2.84998 3.8763 2.84998H4.41797C4.6263 2.84998 4.8263 2.95289 4.94297 3.11914C5.05964 3.28539 5.0763 3.49914 4.99297 3.68123C4.85964 3.96623 4.79297 4.29081 4.79297 4.63123V7.00623C4.79297 7.68706 4.93464 8.35206 5.2263 8.98539C5.3263 9.19914 5.2763 9.44456 5.11797 9.61872C4.99297 9.74539 4.8263 9.81664 4.6513 9.81664ZM3.58464 4.06123C2.90964 4.18789 2.41797 4.74206 2.41797 5.42289C2.41797 6.28581 2.78464 7.11706 3.50964 7.87706C3.54297 7.91664 3.58464 7.94831 3.6263 7.97998C3.56797 7.65539 3.54297 7.33081 3.54297 7.00623V4.63123C3.54297 4.44123 3.55964 4.25123 3.58464 4.06123Z" fill="white"/>
<path d="M10.0013 13.2605C6.44297 13.2605 3.54297 10.5055 3.54297 7.12504V4.75004C3.54297 2.67587 5.31797 0.989624 7.5013 0.989624H12.5013C14.6846 0.989624 16.4596 2.67587 16.4596 4.75004V7.12504C16.4596 10.5055 13.5596 13.2605 10.0013 13.2605ZM7.5013 2.17712C6.00964 2.17712 4.79297 3.33296 4.79297 4.75004V7.12504C4.79297 9.85629 7.1263 12.073 10.0013 12.073C12.8763 12.073 15.2096 9.85629 15.2096 7.12504V4.75004C15.2096 3.33296 13.993 2.17712 12.5013 2.17712H7.5013Z" fill="white"/>
</svg>
