<svg xmlns="http://www.w3.org/2000/svg" width="37.276" height="24.586" viewBox="0 0 37.276 24.586"><g transform="translate(0.482 0.503)"><path d="M5.4,107.431c-1.944,1.3-6.326,4.04-5.221,7.012,1.22,3.277,5.64,5.907,8.384,7.774,1.563,1.067,6.974,4.916,8.842,2.591a.5.5,0,0,0,.114-.457c.8-1.563.3-4.04.3-5.717v-.915c5.678.038,11.776,1.906,17.264.267a.722.722,0,0,0,.534-.61c.038,0,.076-.038.114-.038.838-.5.5-2.439.534-3.239A21.545,21.545,0,0,0,36,109.679a.685.685,0,0,0-.572-.572.754.754,0,0,0-.533-.191c-5.793.076-11.471.762-17.264.419a33.4,33.4,0,0,1,.381-5.526.912.912,0,0,0-.114-.572.86.86,0,0,0-.877-1.3C12.943,102.438,8.751,105.182,5.4,107.431Z" transform="translate(0 -101.933)" fill="#aed8cf" stroke="#7fc7b8" stroke-width="1"/></g></svg>