<svg width="20" height="20" viewBox="0 0 20 20" fill="none" xmlns="http://www.w3.org/2000/svg">
<path d="M13.917 16.4417H6.08369C5.46702 16.4417 4.84202 16 4.63369 15.425L1.18369 5.76669C0.758686 4.55002 1.06702 3.99169 1.40035 3.74169C1.73369 3.49169 2.35869 3.34169 3.40869 4.09169L6.65869 6.41669C6.75869 6.47502 6.85035 6.50002 6.91702 6.48336C6.99202 6.45836 7.05035 6.39169 7.09202 6.27502L8.55869 2.36669C9.00035 1.20002 9.65035 1.02502 10.0004 1.02502C10.3504 1.02502 11.0004 1.20002 11.442 2.36669L12.9087 6.27502C12.9504 6.38336 13.0087 6.45836 13.0837 6.48336C13.1587 6.50836 13.2504 6.48336 13.342 6.40836L16.392 4.23336C17.5087 3.43336 18.1587 3.59169 18.517 3.85002C18.867 4.11669 19.192 4.70836 18.7337 6.00002L15.367 15.425C15.1587 16 14.5337 16.4417 13.917 16.4417ZM2.23369 4.84169C2.25035 4.95836 2.28369 5.12502 2.36702 5.34169L5.81702 15C5.85035 15.0834 6.00035 15.1917 6.08369 15.1917H13.917C14.0087 15.1917 14.1587 15.0834 14.1837 15L17.5504 5.58336C17.667 5.26669 17.7004 5.05002 17.7087 4.92502C17.5837 4.96669 17.392 5.05836 17.117 5.25836L14.067 7.43336C13.6504 7.72502 13.1587 7.81669 12.717 7.68336C12.2754 7.55002 11.917 7.20002 11.7337 6.72502L10.267 2.81669C10.1587 2.52502 10.0587 2.38336 10.0004 2.31669C9.94202 2.38336 9.84202 2.52502 9.73369 2.80836L8.26702 6.71669C8.09202 7.19169 7.73369 7.54169 7.28369 7.67502C6.84202 7.80836 6.34202 7.71669 5.93369 7.42502L2.68369 5.10002C2.49202 4.96669 2.34202 4.88336 2.23369 4.84169Z" fill="white"/>
<path d="M14.5846 18.9584H5.41797C5.0763 18.9584 4.79297 18.675 4.79297 18.3334C4.79297 17.9917 5.0763 17.7084 5.41797 17.7084H14.5846C14.9263 17.7084 15.2096 17.9917 15.2096 18.3334C15.2096 18.675 14.9263 18.9584 14.5846 18.9584Z" fill="white"/>
<path d="M12.0846 12.2916H7.91797C7.5763 12.2916 7.29297 12.0083 7.29297 11.6666C7.29297 11.325 7.5763 11.0416 7.91797 11.0416H12.0846C12.4263 11.0416 12.7096 11.325 12.7096 11.6666C12.7096 12.0083 12.4263 12.2916 12.0846 12.2916Z" fill="white"/>
</svg>
