<svg width="20" height="20" viewBox="0 0 20 20" fill="none" xmlns="http://www.w3.org/2000/svg">
<path d="M10.0013 19.0083C9.4263 19.0083 8.88464 18.7166 8.5013 18.2083L7.2513 16.5416C7.2263 16.5083 7.1263 16.4666 7.08464 16.4583H6.66797C3.19297 16.4583 1.04297 15.5166 1.04297 10.8333V6.66663C1.04297 2.98329 2.98464 1.04163 6.66797 1.04163H13.3346C17.018 1.04163 18.9596 2.98329 18.9596 6.66663V10.8333C18.9596 14.5166 17.018 16.4583 13.3346 16.4583H12.918C12.8513 16.4583 12.793 16.4916 12.7513 16.5416L11.5013 18.2083C11.118 18.7166 10.5763 19.0083 10.0013 19.0083ZM6.66797 2.29163C3.68464 2.29163 2.29297 3.68329 2.29297 6.66663V10.8333C2.29297 14.6 3.58464 15.2083 6.66797 15.2083H7.08464C7.50964 15.2083 7.99297 15.45 8.2513 15.7916L9.5013 17.4583C9.79297 17.8416 10.2096 17.8416 10.5013 17.4583L11.7513 15.7916C12.0263 15.425 12.4596 15.2083 12.918 15.2083H13.3346C16.318 15.2083 17.7096 13.8166 17.7096 10.8333V6.66663C17.7096 3.68329 16.318 2.29163 13.3346 2.29163H6.66797Z" fill="white"/>
<path d="M10.0013 10C9.53464 10 9.16797 9.62504 9.16797 9.16671C9.16797 8.70837 9.54297 8.33337 10.0013 8.33337C10.4596 8.33337 10.8346 8.70837 10.8346 9.16671C10.8346 9.62504 10.468 10 10.0013 10Z" fill="white"/>
<path d="M13.3333 10C12.8667 10 12.5 9.62504 12.5 9.16671C12.5 8.70837 12.875 8.33337 13.3333 8.33337C13.7917 8.33337 14.1667 8.70837 14.1667 9.16671C14.1667 9.62504 13.8 10 13.3333 10Z" fill="white"/>
<path d="M6.66536 10C6.1987 10 5.83203 9.62504 5.83203 9.16671C5.83203 8.70837 6.20703 8.33337 6.66536 8.33337C7.1237 8.33337 7.4987 8.70837 7.4987 9.16671C7.4987 9.62504 7.13203 10 6.66536 10Z" fill="white"/>
</svg>
