<svg width="22" height="22" viewBox="0 0 22 22" fill="none" xmlns="http://www.w3.org/2000/svg">
<path d="M8.76367 16.6515C8.76367 17.6155 9.55244 18.4043 10.5165 18.4043C11.4805 18.4043 12.2693 17.6155 12.2693 16.6515C12.2693 15.6874 11.4805 14.8987 10.5165 14.8987C9.55244 14.8987 8.76367 15.6874 8.76367 16.6515ZM8.76367 4.38182C8.76367 5.34587 9.55244 6.13463 10.5165 6.13463C11.4805 6.13463 12.2693 5.34587 12.2693 4.38182C12.2693 3.41778 11.4805 2.62902 10.5165 2.62902C9.55244 2.62902 8.76367 3.41778 8.76367 4.38182ZM8.76367 10.5167C8.76367 11.4807 9.55244 12.2695 10.5165 12.2695C11.4805 12.2695 12.2693 11.4807 12.2693 10.5167C12.2693 9.55261 11.4805 8.76385 10.5165 8.76385C9.55244 8.76385 8.76367 9.55261 8.76367 10.5167Z" stroke="black" stroke-width="1.31461"/>
</svg>
