<svg width="20" height="19" viewBox="0 0 20 19" fill="none" xmlns="http://www.w3.org/2000/svg">
<path d="M17.5013 16.0312H9.16797C8.8263 16.0312 8.54297 15.7621 8.54297 15.4375C8.54297 15.1129 8.8263 14.8438 9.16797 14.8438H17.5013C17.843 14.8438 18.1263 15.1129 18.1263 15.4375C18.1263 15.7621 17.843 16.0312 17.5013 16.0312Z" fill="white"/>
<path d="M17.5013 10.4896H9.16797C8.8263 10.4896 8.54297 10.2205 8.54297 9.89587C8.54297 9.57129 8.8263 9.30212 9.16797 9.30212H17.5013C17.843 9.30212 18.1263 9.57129 18.1263 9.89587C18.1263 10.2205 17.843 10.4896 17.5013 10.4896Z" fill="white"/>
<path d="M17.5013 4.94788H9.16797C8.8263 4.94788 8.54297 4.67871 8.54297 4.35413C8.54297 4.02954 8.8263 3.76038 9.16797 3.76038H17.5013C17.843 3.76038 18.1263 4.02954 18.1263 4.35413C18.1263 4.67871 17.843 4.94788 17.5013 4.94788Z" fill="white"/>
<path d="M3.33516 5.7396C3.17682 5.7396 3.01849 5.68418 2.89349 5.56543L2.06016 4.77376C1.81849 4.54418 1.81849 4.16418 2.06016 3.9346C2.30182 3.70501 2.70182 3.70501 2.94349 3.9346L3.33516 4.30668L5.39349 2.35126C5.63516 2.12168 6.03516 2.12168 6.27682 2.35126C6.51849 2.58085 6.51849 2.96085 6.27682 3.19043L3.77682 5.56543C3.65182 5.68418 3.49349 5.7396 3.33516 5.7396Z" fill="white"/>
<path d="M3.33516 11.2812C3.17682 11.2812 3.01849 11.2258 2.89349 11.1071L2.06016 10.3154C1.81849 10.0858 1.81849 9.70581 2.06016 9.47622C2.30182 9.24664 2.70182 9.24664 2.94349 9.47622L3.33516 9.84831L5.39349 7.89289C5.63516 7.66331 6.03516 7.66331 6.27682 7.89289C6.51849 8.12247 6.51849 8.50247 6.27682 8.73206L3.77682 11.1071C3.65182 11.2258 3.49349 11.2812 3.33516 11.2812Z" fill="white"/>
<path d="M3.33516 16.823C3.17682 16.823 3.01849 16.7676 2.89349 16.6488L2.06016 15.8571C1.81849 15.6276 1.81849 15.2476 2.06016 15.018C2.30182 14.7884 2.70182 14.7884 2.94349 15.018L3.33516 15.3901L5.39349 13.4346C5.63516 13.2051 6.03516 13.2051 6.27682 13.4346C6.51849 13.6642 6.51849 14.0442 6.27682 14.2738L3.77682 16.6488C3.65182 16.7676 3.49349 16.823 3.33516 16.823Z" fill="white"/>
</svg>
