<svg width="21" height="21" viewBox="0 0 21 21" fill="none" xmlns="http://www.w3.org/2000/svg">
<path d="M7 5.03125C6.64125 5.03125 6.34375 4.73375 6.34375 4.375V1.75C6.34375 1.39125 6.64125 1.09375 7 1.09375C7.35875 1.09375 7.65625 1.39125 7.65625 1.75V4.375C7.65625 4.73375 7.35875 5.03125 7 5.03125Z" fill="white"/>
<path d="M14 5.03125C13.6413 5.03125 13.3438 4.73375 13.3438 4.375V1.75C13.3438 1.39125 13.6413 1.09375 14 1.09375C14.3587 1.09375 14.6562 1.39125 14.6562 1.75V4.375C14.6562 4.73375 14.3587 5.03125 14 5.03125Z" fill="white"/>
<path d="M13.125 12.0312H6.125C5.76625 12.0312 5.46875 11.7337 5.46875 11.375C5.46875 11.0163 5.76625 10.7188 6.125 10.7188H13.125C13.4838 10.7188 13.7812 11.0163 13.7812 11.375C13.7812 11.7337 13.4838 12.0312 13.125 12.0312Z" fill="white"/>
<path d="M10.5 15.5312H6.125C5.76625 15.5312 5.46875 15.2337 5.46875 14.875C5.46875 14.5163 5.76625 14.2188 6.125 14.2188H10.5C10.8587 14.2188 11.1562 14.5163 11.1562 14.875C11.1562 15.2337 10.8587 15.5312 10.5 15.5312Z" fill="white"/>
<path d="M13.125 19.9062H7.875C2.9575 19.9062 1.96875 17.5875 1.96875 13.8425V8.44375C1.96875 4.29625 3.36875 2.6075 6.965 2.40625H14C14.0087 2.40625 14.0263 2.40625 14.035 2.40625C17.6313 2.6075 19.0312 4.29625 19.0312 8.44375V13.8425C19.0312 17.5875 18.0425 19.9062 13.125 19.9062ZM7 3.71875C4.55 3.85875 3.28125 4.62875 3.28125 8.44375V13.8425C3.28125 17.1937 3.92 18.5938 7.875 18.5938H13.125C17.08 18.5938 17.7188 17.1937 17.7188 13.8425V8.44375C17.7188 4.6375 16.4587 3.85875 13.9825 3.71875H7Z" fill="white"/>
</svg>
