<svg width="21" height="21" viewBox="0 0 21 21" fill="none" xmlns="http://www.w3.org/2000/svg">
<path d="M9.12471 16.0737C8.99346 16.0737 8.87096 16.0387 8.75721 15.96C8.57346 15.8375 8.46846 15.6362 8.46846 15.4175C8.46846 15.2862 8.45971 15.1462 8.44221 15.0062C8.36346 14.385 8.08346 13.8425 7.61096 13.37C7.13846 12.8975 6.55221 12.6 5.92221 12.5212C5.81721 12.5125 5.66846 12.5037 5.52846 12.5125C5.30096 12.53 5.09096 12.4337 4.95971 12.25C4.82846 12.075 4.79346 11.8387 4.86346 11.6287C4.99471 11.27 5.18721 10.9462 5.41471 10.6837L6.76221 8.98624C9.08096 6.08999 13.7797 2.60749 17.2185 1.22499C17.9447 0.944993 18.7235 1.11124 19.2572 1.63624C19.8085 2.18749 19.9747 2.97499 19.686 3.69249C18.3035 7.13999 14.8297 11.83 11.9335 14.1487L10.2097 15.5312C9.88596 15.7675 9.62346 15.9162 9.36096 16.0212C9.29096 16.0562 9.20346 16.0737 9.12471 16.0737ZM6.59596 11.3225C7.33096 11.515 7.98721 11.9 8.53846 12.4512C9.08971 12.9937 9.45721 13.6237 9.64096 14.3237L11.1197 13.1337C13.8672 10.9375 17.166 6.48374 18.4697 3.21124C18.601 2.88749 18.4172 2.65999 18.3297 2.58124C18.2685 2.51999 18.041 2.32749 17.691 2.45874C14.436 3.77124 9.98221 7.06999 7.77721 9.81749L6.59596 11.3225Z" fill="white"/>
<path d="M3.57092 19.9062C2.91467 19.9062 2.28467 19.6437 1.81217 19.1712C1.26967 18.6287 1.00717 17.8762 1.09467 17.1062L1.33092 14.9537C1.55842 12.8187 3.30842 11.235 5.47842 11.1912C5.64467 11.1825 5.86342 11.1912 6.06467 11.2087C7.01842 11.3312 7.86717 11.76 8.54967 12.4425C9.22342 13.1162 9.62592 13.9212 9.74842 14.8225C9.77467 15.015 9.79217 15.225 9.79217 15.4087C9.79217 16.5637 9.34592 17.64 8.54092 18.4537C7.86717 19.1187 7.00092 19.53 6.02092 19.6525L3.85967 19.8887C3.76342 19.8975 3.66717 19.9062 3.57092 19.9062ZM5.64467 12.5125C5.60967 12.5125 5.56592 12.5125 5.53092 12.5125C4.20967 12.5387 2.80967 13.44 2.63467 15.1025L2.39842 17.255C2.35467 17.6225 2.48592 17.9812 2.73967 18.2437C2.99342 18.4975 3.35217 18.6287 3.71092 18.585L5.86342 18.3487C6.53717 18.2612 7.14092 17.9812 7.59592 17.5262C8.15592 16.9662 8.47092 16.2137 8.47092 15.4087C8.47092 15.2775 8.46217 15.1375 8.44467 14.9975C8.36592 14.3762 8.08592 13.8337 7.61342 13.3612C7.14092 12.8887 6.55467 12.5912 5.92467 12.5125C5.85467 12.5125 5.74967 12.5125 5.64467 12.5125Z" fill="white"/>
<path d="M12.4591 13.3175C12.1003 13.3175 11.8028 13.02 11.8028 12.6613C11.8028 10.7363 10.2366 9.17877 8.32031 9.17877C7.96156 9.17877 7.66406 8.88127 7.66406 8.52252C7.66406 8.16377 7.95281 7.86627 8.31156 7.86627C10.9541 7.86627 13.1066 10.0188 13.1066 12.6613C13.1153 13.0288 12.8178 13.3175 12.4591 13.3175Z" fill="white"/>
</svg>
