<svg width="16" height="18" viewBox="0 0 16 18" fill="none" xmlns="http://www.w3.org/2000/svg">
<path d="M6.78361 17.2833C6.59194 17.2833 6.4086 17.2 6.2836 17.0333L5.44193 15.9083C5.26693 15.675 5.03362 15.5416 4.78362 15.5249C4.52528 15.5083 4.28359 15.625 4.08359 15.8333C2.87526 17.125 1.9586 17.0166 1.51694 16.85C1.06694 16.675 0.308594 16.0999 0.308594 14.2499V4.86663C0.308594 1.16663 1.37526 0.041626 4.86693 0.041626H11.1586C14.6503 0.041626 15.7169 1.16663 15.7169 4.86663V8.41662C15.7169 8.75828 15.4336 9.04162 15.0919 9.04162C14.7503 9.04162 14.4669 8.75828 14.4669 8.41662V4.86663C14.4669 1.8583 13.9419 1.29163 11.1586 1.29163H4.86693C2.08359 1.29163 1.55859 1.8583 1.55859 4.86663V14.2499C1.55859 15.1249 1.77526 15.6083 1.97526 15.6833C2.12526 15.7416 2.53361 15.6583 3.16695 14.9833C3.62528 14.5 4.22527 14.2416 4.85027 14.2749C5.46694 14.3083 6.05027 14.6333 6.44194 15.1583L7.29193 16.2833C7.50026 16.5583 7.44194 16.95 7.16694 17.1583C7.04194 17.25 6.90861 17.2833 6.78361 17.2833Z" fill="white"/>
</svg>
