<svg xmlns="http://www.w3.org/2000/svg" width="23.892" height="15.537" viewBox="0 0 23.892 15.537"><g transform="translate(0 0)"><path d="M20.339,105.551c1.279.853,4.163,2.659,3.436,4.615-.8,2.157-3.712,3.887-5.518,5.116-1.028.7-4.59,3.235-5.819,1.705a.33.33,0,0,1-.075-.3c-.527-1.028-.2-2.659-.2-3.762v-.6c-3.737.025-7.75,1.254-11.361.176a.475.475,0,0,1-.351-.4c-.025,0-.05-.025-.075-.025-.552-.326-.326-1.605-.351-2.132A14.179,14.179,0,0,1,.2,107.031a.451.451,0,0,1,.376-.376.5.5,0,0,1,.351-.125c3.812.05,7.549.5,11.361.276a21.978,21.978,0,0,0-.251-3.637.6.6,0,0,1,.075-.376.566.566,0,0,1,.577-.853C15.374,102.266,18.132,104.072,20.339,105.551Z" transform="translate(0 -101.933)" fill="#fa7f98"/></g></svg>