<svg xmlns="http://www.w3.org/2000/svg" xmlns:xlink="http://www.w3.org/1999/xlink" width="25.754" height="16.765" viewBox="0 0 25.754 16.765"><defs><linearGradient id="a" x1="0.5" x2="0.5" y2="1" gradientUnits="objectBoundingBox"><stop offset="0" stop-color="#3f31a5"/><stop offset="1" stop-color="#895be3"/></linearGradient></defs><g transform="translate(0 0)"><path d="M3.832,105.837c-1.38.92-4.492,2.869-3.708,4.98.866,2.327,4.005,4.195,5.954,5.521,1.11.758,4.952,3.491,6.279,1.84a.356.356,0,0,0,.081-.325c.568-1.11.216-2.869.216-4.059v-.649c4.032.027,8.362,1.353,12.259.189a.513.513,0,0,0,.379-.433c.027,0-.286.347-.259.347.6-.352.692-2.106.719-2.674a15.3,15.3,0,0,0-.189-3.139.486.486,0,0,0-.406-.406.535.535,0,0,0-.379-.135c-4.114.054-8.146.541-12.259.3a23.714,23.714,0,0,1,.271-3.924.647.647,0,0,0-.081-.406.611.611,0,0,0-.622-.92C9.191,102.292,6.214,104.241,3.832,105.837Z" transform="translate(0 -101.933)" fill="url(#a)"/></g></svg>