<svg width="14" height="14" viewBox="0 0 14 14" fill="none" xmlns="http://www.w3.org/2000/svg">
<path d="M3.49937 13.2709C3.32437 13.2709 3.1377 13.2534 2.95103 13.2184C2.85187 13.195 2.76437 13.1717 2.67687 13.1483C2.5777 13.1192 2.48436 13.0842 2.39686 13.0492C2.37353 13.0434 2.35604 13.0317 2.33854 13.0259C2.13437 12.9209 1.95937 12.8159 1.80187 12.6992C1.7902 12.6934 1.78437 12.6817 1.77271 12.6759C1.68521 12.6059 1.60353 12.5359 1.5277 12.4542C1.44603 12.3667 1.3877 12.2967 1.32353 12.2267C1.18936 12.0517 1.07853 11.8767 0.979365 11.6725C0.967698 11.655 0.961878 11.6317 0.956045 11.6083C0.921045 11.5267 0.891864 11.445 0.86853 11.3575C0.83353 11.235 0.810194 11.1534 0.792694 11.0659C0.751861 10.8617 0.734375 10.6809 0.734375 10.5058V2.63085C0.734375 1.51668 1.51604 0.735016 2.63021 0.735016H4.38021C5.49437 0.735016 6.27604 1.51668 6.27604 2.63085V10.5C6.27604 11.2234 5.99604 11.9117 5.48854 12.4309C5.3952 12.5242 5.3252 12.5884 5.26103 12.6409C5.07436 12.8042 4.83521 12.95 4.57854 13.055C4.52021 13.0784 4.4502 13.1075 4.37437 13.1367C4.08854 13.2242 3.79104 13.2709 3.49937 13.2709ZM2.76436 12.25C2.8227 12.2734 2.88104 12.2909 2.93937 12.3084C3.00354 12.3259 3.0677 12.3434 3.13187 12.3609C3.4527 12.4192 3.79688 12.4017 4.07104 12.3084C4.11188 12.2909 4.1702 12.2734 4.2227 12.25C4.40936 12.1742 4.56103 12.0809 4.6952 11.97C4.75353 11.9234 4.79437 11.8825 4.83521 11.8475C5.20271 11.4684 5.3952 11.0017 5.3952 10.5058V2.63085C5.3952 2.00085 5.00437 1.61002 4.37437 1.61002H2.62437C1.99437 1.61002 1.60354 2.00085 1.60354 2.63085V10.5C1.60354 10.6225 1.61521 10.7509 1.64437 10.885C1.65604 10.9375 1.67353 11.0017 1.69103 11.0717C1.71437 11.1359 1.73187 11.1884 1.75521 11.2467C1.76687 11.2642 1.7727 11.2817 1.77853 11.2934C1.78436 11.305 1.79019 11.3225 1.79603 11.3342C1.86603 11.4625 1.93604 11.5733 2.01188 11.6725C2.05271 11.7192 2.10521 11.7775 2.15771 11.8358C2.22188 11.9058 2.27437 11.9467 2.3327 11.9934C2.33854 11.9992 2.35021 12.005 2.35604 12.0109C2.44937 12.0809 2.55437 12.145 2.67687 12.2092C2.68853 12.215 2.7002 12.215 2.71187 12.2209C2.72353 12.2267 2.74103 12.2384 2.76436 12.25Z" fill="current"/>
<path d="M11.375 13.2709H3.5C3.26083 13.2709 3.0625 13.0725 3.0625 12.8334C3.0625 12.5942 3.26083 12.3959 3.5 12.3959C3.70417 12.3959 3.90251 12.3667 4.07167 12.3084C4.11251 12.2909 4.17083 12.2734 4.22333 12.25C4.40999 12.1742 4.56166 12.0809 4.69583 11.97C4.75416 11.9234 4.795 11.8825 4.83584 11.8475L8.82584 7.86335C8.9075 7.78168 9.01834 7.73502 9.135 7.73502H11.375C12.4892 7.73502 13.2708 8.51668 13.2708 9.63085V11.3808C13.2708 12.4892 12.4892 13.2709 11.375 13.2709ZM5.51833 12.3959H11.375C12.005 12.3959 12.3958 12.005 12.3958 11.375V9.62502C12.3958 8.99502 12.005 8.60419 11.375 8.60419H9.31583L5.51833 12.3959Z" fill="current"/>
<path d="M2.80725 13.1658C2.76642 13.1658 2.72559 13.16 2.68476 13.1483C2.25309 13.02 1.85643 12.7808 1.54143 12.46C1.22643 12.1508 0.987254 11.7542 0.858921 11.3225C0.788921 11.0892 0.917254 10.85 1.15059 10.78C1.38392 10.71 1.62309 10.8383 1.69892 11.0658C1.88559 11.6608 2.35225 12.1275 2.94725 12.3142C3.17475 12.3842 3.30309 12.6292 3.23309 12.8625C3.16893 13.0433 2.99392 13.1658 2.80725 13.1658Z" fill="current"/>
<path d="M5.16946 12.565C5.05862 12.565 4.94779 12.5242 4.86029 12.4367C4.69113 12.2675 4.6853 11.9933 4.85447 11.8183C5.20447 11.4625 5.39697 10.99 5.39697 10.4942V4.85915C5.39697 4.74249 5.44363 4.63166 5.5253 4.54999L7.10613 2.96915C7.8703 2.20498 9.0253 2.20498 9.78947 2.96915L11.0261 4.20582C11.8136 4.99332 11.8136 6.10165 11.0261 6.88915L5.47864 12.4308C5.39114 12.5242 5.28029 12.565 5.16946 12.565ZM6.27197 5.04582V10.4067L10.4078 6.27665C10.8511 5.83332 10.8511 5.27915 10.4078 4.82999L9.17113 3.59332C8.73363 3.15582 8.16196 3.15582 7.72446 3.59332L6.27197 5.04582Z" fill="current"/>
<path d="M3.5013 11.5208C2.9413 11.5208 2.48047 11.06 2.48047 10.5C2.48047 9.93999 2.9413 9.47916 3.5013 9.47916C4.0613 9.47916 4.52214 9.93999 4.52214 10.5C4.52214 11.06 4.0613 11.5208 3.5013 11.5208ZM3.5013 10.3542C3.41964 10.3542 3.35547 10.4183 3.35547 10.5C3.35547 10.6633 3.64714 10.6633 3.64714 10.5C3.64714 10.4183 3.58297 10.3542 3.5013 10.3542Z" fill="current"/>
</svg>
