<svg width="21" height="21" viewBox="0 0 21 21" fill="none" xmlns="http://www.w3.org/2000/svg">
<path d="M6.97266 19.9062C4.68016 19.9062 2.81641 18.0425 2.81641 15.75C2.81641 13.4575 4.68016 11.5938 6.97266 11.5938C9.26516 11.5938 11.1289 13.4575 11.1289 15.75C11.1289 18.0425 9.26516 19.9062 6.97266 19.9062ZM6.97266 12.9062C5.40641 12.9062 4.12891 14.1838 4.12891 15.75C4.12891 17.3162 5.40641 18.5938 6.97266 18.5938C8.53891 18.5938 9.81641 17.3162 9.81641 15.75C9.81641 14.1838 8.54766 12.9062 6.97266 12.9062Z" fill="white"/>
<path d="M10.4727 16.4062C10.1139 16.4062 9.81641 16.1088 9.81641 15.75V3.5C9.81641 3.14125 10.1139 2.84375 10.4727 2.84375C10.8314 2.84375 11.1289 3.14125 11.1289 3.5V15.75C11.1289 16.1088 10.8402 16.4062 10.4727 16.4062Z" fill="white"/>
<path d="M16.7406 8.95126C16.4519 8.95126 16.1456 8.89876 15.8481 8.80251L11.9806 7.51626C10.7731 7.11376 9.82812 5.80126 9.82812 4.53251V3.50001C9.82812 2.65126 10.1781 1.91626 10.7731 1.47876C11.3769 1.04126 12.1819 0.95376 12.9869 1.21626L16.8544 2.50251C18.0619 2.90501 19.0069 4.21751 19.0069 5.48626V6.51001C19.0069 7.35876 18.6569 8.09376 18.0619 8.53126C17.6856 8.82001 17.2219 8.95126 16.7406 8.95126ZM12.0944 2.38001C11.8844 2.38001 11.6919 2.43251 11.5431 2.54626C11.2806 2.73001 11.1406 3.07126 11.1406 3.50001V4.52376C11.1406 5.22376 11.7269 6.03751 12.3919 6.26501L16.2594 7.55126C16.6619 7.69126 17.0381 7.65626 17.2919 7.47251C17.5544 7.28876 17.6944 6.94751 17.6944 6.51876V5.49501C17.6944 4.79501 17.1081 3.98126 16.4431 3.75376L12.5756 2.46751C12.4094 2.40626 12.2431 2.38001 12.0944 2.38001Z" fill="white"/>
</svg>
