<svg width="14" height="14" viewBox="0 0 14 14" fill="none" xmlns="http://www.w3.org/2000/svg">
<path d="M2.87713 11.5617C2.76046 11.5617 2.64965 11.515 2.56798 11.4334C1.38382 10.2492 0.730469 8.67419 0.730469 7.00002C0.730469 3.54085 3.54214 0.729187 7.0013 0.729187C8.67547 0.729187 10.2505 1.38252 11.4346 2.56669C11.5163 2.64835 11.563 2.75919 11.563 2.87585C11.563 2.99252 11.5163 3.10335 11.4346 3.18502L3.18631 11.4334C3.10465 11.515 2.9938 11.5617 2.87713 11.5617ZM7.0013 1.60419C4.0263 1.60419 1.60547 4.02502 1.60547 7.00002C1.60547 8.29502 2.06048 9.52002 2.88881 10.4942L10.4955 2.88752C9.5213 2.05919 8.2963 1.60419 7.0013 1.60419Z" fill="#292D32"/>
<path d="M6.99917 13.2709C5.325 13.2709 3.75002 12.6175 2.56585 11.4334C2.48419 11.3517 2.4375 11.2409 2.4375 11.1242C2.4375 11.0075 2.48419 10.8967 2.56585 10.815L10.8142 2.56669C10.9833 2.39753 11.2633 2.39753 11.4325 2.56669C12.6167 3.75086 13.27 5.32586 13.27 7.00003C13.27 10.4592 10.4583 13.2709 6.99917 13.2709ZM3.50501 11.1125C4.47918 11.9409 5.70417 12.3959 6.99917 12.3959C9.97417 12.3959 12.395 9.97503 12.395 7.00003C12.395 5.70503 11.94 4.48003 11.1117 3.50586L3.50501 11.1125Z" fill="#292D32"/>
<path d="M7.82365 13.2125C7.71281 13.2125 7.602 13.1717 7.5145 13.0842L4.21281 9.7825C4.04365 9.61333 4.04365 9.33333 4.21281 9.16417C4.38198 8.995 4.66201 8.995 4.83118 9.16417L8.13283 12.4658C8.302 12.635 8.302 12.915 8.13283 13.0842C8.05116 13.1717 7.94031 13.2125 7.82365 13.2125Z" fill="#292D32"/>
<path d="M10.4228 11.6842C10.312 11.6842 10.2012 11.6433 10.1137 11.5558L6.27531 7.7175C6.10615 7.54833 6.10615 7.26833 6.27531 7.09917C6.44448 6.93 6.72448 6.93 6.89364 7.09917L10.732 10.9375C10.9012 11.1067 10.9012 11.3867 10.732 11.5558C10.6445 11.6433 10.5336 11.6842 10.4228 11.6842Z" fill="#292D32"/>
<path d="M12.3201 9.46165C12.2092 9.46165 12.0984 9.42082 12.0109 9.33332L8.34172 5.66415C8.17255 5.49499 8.17255 5.21499 8.34172 5.04582C8.51089 4.87665 8.79088 4.87665 8.96005 5.04582L12.6292 8.71499C12.7984 8.88415 12.7984 9.16415 12.6292 9.33332C12.5476 9.41499 12.4367 9.46165 12.3201 9.46165Z" fill="#292D32"/>
</svg>
