<svg width="21" height="21" viewBox="0 0 21 21" fill="none" xmlns="http://www.w3.org/2000/svg">
<path d="M16.2847 5.84503C15.9259 5.84503 15.6284 5.54753 15.6284 5.18878V3.86753C15.6284 3.34253 15.1997 2.90503 14.6659 2.90503H3.35219C2.82719 2.90503 2.38969 3.33378 2.38969 3.86753V5.18878C2.38969 5.54753 2.09219 5.84503 1.73344 5.84503C1.37469 5.84503 1.08594 5.54753 1.08594 5.18878V3.86753C1.08594 2.61628 2.10969 1.59253 3.36094 1.59253H14.6659C15.9172 1.59253 16.9409 2.60753 16.9409 3.86753V5.18878C16.9409 5.54753 16.6434 5.84503 16.2847 5.84503Z" fill="white"/>
<path d="M9.01172 16.4938C8.65297 16.4938 8.35547 16.1963 8.35547 15.8375V2.90503C8.35547 2.54628 8.65297 2.24878 9.01172 2.24878C9.37047 2.24878 9.66797 2.54628 9.66797 2.90503V15.8375C9.66797 16.205 9.37047 16.4938 9.01172 16.4938Z" fill="white"/>
<path d="M10.9216 16.4938H6.03906C5.68031 16.4938 5.38281 16.1963 5.38281 15.8375C5.38281 15.4788 5.68031 15.1813 6.03906 15.1813H10.9216C11.2803 15.1813 11.5778 15.4788 11.5778 15.8375C11.5778 16.1963 11.2803 16.4938 10.9216 16.4938Z" fill="white"/>
<path d="M19.2575 11.55C18.8988 11.55 18.6013 11.2525 18.6013 10.8938V10.1938C18.6013 9.92251 18.3738 9.69501 18.1025 9.69501H11.9688C11.61 9.69501 11.3125 9.39751 11.3125 9.03876C11.3125 8.68001 11.61 8.38251 11.9688 8.38251H18.1025C19.1 8.38251 19.9138 9.19626 19.9138 10.1938V10.8938C19.9138 11.2613 19.625 11.55 19.2575 11.55Z" fill="white"/>
<path d="M14.0703 19.4075C13.7116 19.4075 13.4141 19.11 13.4141 18.7512V9.51123C13.4141 9.15248 13.7116 8.85498 14.0703 8.85498C14.4291 8.85498 14.7266 9.15248 14.7266 9.51123V18.7512C14.7266 19.11 14.4291 19.4075 14.0703 19.4075Z" fill="white"/>
<path d="M15.9442 19.4075H12.1992C11.8405 19.4075 11.543 19.11 11.543 18.7512C11.543 18.3925 11.8405 18.095 12.1992 18.095H15.9442C16.303 18.095 16.6005 18.3925 16.6005 18.7512C16.6005 19.11 16.303 19.4075 15.9442 19.4075Z" fill="white"/>
</svg>
