<svg width="14" height="14" viewBox="0 0 14 14" fill="none" xmlns="http://www.w3.org/2000/svg">
<path d="M9.62693 10.6459H8.74609C8.50693 10.6459 8.30859 10.4475 8.30859 10.2084C8.30859 9.96919 8.50693 9.77085 8.74609 9.77085H9.62693C11.1553 9.77085 12.3978 8.52835 12.3978 7.00002C12.3978 5.47169 11.1553 4.22919 9.62693 4.22919H8.75193C8.51276 4.22919 8.31443 4.03085 8.31443 3.79169C8.31443 3.55252 8.50693 3.35419 8.75193 3.35419H9.62693C11.6394 3.35419 13.2728 4.98752 13.2728 7.00002C13.2728 9.01252 11.6394 10.6459 9.62693 10.6459Z" fill="#292D32"/>
<path d="M5.2513 10.6459H4.3763C2.3638 10.6459 0.730469 9.01252 0.730469 7.00002C0.730469 4.98752 2.3638 3.35419 4.3763 3.35419H5.2513C5.49047 3.35419 5.6888 3.55252 5.6888 3.79169C5.6888 4.03085 5.49047 4.22919 5.2513 4.22919H4.3763C2.84797 4.22919 1.60547 5.47169 1.60547 7.00002C1.60547 8.52835 2.84797 9.77085 4.3763 9.77085H5.2513C5.49047 9.77085 5.6888 9.96919 5.6888 10.2084C5.6888 10.4475 5.49047 10.6459 5.2513 10.6459Z" fill="#292D32"/>
<path d="M9.33464 7.4375H4.66797C4.4288 7.4375 4.23047 7.23917 4.23047 7C4.23047 6.76083 4.4288 6.5625 4.66797 6.5625H9.33464C9.5738 6.5625 9.77214 6.76083 9.77214 7C9.77214 7.23917 9.5738 7.4375 9.33464 7.4375Z" fill="#292D32"/>
</svg>
