<svg width="21" height="21" viewBox="0 0 21 21" fill="none" xmlns="http://www.w3.org/2000/svg">
<path d="M13.3544 19.4687H7.64937C3.35312 19.4687 1.51562 17.6312 1.51562 13.335V13.2212C1.51562 9.33624 3.04687 7.46374 6.47687 7.13999C6.82687 7.11374 7.15937 7.37624 7.19438 7.73499C7.22937 8.09374 6.96687 8.41749 6.59937 8.45249C3.85187 8.70624 2.82812 10.0012 2.82812 13.23V13.3437C2.82812 16.905 4.08812 18.165 7.64937 18.165H13.3544C16.9156 18.165 18.1756 16.905 18.1756 13.3437V13.23C18.1756 9.98374 17.1344 8.68874 14.3344 8.45249C13.9756 8.41749 13.7044 8.10249 13.7394 7.74374C13.7744 7.38499 14.0806 7.11374 14.4481 7.14874C17.9306 7.44624 19.4881 9.32749 19.4881 13.2387V13.3525C19.4881 17.6312 17.6506 19.4687 13.3544 19.4687Z" fill="white"/>
<path d="M10.5 13.6763C10.1413 13.6763 9.84375 13.3787 9.84375 13.02V1.75C9.84375 1.39125 10.1413 1.09375 10.5 1.09375C10.8587 1.09375 11.1562 1.39125 11.1562 1.75V13.02C11.1562 13.3875 10.8587 13.6763 10.5 13.6763Z" fill="white"/>
<path d="M10.4994 14.6562C10.3331 14.6562 10.1669 14.595 10.0356 14.4637L7.10438 11.5325C6.85063 11.2787 6.85063 10.8587 7.10438 10.605C7.35813 10.3512 7.77813 10.3512 8.03188 10.605L10.4994 13.0725L12.9669 10.605C13.2206 10.3512 13.6406 10.3512 13.8944 10.605C14.1481 10.8587 14.1481 11.2787 13.8944 11.5325L10.9631 14.4637C10.8319 14.595 10.6656 14.6562 10.4994 14.6562Z" fill="white"/>
</svg>
