<svg width="13" height="14" viewBox="0 0 13 14" fill="none" xmlns="http://www.w3.org/2000/svg">
<path d="M8.17857 1H4.86538C2.1044 1 1 2.20084 1 5.20293V8.80545C1 11.075 1.62951 12.3179 3.13148 12.7802C3.25297 11.2191 4.72734 9.98827 6.52198 9.98827C8.31662 9.98827 9.79099 11.2191 9.91247 12.7802C11.4145 12.3179 12.044 11.075 12.044 8.80545V5.20293C12.044 2.20084 10.9396 1 8.17857 1ZM6.52198 8.3071C5.42863 8.3071 4.54511 7.34042 4.54511 6.15159C4.54511 4.96276 5.42863 4.00209 6.52198 4.00209C7.61533 4.00209 8.49885 4.96276 8.49885 6.15159C8.49885 7.34042 7.61533 8.3071 6.52198 8.3071Z" stroke="white" stroke-width="1.3125" stroke-linecap="round" stroke-linejoin="round"/>
</svg>
