<svg width="21" height="21" viewBox="0 0 21 21" fill="none" xmlns="http://www.w3.org/2000/svg">
<path d="M11.6103 20.3438H9.40533C8.79283 20.3438 8.24158 20.0812 7.87408 19.6349C7.55033 19.2324 7.42783 18.7162 7.54158 18.2262L7.90033 16.6425C7.97033 16.345 8.23283 16.1349 8.53908 16.1349H12.4766C12.7828 16.1349 13.0453 16.345 13.1153 16.6425L13.4741 18.2262C13.5878 18.7512 13.4828 19.2587 13.1591 19.6612C12.8003 20.09 12.2403 20.3438 11.6103 20.3438ZM9.06408 17.43L8.81908 18.5063C8.79283 18.6375 8.84533 18.7425 8.89783 18.8037C9.01158 18.9437 9.19533 19.0225 9.40533 19.0225H11.6103C11.8378 19.0225 12.0303 18.9525 12.1353 18.8213C12.2053 18.7338 12.2228 18.6288 12.1966 18.4975L11.9516 17.4213H9.06408V17.43Z" fill="white"/>
<path d="M12.4783 17.4301C12.2946 17.4301 12.1196 17.3601 11.9883 17.2113C11.7521 16.9401 11.7696 16.5288 12.0408 16.2838L13.5546 14.9362C14.1583 14.4025 14.1321 14.2713 13.6858 13.7113L11.0171 10.325C10.8683 10.1413 10.6933 10.0363 10.5096 10.0363C10.3258 10.0363 10.1508 10.1413 10.0021 10.325L7.33332 13.7113C6.86082 14.3151 6.86956 14.4463 7.44706 14.9188L8.97831 16.2838C9.24956 16.52 9.27582 16.9401 9.03082 17.2113C8.78582 17.4826 8.37456 17.5088 8.10331 17.2638L6.58956 15.9162C5.48706 15.015 5.39081 14.0525 6.30081 12.8975L8.96956 9.51128C9.36331 9.01253 9.92331 8.72375 10.5096 8.72375C11.0958 8.72375 11.6558 9.01253 12.0496 9.51128L14.7183 12.8975C15.6196 14.035 15.5321 14.945 14.4296 15.9162L12.9158 17.2638C12.7846 17.3775 12.6271 17.4301 12.4783 17.4301Z" fill="white"/>
<path d="M10.5078 12.6C10.1491 12.6 9.85156 12.3025 9.85156 11.9438V9.72998C9.85156 9.37123 10.1491 9.07373 10.5078 9.07373C10.8666 9.07373 11.1641 9.37123 11.1641 9.72998V11.9438C11.1641 12.3113 10.8666 12.6 10.5078 12.6Z" fill="white"/>
<path d="M10.9531 5.03125H10.0781C9.23813 5.03125 8.54688 4.34 8.54688 3.5V2.625C8.54688 1.785 9.23813 1.09375 10.0781 1.09375H10.9531C11.7931 1.09375 12.4844 1.785 12.4844 2.625V3.5C12.4844 4.34 11.8019 5.03125 10.9531 5.03125ZM10.0781 2.40625C9.95563 2.40625 9.85938 2.5025 9.85938 2.625V3.5C9.85938 3.6225 9.95563 3.71875 10.0781 3.71875H10.9531C11.0756 3.71875 11.1719 3.6225 11.1719 3.5V2.625C11.1719 2.5025 11.0756 2.40625 10.9531 2.40625H10.0781Z" fill="white"/>
<path d="M3.73438 13.055H2.85938C2.01938 13.055 1.32812 12.3637 1.32812 11.5237V10.6487C1.32812 9.80874 2.01938 9.11743 2.85938 9.11743H3.73438C4.57437 9.11743 5.26562 9.80874 5.26562 10.6487V11.5237C5.26562 12.3637 4.57437 13.055 3.73438 13.055ZM2.85938 10.4299C2.73688 10.4299 2.64062 10.5262 2.64062 10.6487V11.5237C2.64062 11.6462 2.73688 11.7425 2.85938 11.7425H3.73438C3.85687 11.7425 3.95312 11.6462 3.95312 11.5237V10.6487C3.95312 10.5262 3.85687 10.4299 3.73438 10.4299H2.85938Z" fill="white"/>
<path d="M18.1406 13.055H17.2656C16.4256 13.055 15.7344 12.3637 15.7344 11.5237V10.6487C15.7344 9.80874 16.4256 9.11743 17.2656 9.11743H18.1406C18.9806 9.11743 19.6719 9.80874 19.6719 10.6487V11.5237C19.6719 12.3637 18.9894 13.055 18.1406 13.055ZM17.2656 10.4299C17.1431 10.4299 17.0469 10.5262 17.0469 10.6487V11.5237C17.0469 11.6462 17.1431 11.7425 17.2656 11.7425H18.1406C18.2631 11.7425 18.3594 11.6462 18.3594 11.5237V10.6487C18.3594 10.5262 18.2631 10.4299 18.1406 10.4299H17.2656Z" fill="white"/>
<path d="M3.28125 10.43C2.9225 10.43 2.625 10.1325 2.625 9.77378C2.625 6.03753 5.425 2.89629 9.135 2.45879C9.49375 2.42379 9.8175 2.67752 9.86125 3.03627C9.905 3.39502 9.6425 3.71878 9.28375 3.76253C6.23875 4.12128 3.9375 6.70253 3.9375 9.77378C3.9375 10.1325 3.64 10.43 3.28125 10.43Z" fill="white"/>
<path d="M17.7169 10.43C17.3582 10.43 17.0607 10.1325 17.0607 9.77377C17.0607 6.72002 14.7769 4.13878 11.7494 3.77128C11.3907 3.72753 11.1369 3.40377 11.1807 3.04502C11.2244 2.68627 11.5482 2.4238 11.9157 2.4763C15.5994 2.92255 18.3819 6.06378 18.3819 9.78253C18.3732 10.1325 18.0844 10.43 17.7169 10.43Z" fill="white"/>
</svg>
