<svg width="20" height="19" viewBox="0 0 20 19" fill="none" xmlns="http://www.w3.org/2000/svg">
<path d="M14.1651 18.0104H6.35679C6.09012 18.0104 5.85677 17.8521 5.76511 17.6225C5.67344 17.3929 5.74847 17.1237 5.94847 16.9654C6.14847 16.807 6.3318 16.6012 6.46513 16.3795C6.7318 15.9758 6.86511 15.5166 6.86511 15.0496C6.86511 13.6325 5.64845 12.4766 4.15678 12.4766C3.38178 12.4766 2.64011 12.7933 2.12344 13.3554C1.94844 13.5375 1.67343 13.6087 1.43176 13.5216C1.1901 13.4346 1.02344 13.2129 1.02344 12.9675V9.49996C1.02344 7.06163 2.6068 5.29622 5.06513 5.0033C5.29013 4.97163 5.54844 4.94788 5.8151 4.94788H14.1484C14.3484 4.94788 14.6068 4.95579 14.8734 4.99537C17.3318 5.26454 18.9401 7.03788 18.9401 9.49996V13.4583C18.9568 16.1816 17.0318 18.0104 14.1651 18.0104ZM7.64845 16.8229H14.1651C16.3151 16.8229 17.7068 15.5008 17.7068 13.4583V9.49996C17.7068 7.64746 16.5651 6.37286 14.7151 6.16703C14.5151 6.13536 14.3401 6.13538 14.1651 6.13538H5.83179C5.63179 6.13538 5.44011 6.1512 5.24844 6.17495C3.41511 6.39662 2.29012 7.66329 2.29012 9.49996V11.7325C2.85679 11.4395 3.50679 11.2812 4.16512 11.2812C6.34845 11.2812 8.12345 12.9675 8.12345 15.0416C8.12345 15.667 7.95678 16.2845 7.64845 16.8229Z" fill="white"/>
<path d="M5.15999 6.18282C4.95999 6.18282 4.77667 6.09573 4.65167 5.9374C4.51 5.75532 4.49333 5.51779 4.60167 5.31988C4.74333 5.05071 4.94331 4.78948 5.20164 4.55198L7.90998 1.97114C9.29331 0.664893 11.5433 0.664893 12.9267 1.97114L14.385 3.38033C15.0017 3.95825 15.3767 4.73408 15.4183 5.55742C15.4267 5.7395 15.3517 5.91365 15.21 6.0324C15.0683 6.15115 14.8767 6.20656 14.6933 6.17489C14.5267 6.15114 14.3517 6.14324 14.1683 6.14324H5.83498C5.63498 6.14324 5.44331 6.15906 5.25164 6.18282C5.22664 6.18282 5.19332 6.18282 5.15999 6.18282ZM6.55164 4.94782H14.0183C13.91 4.67865 13.735 4.43324 13.5017 4.21157L12.035 2.80238C11.1433 1.96322 9.68497 1.96322 8.78497 2.80238L6.55164 4.94782Z" fill="white"/>
<path d="M18.3346 13.6563H15.8346C14.568 13.6563 13.543 12.6825 13.543 11.4792C13.543 10.2759 14.568 9.30212 15.8346 9.30212H18.3346C18.6763 9.30212 18.9596 9.57129 18.9596 9.89587C18.9596 10.2205 18.6763 10.4896 18.3346 10.4896H15.8346C15.2596 10.4896 14.793 10.933 14.793 11.4792C14.793 12.0255 15.2596 12.4688 15.8346 12.4688H18.3346C18.6763 12.4688 18.9596 12.738 18.9596 13.0625C18.9596 13.3871 18.6763 13.6563 18.3346 13.6563Z" fill="white"/>
<path d="M4.16536 18.8021C2.78203 18.8021 1.48203 18.1054 0.782033 16.9733C0.407033 16.4033 0.207031 15.7304 0.207031 15.0417C0.207031 14.1313 0.557033 13.2525 1.1987 12.5637C1.9487 11.7483 3.03203 11.2812 4.16536 11.2812C6.3487 11.2812 8.1237 12.9675 8.1237 15.0417C8.1237 15.7304 7.9237 16.4033 7.5487 16.9813C7.34036 17.3138 7.07369 17.6146 6.75702 17.8679C6.06535 18.4696 5.14036 18.8021 4.16536 18.8021ZM4.16536 12.4688C3.39036 12.4688 2.6487 12.7854 2.13203 13.3475C1.6987 13.8225 1.45703 14.4242 1.45703 15.0417C1.45703 15.5088 1.59034 15.9679 1.84867 16.3637C2.33201 17.1396 3.2237 17.6146 4.16536 17.6146C4.8237 17.6146 5.45704 17.385 5.94037 16.9733C6.15704 16.7992 6.34038 16.5933 6.47371 16.3717C6.74038 15.9679 6.8737 15.5088 6.8737 15.0417C6.8737 13.6246 5.65703 12.4688 4.16536 12.4688Z" fill="white"/>
<path d="M5.05704 16.4587C4.89871 16.4587 4.74035 16.4033 4.61535 16.2845L2.85703 14.6141C2.61536 14.3846 2.61536 14.0046 2.85703 13.775C3.0987 13.5454 3.4987 13.5454 3.74036 13.775L5.49868 15.4454C5.74035 15.675 5.74035 16.055 5.49868 16.2845C5.37368 16.4033 5.21538 16.4587 5.05704 16.4587Z" fill="white"/>
<path d="M3.27523 16.4824C3.1169 16.4824 2.95859 16.427 2.83359 16.3082C2.59193 16.0786 2.59193 15.6986 2.83359 15.4691L4.59191 13.7987C4.83358 13.5691 5.23358 13.5691 5.47525 13.7987C5.71691 14.0282 5.71691 14.4082 5.47525 14.6378L3.71693 16.3082C3.59193 16.427 3.43357 16.4824 3.27523 16.4824Z" fill="white"/>
</svg>
