<svg width="18" height="18" viewBox="0 0 18 18" fill="none" xmlns="http://www.w3.org/2000/svg">
<path d="M9 10.3126C8.6925 10.3126 8.4375 10.0576 8.4375 9.75012V5.81262C8.4375 5.50512 8.6925 5.25012 9 5.25012C9.3075 5.25012 9.5625 5.50512 9.5625 5.81262V9.75012C9.5625 10.0576 9.3075 10.3126 9 10.3126Z" fill="white"/>
<path d="M9 12.9377C8.7975 12.9377 8.60998 12.8627 8.46748 12.7202C8.39998 12.6452 8.34751 12.5627 8.30251 12.4727C8.26501 12.3827 8.25 12.2852 8.25 12.1877C8.25 11.9927 8.33248 11.7976 8.46748 11.6551C8.74498 11.3776 9.25502 11.3776 9.53252 11.6551C9.66752 11.7976 9.75 11.9927 9.75 12.1877C9.75 12.2852 9.72749 12.3827 9.68999 12.4727C9.65249 12.5627 9.60002 12.6452 9.53252 12.7202C9.39002 12.8627 9.2025 12.9377 9 12.9377Z" fill="white"/>
<path d="M9.00111 17.0626C8.49861 17.0626 7.9886 16.9351 7.5386 16.6726L3.0836 14.1001C2.1836 13.5751 1.62109 12.6076 1.62109 11.5651V6.43509C1.62109 5.39259 2.1836 4.42508 3.0836 3.90008L7.5386 1.32759C8.4386 0.802588 9.55612 0.802588 10.4636 1.32759L14.9186 3.90008C15.8186 4.42508 16.3811 5.39259 16.3811 6.43509V11.5651C16.3811 12.6076 15.8186 13.5751 14.9186 14.1001L10.4636 16.6726C10.0136 16.9351 9.50361 17.0626 9.00111 17.0626ZM9.00111 2.06257C8.69361 2.06257 8.3786 2.14508 8.1011 2.30258L3.6461 4.87507C3.0911 5.19757 2.74609 5.79009 2.74609 6.43509V11.5651C2.74609 12.2026 3.0911 12.8026 3.6461 13.1251L8.1011 15.6976C8.6561 16.0201 9.34612 16.0201 9.89362 15.6976L14.3486 13.1251C14.9036 12.8026 15.2486 12.2101 15.2486 11.5651V6.43509C15.2486 5.79759 14.9036 5.19757 14.3486 4.87507L9.89362 2.30258C9.62362 2.14508 9.30861 2.06257 9.00111 2.06257Z" fill="white"/>
</svg>
