<svg xmlns="http://www.w3.org/2000/svg" viewBox="0 0 1211.219 221.482">
    <g transform="translate(-84 -4049.577)">
        <path
            d="M198.427,159.738h-.02a1.73,1.73,0,0,1-1.027-.335L125,105.977a1.722,1.722,0,0,1-.464-2.253L170.49,24.451a1.721,1.721,0,0,1,3.178.525l26.372,132.43a1.74,1.74,0,0,1,.112.61A1.722,1.722,0,0,1,198.427,159.738ZM128.285,104.12l67.56,49.865L171.181,30.13Z"
            transform="translate(225.349 4084.372)" fill="#003d51" />
        <g transform="translate(-115.162 -268.635)">
            <path
                d="M137.523,68.7S381.337,3.092,616.357,16.02c224.48,12.339,329.9,62.626,431.7,30.816l-65.98,101.4,51.532,78.536S750.83,160.169,578.656,172.1s-363.212,67.6-407.2,38.771Z"
                transform="translate(362.325 4303.879)" fill="#fa7f98" />
            <path
                d="M1044.93,23.152q-3.239,3.3-6.734,6.455c-10.54,9.521-21.581,18.736-32.271,28.164-17.118,15.075-35.393,30.464-58.009,40.717.8.833,1.591,1.671,2.376,2.5.618.047.974.523.863.914,16.027,16.933,37.186,44.715,37.481,65.918.006.6-28.149-5.818-40.72-10.381-13.139-4.767-31.48-10.486-31.48-10.486s-20.667-8.316-53.067-13.6-59.423-7.17-88.333-10.01c-57.113-5.6-114.037-14.246-171.2-8.2-59.356,6.281-118.015,11.1-176.386,21.3-29.221,5.1-58.409,10.291-87.7,15.151-23.473,3.891-47.079,8.169-70.864,10.844-16.5,1.854-35.176,3.113-50.724-2.556-18.314-6.685-24.374-21.032-29.171-35.065-10.612-31.034-12.8-63.552-12.554-95.671-24.753,5.409-38.916,9.087-38.916,9.087l33.968,137.481c44.035,27.883,235.269-25.957,407.632-37.494s455.434,52.875,455.434,52.875l-51.587-75.948Z"
                transform="translate(362.325 4339.561)" fill="#dc254a" opacity="0.4" style="mix-blend-mode:multiply;isolation:isolate" />
            <path d="M147.7,56.67S418.839,7.643,612.511,17.254s275,57.684,373.142,34.61c0,0-32.284,29.8-189.806,3.844s-389.921-24.035-648.151,25Z"
                transform="translate(395.412 4302.207)" fill="#3363ae" opacity="0.4" style="mix-blend-mode:screen;isolation:isolate" />
        </g>
        <g transform="translate(26.269 4070.478)">
            <g transform="translate(73.854 76.879)">
                <path d="M93.482,75.329s-6.407-5.236-20.907-4.161V92.51S96.8,91.14,93.482,75.329Z" transform="translate(-66.006 -71.022)" fill="#342b6e" />
                <path d="M93.482,75.329s-6.407-5.236-20.907-4.161V74.66c4.352,1.287,11.941,3.727,14.454,5.77a11.32,11.32,0,0,1,3.226,5.748A10.9,10.9,0,0,0,93.482,75.329Z"
                    transform="translate(-66.006 -71.022)" fill="#2f2763" />
                <path d="M72.575,71.167V92.51a42.37,42.37,0,0,0,8.327-1.5,20.694,20.694,0,0,0,1.977-9.246c0-4.346-1.1-8.2-2.788-10.6A48.358,48.358,0,0,0,72.575,71.167Z"
                    transform="translate(-66.006 -71.022)" fill="#972029" />
                <ellipse cx="6.57" cy="10.394" rx="6.57" ry="10.394" transform="translate(0 0.423)" fill="#4d2d6e" />
                <g transform="translate(0.396 0.692)">
                    <path d="M75.566,73.177a2.053,2.053,0,0,0-2.272-1.7,2,2,0,0,0-2.172,1.779c.028.962.685,7.581,1.912,7.56S75.594,74.138,75.566,73.177Z"
                        transform="translate(-67.17 -71.475)" fill="#9c9fce" />
                    <path d="M77.585,78.316c.5-.41,1.714-1.419.908-2.828-.5-.876-1.049-1.772-2.706.011-.427.459-4.117,3.906-3.23,4.571S77.086,78.727,77.585,78.316Z"
                        transform="translate(-66.483 -69.891)" fill="#9c9fce" />
                    <path d="M69.667,78.319c-.482-.393-1.584-.271-.926-2.755.249-.946.942-1.753,2.548-.035.414.443,3.979,3.761,3.161,4.426S70.15,78.713,69.667,78.319Z"
                        transform="translate(-68.537 -69.863)" fill="#9c9fce" />
                    <path d="M75.755,86.16a2.289,2.289,0,0,1-4.446,0c0-.962,1-7.826,2.223-7.826S75.755,85.2,75.755,86.16Z" transform="translate(-67.071 -67.848)"
                        fill="#9c9fce" />
                    <path d="M69.767,80.494a2.072,2.072,0,0,0-.344,2.9c.667.806,1.38,1.627,2.671-.335.333-.5,3.308-4.352,2.3-4.9S70.183,80.029,69.767,80.494Z"
                        transform="translate(-68.322 -67.982)" fill="#9c9fce" />
                    <path d="M77.322,79.153c1.385.7,2.712.745,1.568,2.811-.463.838-.738,1.646-2.648.147-.494-.387-4.64-3.22-3.955-3.979S76.748,78.863,77.322,79.153Z"
                        transform="translate(-66.594 -68.068)" fill="#9c9fce" />
                </g>
                <path d="M75.119,78.96a2.053,2.053,0,1,1-2.006-2.492A2.288,2.288,0,0,1,75.119,78.96Z" transform="translate(-66.781 -68.142)" fill="#812413" />
                <path d="M73.1,76.469a2.291,2.291,0,0,0-1.992,2.49,2.439,2.439,0,0,0,1.539,2.417,2.293,2.293,0,0,0,1.992-2.49A2.439,2.439,0,0,0,73.1,76.469Z"
                    transform="translate(-66.781 -68.142)" fill="#ce2409" />
                <path d="M73.548,78.586a1.162,1.162,0,1,1-1.136-1.41A1.295,1.295,0,0,1,73.548,78.586Z" transform="translate(-66.691 -67.768)" fill="#ce5638" />
                <path d="M74.984,83.152a1.633,1.633,0,1,1-3.223,0c0-1.047.642-.352,1.532-.352S74.984,82.1,74.984,83.152Z" transform="translate(-66.436 -64.914)"
                    fill="#9c9fce" opacity="0.53" style="mix-blend-mode:screen;isolation:isolate" />
                <path d="M70.445,81.15c-.187.469-.2.885-.625.719a.922.922,0,0,1,.674-1.7C70.914,80.334,70.631,80.679,70.445,81.15Z" transform="translate(-67.725 -66.214)"
                    fill="#9c9fce" opacity="0.53" style="mix-blend-mode:screen;isolation:isolate" />
                <path d="M74.329,78.681s2.859,1.1,3.067,1.6.046,1.374-.254,1.374-.46-.89-1.234-1.448S73.73,78.912,74.329,78.681Z" transform="translate(-65.155 -66.972)"
                    fill="#9c9fce" opacity="0.53" style="mix-blend-mode:screen;isolation:isolate" />
            </g>
            <path
                d="M74.943,71.117c-3.781,0-6.846,4.777-6.846,10.672S71.162,92.46,74.943,92.46s6.847-4.777,6.847-10.671S78.725,71.117,74.943,71.117Zm0,20.789c-3.469,0-6.292-4.539-6.292-10.117S71.474,71.67,74.943,71.67s6.294,4.539,6.294,10.119S78.413,91.906,74.943,91.906Z"
                transform="translate(5.481 5.907)" fill="#85afaf" />
            <g transform="translate(88.692 97.676)">
                <g transform="translate(0.277)">
                    <path d="M103.369,88.931s-6.409-5.234-20.907-4.16v21.343S106.69,104.743,103.369,88.931Z" transform="translate(-75.893 -84.626)" fill="#342b6e" />
                    <path
                        d="M103.369,88.931s-6.409-5.234-20.907-4.16v3.492c4.352,1.287,11.941,3.727,14.453,5.77a11.3,11.3,0,0,1,3.226,5.748A10.9,10.9,0,0,0,103.369,88.931Z"
                        transform="translate(-75.893 -84.626)" fill="#2f2763" />
                    <path
                        d="M82.462,84.771v21.343a42.445,42.445,0,0,0,8.327-1.5,20.689,20.689,0,0,0,1.977-9.246c0-4.345-1.1-8.2-2.788-10.594A48.17,48.17,0,0,0,82.462,84.771Z"
                        transform="translate(-75.893 -84.626)" fill="#972029" />
                    <path d="M84.734,105.692c-3.622,0-6.569-4.664-6.569-10.4s2.947-10.4,6.569-10.4S91.3,89.565,91.3,95.3,88.356,105.692,84.734,105.692Z"
                        transform="translate(-78.165 -84.48)" fill="#4d2d6e" />
                    <g transform="translate(0.395 0.692)">
                        <path d="M85.454,86.781a2.052,2.052,0,0,0-2.272-1.7,2,2,0,0,0-2.174,1.778c.028.962.685,7.581,1.914,7.561S85.481,87.742,85.454,86.781Z"
                            transform="translate(-77.057 -85.079)" fill="#9c9fce" />
                        <path d="M87.473,91.919c.5-.41,1.714-1.419.908-2.827-.5-.878-1.049-1.772-2.706.009-.427.46-4.118,3.906-3.232,4.571S86.972,92.33,87.473,91.919Z"
                            transform="translate(-76.371 -83.495)" fill="#9c9fce" />
                        <path
                            d="M79.554,91.921c-.483-.394-1.584-.269-.926-2.755.249-.945.942-1.753,2.548-.034.414.442,3.979,3.759,3.16,4.424S80.035,92.316,79.554,91.921Z"
                            transform="translate(-78.424 -83.467)" fill="#9c9fce" />
                        <path d="M85.641,99.764a2.29,2.29,0,0,1-4.446,0c0-.963,1-7.827,2.223-7.827S85.641,98.8,85.641,99.764Z" transform="translate(-76.958 -81.452)"
                            fill="#9c9fce" />
                        <path d="M79.654,94.1A2.067,2.067,0,0,0,79.31,97c.667.807,1.38,1.627,2.671-.333.332-.506,3.308-4.354,2.3-4.9S80.07,93.632,79.654,94.1Z"
                            transform="translate(-78.209 -81.587)" fill="#9c9fce" />
                        <path d="M87.207,92.756c1.387.7,2.712.745,1.568,2.813-.462.838-.737,1.645-2.648.145-.491-.385-4.638-3.22-3.953-3.979S86.634,92.466,87.207,92.756Z"
                            transform="translate(-76.481 -81.672)" fill="#9c9fce" />
                    </g>
                    <path d="M85.006,92.563A2.053,2.053,0,1,1,83,90.071,2.29,2.29,0,0,1,85.006,92.563Z" transform="translate(-76.669 -81.747)" fill="#812413" />
                    <path d="M82.985,90.072A2.292,2.292,0,0,0,81,92.562a2.437,2.437,0,0,0,1.539,2.417,2.291,2.291,0,0,0,1.992-2.49A2.439,2.439,0,0,0,82.985,90.072Z"
                        transform="translate(-76.669 -81.746)" fill="#ce2409" />
                    <path d="M83.434,92.188a1.161,1.161,0,1,1-1.134-1.41A1.295,1.295,0,0,1,83.434,92.188Z" transform="translate(-76.579 -81.372)" fill="#ce5638" />
                    <path d="M84.869,96.755a1.632,1.632,0,1,1-3.221,0c0-1.047.641-.352,1.53-.352S84.869,95.708,84.869,96.755Z" transform="translate(-76.323 -78.518)"
                        fill="#9c9fce" opacity="0.53" style="mix-blend-mode:screen;isolation:isolate" />
                    <path d="M80.332,94.753c-.187.471-.2.887-.625.719a.921.921,0,0,1,.674-1.7C80.8,93.937,80.517,94.282,80.332,94.753Z"
                        transform="translate(-77.612 -79.818)" fill="#9c9fce" opacity="0.53" style="mix-blend-mode:screen;isolation:isolate" />
                    <path d="M84.216,92.284s2.859,1.1,3.065,1.6.047,1.373-.254,1.373-.459-.89-1.232-1.448S83.617,92.515,84.216,92.284Z"
                        transform="translate(-75.042 -80.577)" fill="#9c9fce" opacity="0.53" style="mix-blend-mode:screen;isolation:isolate" />
                </g>
                <path
                    d="M84.83,84.721c-3.781,0-6.846,4.777-6.846,10.671s3.065,10.672,6.846,10.672,6.846-4.779,6.846-10.672S88.61,84.721,84.83,84.721Zm0,20.789c-3.47,0-6.292-4.539-6.292-10.119s2.822-10.117,6.292-10.117,6.294,4.539,6.294,10.117S88.3,105.51,84.83,105.51Z"
                    transform="translate(-77.984 -84.576)" fill="#85afaf" />
            </g>
            <g transform="translate(189.292 174.685)">
                <path d="M174.384,140.19s-7.723-6.309-25.2-5.016V160.9S178.385,159.246,174.384,140.19Z" transform="translate(-140.935 -135)" fill="#342b6e" />
                <path
                    d="M174.384,140.19s-7.723-6.309-25.2-5.016v4.21c5.244,1.55,14.392,4.491,17.419,6.953,2.01,1.633,3.194,4.415,3.888,6.928C173.712,150.24,175.61,146.035,174.384,140.19Z"
                    transform="translate(-140.935 -135)" fill="#2f2763" />
                <path
                    d="M149.186,135.174V160.9a50.985,50.985,0,0,0,10.036-1.805,24.932,24.932,0,0,0,2.382-11.142c0-5.239-1.322-9.883-3.36-12.77A58.11,58.11,0,0,0,149.186,135.174Z"
                    transform="translate(-140.935 -134.999)" fill="#972029" />
                <ellipse cx="7.918" cy="12.528" rx="7.918" ry="12.528" transform="translate(0.333 0.508)" fill="#4d2d6e" />
                <path
                    d="M153.68,136.222c-3.565,1.217-6.246,6.24-6.246,12.242,0,4.874,1.773,9.1,4.348,11.166,3.567-1.217,6.248-6.24,6.248-12.241C158.03,142.514,156.258,138.292,153.68,136.222Z"
                    transform="translate(-141.862 -134.353)" fill="#392256" />
                <g transform="translate(0.81 0.833)">
                    <path d="M152.791,137.6a2.475,2.475,0,0,0-2.738-2.053,2.412,2.412,0,0,0-2.619,2.145c.034,1.159.827,9.137,2.305,9.111S152.823,138.757,152.791,137.6Z"
                        transform="translate(-142.672 -135.545)" fill="#9c9fce" />
                    <path
                        d="M155.226,143.792c.6-.5,2.065-1.712,1.093-3.409-.605-1.058-1.263-2.136-3.261.012-.514.553-4.962,4.707-3.894,5.508S154.62,144.285,155.226,143.792Z"
                        transform="translate(-141.844 -133.636)" fill="#9c9fce" />
                    <path d="M145.681,143.793c-.581-.474-1.908-.326-1.118-3.32.3-1.14,1.136-2.114,3.073-.041.5.534,4.8,4.531,3.808,5.334S146.264,144.269,145.681,143.793Z"
                        transform="translate(-144.319 -133.602)" fill="#9c9fce" />
                    <path d="M153.017,153.243a2.758,2.758,0,0,1-5.357,0c0-1.159,1.2-9.432,2.678-9.432S153.017,152.085,153.017,153.243Z"
                        transform="translate(-142.552 -131.174)" fill="#9c9fce" />
                    <path d="M145.8,146.416c-.5.561-1.706,1.938-.416,3.5.806.972,1.665,1.96,3.22-.4.4-.608,3.987-5.247,2.775-5.91S146.3,145.856,145.8,146.416Z"
                        transform="translate(-144.06 -131.336)" fill="#9c9fce" />
                    <path d="M154.9,144.8c1.671.844,3.27.9,1.891,3.389-.558,1.009-.888,1.983-3.192.176-.592-.466-5.589-3.88-4.764-4.8S154.215,144.449,154.9,144.8Z"
                        transform="translate(-141.977 -131.438)" fill="#9c9fce" />
                </g>
                <path d="M152.252,144.565a2.474,2.474,0,1,1-2.417-3A2.758,2.758,0,0,1,152.252,144.565Z" transform="translate(-141.87 -131.529)" fill="#812413" />
                <path d="M149.818,141.564a2.762,2.762,0,0,0-2.4,3,2.938,2.938,0,0,0,1.856,2.914,2.762,2.762,0,0,0,2.4-3A2.939,2.939,0,0,0,149.818,141.564Z"
                    transform="translate(-141.87 -131.529)" fill="#ce2409" />
                <path d="M150.358,144.114a1.4,1.4,0,1,1-1.367-1.7A1.559,1.559,0,0,1,150.358,144.114Z" transform="translate(-141.762 -131.078)" fill="#ce5638" />
                <path d="M152.088,149.618a1.967,1.967,0,1,1-3.883,0c0-1.263.772-.423,1.845-.423S152.088,148.355,152.088,149.618Z" transform="translate(-141.454 -127.639)"
                    fill="#9c9fce" opacity="0.53" style="mix-blend-mode:screen;isolation:isolate" />
                <path d="M146.618,147.2c-.225.567-.248,1.069-.754.868a1.11,1.11,0,0,1,.813-2.052C147.184,146.221,146.843,146.638,146.618,147.2Z"
                    transform="translate(-143.007 -129.205)" fill="#9c9fce" opacity="0.53" style="mix-blend-mode:screen;isolation:isolate" />
                <path d="M151.3,144.23s3.444,1.33,3.693,1.928.057,1.656-.306,1.656-.553-1.072-1.484-1.744S150.577,144.507,151.3,144.23Z"
                    transform="translate(-139.91 -130.119)" fill="#9c9fce" opacity="0.53" style="mix-blend-mode:screen;isolation:isolate" />
                <path
                    d="M152.04,135.114c-4.557,0-8.251,5.759-8.251,12.861s3.693,12.86,8.251,12.86,8.251-5.757,8.251-12.86S156.6,135.114,152.04,135.114Zm0,25.055c-4.181,0-7.584-5.47-7.584-12.193s3.4-12.195,7.584-12.195,7.584,5.471,7.584,12.195S156.222,160.169,152.04,160.169Z"
                    transform="translate(-143.789 -134.939)" fill="#85afaf" />
            </g>
            <path d="M193.2,91.976s-10.912-21.534-21.791-23.581c-6.694-1.26-8.212,27.748-8.212,27.748Z" transform="translate(55.765 4.447)" fill="#697ce4" />
            <path d="M96.022,114.369S60.907,73.92,72.907,61.917s98.236,34.672,98.236,34.672Z" transform="translate(6.703 0)" fill="#445094" />
            <path d="M163.149,93.449C145.154,84.072,91.386,57.074,74.566,60.2c-3.282,15.237,25.347,48.215,25.347,48.215Z" transform="translate(8.762 0.003)"
                fill="#5e6fcc" />
            <path
                d="M102.725,109.908s-48.562,14.636-44.783,35.083,82.01,31.125,126.683,13.568,72.787-39.095,72.787-39.095,13.335-38.67,13.335-43.782S266.079,63.9,251.854,72.57s-28.225,21.782-37.115,21.782S139.4,75.9,121.171,78.127,102.725,109.908,102.725,109.908Z"
                transform="translate(0 4.461)" fill="#979cf0" />
            <path
                d="M259.608,74.18a8.392,8.392,0,0,0-.537-2.958c-4.624,14.285-13.939,33.782-32.3,47.422C198.01,140.016,126.556,161.169,78.8,161.86c27.707,6.11,67.439,5.906,94.688-4.8,44.672-17.558,72.787-39.095,72.787-39.095S259.608,79.292,259.608,74.18Z"
                transform="translate(11.139 5.963)" fill="#8689d4" />
            <g transform="translate(162.792 158.387)">
                <g transform="translate(0.277)">
                    <path d="M151.841,128.646s-6.409-5.236-20.907-4.161v21.343S155.16,144.457,151.841,128.646Z" transform="translate(-124.363 -124.339)" fill="#342b6e" />
                    <path
                        d="M151.841,128.646s-6.409-5.236-20.907-4.161v3.493c4.351,1.287,11.941,3.727,14.453,5.768a11.319,11.319,0,0,1,3.226,5.75A10.9,10.9,0,0,0,151.841,128.646Z"
                        transform="translate(-124.363 -124.339)" fill="#2f2763" />
                    <path
                        d="M130.934,124.484v21.343a42.286,42.286,0,0,0,8.326-1.5,20.682,20.682,0,0,0,1.977-9.244c0-4.348-1.1-8.2-2.787-10.6A48.358,48.358,0,0,0,130.934,124.484Z"
                        transform="translate(-124.363 -124.339)" fill="#972029" />
                    <path d="M133.207,145.4c-3.623,0-6.571-4.663-6.571-10.4s2.947-10.394,6.571-10.394,6.569,4.663,6.569,10.394S136.828,145.4,133.207,145.4Z"
                        transform="translate(-126.636 -124.193)" fill="#4d2d6e" />
                    <g transform="translate(0.396 0.692)">
                        <path d="M133.924,126.494a2.052,2.052,0,0,0-2.272-1.7,2,2,0,0,0-2.172,1.779c.028.96.685,7.581,1.912,7.56S133.952,127.455,133.924,126.494Z"
                            transform="translate(-125.529 -124.792)" fill="#9c9fce" />
                        <path
                            d="M135.943,131.634c.5-.411,1.714-1.42.908-2.828-.5-.878-1.049-1.773-2.706.009-.427.46-4.117,3.907-3.23,4.571S135.444,132.043,135.943,131.634Z"
                            transform="translate(-124.842 -123.208)" fill="#9c9fce" />
                        <path
                            d="M128.026,131.636c-.483-.394-1.584-.271-.928-2.756.249-.946.942-1.753,2.548-.034.414.443,3.979,3.759,3.161,4.426S128.508,132.031,128.026,131.636Z"
                            transform="translate(-126.895 -123.18)" fill="#9c9fce" />
                        <path d="M134.113,139.477a2.289,2.289,0,0,1-4.446,0c0-.962,1-7.827,2.223-7.827S134.113,138.516,134.113,139.477Z"
                            transform="translate(-125.43 -121.165)" fill="#9c9fce" />
                        <path d="M128.126,133.811a2.07,2.07,0,0,0-.346,2.9c.668.806,1.382,1.625,2.671-.335.333-.5,3.308-4.352,2.3-4.9S128.541,133.345,128.126,133.811Z"
                            transform="translate(-126.68 -121.3)" fill="#9c9fce" />
                        <path
                            d="M135.679,132.469c1.385.7,2.712.745,1.567,2.813-.462.838-.735,1.645-2.646.145-.492-.385-4.638-3.22-3.953-3.979S135.106,132.179,135.679,132.469Z"
                            transform="translate(-124.952 -121.385)" fill="#9c9fce" />
                    </g>
                    <path d="M133.477,132.276a2.053,2.053,0,1,1-2.006-2.492A2.289,2.289,0,0,1,133.477,132.276Z" transform="translate(-125.14 -121.46)" fill="#812413" />
                    <path d="M131.458,129.786a2.291,2.291,0,0,0-1.992,2.489,2.44,2.44,0,0,0,1.541,2.418A2.293,2.293,0,0,0,133,132.2,2.437,2.437,0,0,0,131.458,129.786Z"
                        transform="translate(-125.14 -121.459)" fill="#ce2409" />
                    <path d="M131.906,131.9a1.161,1.161,0,1,1-1.134-1.41A1.294,1.294,0,0,1,131.906,131.9Z" transform="translate(-125.049 -121.085)" fill="#ce5638" />
                    <path d="M133.342,136.469a1.633,1.633,0,1,1-3.223,0c0-1.049.642-.353,1.532-.353S133.342,135.421,133.342,136.469Z"
                        transform="translate(-124.794 -118.231)" fill="#9c9fce" opacity="0.53" style="mix-blend-mode:screen;isolation:isolate" />
                    <path d="M128.8,134.466c-.186.471-.2.887-.625.72a.922.922,0,0,1,.676-1.7C129.272,133.65,128.989,134,128.8,134.466Z"
                        transform="translate(-126.083 -119.531)" fill="#9c9fce" opacity="0.53" style="mix-blend-mode:screen;isolation:isolate" />
                    <path d="M132.687,132s2.859,1.1,3.067,1.6.046,1.373-.254,1.373-.46-.888-1.232-1.446S132.088,132.228,132.687,132Z"
                        transform="translate(-123.513 -120.29)" fill="#9c9fce" opacity="0.53" style="mix-blend-mode:screen;isolation:isolate" />
                </g>
                <path
                    d="M133.3,124.434c-3.782,0-6.847,4.777-6.847,10.671s3.065,10.672,6.847,10.672,6.846-4.777,6.846-10.672S137.083,124.434,133.3,124.434Zm0,20.789c-3.47,0-6.294-4.539-6.294-10.119s2.824-10.117,6.294-10.117,6.292,4.539,6.292,10.117S136.771,145.223,133.3,145.223Z"
                    transform="translate(-126.455 -124.289)" fill="#85afaf" />
            </g>
            <path
                d="M61.927,119.286a23.306,23.306,0,0,0-2.455,3.155c18.671,18.03,88.827,28.108,130.558,12.343,29.667-11.67,54.228-25.717,69.7-37.013.662-1.981,1.385-4.161,2.133-6.439-12.551,8.723-42,25.492-73.97,37.847C148.085,144.368,78.114,134.841,61.927,119.286Z"
                transform="translate(0.92 16.597)" fill="#972029" />
            <path
                d="M143.9,129.18l-.089.032q-.463,3.426-1.139,6.763c1.14-.381,2.266-.775,3.366-1.191,29.667-11.67,54.228-25.717,69.7-37.013.662-1.981,1.385-4.161,2.133-6.439C205.319,100.056,175.867,116.825,143.9,129.18Z"
                transform="translate(44.912 16.597)" fill="#781921" />
            <path
                d="M113.61,85.8c-9.087-3.059-13.337-6.39-15.2-9.234-11.169,7.9-11.242,29.014-11.242,29.014,7.557,12,32,17.114,44.007,15.558s12.667-22.225,10.223-27.782S135.391,93.135,113.61,85.8Z"
                transform="translate(15.562 8.789)" fill="#5b538a" />
            <path
                d="M128.456,116.634c-.032,0-.164.008-.2.008-12.675.514-34.1-4.7-41.091-15.8A58.865,58.865,0,0,1,89.6,85.519a50.729,50.729,0,0,1,9.321,1.165C108.926,89.131,121.041,104.826,128.456,116.634Z"
                transform="translate(15.562 13.522)" fill="#5b538a" opacity="0.24" style="mix-blend-mode:screen;isolation:isolate" />
            <path
                d="M138.074,93.356c-2.444-5.555-6-.222-27.782-7.557-9.087-3.059-13.337-6.39-15.2-9.234a13.525,13.525,0,0,0-1.65,1.336c1.868,2.843,6.253,6.353,15.341,9.413,21.78,7.335,25.336,2,27.78,7.557,1.877,4.268,1.912,17.442-3.6,24.033C139.982,113.082,140.111,97.984,138.074,93.356Z"
                transform="translate(18.88 8.789)" fill="#cbd0f2" />
            <path d="M145.425,97.017a6.778,6.778,0,1,1-6.778-6.778A6.779,6.779,0,0,1,145.425,97.017Z" transform="translate(39.199 16.018)" fill="#515497" />
            <path
                d="M138.762,104.244a7.112,7.112,0,1,1,7.112-7.112A7.12,7.12,0,0,1,138.762,104.244Zm0-13.557a6.445,6.445,0,1,0,6.445,6.445A6.453,6.453,0,0,0,138.762,90.688Z"
                transform="translate(39.084 15.903)" fill="#cbd0f2" />
            <path d="M157.886,97.093a5.539,5.539,0,1,1-5.539-5.54A5.539,5.539,0,0,1,157.886,97.093Z" transform="translate(47.099 16.713)" fill="#515497" />
            <path d="M152.462,103.082a5.873,5.873,0,1,1,5.872-5.873A5.88,5.88,0,0,1,152.462,103.082Zm0-11.08a5.206,5.206,0,1,0,5.205,5.207A5.213,5.213,0,0,0,152.462,92Z"
                transform="translate(46.983 16.598)" fill="#cbd0f2" />
            <path d="M167.27,95.821a4.207,4.207,0,1,1-4.207-4.207A4.207,4.207,0,0,1,167.27,95.821Z" transform="translate(53.469 16.745)" fill="#515497" />
            <path
                d="M163.178,100.477a4.54,4.54,0,1,1,4.54-4.54A4.546,4.546,0,0,1,163.178,100.477Zm0-8.413a3.873,3.873,0,1,0,3.874,3.872A3.877,3.877,0,0,0,163.178,92.064Z"
                transform="translate(53.354 16.63)" fill="#cbd0f2" />
            <path d="M174.266,94.132a3.389,3.389,0,1,1-3.389-3.389A3.389,3.389,0,0,1,174.266,94.132Z" transform="translate(58.034 16.285)" fill="#515497" />
            <path
                d="M170.993,97.971a3.723,3.723,0,1,1,3.723-3.723A3.727,3.727,0,0,1,170.993,97.971Zm0-6.778a3.055,3.055,0,1,0,3.056,3.056A3.058,3.058,0,0,0,170.993,91.192Z"
                transform="translate(57.918 16.169)" fill="#cbd0f2" />
            <path d="M172.618,99.373s27.392,14.965,39.783,12.984-9.653-21.04-9.653-21.04S167.284,87.537,172.618,99.373Z" transform="translate(60.457 16.284)"
                fill="#929fe4" />
            <path
                d="M212.4,111.494c5.375-.861,4.268-4.933,1.295-9.27,1.026,1.974,1.729,4.915-2.073,6.288-5.4,1.949-31.558-13.092-36.763-16.136-2.423,1.31-3.538,3.261-2.241,6.135C172.618,98.51,200.01,113.475,212.4,111.494Z"
                transform="translate(60.457 17.148)" fill="#4e5ba8" />
            <path d="M101.644,78.088a103.056,103.056,0,0,0,31.171,9.932c17.5,2.666,39.5,7.593,39.5,2.834S94.476,73.49,101.644,78.088Z" transform="translate(22.972 9.069)"
                fill="#bbc0ff" />
            <g transform="translate(153.204 131.093)">
                <path
                    d="M142.381,107.318s-19.559,1.778-21.558,8.225,1.333,14.89,1.333,14.89S187.219,172.1,222.779,168.99c0,0,6.5.56,6.5-4.774,0-12.447-55.784-56.007-55.784-56.007S154.672,105.018,142.381,107.318Z"
                    transform="translate(-120.183 -106.485)" fill="#697ce4" />
                <path d="M139.789,108.954s-15.335.5-13.5,6,75.176,42.839,81.51,39-35.837-43.838-43.505-45S139.789,108.954,139.789,108.954Z"
                    transform="translate(-117.036 -105.453)" fill="#929fe4" opacity="0.42" />
                <path d="M133.4,114.037s13.392,13,20.725,7.5-1.333-9.335-8.167-10.669S130.675,109.869,133.4,114.037Z" transform="translate(-113.473 -104.535)"
                    fill="#bbc0ff" opacity="0.42" />
                <path
                    d="M178.268,147.482c-8.394-3.955-16.683-8.131-25-12.248-18.713-9.266-28.187-17.146-32.266-23.119a3.834,3.834,0,0,0-.182.453c-2,6.445,1.333,14.89,1.333,14.89s64.464,40.941,100.7,40.267a6.476,6.476,0,0,0,6.427-6.485c0-1.64-.975-3.825-2.657-6.373,1.238,1.876,4.068,8.053-.214,8.333C217.821,163.76,190.345,153.17,178.268,147.482Z"
                    transform="translate(-120.183 -103.508)" fill="#5564b8" />
                <path
                    d="M201.3,154.828a6.476,6.476,0,0,0,6.427-6.485c0-1.594-.928-3.7-2.522-6.162,1.292,2.09,3.785,7.852-.349,8.122-7.693.5-30.541-7.943-43.9-13.8q3.708,6.091,7.844,11.81C180.453,152.34,191.836,155,201.3,154.828Z"
                    transform="translate(-98.626 -90.612)" fill="#4e5ba8" />
                <path d="M189.943,140.29c-.046-.075-.092-.147-.135-.211C189.855,140.151,189.9,140.22,189.943,140.29Z" transform="translate(-83.368 -88.722)"
                    fill="#5564b8" />
            </g>
            <path d="M90.312,98.551s-24.853,6.2-17.648,13.407,50.544,4.358,50.544,4.358S83.3,105.565,90.312,98.551Z" transform="translate(7.203 20.413)" fill="#bbc0ff" />
            <path d="M198.028,71.475s-31.653,17.737-29.337,20.053,2.668,2,8.835.9S201.177,72.962,198.028,71.475Z" transform="translate(58.606 6.097)" fill="#bbc0ff" />
            <path d="M130.78,118.963a.955.955,0,1,1-.955-.957A.956.956,0,0,1,130.78,118.963Z" transform="translate(37.614 30.7)" fill="#515497" />
            <path d="M138.79,123.783a.891.891,0,1,1-.89-.891A.89.89,0,0,1,138.79,123.783Z" transform="translate(41.917 33.283)" fill="#515497" />
            <path d="M148.535,128.594a.748.748,0,1,1-.749-.748A.748.748,0,0,1,148.535,128.594Z" transform="translate(47.222 35.903)" fill="#515497" />
        </g>
        <path
            d="M194.64,57.726c1.511-.958,4.674-4.393,1.069-4.765-3.213-.335-5.522.875-7.8,2.862a9.32,9.32,0,0,1-1.059-.66c-.258-.191-.7-.08-1.113.157-6.226-1.052-11.872-3.089-17.816-5.251-6.873-2.5-14.322-3.974-21.5-5.321-15.32-2.878-31.005-.754-46.037,2.61-.241.054-.787.707-.3.617,15.99-2.888,32.292-3.79,48.205.191,6.357,1.592,12.7,2.811,18.869,5.08,5.415,1.987,10.8,4.457,16.62,4.168a15.336,15.336,0,0,0-5.217,5.073c-1.045,1.642-1.059,5.2,1.689,3.609,2.563-1.491,4.179-3.947,5.9-6.31.888,3.753-.077,8.595.3,11.936l.027-.03c.188.372,1.649-.157,1.756-.948a62.219,62.219,0,0,0,.171-9.215c-.007-.191-.017-.392-.023-.586.221.278.449.553.684.818a32.128,32.128,0,0,0,4.292,4.376c.533.4,1.766-.613,1.659-1.213-.3-1.749-2.717-2.654-3.85-3.9-.787-.868-1.716-1.612-2.533-2.446A7.793,7.793,0,0,0,194.64,57.726Zm-12.864,5.7c-.533.848-1.267.818-2.195-.08a5.527,5.527,0,0,1,1.1-2.225,12.168,12.168,0,0,1,4.463-3.8,6.894,6.894,0,0,1,.493.9A53.657,53.657,0,0,1,181.776,63.423Zm7.7-7.446a5.064,5.064,0,0,1,3.726-1.186c.449-.01,2.64.044,1.84.988-1.4,1.632-3.9,1.391-5.964.586C189.219,56.242,189.339,56.1,189.48,55.977Z"
            transform="translate(166.219 4133.17)" fill="#3363ae" />
    </g>
</svg>