<svg xmlns="http://www.w3.org/2000/svg" xmlns:xlink="http://www.w3.org/1999/xlink" width="106.001" height="115.815" viewBox="0 0 106.001 115.815">
    <defs>
        <filter id="Subtraction_9" x="4.502" y="19.817" width="97.998" height="95.998" filterUnits="userSpaceOnUse">
            <feOffset dy="3" input="SourceAlpha" />
            <feGaussianBlur stdDeviation="3" result="blur" />
            <feFlood flood-opacity="0.161" />
            <feComposite operator="in" in2="blur" />
            <feComposite in="SourceGraphic" />
        </filter>
        <filter id="Subtraction_6" x="0" y="7" width="106.001" height="106" filterUnits="userSpaceOnUse">
            <feOffset dy="3" input="SourceAlpha" />
            <feGaussianBlur stdDeviation="3" result="blur-2" />
            <feFlood flood-opacity="0.161" />
            <feComposite operator="in" in2="blur-2" />
            <feComposite in="SourceGraphic" />
        </filter>
    </defs>
    <g id="Group_13000" data-name="Group 13000" transform="translate(-500 -4721.711)">
        <g transform="matrix(1, 0, 0, 1, 500, 4721.71)" filter="url(#Subtraction_9)">
            <path id="Subtraction_9-2" data-name="Subtraction 9"
                d="M75,78H5a5.006,5.006,0,0,1-5-5V5A5.006,5.006,0,0,1,5,0H27.426a12.024,12.024,0,0,0,3.686,8.663A12.649,12.649,0,0,0,40,12.258,12.431,12.431,0,0,0,52.568,0H75a5.006,5.006,0,0,1,5,5V73A5.005,5.005,0,0,1,75,78Z"
                transform="translate(13.5 25.82)" fill="#fff" />
        </g>
        <g transform="matrix(1, 0, 0, 1, 500, 4721.71)" filter="url(#Subtraction_6)">
            <path id="Subtraction_6-2" data-name="Subtraction 6"
                d="M83,88H5a5.006,5.006,0,0,1-5-5V5A5.006,5.006,0,0,1,5,0H30.17a13.737,13.737,0,0,0,4.055,9.774A13.735,13.735,0,0,0,44,13.829,13.844,13.844,0,0,0,57.827,0H83a5.006,5.006,0,0,1,5,5V83A5.005,5.005,0,0,1,83,88Z"
                transform="translate(9 13)" fill="#fff" />
        </g>
        <g id="Subtraction_5" data-name="Subtraction 5" transform="translate(512.002 4737.525)" fill="none">
            <path
                d="M78,83H5a5.006,5.006,0,0,1-5-5V5A5.006,5.006,0,0,1,5,0H24.736C25.4,8.02,32.49,14.3,40.871,14.3S56.338,8.02,57.005,0H78a5.006,5.006,0,0,1,5,5V78A5.006,5.006,0,0,1,78,83Z"
                stroke="none" />
            <path
                d="M 77.99851989746094 82.49980926513672 C 80.48004150390625 82.49980926513672 82.49890899658203 80.48133850097656 82.49890899658203 78.00032043457031 L 82.49890899658203 5.001306533813477 C 82.49890899658203 2.519773244857788 80.48004150390625 0.5009065270423889 77.99851989746094 0.5009065270423889 L 57.45829772949219 0.5009065270423889 C 56.54335784912109 8.556336402893066 49.34871673583984 14.80100631713867 40.87079620361328 14.80100631713867 C 32.39287567138672 14.80100631713867 25.19823265075684 8.556336402893066 24.28328323364258 0.5009065270423889 L 5.000406265258789 0.5009065270423889 C 2.518872976303101 0.5009065270423889 0.5000062584877014 2.519773244857788 0.5000062584877014 5.001306533813477 L 0.5000062584877014 78.00032043457031 C 0.5000062584877014 80.48133850097656 2.518872976303101 82.49980926513672 5.000406265258789 82.49980926513672 L 77.99851989746094 82.49980926513672 M 77.99851989746094 82.99980926513672 L 5.000406265258789 82.99980926513672 C 2.243172883987427 82.99980926513672 6.239149115572218e-06 80.75704193115234 6.239149115572218e-06 78.00032043457031 L 6.239149115572218e-06 5.001306533813477 C 6.239149115572218e-06 2.244073152542114 2.243172883987427 0.0009065077174454927 5.000406265258789 0.0009065077174454927 L 24.7364616394043 0.0009065077174454927 C 25.40360641479492 8.020051002502441 32.49021911621094 14.30100631713867 40.87079620361328 14.30100631713867 C 49.25098419189453 14.30100631713867 56.33801651000977 8.019651412963867 57.0051155090332 0.0009065077174454927 L 77.99851989746094 0.0009065077174454927 C 80.75572967529297 0.0009065077174454927 82.99890899658203 2.244073152542114 82.99890899658203 5.001306533813477 L 82.99890899658203 78.00032043457031 C 82.99890899658203 80.75704193115234 80.75572967529297 82.99980926513672 77.99851989746094 82.99980926513672 Z"
                stroke="none" fill="#fdc860" />
        </g>
        <ellipse id="Ellipse_2507" data-name="Ellipse 2507" cx="11" cy="11.5" rx="11" ry="11.5" transform="translate(542 4721.711)" fill="#ffc555" />
    </g>
</svg>