<svg width="45" height="45" viewBox="0 0 45 45" fill="none" xmlns="http://www.w3.org/2000/svg">
<g clip-path="url(#clip0_1_4590)">
<path d="M0 43.126C0.0123412 42.2651 0.328122 41.4362 0.891707 40.7853C1.01098 40.6438 1.12117 40.4948 1.22163 40.3394C1.33157 40.1896 1.38952 40.008 1.38661 39.8222C1.38661 39.5859 1.19935 38.8815 0.980883 37.8694C0.396815 35.1943 -0.468149 30.3434 0.860494 26.1301C1.38193 24.4275 2.21327 22.8359 3.31269 21.4352C3.63816 20.9894 3.97255 20.6416 4.27573 20.3295L4.94006 19.6518C5.72923 18.8359 6.11265 18.3544 5.53304 17.7525L5.42158 17.6276C4.31194 16.7264 3.30694 15.7034 2.42544 14.578C1.53374 13.2939 1.23948 11.9341 2.71971 10.8908C8.87695 6.53034 30.1352 8.54114 36.5422 13.7665C36.8696 13.9999 37.1278 14.3174 37.2895 14.6855C37.4512 15.0536 37.5103 15.4586 37.4606 15.8576C37.3933 16.3304 37.2326 16.785 36.988 17.1952C36.2699 18.3324 35.3656 19.3408 34.3129 20.1779C33.867 20.548 33.9339 20.8556 34.2906 21.2881C34.4844 21.5127 34.6897 21.727 34.9059 21.9301C36.3648 23.3108 37.4939 25.0023 38.2096 26.8791C38.3345 27.2001 38.4549 27.5345 38.5619 27.8912C40.0421 32.6618 38.8873 38.0923 38.6109 39.8133C38.5851 39.9609 38.5672 40.1097 38.5574 40.2592C38.5574 41.026 39.837 41.3337 39.9797 43.2642C40.0198 43.7769 39.088 44.098 37.581 44.2941C37.0683 44.361 36.4887 44.4101 35.86 44.4502C31.6066 44.7177 24.9544 44.4502 20.9863 44.4502C17.8921 44.4502 13.0368 44.6152 8.75656 44.5616C5.47953 44.526 2.55028 44.361 1.06113 43.9107H1.03885C0.3879 43.7101 0.0267496 43.4648 0.0401252 43.126" fill="url(#paint0_radial_1_4590)"/>
<g style="mix-blend-mode:multiply" opacity="0.7">
<path d="M34.8763 21.9123C33.7706 20.9983 33.1954 21.8232 32.1164 23.1161C29.9184 25.7511 24.479 29.3581 18.0765 28.7339C12.3562 28.181 9.35562 21.7741 4.27734 20.3296C5.47223 19.0544 6.2614 18.4926 5.53465 17.7391C6.47986 18.5952 12.704 24.0346 20.609 25.6129C28.6878 27.2314 36.7355 17.4583 36.9718 17.1774C36.2537 18.3146 35.3494 19.323 34.2967 20.1601C33.6413 20.6907 34.0514 21.092 34.8763 21.9123Z" fill="#E37478"/>
</g>
<g style="mix-blend-mode:multiply" opacity="0.3">
<path d="M38.8619 37.486L38.5944 39.8044L38.5409 40.2503C38.5409 40.2503 32.8518 41.8955 31.3671 43.2241C29.8824 44.5527 37.5645 44.2852 37.5645 44.2852C33.6097 44.798 25.5264 44.4413 20.9609 44.4368C15.5125 44.4368 4.46429 44.9496 1.03568 43.8973C1.40128 43.9464 6.22096 44.6018 8.71774 43.6833C10.947 42.8585 4.21907 41.7171 1.24076 40.3216C1.3507 40.1718 1.40863 39.9902 1.40573 39.8044C1.40573 39.5681 1.21847 38.8636 1 37.8516C1 37.8516 6.0961 43.7591 21.5761 43.2018C35.8836 42.6757 38.8619 37.486 38.8619 37.486Z" fill="#BE2F55"/>
</g>
<g style="mix-blend-mode:multiply" opacity="0.3">
<path d="M24.7851 26.1034C23.6437 25.8314 28.9092 24.0703 30.978 22.6569C33.3722 21.0251 34.0366 20.5926 33.769 20.9984C33.5015 21.4041 29.7742 27.2849 24.7851 26.1034Z" fill="#BE2F55"/>
</g>
<g style="mix-blend-mode:multiply" opacity="0.3">
<path d="M5.91735 18.078C5.72117 17.9889 6.84028 20.45 7.35301 21.3462C7.86574 22.2423 11.8115 26.5671 14.5937 27.5881C17.3758 28.6091 17.3223 26.5626 16.3369 24.9576C15.3516 23.3525 12.7211 23.4238 5.91735 18.078Z" fill="#BE2F55"/>
</g>
<g style="mix-blend-mode:multiply" opacity="0.5">
<path d="M38.5792 39.7956C38.5534 39.9431 38.5355 40.0919 38.5257 40.2414C38.5257 40.2414 32.5825 41.6369 31.8067 42.8764C31.2538 43.7681 34.1117 44.214 35.8194 44.4324C31.5659 44.6999 24.9138 44.4324 20.9457 44.4324C17.8515 44.4324 12.9961 44.5974 8.71593 44.5439C8.87835 44.2797 8.98598 43.9856 9.03247 43.6789C9.24648 42.0783 3.3211 41.093 0.895657 40.7631C1.01493 40.6215 1.12512 40.4726 1.22558 40.3172C1.33552 40.1674 1.39345 39.9858 1.39055 39.8C1.39055 39.5637 1.20329 38.8593 0.984819 37.8472C0.400751 35.1721 -0.4642 30.3212 0.864444 26.1078C1.38704 24.4135 2.21675 22.8296 3.31218 21.4353C-0.223443 25.818 5.51469 41.7618 21.5476 42.8363C36.3009 43.8082 38.5302 31.6899 38.169 26.8881C38.2939 27.2091 38.4142 27.5435 38.5212 27.9002C40.0104 32.6441 38.8601 38.0746 38.5792 39.7956Z" fill="#E37478"/>
</g>
<g style="mix-blend-mode:soft-light" opacity="0.3">
<path d="M8.41753 22.6837C4.2488 19.527 4.68129 33.3841 10.1608 38.7344C15.4442 43.8974 29.1185 44.2496 33.3452 39.1802C37.5006 34.1822 37.4158 27.8912 35.6146 24.4671C33.8133 21.0429 29.0204 28.5199 21.111 28.5377C12.8404 28.5689 9.52325 23.5174 8.41753 22.6837Z" fill="white"/>
</g>
<g style="mix-blend-mode:multiply" opacity="0.5">
<path d="M9.16075 44.5706C9.16075 44.5706 8.91997 43.6789 18.1447 43.1929C26.9458 42.747 32.1802 44.5706 32.1802 44.5706C32.1802 44.5706 27.249 44.4903 21.3682 44.4547C15.3002 44.4234 9.16075 44.5706 9.16075 44.5706Z" fill="#BE2F55"/>
</g>
<g style="mix-blend-mode:multiply" opacity="0.5">
<path d="M5.17747 11.9788C4.21443 12.6877 8.45002 15.1934 12.5162 18.943C16.4754 22.5946 25.0001 22.0194 29.7975 20.0889C34.4834 18.1984 33.8726 13.2004 30.4529 11.8317C26.9619 10.4317 25.3077 12.0323 17.7059 10.5788C9.77867 9.0629 7.10802 10.5521 5.17747 11.9788Z" fill="#BE2F55"/>
</g>
<g style="mix-blend-mode:multiply" opacity="0.3">
<path d="M5.19606 12.6297C4.17505 10.9667 11.3488 9.74505 15.1698 11.4304C18.9105 13.08 16.2711 20.985 15.6469 20.7443C15.0227 20.5035 12.8692 19.0768 10.1941 16.9233C7.51896 14.7698 5.8693 13.6953 5.19606 12.6297Z" fill="#BE2F55"/>
</g>
<g style="mix-blend-mode:multiply" opacity="0.3">
<path d="M26.4135 11.4749C23.6358 11.7558 22.3161 19.2506 22.8021 20.7799C23.2881 22.3092 29.9357 20.5837 32.1427 18.4793C34.3497 16.3748 33.9574 10.7348 26.4135 11.4749Z" fill="#BE2F55"/>
</g>
<g style="mix-blend-mode:soft-light" opacity="0.5">
<path d="M1.85547 11.8673C2.1319 14.0966 9.50186 21.5513 19.8323 23.6156C29.5831 25.5684 37.3454 17.8685 36.9664 15.1666C36.3467 10.775 25.8647 9.8164 17.6699 8.8489C9.10949 7.86802 3.17965 10.2623 3.44271 11.2253C3.70576 12.1883 4.04016 12.0635 5.1548 11.368C6.26943 10.6724 10.8394 9.33042 15.1419 10.2444C19.3463 11.1361 30.8181 10.7438 33.2971 13.2718C35.776 15.7998 30.9429 21.7965 22.1061 21.6048C12.8368 21.3997 7.23692 16.2946 5.64522 14.1144C5.21483 13.4869 4.65281 12.9608 3.9983 12.5727C3.34378 12.1846 2.61252 11.9439 1.85547 11.8673Z" fill="white"/>
</g>
<g style="mix-blend-mode:multiply" opacity="0.5">
<path d="M37.4476 15.8487C37.3803 16.3215 37.2196 16.7761 36.975 17.1862C36.2569 18.3235 35.3526 19.3318 34.2999 20.169C33.854 20.5391 33.9209 20.8467 34.2775 21.2792C33.7693 20.9894 27.7146 29.9689 19.4039 28.4708C11.4365 27.0352 6.63019 22.2868 4.9404 19.6518C5.72956 18.8359 6.11299 18.3544 5.53338 17.7525L5.42192 17.6276C4.31228 16.7264 3.30728 15.7034 2.42578 14.578C2.70221 14.8589 11.4721 23.8607 21.7981 23.9008C31.5846 23.9276 37.2737 16.085 37.4476 15.8487Z" fill="#BE2F55"/>
</g>
<g style="mix-blend-mode:multiply" opacity="0.3">
<path d="M31.3508 42.8363C29.3534 42.221 34.8597 38.5606 37.0266 32.809C39.1934 27.0575 39.1845 35.3682 39.1845 35.3682C39.1845 35.3682 38.5469 39.5771 38.1278 40.072C37.7087 40.5669 31.3508 42.8363 31.3508 42.8363Z" fill="#BE2F55"/>
</g>
<g style="mix-blend-mode:multiply" opacity="0.3">
<path d="M9.43503 43.1618C7.13888 42.9032 1.54788 39.8045 1.1154 38.1236C0.682919 36.4428 0.335156 29.2066 1.28482 28.5645C2.23449 27.9225 7.24144 39.0956 16.0248 42.2522C24.3979 45.2528 9.43503 43.1618 9.43503 43.1618Z" fill="#BE2F55"/>
</g>
<path d="M20.9915 35.2567C20.3049 34.4542 20.9113 33.879 21.5845 33.7096C22.2577 33.5402 24.4246 35.6669 24.8125 35.6758C24.8125 35.6758 25.5303 33.9905 25.459 33.4733C25.401 33.081 24.3845 31.5918 22.989 30.7447C23.0126 30.1374 22.9737 29.5294 22.873 28.9301C22.6011 28.6581 20.617 28.7339 20.1979 28.8186C20.1132 28.8186 20.1043 29.5008 20.1489 30.5396C18.74 31.4982 17.875 34.1064 18.5438 35.7561C19.4087 37.9051 22.7705 37 23.252 37.5395C23.7335 38.079 22.4673 39.4879 21.6737 39.4344L21.5132 39.3987C20.8177 39.1535 20.4521 37.6554 20.0329 37.4771C19.6138 37.2987 18.419 37.7892 18.2495 38.4713C18.0801 39.0732 19.8591 40.335 21.2055 40.9057C21.2288 41.3078 21.3207 41.7029 21.4775 42.0738C21.4775 42.0738 22.6011 42.3012 22.7616 42.0738C22.818 41.666 22.8478 41.255 22.8507 40.8433C24.0538 39.9721 24.9821 38.7746 25.5259 37.3924C25.9316 36.1484 21.6737 36.0682 20.9915 35.2567Z" fill="url(#paint1_linear_1_4590)"/>
<g style="mix-blend-mode:soft-light">
<path d="M18.4848 35.2122C18.7434 37.3879 20.023 33.9593 21.6057 33.7186C23.1885 33.4778 23.9643 34.9447 24.4681 34.8421C24.9719 34.7396 25.235 33.83 25.2261 33.2504C25.2171 32.6708 22.6892 29.9288 21.3516 29.9065C20.014 29.8842 18.1504 32.3944 18.4848 35.2122Z" fill="white"/>
</g>
<g style="mix-blend-mode:multiply" opacity="0.2">
<path d="M19.5448 36.1842C19.3709 36.7459 23.2142 37.2498 23.504 37.5217C23.7938 37.7937 22.8842 39.1803 23.0581 39.5192C23.232 39.858 25.1001 38.137 25.2874 37.2899C25.4746 36.4428 22.2155 36.0638 21.2747 35.5867C20.3339 35.1097 19.5448 36.1842 19.5448 36.1842Z" fill="#E02774"/>
</g>
<path d="M23.4591 31.0924C22.4292 30.4415 22.7234 32.1803 23.8826 33.1656C25.0419 34.151 25.2514 32.2204 23.4591 31.0924Z" fill="white"/>
<g style="mix-blend-mode:multiply" opacity="0.5">
<path d="M31.2286 36.3224C30.9433 37.5886 28.8344 42.9299 29.4764 43.8439C30.1185 44.7579 35.4509 44.6197 37.1986 44.3433C38.9464 44.0669 39.4814 38.5026 39.4814 38.5026L31.2286 36.3224Z" fill="#BE2F55"/>
</g>
<path d="M36.1065 44.0713C35.2458 43.8011 34.4288 43.4077 33.681 42.9032C33.4529 42.7449 33.2341 42.5738 33.0256 42.3904C32.6143 42.0474 32.242 41.6602 31.9155 41.2357C31.7825 41.0595 31.659 40.8765 31.5454 40.6873C31.3933 40.4292 31.2621 40.1593 31.1531 39.8803C31.155 39.8715 31.155 39.8623 31.1531 39.8535C30.8483 39.0761 30.7999 38.2216 31.0149 37.4147C31.0232 37.3785 31.0336 37.3427 31.046 37.3077L31.0996 37.1427L31.1352 37.058C31.1352 37.0313 31.1352 37.0045 31.1664 36.9822L31.2066 36.8931C31.2131 36.8763 31.2206 36.86 31.2289 36.844C31.3512 36.5936 31.5007 36.3573 31.6747 36.1396C31.7882 35.997 31.9103 35.8615 32.0403 35.7338C33.5562 34.2759 36.3339 33.781 39.1249 34.6593C39.5951 34.8072 40.0527 34.9921 40.4937 35.2122C42.607 36.2599 44.0605 37.9854 44.3236 39.7376C44.3837 40.1247 44.3837 40.5187 44.3236 40.9057V40.9459C44.3257 40.9547 44.3257 40.9638 44.3236 40.9726C44.2959 41.123 44.2602 41.2719 44.2166 41.4185V41.4497C44.2081 41.4772 44.1977 41.504 44.1854 41.5299C43.9374 42.1782 43.5395 42.7586 43.0242 43.2236C42.5088 43.6886 41.8907 44.0249 41.2204 44.2051H41.158L41.0911 44.1739C39.4569 44.6405 37.7201 44.6047 36.1065 44.0713Z" fill="url(#paint2_linear_1_4590)"/>
<path d="M30.9414 37.5886L30.986 37.388L30.9905 37.3746L31.2312 36.3224L31.2357 36.3001L31.3427 35.8319V35.8275L31.414 35.5199L31.4185 35.4976L31.4452 35.5065L31.5567 35.5466L31.7529 35.609L32.0115 35.6893L39.6712 38.1905L44.2903 39.6975L44.5979 39.7956L44.8164 39.8669L44.8253 39.8714L44.5801 40.4688H44.5756L44.1476 41.5032H44.1431L44.0495 41.4765L44.0272 41.4675L43.8979 41.4319L43.8399 41.4096H43.8221L40.5406 40.4332L31.7752 37.8338L31.3159 37.7001L31.2713 37.6867L31.2535 37.6822L31.0752 37.6287L30.9949 37.602L30.9414 37.5886Z" fill="url(#paint3_linear_1_4590)"/>
<path d="M36.5774 42.5821C35.6886 42.305 34.8457 41.8978 34.0761 41.3739L33.8577 41.2178L33.6927 41.093C33.1919 40.7057 32.7424 40.2562 32.3551 39.7554L32.2035 39.5548C31.7965 38.997 31.5012 38.3656 31.3341 37.6956C31.2645 37.4033 31.2271 37.1043 31.2227 36.8039C31.2227 36.7191 31.2227 36.6389 31.2227 36.5542C31.2227 36.4873 31.2227 36.4204 31.2227 36.3491V36.3223C31.2498 36.0864 31.2991 35.8535 31.3698 35.6268L31.4055 35.5198C31.5665 35.0718 31.8116 34.6586 32.1278 34.3026L32.2526 34.1599C32.2588 34.1475 32.268 34.1368 32.2793 34.1287C32.6839 33.7199 33.1579 33.3863 33.6793 33.1434C34.1183 32.937 34.5789 32.78 35.0526 32.6753C36.5674 32.3667 38.1365 32.4589 39.6047 32.9428C40.7057 33.284 41.7337 33.8268 42.6365 34.5434L42.7212 34.6192C44.0588 35.7115 44.8702 37.107 44.9505 38.4892C44.9505 38.5694 44.9505 38.6542 44.9505 38.7344C44.9505 38.8147 44.9505 38.8236 44.9505 38.8637C44.9549 38.9394 44.9549 39.0154 44.9505 39.0911V39.2204C44.9248 39.4445 44.877 39.6655 44.8078 39.8802C44.7439 40.0869 44.6603 40.287 44.5582 40.4777C44.4745 40.6333 44.3791 40.7824 44.2728 40.9235C44.2336 40.9829 44.1904 41.0395 44.1435 41.093C44.0573 41.194 43.9681 41.2921 43.876 41.3872C42.3422 42.9611 39.4665 43.4961 36.5774 42.5821Z" fill="url(#paint4_linear_1_4590)"/>
<g style="mix-blend-mode:soft-light" opacity="0.5">
<path d="M36.9326 32.5504C36.4421 32.6218 37.1778 36.4338 37.2179 38.1013C37.2581 39.7688 35.974 41.9401 36.1211 42.2076C36.2683 42.4751 39.3357 43.1974 41.0255 42.7828C42.7153 42.3681 41.2128 41.9267 40.7758 40.8255C40.3389 39.7242 40.2096 35.7561 40.5484 35.0294C40.8873 34.3026 41.3644 34.1778 41.4089 33.8791C41.4535 33.5804 39.2733 32.216 36.9326 32.5504Z" fill="white"/>
</g>
<path d="M37.1261 40.8478C34.7943 40.1121 33.2873 38.2306 33.6307 36.5542C33.6452 36.4714 33.6646 36.3895 33.6886 36.309C34.237 34.5746 36.6624 33.7944 39.1057 34.5657C41.549 35.337 43.0872 37.3701 42.5388 39.1045C42.5137 39.1835 42.484 39.2609 42.4496 39.3363C41.7675 40.9057 39.4535 41.5834 37.1261 40.8478Z" fill="url(#paint5_linear_1_4590)"/>
<path d="M37.1261 40.8477C34.7943 40.112 33.2873 38.2305 33.6307 36.5541C34.3084 34.9803 36.6268 34.3249 38.9809 35.0382C41.335 35.7516 42.8197 37.6598 42.4719 39.3363C41.7675 40.9057 39.4535 41.5834 37.1261 40.8477Z" fill="#FF9304"/>
<path d="M38.511 32.7065C39.9957 32.9473 37.3741 34.9804 36.2461 32.604C37.0025 32.5539 37.7622 32.5883 38.511 32.7065Z" fill="white"/>
<g style="mix-blend-mode:soft-light" opacity="0.5">
<path d="M34.0665 41.3694L33.8481 41.2133C33.2875 40.7916 32.78 40.3035 32.3366 39.7599C31.8328 39.1572 31.4716 38.4485 31.2799 37.6866C31.2185 37.413 31.1886 37.1333 31.1908 36.8529C31.1864 36.7891 31.1864 36.725 31.1908 36.6612C31.1963 36.5595 31.2082 36.4582 31.2264 36.358C31.2264 36.358 31.2264 36.3268 31.2264 36.3089V36.2688C31.2532 36.1217 31.2888 35.979 31.3245 35.823C31.3533 35.7158 31.3876 35.6101 31.4271 35.5064C31.6087 35.001 31.8874 34.5361 32.2474 34.1376C32.2536 34.1252 32.2628 34.1145 32.2742 34.1064C32.6606 33.6767 33.1392 33.3398 33.6742 33.1211C33.1742 33.4821 32.7245 33.9079 32.3366 34.3873C32.0503 34.7539 31.8328 35.1693 31.6946 35.6134C31.6459 35.7741 31.6087 35.938 31.5831 36.1039V36.2376C31.5328 36.7769 31.5811 37.3208 31.7258 37.8427C32.185 39.2023 32.992 40.4181 34.0665 41.3694Z" fill="white"/>
</g>
<path d="M35.5719 34.5389C35.5719 34.5389 32.5936 36.1752 34.1229 38.7032C34.1229 38.7032 32.1344 35.8319 35.5719 34.5389Z" fill="#FFE016"/>
<g style="mix-blend-mode:multiply" opacity="0.5">
<path d="M40.479 35.1498C39.6987 35.016 41.8968 36.3224 42.0082 38.507C42.1197 40.6917 38.4414 41.1153 38.4414 41.1153C38.4414 41.1153 41.7274 41.7306 42.5789 39.0331C43.2433 36.9243 40.479 35.1498 40.479 35.1498Z" fill="#D42F55"/>
</g>
<g style="mix-blend-mode:multiply" opacity="0.8">
<path d="M41.1797 44.1738C41.5662 44.0312 41.9321 43.8377 42.2676 43.5986C43.0324 43.0633 43.6466 42.3401 44.051 41.4987C44.0611 41.4853 44.0686 41.4702 44.0733 41.4541C44.1446 41.3025 44.216 41.142 44.2784 40.9726C44.2809 40.9578 44.2809 40.9427 44.2784 40.928V40.8656C44.3762 40.59 44.4566 40.3085 44.5191 40.0229L44.5593 39.8223C44.7995 38.5145 44.5504 37.164 43.8593 36.028C43.5486 35.5021 43.1592 35.027 42.7045 34.6191C44.0421 35.7115 44.8535 37.107 44.9338 38.4891C44.9338 38.5694 44.9338 38.6541 44.9338 38.7344V38.8235C44.9359 38.8368 44.9359 38.8504 44.9338 38.8637C44.9382 38.9394 44.9382 39.0153 44.9338 39.0911V39.2203C44.9081 39.4445 44.8603 39.6655 44.7911 39.8802C44.7272 40.0869 44.6436 40.287 44.5414 40.4777L44.0956 41.5165C43.8501 42.156 43.4587 42.7292 42.9524 43.1906C42.4462 43.6519 41.8391 43.9886 41.1797 44.1738Z" fill="#D42F55"/>
</g>
<g style="mix-blend-mode:multiply" opacity="0.8">
<path d="M31.9038 41.2312C31.7708 41.0551 31.6473 40.872 31.5337 40.6828C31.368 40.4322 31.2361 40.1609 31.1413 39.8758C31.1433 39.867 31.1433 39.8579 31.1413 39.8491C30.8366 39.0716 30.7882 38.2171 31.0031 37.4102L31.2394 36.358C31.2666 36.1221 31.3158 35.8892 31.3866 35.6625L31.4222 35.5555C31.5832 35.1074 31.8284 34.6943 32.1445 34.3383L32.2693 34.1956C32.2756 34.1832 32.2848 34.1725 32.2961 34.1644C32.6826 33.7347 33.1611 33.3978 33.6961 33.1791C34.1351 32.9727 34.5956 32.8156 35.0693 32.7109C34.0651 33.0916 33.1533 33.6812 32.3942 34.4408C32.0573 34.7839 31.7746 35.1763 31.556 35.6045C31.3945 35.9229 31.2775 36.262 31.2082 36.6122C31.2065 36.6448 31.2065 36.6776 31.2082 36.7102C31.2082 36.8039 31.1725 36.8975 31.1592 36.9911V37.0357C31.1324 37.2542 31.1101 37.4816 31.1012 37.6822C31.0371 38.8884 31.2989 40.0897 31.8592 41.1599L31.9038 41.2312Z" fill="#D42F55"/>
</g>
<path d="M38.4377 42.8363C36.8415 42.3369 40.8988 40.9191 41.9733 40.9369C43.0478 40.9548 42.7402 42.0872 41.9733 42.5108C40.8489 42.9502 39.6233 43.063 38.4377 42.8363Z" fill="white"/>
<path d="M25.9602 21.9525C25.0863 22.1718 24.1853 22.2634 23.2851 22.2244C23.012 22.2114 22.7396 22.1846 22.4692 22.1442C21.9399 22.0697 21.4209 21.9351 20.9221 21.7429C20.7079 21.6533 20.4994 21.5505 20.2979 21.4353C20.0332 21.2953 19.7811 21.1327 19.5444 20.9493C18.8768 20.4468 18.3877 19.7437 18.1489 18.943C18.1364 18.9079 18.126 18.8722 18.1177 18.836C18.1177 18.778 18.1177 18.72 18.082 18.6665C18.0463 18.613 18.082 18.6041 18.082 18.5729V18.4927V18.3946C18.0842 18.3768 18.0842 18.3588 18.082 18.3411C18.0508 18.0655 18.0508 17.7873 18.082 17.5118C18.1039 17.3316 18.1366 17.153 18.1801 16.9768C18.7107 14.9392 20.8196 13.0666 23.6552 12.3577C24.1077 12.2265 24.5698 12.1311 25.0373 12.0724C27.387 11.8584 29.4959 12.5762 30.6684 13.9271C30.9246 14.2282 31.1309 14.5684 31.2793 14.9347V14.9704C31.2812 14.9792 31.2812 14.9883 31.2793 14.9972C31.3376 15.1425 31.3868 15.2915 31.4264 15.443V15.4742C31.4285 15.5024 31.4285 15.5307 31.4264 15.5589C31.5493 16.2393 31.51 16.9391 31.3117 17.6015C31.1134 18.2639 30.7616 18.8701 30.285 19.371L30.2449 19.4245V19.4468C29.0989 20.6911 27.6066 21.5638 25.9602 21.9525Z" fill="url(#paint6_linear_1_4590)"/>
<path d="M18.1749 19.1257L18.108 18.934L18.1036 18.9206L17.7603 17.8996L17.7513 17.8729L17.5953 17.4226V17.4137L17.4927 17.1149L17.4883 17.0971L17.515 17.0882L17.6354 17.0614L17.8316 17.0168L18.0946 16.95L25.9283 15.0729L30.6588 13.9449L30.9709 13.8691L31.1938 13.8156L31.2027 13.8112L31.3053 14.4487V14.4532L31.4792 15.5589H31.4747L31.3811 15.5857L31.3543 15.5901L31.2295 15.6258L31.1671 15.6392L31.1537 15.6481L27.8455 16.5353L19.0131 18.9028L18.5539 19.0276L18.5093 19.0366L18.4915 19.0455L18.3131 19.0901L18.2284 19.1124L18.1749 19.1257Z" fill="url(#paint7_linear_1_4590)"/>
<path d="M25.5877 20.4366C24.6853 20.6665 23.7535 20.7597 22.8235 20.713H22.5604H22.3508C21.7224 20.6411 21.1054 20.4913 20.5139 20.2672L20.2776 20.1736C19.6395 19.9114 19.0582 19.5284 18.5655 19.0455C18.345 18.8248 18.1505 18.5795 17.9859 18.3143L17.8611 18.1048C17.8255 18.0462 17.7942 17.9851 17.7675 17.922C17.6675 17.7056 17.5884 17.4802 17.5311 17.2488L17.5044 17.1418V17.1195C17.4152 16.6511 17.4152 16.17 17.5044 15.7016L17.5311 15.5188C17.5311 15.5188 17.5311 15.4921 17.5311 15.4787C17.6622 14.9182 17.8917 14.3853 18.2089 13.9049C18.4767 13.5008 18.7876 13.1271 19.1362 12.7902C20.2638 11.7357 21.6469 10.9934 23.1489 10.6368C24.2666 10.3505 25.4281 10.2764 26.5731 10.4183H26.6845C28.3832 10.659 29.8055 11.417 30.6214 12.545C30.6701 12.6106 30.7148 12.6791 30.7552 12.7501C30.7819 12.7902 30.7997 12.8259 30.822 12.8616C30.8612 12.9265 30.8969 12.9935 30.9291 13.0622C30.9291 13.1023 30.9692 13.1424 30.987 13.1826C31.0818 13.3858 31.1565 13.5979 31.21 13.8157C31.2614 14.0266 31.2957 14.2413 31.3125 14.4577C31.3259 14.6388 31.3259 14.8206 31.3125 15.0017C31.3125 15.073 31.3125 15.1399 31.3125 15.2112C31.3125 15.3405 31.2679 15.4743 31.2367 15.6036C30.7017 17.7481 28.5259 19.7054 25.5877 20.4366Z" fill="url(#paint8_linear_1_4590)"/>
<g style="mix-blend-mode:soft-light" opacity="0.5">
<path d="M20.6475 11.6978C20.2641 12.0144 22.8768 14.8812 23.7908 16.2812C24.7048 17.6812 24.736 20.2047 25.0035 20.3563C25.271 20.5079 28.2582 19.5181 29.4977 18.2786C30.7372 17.0392 29.2079 17.4449 28.2627 16.7405C27.3175 16.036 25.1417 12.7278 25.0302 11.9119C24.9188 11.0959 25.2844 10.7616 25.164 10.4807C25.0436 10.1998 22.4666 10.1864 20.6475 11.6978Z" fill="white"/>
</g>
<path d="M25.1469 18.671C22.775 19.264 20.5056 18.4481 19.9215 16.8385C19.8916 16.7613 19.8663 16.6824 19.8457 16.6022C19.3999 14.8188 21.0629 12.9017 23.5508 12.2819C26.0386 11.6622 28.4106 12.5896 28.852 14.3551C28.852 14.4354 28.8832 14.5156 28.8966 14.6004C29.1373 16.2946 27.5189 18.0825 25.1469 18.671Z" fill="url(#paint9_linear_1_4590)"/>
<path d="M25.1475 18.671C22.7756 19.264 20.5062 18.4481 19.9221 16.8386C19.6814 15.1443 21.2998 13.3565 23.6717 12.7635C26.0437 12.1705 28.3131 12.9909 28.8972 14.6004C29.1379 16.2946 27.5195 18.0825 25.1475 18.671Z" fill="#FF9304"/>
<path d="M22.0694 11.0067C23.465 10.436 22.2924 13.5392 20.0898 12.1035C20.7065 11.6648 21.3705 11.2969 22.0694 11.0067Z" fill="white"/>
<g style="mix-blend-mode:soft-light" opacity="0.5">
<path d="M22.8109 20.713H22.5479C21.8505 20.6457 21.1636 20.496 20.5014 20.2671C19.7531 20.02 19.0703 19.607 18.504 19.0589C18.3078 18.8565 18.1357 18.6321 17.9913 18.3901C17.96 18.3366 17.9288 18.2831 17.9021 18.2251C17.8528 18.136 17.8096 18.0436 17.7728 17.9487C17.771 17.9339 17.771 17.9189 17.7728 17.9041V17.864C17.7049 17.7204 17.6453 17.573 17.5944 17.4226C17.5632 17.3111 17.5365 17.2041 17.5142 17.0971C17.4119 16.57 17.4119 16.0281 17.5142 15.501C17.5142 15.501 17.5142 15.4742 17.5142 15.4608C17.6195 14.8921 17.8511 14.3543 18.1919 13.887C17.9652 14.4591 17.8153 15.0588 17.746 15.6704C17.6983 16.1333 17.7315 16.601 17.8441 17.0525C17.8849 17.2141 17.9386 17.3721 18.0046 17.5251C18.0212 17.5679 18.0406 17.6096 18.0626 17.65C18.3012 18.1353 18.6277 18.5722 19.0256 18.9385C20.1125 19.8476 21.4168 20.4591 22.8109 20.713Z" fill="white"/>
</g>
<path d="M20.5212 14.1099C20.5212 14.1099 18.8404 17.0614 21.4709 18.4168C21.4709 18.4168 18.2697 17.0079 20.5212 14.1099Z" fill="#FFE016"/>
<g style="mix-blend-mode:multiply" opacity="0.5">
<path d="M25.0407 12.0724C24.305 12.3622 26.8642 12.3265 28.0992 14.1322C29.3342 15.9379 26.4184 18.2252 26.4184 18.2252C26.4184 18.2252 29.5393 17.0303 28.8572 14.2838C28.3132 12.1303 25.0407 12.0724 25.0407 12.0724Z" fill="#D42F55"/>
</g>
<g style="mix-blend-mode:multiply" opacity="0.8">
<path d="M30.3329 19.371C30.5895 19.049 30.801 18.6935 30.9615 18.3143C31.3336 17.4591 31.478 16.5221 31.3806 15.5946C31.3806 15.5946 31.3806 15.5634 31.3806 15.5455C31.3806 15.3806 31.3405 15.2067 31.3048 15.0284C31.3048 15.0284 31.3048 14.9971 31.3048 14.9793V14.9169C31.2419 14.6303 31.163 14.3475 31.0685 14.0698L30.9704 13.8558C30.4902 12.6162 29.5716 11.596 28.389 10.9889C27.8491 10.7032 27.2687 10.5018 26.668 10.3915C28.3667 10.6322 29.7889 11.3902 30.6048 12.5182C30.6535 12.5838 30.6982 12.6523 30.7386 12.7233C30.7575 12.7468 30.7739 12.7722 30.7877 12.7991C30.7892 12.8109 30.7892 12.8229 30.7877 12.8348C30.8268 12.8997 30.8625 12.9667 30.8947 13.0354C30.8947 13.0755 30.9348 13.1156 30.9526 13.1558C31.0474 13.359 31.1221 13.5711 31.1755 13.7889C31.227 13.9998 31.2613 14.2145 31.2781 14.4309L31.452 15.5366C31.5815 16.2187 31.5476 16.9218 31.3531 17.5882C31.1585 18.2547 30.8089 18.8656 30.3329 19.371Z" fill="#D42F55"/>
</g>
<g style="mix-blend-mode:multiply" opacity="0.8">
<path d="M20.8968 21.7295C20.6921 21.6433 20.4926 21.545 20.2994 21.4353C20.0272 21.3085 19.7736 21.145 19.5459 20.9493C18.8783 20.4468 18.3892 19.7436 18.1504 18.9429L17.8026 17.9219C17.7027 17.7055 17.6235 17.4801 17.5663 17.2487L17.5396 17.1417V17.1194C17.4504 16.651 17.4504 16.17 17.5396 15.7016L17.5663 15.5188C17.5663 15.5188 17.5663 15.492 17.5663 15.4787C17.6716 14.9099 17.9032 14.3721 18.244 13.9048C18.5118 13.5007 18.8228 13.127 19.1714 12.7902C18.5143 13.6413 18.0434 14.6211 17.7892 15.6659C17.6828 16.135 17.6482 16.6176 17.6867 17.0971C17.7175 17.4521 17.7955 17.8015 17.9185 18.1359C17.9285 18.1664 17.9404 18.1962 17.9542 18.2251C17.9854 18.3143 18.0211 18.4035 18.0568 18.4882V18.5283C18.1435 18.7277 18.2402 18.9227 18.3465 19.1124C18.9227 20.1729 19.7726 21.0597 20.8077 21.6805L20.8968 21.7295Z" fill="#D42F55"/>
</g>
<path d="M11.699 17.8016C10.8201 17.5996 9.97576 17.269 9.19327 16.8207C8.95505 16.6847 8.72433 16.5358 8.50217 16.3749C8.06633 16.0659 7.66697 15.7084 7.31175 15.3093C7.16606 15.1426 7.02915 14.9685 6.90157 14.7876C6.73106 14.5423 6.5819 14.2827 6.45572 14.0119C6.09236 13.2601 5.97685 12.4124 6.12579 11.5909C6.12579 11.5552 6.12579 11.5195 6.12579 11.4794L6.17037 11.3144L6.19712 11.2208L6.22387 11.145C6.22387 11.1138 6.22387 11.0826 6.25508 11.0558C6.25332 11.0381 6.25332 11.0201 6.25508 11.0023C6.35443 10.7441 6.48149 10.4975 6.63404 10.2667C6.7361 10.1112 6.84778 9.96233 6.96843 9.82083C8.36841 8.25142 11.1015 7.54252 13.9461 8.20684C14.4264 8.31917 14.8974 8.46822 15.355 8.65269C17.5441 9.5444 19.109 11.1495 19.5237 12.8749C19.6162 13.2554 19.6492 13.648 19.6218 14.0386V14.1055C19.6064 14.2553 19.5826 14.4042 19.5504 14.5513V14.5825V14.6717C19.3487 15.3325 18.9941 15.9364 18.5154 16.4345C18.0367 16.9326 17.4473 17.3108 16.7951 17.5386L16.7326 17.5653H16.7059C15.0995 18.1498 13.3533 18.2323 11.699 17.8016Z" fill="url(#paint10_linear_1_4590)"/>
<path d="M6.05469 11.7335L6.0859 11.5329V11.5195L6.2464 10.4495L6.25086 10.4272L6.31774 9.95457L6.3222 9.94565L6.36678 9.63356L6.37124 9.61572L6.39799 9.62018L6.51392 9.65139L6.71455 9.70044L6.97315 9.76285L14.8068 11.6666L19.5284 12.817L19.8405 12.8927L20.0634 12.9462H20.0723L19.8717 13.5615L19.5239 14.6271H19.515L19.4258 14.6093L19.3991 14.6004L19.2698 14.5736L19.2074 14.5602H19.194L15.8412 13.838L6.90181 11.9163L6.43812 11.8182L6.39354 11.8049H6.3757L6.1929 11.7647L6.10819 11.7469L6.05469 11.7335Z" fill="url(#paint11_linear_1_4590)"/>
<path d="M12.0567 16.2812C11.1495 16.0734 10.278 15.7324 9.47076 15.2691L9.2389 15.1309L9.06501 15.0194C8.53522 14.6748 8.05132 14.2643 7.62492 13.7978C7.56696 13.7354 7.50899 13.673 7.45549 13.6061C7.00862 13.0815 6.66655 12.4761 6.44786 11.8227C6.35357 11.5335 6.29373 11.2342 6.26953 10.931C6.26953 10.8462 6.26953 10.766 6.26953 10.6857C6.26953 10.6189 6.26953 10.552 6.26953 10.4806V10.4539C6.27405 10.2163 6.30544 9.97998 6.36314 9.74945C6.36995 9.71329 6.37888 9.67756 6.38989 9.64244V9.62015C6.51715 9.16062 6.73049 8.72943 7.01856 8.34947L7.13003 8.20234C7.13482 8.19028 7.14247 8.17958 7.15231 8.17113C7.53005 7.73077 7.98292 7.36092 8.48987 7.07879C8.91293 6.83903 9.3616 6.64759 9.82743 6.50809C11.2985 6.09051 12.8523 6.05826 14.3395 6.41446C15.464 6.6709 16.5312 7.13348 17.4872 7.77878L17.5764 7.84565C18.9808 8.83991 19.9082 10.1641 20.1088 11.5373C20.1224 11.6185 20.1313 11.7004 20.1356 11.7825C20.1356 11.8227 20.1356 11.8673 20.1356 11.9074C20.1356 11.9475 20.1356 12.0634 20.1356 12.1348C20.1356 12.2061 20.1356 12.2239 20.1356 12.2685C20.1263 12.494 20.0949 12.718 20.0419 12.9373C19.9938 13.1481 19.9267 13.354 19.8413 13.5526C19.7706 13.7193 19.6872 13.8803 19.5916 14.0341C19.5931 14.0415 19.5931 14.049 19.5916 14.0564C19.5561 14.1164 19.5174 14.1744 19.4757 14.2303C19.3999 14.3373 19.3152 14.4443 19.2305 14.5424C17.8349 16.2188 15.0038 16.9767 12.0567 16.2812Z" fill="url(#paint12_linear_1_4590)"/>
<g style="mix-blend-mode:soft-light" opacity="0.5">
<path d="M11.6647 6.27623C11.1787 6.38323 12.2042 10.1284 12.3736 11.787C12.5431 13.4456 11.424 15.7105 11.5889 15.9691C11.7539 16.2277 14.8749 16.7047 16.5379 16.1653C18.2009 15.6258 16.6583 15.2736 16.1411 14.2347C15.6239 13.1959 15.187 9.21886 15.4679 8.46537C15.7488 7.71188 16.2169 7.57366 16.2347 7.25265C16.2526 6.93163 13.9564 5.7412 11.6647 6.27623Z" fill="white"/>
</g>
<path d="M12.4692 14.5111C10.0883 13.9538 8.4565 12.1927 8.65268 10.4985C8.65268 10.4182 8.67942 10.3379 8.69725 10.2532C9.1119 8.46982 11.466 7.52015 13.9628 8.09976C16.4596 8.67937 18.1449 10.5921 17.7347 12.3621C17.7347 12.4468 17.6901 12.5226 17.6634 12.6029C17.1016 14.2169 14.8456 15.0684 12.4692 14.5111Z" fill="url(#paint13_linear_1_4590)"/>
<path d="M12.4692 14.5112C10.0883 13.9539 8.4565 12.1928 8.65268 10.4986C9.21445 8.8801 11.4705 8.02852 13.8513 8.58584C16.2322 9.14316 17.864 10.9043 17.6634 12.5985C17.1016 14.217 14.8456 15.0686 12.4692 14.5112Z" fill="#FF9304"/>
<path d="M13.2292 6.27622C14.7318 6.40551 12.2706 8.63478 10.9688 6.35201C11.717 6.24188 12.4753 6.21645 13.2292 6.27622Z" fill="white"/>
<g style="mix-blend-mode:soft-light" opacity="0.5">
<path d="M9.46063 15.2647L9.22877 15.1265C8.64088 14.7445 8.09927 14.2956 7.61479 13.7889C7.06246 13.2287 6.64472 12.5502 6.39315 11.8048C6.30913 11.5369 6.25677 11.2601 6.23711 10.98C6.23711 10.9131 6.23711 10.8507 6.23711 10.7883C6.22825 10.6859 6.22825 10.583 6.23711 10.4807C6.23486 10.4644 6.23486 10.4479 6.23711 10.4316V10.3915C6.23711 10.2444 6.27723 10.0972 6.30398 9.94564C6.32478 9.83566 6.35153 9.72866 6.38423 9.62462C6.5256 9.10665 6.76805 8.62177 7.09761 8.19789C7.10241 8.18584 7.11005 8.17513 7.1199 8.16668C7.47734 7.70603 7.93468 7.33254 8.45746 7.07434C7.99817 7.47536 7.59078 7.93218 7.24475 8.43419C6.99076 8.82496 6.80528 9.25619 6.69633 9.70934C6.661 9.87243 6.63718 10.0378 6.62501 10.2042C6.62501 10.2488 6.62501 10.2979 6.62501 10.3424C6.61764 10.8833 6.70826 11.4211 6.89251 11.9297C7.44447 13.2455 8.32955 14.3948 9.46063 15.2647Z" fill="white"/>
</g>
<path d="M10.4344 8.34058C10.4344 8.34058 7.59429 10.1998 9.31083 12.6029C9.31083 12.6029 7.11278 9.89215 10.4344 8.34058Z" fill="#FFE016"/>
<g style="mix-blend-mode:multiply" opacity="0.5">
<path d="M15.3786 8.57685C14.5894 8.4966 16.8855 9.63352 17.162 11.8048C17.4384 13.9761 13.8047 14.6806 13.8047 14.6806C13.8047 14.6806 17.1263 15.0417 17.7728 12.2864C18.2722 10.1329 15.3786 8.57685 15.3786 8.57685Z" fill="#D42F55"/>
</g>
<g style="mix-blend-mode:multiply" opacity="0.8">
<path d="M16.7656 17.4984C17.1398 17.325 17.4904 17.1048 17.8089 16.843C18.5269 16.2494 19.081 15.482 19.4185 14.6137C19.4202 14.5989 19.4202 14.5839 19.4185 14.5691C19.4809 14.4131 19.5388 14.2436 19.5879 14.0742C19.5899 14.0579 19.5899 14.0415 19.5879 14.0252C19.5899 14.0044 19.5899 13.9835 19.5879 13.9628C19.6668 13.6806 19.7249 13.393 19.7617 13.1023C19.7617 13.0354 19.7617 12.9685 19.7885 12.8972C19.9282 11.5753 19.5759 10.2483 18.7987 9.16984C18.4508 8.66205 18.0267 8.21091 17.5414 7.83228C18.9458 8.82653 19.8732 10.1507 20.0739 11.5239C20.0874 11.6051 20.0963 11.687 20.1006 11.7692C20.1006 11.7959 20.1006 11.8271 20.1006 11.8539V11.894C20.1006 11.9743 20.1006 12.0501 20.1006 12.1214C20.1006 12.1927 20.1006 12.2106 20.1006 12.2551C20.0913 12.4806 20.06 12.7046 20.007 12.9239C19.9589 13.1347 19.8917 13.3406 19.8063 13.5392L19.4541 14.6048C19.2628 15.2634 18.92 15.8681 18.4531 16.3705C17.9863 16.873 17.4084 17.2592 16.7656 17.4984Z" fill="#D42F55"/>
</g>
<g style="mix-blend-mode:multiply" opacity="0.8">
<path d="M7.29224 15.2959C7.14655 15.1293 7.00964 14.9552 6.88206 14.7743C6.69958 14.5367 6.54964 14.2758 6.43621 13.9985C6.07285 13.2467 5.95731 12.3991 6.10625 11.5775L6.26678 10.5074C6.2713 10.2699 6.30269 10.0335 6.36039 9.803C6.3672 9.76684 6.37613 9.73111 6.38714 9.696V9.6737C6.5144 9.21418 6.72774 8.78298 7.01581 8.40302L7.12728 8.25589C7.13208 8.24384 7.13972 8.23313 7.14956 8.22468C7.507 7.76403 7.96435 7.39053 8.48712 7.13234C8.91018 6.89258 9.35885 6.70114 9.82468 6.56165C8.85384 7.0195 7.98965 7.67561 7.28778 8.48773C6.97761 8.85542 6.72643 9.26905 6.54321 9.71383C6.40783 10.0437 6.31637 10.39 6.27122 10.7438C6.27122 10.775 6.27122 10.8106 6.27122 10.8418C6.27122 10.937 6.2623 11.0306 6.24447 11.1227V11.1673C6.24447 11.3902 6.24447 11.6132 6.24447 11.8138C6.26119 13.005 6.59185 14.1708 7.20306 15.1934L7.29224 15.2959Z" fill="#D42F55"/>
</g>
<path d="M14.3396 22.1843C13.4607 21.9822 12.6164 21.6517 11.8339 21.2034C11.5954 21.0679 11.3646 20.919 11.1428 20.7576C10.707 20.4485 10.3076 20.0911 9.95237 19.692C9.80668 19.5253 9.66978 19.3512 9.5422 19.1703C9.37263 18.9244 9.22351 18.6649 9.09634 18.3945C8.73298 17.6428 8.61747 16.7951 8.76642 15.9736C8.76894 15.9364 8.76894 15.8992 8.76642 15.8621C8.76642 15.8086 8.79761 15.7506 8.81099 15.6927L8.83774 15.6035L8.86449 15.5277L8.8957 15.4341C8.90397 15.4181 8.91144 15.4018 8.91802 15.385C9.01737 15.1268 9.14443 14.8802 9.29698 14.6494C9.39904 14.4939 9.51072 14.345 9.63137 14.2035C11.0314 12.6341 13.7644 11.9252 16.6134 12.5895C17.0922 12.7025 17.5617 12.8515 18.0179 13.0354C20.207 13.9271 21.7764 15.5322 22.1866 17.2576C22.2791 17.6381 22.3122 18.0307 22.2847 18.4213V18.4882C22.2693 18.638 22.2455 18.7869 22.2133 18.934V18.9652C22.2154 18.9949 22.2154 19.0247 22.2133 19.0544C22.0027 19.7116 21.6402 20.3099 21.1553 20.801C20.6704 21.2921 20.0768 21.6621 19.4223 21.8811L19.3644 21.9079H19.3332C17.7344 22.5005 15.994 22.5968 14.3396 22.1843Z" fill="url(#paint14_linear_1_4590)"/>
<path d="M8.71094 16.1162L8.74215 15.9156V15.8977L8.90265 14.8322L8.90711 14.8099L8.97399 14.3328L8.97845 14.3283L9.02303 14.0162L9.02749 13.9984L9.05424 14.0029L9.17017 14.0341L9.3708 14.0787L9.63385 14.1411L17.463 16.0493L22.1846 17.1996L22.4967 17.2754L22.7197 17.3289H22.733L22.5279 17.9442V17.9487L22.1802 19.0098H22.1713L22.0821 18.9875L22.0553 18.9831L21.926 18.9563L21.8636 18.9429L21.8502 18.9385L18.4974 18.2206L9.56252 16.299L9.09437 16.2009L9.04979 16.1876H9.03195L8.84915 16.1474L8.76444 16.1296L8.71094 16.1162Z" fill="url(#paint15_linear_1_4590)"/>
<path d="M14.7113 20.6639C13.7979 20.4578 12.9203 20.1167 12.1075 19.6518C12.0807 19.6518 11.996 19.5894 11.8801 19.5136L11.7018 19.4022C11.1728 19.0564 10.689 18.646 10.2616 18.1805C10.2037 18.1181 10.1457 18.0557 10.0922 17.9888C9.64534 17.4643 9.30327 16.8588 9.08458 16.2054C8.99029 15.9162 8.93045 15.6169 8.90625 15.3137C8.90625 15.229 8.90625 15.1487 8.90625 15.0685C8.90625 15.0016 8.90625 14.9347 8.90625 14.8634V14.8366C8.91297 14.5992 8.94436 14.3631 8.99989 14.1322L9.02664 14.0252C9.15389 13.5656 9.36721 13.1344 9.65528 12.7545L9.76674 12.6074V12.5761C10.1434 12.1347 10.5965 11.7647 11.1043 11.4838C11.5262 11.2417 11.9751 11.0501 12.4419 10.9131C13.9292 10.478 15.5043 10.4381 17.0119 10.7972C18.1269 11.0573 19.1847 11.5197 20.1328 12.1615L20.222 12.2284C21.6265 13.2226 22.5538 14.5468 22.7545 15.92C22.7677 15.9998 22.7767 16.0801 22.7812 16.1608C22.7812 16.2054 22.7812 16.25 22.7812 16.2901C22.7812 16.3302 22.7812 16.4462 22.7812 16.5175C22.7812 16.5888 22.7812 16.6067 22.7812 16.6512C22.7719 16.8767 22.7406 17.1007 22.6876 17.32C22.6403 17.5295 22.5731 17.7341 22.487 17.9308C22.4154 18.0971 22.3319 18.258 22.2373 18.4124C22.2387 18.4197 22.2387 18.4273 22.2373 18.4347C22.2017 18.4946 22.1631 18.5527 22.1214 18.6085C22.0449 18.7166 21.963 18.8208 21.8761 18.9206C20.4895 20.6015 17.6628 21.355 14.7113 20.6639Z" fill="url(#paint16_linear_1_4590)"/>
<g style="mix-blend-mode:soft-light" opacity="0.5">
<path d="M14.3037 10.6367C13.8222 10.7437 14.8432 14.4889 15.0126 16.1475C15.182 17.8061 14.0629 20.071 14.2324 20.3296C14.4018 20.5882 17.5138 21.0653 19.1769 20.5258C20.8399 19.9863 19.2973 19.6519 18.7979 18.5952C18.2985 17.5386 17.8438 13.5794 18.1247 12.8259C18.4055 12.0724 18.8737 11.9342 18.8915 11.6132C18.9094 11.2921 16.6132 10.1195 14.3037 10.6367Z" fill="white"/>
</g>
<path d="M15.1293 18.8939C12.7485 18.3366 11.1167 16.5755 11.3128 14.8813C11.3128 14.801 11.3396 14.7208 11.3574 14.636C11.7721 12.8526 14.1262 11.903 16.6229 12.4826C19.1197 13.0622 20.8051 14.9749 20.3949 16.7449C20.3726 16.8296 20.3503 16.9054 20.3235 16.9857C19.7617 18.5997 17.5057 19.4468 15.1293 18.8939Z" fill="url(#paint17_linear_1_4590)"/>
<path d="M15.1293 18.8939C12.7485 18.3366 11.1167 16.5755 11.3128 14.8812C11.8746 13.2628 14.1306 12.4112 16.5115 12.9685C18.8923 13.5258 20.5242 15.287 20.3235 16.9812C19.7617 18.5997 17.5057 19.4468 15.1293 18.8939Z" fill="#FF9304"/>
<path d="M15.8855 10.6679C17.388 10.7972 14.9269 13.0265 13.625 10.7437C14.3733 10.6336 15.1315 10.6082 15.8855 10.6679Z" fill="white"/>
<g style="mix-blend-mode:soft-light" opacity="0.5">
<path d="M12.1113 19.6519C12.0845 19.6519 11.9998 19.5895 11.8839 19.5137C11.2936 19.1331 10.7503 18.6841 10.2654 18.1761C9.71308 17.6159 9.29535 16.9374 9.04378 16.1921C8.95977 15.9226 8.90741 15.6443 8.88774 15.3628C8.88774 15.3003 8.88774 15.2379 8.88774 15.1755C8.88117 15.0731 8.88117 14.9703 8.88774 14.8679V14.7787C8.88774 14.6316 8.92785 14.4844 8.9546 14.3328C8.9546 14.2214 9.0081 14.1144 9.03485 14.0118C9.17622 13.4939 9.41868 13.009 9.74823 12.5851V12.5539C10.1056 12.0931 10.5629 11.7196 11.0858 11.4615C10.6241 11.853 10.2149 12.3026 9.8686 12.7991C9.61461 13.1899 9.42915 13.6211 9.32021 14.0742C9.28708 14.2377 9.26327 14.403 9.24888 14.5691C9.24888 14.6137 9.24888 14.6628 9.24888 14.7074C9.24156 15.2468 9.33219 15.7831 9.51638 16.2901C10.0716 17.6188 10.9665 18.7782 12.1113 19.6519Z" fill="white"/>
</g>
<path d="M13.0906 12.7233C13.0906 12.7233 10.2505 14.5825 11.9671 16.9856C11.9671 16.9767 9.76903 14.2748 13.0906 12.7233Z" fill="#FFE016"/>
<g style="mix-blend-mode:multiply" opacity="0.5">
<path d="M18.0348 12.9641C17.2456 12.8838 19.5418 14.0207 19.8182 16.192C20.0946 18.3633 16.4609 19.0678 16.4609 19.0678C16.4609 19.0678 19.7825 19.4289 20.429 16.6736C20.9284 14.5156 18.0348 12.9641 18.0348 12.9641Z" fill="#D42F55"/>
</g>
<g style="mix-blend-mode:multiply" opacity="0.8">
<path d="M19.4219 21.8812C19.796 21.7078 20.1466 21.4876 20.4652 21.2258C21.1845 20.6335 21.7388 19.8657 22.0747 18.9965C22.0747 18.9965 22.0747 18.9653 22.0747 18.9519C22.1326 18.7959 22.1906 18.6265 22.2396 18.457C22.2417 18.4408 22.2417 18.4243 22.2396 18.408C22.2411 18.3872 22.2411 18.3664 22.2396 18.3456C22.318 18.063 22.3776 17.7755 22.418 17.4851C22.418 17.4182 22.418 17.3469 22.418 17.28C22.5577 15.9581 22.2054 14.6311 21.4282 13.5526C21.0803 13.0449 20.6562 12.5937 20.1709 12.2151C21.5753 13.2093 22.5027 14.5335 22.7034 15.9068C22.7166 15.9865 22.7256 16.0668 22.7301 16.1475C22.7321 16.1772 22.7321 16.207 22.7301 16.2367V16.2768C22.7301 16.3571 22.7301 16.4329 22.7301 16.5042C22.7301 16.5755 22.7301 16.5934 22.7301 16.638C22.7208 16.8634 22.6895 17.0874 22.6365 17.3067C22.5891 17.5163 22.522 17.7208 22.4358 17.9176L22.0881 18.9831C21.8996 19.6402 21.5604 20.2443 21.0976 20.7474C20.6348 21.2505 20.061 21.6387 19.4219 21.8812Z" fill="#D42F55"/>
</g>
<g style="mix-blend-mode:multiply" opacity="0.8">
<path d="M9.95237 19.6787C9.80668 19.512 9.66978 19.3379 9.5422 19.157C9.35972 18.9194 9.20978 18.6585 9.09634 18.3812C8.73298 17.6295 8.61747 16.7818 8.76642 15.9602L8.92692 14.8902C8.93364 14.6528 8.96503 14.4167 9.02056 14.1857L9.04731 14.0787C9.17456 13.6192 9.38787 13.188 9.67595 12.808L9.78741 12.6609V12.6297C10.1447 12.169 10.6021 11.7954 11.125 11.5374C11.5469 11.2953 11.9958 11.1037 12.4625 10.9667C11.4893 11.4226 10.6233 12.079 9.92119 12.8928C9.61256 13.2616 9.36151 13.6749 9.17659 14.1189C9.04121 14.4488 8.94978 14.795 8.90463 15.1488C8.90463 15.18 8.90463 15.2112 8.90463 15.2469C8.90463 15.339 8.89571 15.4326 8.87788 15.5278V15.5723C8.87788 15.7953 8.87788 16.0182 8.87788 16.2188C8.9132 17.4008 9.2592 18.5525 9.88105 19.5583L9.95237 19.6787Z" fill="#D42F55"/>
</g>
<path d="M25.9563 19.2372C25.0824 19.4561 24.1814 19.5477 23.2812 19.5091C23.0081 19.4961 22.7357 19.4693 22.4653 19.4289C21.9364 19.3523 21.4176 19.2177 20.9182 19.0276C20.7039 18.9501 20.494 18.8608 20.2895 18.7601C20.0248 18.6202 19.7727 18.4576 19.536 18.2741C18.871 17.7701 18.3838 17.0674 18.145 16.2678C18.1325 16.2328 18.1221 16.197 18.1138 16.1608C18.1138 16.1028 18.087 16.0449 18.0781 15.9914C18.076 15.9602 18.076 15.9289 18.0781 15.8977V15.8175V15.7194C18.0759 15.7016 18.0759 15.6837 18.0781 15.6659C18.0469 15.3903 18.0469 15.1122 18.0781 14.8366C18.0978 14.6561 18.1306 14.4773 18.1762 14.3016C18.7067 12.264 20.8156 10.3914 23.6513 9.68254C24.1052 9.55106 24.5689 9.45565 25.0379 9.39719C27.3875 9.18318 29.4964 9.90101 30.669 11.2519C30.9216 11.5408 31.1277 11.8672 31.2798 12.2194V12.2551V12.2819C31.3382 12.4272 31.3873 12.5762 31.427 12.7277V12.7589C31.427 12.7857 31.427 12.8169 31.427 12.8436C31.5499 13.524 31.5106 14.2238 31.3123 14.8862C31.1139 15.5486 30.7622 16.1548 30.2856 16.6557L30.241 16.7092C29.098 17.9617 27.6054 18.8423 25.9563 19.2372Z" fill="url(#paint18_linear_1_4590)"/>
<path d="M18.1676 16.4105L18.1008 16.2188L18.0963 16.2054L17.7485 15.18L17.7441 15.1577L17.588 14.7074V14.6984L17.4855 14.3997L17.4766 14.3819L17.5078 14.373L17.6237 14.3462L17.8243 14.3016L18.0829 14.2348L25.921 12.3577L30.6471 11.2297L30.9636 11.1539L31.1821 11.1004L31.1955 11.0959L31.2936 11.7335L31.298 11.738L31.4719 12.8437H31.4674L31.3738 12.8704L31.3471 12.8749L31.2222 12.9106L31.1598 12.9239L31.1464 12.9329L27.8337 13.8157L19.0058 16.1876L18.5466 16.308L18.4976 16.3214L18.4842 16.3258L18.3014 16.3749L18.2211 16.3971L18.1676 16.4105Z" fill="url(#paint19_linear_1_4590)"/>
<path d="M25.58 17.7213C24.6787 17.949 23.7487 18.0421 22.8202 17.9977H22.5526H22.3476C21.7174 17.9274 21.0987 17.7776 20.5062 17.5519L20.2699 17.4627C19.6334 17.2001 19.0536 16.8171 18.5622 16.3347C18.3464 16.1214 18.1564 15.8834 17.996 15.6258C17.9514 15.5544 17.9113 15.4876 17.8712 15.4118C17.84 15.3538 17.8088 15.2914 17.782 15.229C17.6832 15.0116 17.6027 14.7864 17.5413 14.5557C17.5316 14.5205 17.5242 14.4848 17.519 14.4487V14.4264C17.4025 13.9477 17.3828 13.4505 17.461 12.964C17.461 12.9016 17.461 12.8392 17.4922 12.7812C17.4901 12.7679 17.4901 12.7544 17.4922 12.7411C17.6275 12.1846 17.8599 11.6563 18.1788 11.1806C18.4466 10.7766 18.7576 10.4028 19.1062 10.066C20.2337 9.01144 21.6168 8.26919 23.1189 7.91251C24.2366 7.62629 25.398 7.55219 26.543 7.69404H26.6545C28.3532 7.9348 29.7755 8.69275 30.5914 9.82076C30.6415 9.8863 30.6877 9.95479 30.7296 10.0259L30.7965 10.1373C30.8356 10.2023 30.8713 10.2693 30.9035 10.338L30.9615 10.4539C31.0536 10.6598 31.1281 10.873 31.1844 11.0914C31.2365 11.302 31.2694 11.5169 31.2825 11.7335C31.2958 11.9145 31.2958 12.0963 31.2825 12.2774V12.2997C31.2825 12.371 31.2825 12.4379 31.2825 12.5093C31.2825 12.6386 31.2423 12.7723 31.2111 12.9016C30.6939 15.0283 28.5226 16.9767 25.58 17.7213Z" fill="url(#paint20_linear_1_4590)"/>
<g style="mix-blend-mode:soft-light" opacity="0.5">
<path d="M20.6389 8.98264C20.2599 9.29919 22.8682 12.166 23.7866 13.566C24.7051 14.966 24.7319 17.4851 24.9949 17.6411C25.258 17.7972 28.2541 16.7985 29.498 15.5634C30.742 14.3284 29.2082 14.7297 28.263 14.0252C27.3178 13.3208 25.142 10.0126 25.0306 9.19665C24.9191 8.38074 25.2847 8.04635 25.1643 7.76546C25.044 7.48457 22.458 7.47119 20.6389 8.98264Z" fill="white"/>
</g>
<path d="M25.143 15.9558C22.7711 16.5488 20.5017 15.7329 19.9176 14.1233C19.8883 14.0459 19.863 13.967 19.8418 13.887C19.396 12.1036 21.059 10.1864 23.5469 9.56671C26.0347 8.94697 28.4067 9.87435 28.8436 11.6399C28.8647 11.7207 28.881 11.8025 28.8926 11.8851C29.1334 13.5794 27.5105 15.3628 25.143 15.9558Z" fill="url(#paint21_linear_1_4590)"/>
<path d="M25.1436 15.9557C22.7717 16.5487 20.5023 15.7328 19.9182 14.1232C19.6775 12.429 21.2959 10.6411 23.6678 10.0481C26.0398 9.45516 28.3092 10.2755 28.8933 11.8851C29.134 13.5793 27.5111 15.3627 25.1436 15.9557Z" fill="#FF9304"/>
<path d="M22.0655 8.29151C23.4566 7.71636 22.2885 10.824 20.0859 9.38831C20.7026 8.9496 21.3666 8.58169 22.0655 8.29151Z" fill="white"/>
<g style="mix-blend-mode:soft-light" opacity="0.5">
<path d="M22.8099 17.9978H22.5424C21.8449 17.9313 21.1578 17.7816 20.4959 17.5519C19.7478 17.307 19.066 16.8937 18.5029 16.3436C18.3015 16.1316 18.1277 15.8949 17.9857 15.6392L17.8921 15.4742C17.8451 15.3846 17.8034 15.2923 17.7673 15.1978V15.1532V15.1131C17.7139 14.9774 17.6677 14.839 17.629 14.6984C17.5978 14.587 17.5755 14.48 17.5533 14.373C17.451 13.8458 17.451 13.304 17.5533 12.7768C17.5512 12.7635 17.5512 12.75 17.5533 12.7367C17.645 12.1786 17.858 11.6474 18.1774 11.1807C17.9525 11.7534 17.8027 12.3529 17.7316 12.9641C17.6824 13.4267 17.7141 13.8944 17.8252 14.3462C17.8695 14.5073 17.9246 14.6652 17.9902 14.8188C17.9902 14.859 18.0258 14.9035 18.0481 14.9437C18.2864 15.4292 18.6129 15.8662 19.0112 16.2322C20.1028 17.1402 21.4119 17.7487 22.8099 17.9978Z" fill="white"/>
</g>
<path d="M20.5139 11.3947C20.5139 11.3947 18.8375 14.3462 21.4725 15.7016C21.4725 15.7016 18.2668 14.3016 20.5139 11.3947Z" fill="#FFE016"/>
<g style="mix-blend-mode:multiply" opacity="0.5">
<path d="M25.0407 9.34814C24.305 9.63795 26.8642 9.60228 28.0992 11.408C29.3342 13.2137 26.4184 15.5009 26.4184 15.5009C26.4184 15.5009 29.5393 14.306 28.8572 11.5596C28.3043 9.39719 25.0407 9.34814 25.0407 9.34814Z" fill="#D42F55"/>
</g>
<g style="mix-blend-mode:multiply" opacity="0.8">
<path d="M30.3257 16.6557C30.5807 16.3319 30.7907 15.9749 30.9499 15.5946C31.3177 14.7382 31.4619 13.8023 31.369 12.8749C31.369 12.8749 31.369 12.8437 31.369 12.8259C31.369 12.6609 31.3244 12.487 31.2932 12.3087V12.2596C31.2953 12.2389 31.2953 12.218 31.2932 12.1972C31.2339 11.9102 31.1564 11.6273 31.0613 11.3501C31.039 11.2877 31.0123 11.2208 30.9855 11.1584C30.5067 9.91933 29.5897 8.89918 28.4085 8.29154C27.8681 8.00711 27.2879 7.8057 26.6875 7.69409C28.3862 7.93485 29.8085 8.6928 30.6244 9.82081C30.6745 9.88635 30.7207 9.95484 30.7626 10.0259C30.7626 10.0259 30.7938 10.0749 30.8116 10.1017C30.8295 10.1285 30.8116 10.124 30.8116 10.1374C30.8508 10.2024 30.8865 10.2693 30.9186 10.338L30.9766 10.4539C31.0687 10.6598 31.1433 10.8731 31.1995 11.0915C31.2517 11.3021 31.2845 11.517 31.2976 11.7335L31.476 12.8392C31.7613 14.1501 31.3021 15.5099 30.3257 16.6557Z" fill="#D42F55"/>
</g>
<g style="mix-blend-mode:multiply" opacity="0.8">
<path d="M20.8921 19.0143C20.6871 18.9403 20.4862 18.8554 20.2902 18.7602C20.0174 18.6345 19.7637 18.4709 19.5367 18.2742C18.8717 17.7702 18.3844 17.0674 18.1456 16.2679L17.7489 15.1934C17.6501 14.976 17.5696 14.7508 17.5081 14.5201C17.4985 14.4849 17.491 14.4492 17.4858 14.4131V14.3908C17.3844 13.9215 17.3753 13.4369 17.459 12.9641C17.459 12.9017 17.459 12.8392 17.4903 12.7813C17.4882 12.768 17.4882 12.7545 17.4903 12.7412C17.6001 12.1764 17.8347 11.6433 18.1769 11.1807C18.4447 10.7766 18.7556 10.4029 19.1042 10.066C18.4471 10.9172 17.9762 11.897 17.7221 12.9418C17.6157 13.4109 17.5811 13.8935 17.6195 14.373C17.6489 14.7278 17.7254 15.0772 17.8469 15.4118C17.8469 15.4475 17.8692 15.4742 17.8781 15.5055L17.9851 15.7685V15.8086C18.0743 16.0137 18.1724 16.2099 18.2705 16.3927C18.8479 17.4538 19.6993 18.3407 20.7361 18.9608L20.8921 19.0143Z" fill="#D42F55"/>
</g>
<path d="M24.4391 17.3246C23.5775 17.0547 22.7603 16.6597 22.0136 16.152C21.7857 15.9935 21.5669 15.8223 21.3582 15.6392C20.9468 15.2963 20.5745 14.909 20.2481 14.4845C20.1121 14.3105 19.9884 14.1273 19.878 13.9361C19.7246 13.6778 19.5947 13.4062 19.4901 13.1246C19.4877 13.1174 19.4877 13.1096 19.4901 13.1023C19.186 12.3249 19.1361 11.4711 19.3474 10.6635C19.3474 10.6278 19.3697 10.5922 19.3786 10.5565L19.4366 10.3915L19.4678 10.3068L19.5035 10.2266C19.5135 10.1976 19.5254 10.1693 19.5391 10.1419L19.5659 10.0884C19.686 9.83803 19.8356 9.60302 20.0117 9.38838C20.124 9.24476 20.2461 9.10918 20.3773 8.98265C21.8888 7.52471 24.6709 7.02535 27.4575 7.90814C27.9268 8.05647 28.3844 8.23978 28.8263 8.45654C30.9396 9.50876 32.3931 11.2342 32.6606 12.9864C32.7208 13.3735 32.7208 13.7675 32.6606 14.1546V14.1947C32.6627 14.2035 32.6627 14.2126 32.6606 14.2214C32.637 14.3727 32.6012 14.5218 32.5536 14.6673V14.694L32.5269 14.7787C32.081 16.045 30.9931 16.9634 29.5619 17.4539H29.4951H29.4683C27.8175 17.921 26.0637 17.876 24.4391 17.3246Z" fill="url(#paint22_linear_1_4590)"/>
<path d="M19.2695 10.8418L19.3141 10.6412L19.3186 10.6278L19.5593 9.57556L19.5638 9.55327L19.6708 9.08512V9.07621L19.7421 8.77303L19.7466 8.75073L19.7733 8.75965L19.8893 8.79978L20.081 8.8622L20.3396 8.94245L27.9993 11.4437L32.6228 12.9462L32.926 13.0488L33.1445 13.1201L33.1579 13.1246L32.9082 13.7175V13.722L32.4757 14.7564H32.4713L32.3821 14.7252L32.3553 14.7207L32.2305 14.685L32.1681 14.6628L32.1547 14.6583L28.8688 13.6863L20.1033 11.087L19.6485 10.9532L19.6039 10.9399L19.5861 10.9354L19.4077 10.8819L19.323 10.8552L19.2695 10.8418Z" fill="url(#paint23_linear_1_4590)"/>
<path d="M24.9038 15.8354C24.0168 15.5573 23.1755 15.1502 22.407 14.6271C22.3328 14.5791 22.2614 14.527 22.193 14.4711C22.135 14.4354 22.0771 14.3908 22.0236 14.3507C21.5236 13.9624 21.0742 13.5131 20.686 13.0131C20.6316 12.9477 20.581 12.8792 20.5344 12.808C20.1168 12.2553 19.8136 11.6247 19.6427 10.9533C19.571 10.6614 19.5336 10.3621 19.5312 10.0616C19.5312 9.98133 19.5312 9.90108 19.5312 9.81636C19.5312 9.74949 19.5312 9.67815 19.5312 9.61127V9.58452C19.5579 9.3485 19.6072 9.11559 19.6784 8.88899C19.6882 8.85268 19.7002 8.81695 19.714 8.78198C19.8759 8.33202 20.1226 7.9173 20.4408 7.56034L20.5612 7.42213L20.5879 7.39092C20.9932 6.98294 21.4671 6.64941 21.9879 6.40558C22.4273 6.20552 22.888 6.05595 23.3611 5.95973C24.874 5.64952 26.4418 5.7402 27.9088 6.22278C29.0109 6.56364 30.0392 7.10806 30.9406 7.82786L31.0298 7.89919C32.3674 8.99599 33.1744 10.3915 33.2591 11.7737C33.2635 11.8553 33.2635 11.9372 33.2591 12.0189V12.1482V12.3756C33.2591 12.4157 33.2591 12.4603 33.2591 12.5049C33.2328 12.7285 33.1865 12.9493 33.1209 13.1647C33.0542 13.3704 32.9707 13.5702 32.8712 13.7622C32.7865 13.9182 32.6896 14.0673 32.5814 14.208C32.5412 14.266 32.4967 14.3195 32.4521 14.3774C32.3689 14.4815 32.2797 14.5796 32.1846 14.6717C30.6687 16.2144 27.7929 16.7449 24.9038 15.8354Z" fill="url(#paint24_linear_1_4590)"/>
<g style="mix-blend-mode:soft-light" opacity="0.5">
<path d="M25.2606 5.80366C24.7747 5.87499 25.5059 9.68704 25.5504 11.3545C25.595 13.022 24.302 15.1889 24.4492 15.4608C24.5963 15.7328 27.6638 16.4462 29.3536 16.036C31.0433 15.6258 29.5364 15.1755 29.1039 14.0787C28.6714 12.9819 28.5376 9.00935 28.872 8.2826C29.2064 7.55586 29.6924 7.43102 29.7326 7.1323C29.7727 6.83358 27.6058 5.46481 25.2606 5.80366Z" fill="white"/>
</g>
<path d="M25.4543 14.1011C23.1224 13.3654 21.6155 11.4839 21.9588 9.80302C21.9754 9.72174 21.9962 9.64138 22.0212 9.56226C22.5696 7.82789 24.9906 7.04765 27.4383 7.81897C29.886 8.5903 31.4153 10.6189 30.8714 12.3578C30.8446 12.438 30.8134 12.5138 30.7822 12.5896C30.1001 14.159 27.7861 14.8367 25.4543 14.1011Z" fill="url(#paint25_linear_1_4590)"/>
<path d="M25.4543 14.1009C23.1224 13.3653 21.6155 11.4838 21.9588 9.80291C22.6409 8.2335 24.9549 7.57364 27.2867 8.29147C29.6185 9.00929 31.1255 10.9131 30.7822 12.5895C30.1001 14.1589 27.7861 14.8366 25.4543 14.1009Z" fill="#FF9304"/>
<path d="M26.823 5.95529C28.3121 6.20051 25.6861 8.23361 24.5625 5.85721C25.3173 5.80686 26.0754 5.83975 26.823 5.95529Z" fill="white"/>
<g style="mix-blend-mode:soft-light" opacity="0.5">
<path d="M22.3965 14.6182C22.3224 14.5701 22.2509 14.518 22.1825 14.4621C21.6207 14.0435 21.113 13.5567 20.6711 13.0131C20.1635 12.411 19.7977 11.7024 19.601 10.9399C19.5396 10.6663 19.5096 10.3865 19.5118 10.1061C19.5118 10.0437 19.5118 9.97682 19.5118 9.9144C19.5118 9.81632 19.5118 9.71377 19.5475 9.61122C19.5454 9.59494 19.5454 9.57846 19.5475 9.56218V9.52205C19.5787 9.37492 19.6099 9.22779 19.65 9.0762C19.6813 8.96474 19.7169 8.85773 19.7526 8.75518C19.9385 8.25252 20.2201 7.7907 20.5819 7.39533L20.6086 7.36412C20.996 6.9354 21.4743 6.59873 22.0086 6.37878C21.5307 6.73518 21.0993 7.15009 20.7246 7.6138C20.4416 7.98416 20.2244 8.40041 20.0825 8.84435C20.0328 9.00444 19.997 9.16853 19.9755 9.33479C19.9755 9.37938 19.9755 9.42396 19.9755 9.46855C19.9267 10.0081 19.9765 10.552 20.1226 11.0736C20.5595 12.4328 21.3432 13.6545 22.3965 14.6182Z" fill="white"/>
</g>
<path d="M23.8982 7.79211C23.8982 7.79211 20.9244 9.4284 22.4492 11.9564C22.4492 11.9564 20.4652 9.08509 23.8982 7.79211Z" fill="#FFE016"/>
<g style="mix-blend-mode:multiply" opacity="0.5">
<path d="M28.8071 8.40302C28.0313 8.2648 30.2294 9.57561 30.3364 11.7603C30.4434 13.945 26.7695 14.3685 26.7695 14.3685C26.7695 14.3685 30.0599 14.9838 30.9115 12.2864C31.5714 10.1775 28.8071 8.40302 28.8071 8.40302Z" fill="#D42F55"/>
</g>
<g style="mix-blend-mode:multiply" opacity="0.8">
<path d="M29.4961 17.4226C29.8837 17.2794 30.251 17.086 30.5884 16.8475C31.3522 16.3109 31.9661 15.5881 32.3719 14.7475V14.7029C32.4432 14.5513 32.5101 14.3908 32.5769 14.2214V14.1768C32.5781 14.156 32.5781 14.1352 32.5769 14.1144C32.6783 13.84 32.7588 13.5583 32.8177 13.2717C32.8358 13.2044 32.8492 13.1358 32.8578 13.0666C33.1003 11.7603 32.851 10.4104 32.1578 9.27688C31.8465 8.75139 31.4589 8.27507 31.0075 7.86353C32.3451 8.96033 33.1521 10.3558 33.2368 11.738C33.2413 11.8197 33.2413 11.9015 33.2368 11.9832V12.1125V12.3399C33.2368 12.38 33.2368 12.4246 33.2368 12.4692C33.2105 12.6928 33.1643 12.9137 33.0986 13.1291C33.032 13.3347 32.9485 13.5346 32.8489 13.7265L32.4031 14.7609C32.0419 16.0226 30.9407 16.9411 29.4961 17.4226Z" fill="#D42F55"/>
</g>
<g style="mix-blend-mode:multiply" opacity="0.8">
<path d="M20.2363 14.4844C20.1003 14.3104 19.9767 14.1272 19.8663 13.936C19.7009 13.6842 19.5704 13.4113 19.4784 13.1245C19.476 13.1173 19.476 13.1095 19.4784 13.1022C19.1743 12.3248 19.1244 11.471 19.3357 10.6634L19.5765 9.61119C19.6031 9.37518 19.6524 9.14227 19.7236 8.91566C19.7335 8.87935 19.7454 8.84363 19.7592 8.80866V8.78636C19.9211 8.3364 20.1678 7.92168 20.486 7.56473L20.6064 7.42651L20.6331 7.3953C21.0205 6.96658 21.4988 6.62991 22.0331 6.40996C22.4725 6.2099 22.9332 6.06033 23.4063 5.96411C22.4041 6.34653 21.4929 6.93425 20.7312 7.68956C20.3956 8.03436 20.1145 8.42826 19.8975 8.8577C19.7365 9.17672 19.6181 9.51549 19.5452 9.86533C19.5478 9.89798 19.5478 9.93077 19.5452 9.96342C19.5452 10.057 19.5096 10.1507 19.5007 10.2398V10.2889C19.4695 10.5074 19.4516 10.7347 19.4427 10.9309C19.3758 12.1388 19.6377 13.3422 20.2007 14.413C20.1962 14.422 20.2229 14.4621 20.2363 14.4844Z" fill="#D42F55"/>
</g>
<path d="M27.6415 16.1118C26.3663 15.9558 29.2198 13.9851 30.4191 13.9182C31.6185 13.8513 31.3822 14.7832 31.1459 15.1755C30.9096 15.5679 28.9879 16.2812 27.6415 16.1118Z" fill="white"/>
<g style="mix-blend-mode:multiply" opacity="0.5">
<path d="M19.2438 12.2284C20.786 13.7445 22.6014 14.9548 24.5941 15.7952C27.9068 17.1952 29.7392 17.3423 29.7392 17.3423C29.7392 17.3423 28.1609 20.2671 25.0667 20.5435C21.9725 20.82 21.8788 19.362 21.8788 19.362C21.8788 19.362 16.1452 20.4989 13.6261 16.9767C11.107 13.4545 19.5381 9.79846 19.5381 9.79846C19.5381 9.79846 19.012 11.3768 19.2438 12.2284Z" fill="#D40C55"/>
</g>
<g style="mix-blend-mode:soft-light" opacity="0.5">
<path d="M11.9872 30.4727C10.7522 29.581 9.70443 32.5281 10.9528 33.3886C12.2012 34.2491 13.2267 31.3822 11.9872 30.4727Z" fill="#FFE0B3"/>
</g>
<g style="mix-blend-mode:soft-light" opacity="0.5">
<path d="M21.7905 23.892C20.2791 21.4442 25.8032 22.0506 29.7802 20.3251C33.7572 18.5997 29.807 23.9366 21.7905 23.892Z" fill="#FFE0B3"/>
</g>
<g style="mix-blend-mode:soft-light" opacity="0.5">
<path d="M34.2642 12.8972C33.7291 13.0131 34.2017 14.8501 33.5998 16.5978C32.9979 18.3455 36.5558 17.1016 36.5425 15.4297C36.5291 13.7577 34.2642 12.8972 34.2642 12.8972Z" fill="#FFE0B3"/>
</g>
</g>
<defs>
<radialGradient id="paint0_radial_1_4590" cx="0" cy="0" r="1" gradientUnits="userSpaceOnUse" gradientTransform="translate(20.0768 33.5491) scale(18.7927 18.7927)">
<stop stop-color="#CE5411"/>
<stop offset="1" stop-color="#B42B00"/>
</radialGradient>
<linearGradient id="paint1_linear_1_4590" x1="18.2272" y1="35.4797" x2="25.5392" y2="35.4797" gradientUnits="userSpaceOnUse">
<stop stop-color="#FF9600"/>
<stop offset="1" stop-color="#FFA900"/>
</linearGradient>
<linearGradient id="paint2_linear_1_4590" x1="31.0238" y1="37.2644" x2="44.1785" y2="41.4171" gradientUnits="userSpaceOnUse">
<stop offset="0.05" stop-color="#FF3F00"/>
<stop offset="1" stop-color="#FF6A03"/>
</linearGradient>
<linearGradient id="paint3_linear_1_4590" x1="31.0943" y1="36.5159" x2="44.5467" y2="40.7626" gradientUnits="userSpaceOnUse">
<stop offset="0.05" stop-color="#FF3F00"/>
<stop offset="1" stop-color="#FF6A03"/>
</linearGradient>
<linearGradient id="paint4_linear_1_4590" x1="31.3752" y1="35.6273" x2="44.8276" y2="39.8739" gradientUnits="userSpaceOnUse">
<stop stop-color="#FFA900"/>
<stop offset="1" stop-color="#FFC600"/>
</linearGradient>
<linearGradient id="paint5_linear_1_4590" x1="33.6905" y1="36.3066" x2="42.5383" y2="39.0997" gradientUnits="userSpaceOnUse">
<stop stop-color="#FF7C04"/>
<stop offset="1" stop-color="#D92000"/>
</linearGradient>
<linearGradient id="paint6_linear_1_4590" x1="18.0686" y1="18.8087" x2="31.4486" y2="15.4702" gradientUnits="userSpaceOnUse">
<stop offset="0.05" stop-color="#FF3F00"/>
<stop offset="1" stop-color="#FF6A03"/>
</linearGradient>
<linearGradient id="paint7_linear_1_4590" x1="17.7473" y1="18.1282" x2="31.4301" y2="14.7141" gradientUnits="userSpaceOnUse">
<stop offset="0.05" stop-color="#FF3F00"/>
<stop offset="1" stop-color="#FF6A03"/>
</linearGradient>
<linearGradient id="paint8_linear_1_4590" x1="17.5144" y1="17.2243" x2="31.1973" y2="13.8102" gradientUnits="userSpaceOnUse">
<stop stop-color="#FFA900"/>
<stop offset="1" stop-color="#FF9600"/>
</linearGradient>
<linearGradient id="paint9_linear_1_4590" x1="19.8445" y1="16.597" x2="28.8468" y2="14.3508" gradientUnits="userSpaceOnUse">
<stop stop-color="#FF7C04"/>
<stop offset="1" stop-color="#D92000"/>
</linearGradient>
<linearGradient id="paint10_linear_1_4590" x1="6.1098" y1="11.4119" x2="19.539" y2="14.5469" gradientUnits="userSpaceOnUse">
<stop offset="0.05" stop-color="#FF3F00"/>
<stop offset="1" stop-color="#FF6A03"/>
</linearGradient>
<linearGradient id="paint11_linear_1_4590" x1="6.12632" y1="10.6512" x2="19.8594" y2="13.8571" gradientUnits="userSpaceOnUse">
<stop offset="0.05" stop-color="#FF3F00"/>
<stop offset="1" stop-color="#FF6A03"/>
</linearGradient>
<linearGradient id="paint12_linear_1_4590" x1="6.33899" y1="9.74823" x2="20.0721" y2="12.9541" gradientUnits="userSpaceOnUse">
<stop stop-color="#FFA900"/>
<stop offset="1" stop-color="#FF9600"/>
</linearGradient>
<linearGradient id="paint13_linear_1_4590" x1="8.69689" y1="10.2488" x2="17.7322" y2="12.358" gradientUnits="userSpaceOnUse">
<stop stop-color="#FF7C04"/>
<stop offset="1" stop-color="#D92000"/>
</linearGradient>
<linearGradient id="paint14_linear_1_4590" x1="8.7653" y1="15.7904" x2="22.1988" y2="18.9264" gradientUnits="userSpaceOnUse">
<stop offset="0.05" stop-color="#FF3F00"/>
<stop offset="1" stop-color="#FF6A03"/>
</linearGradient>
<linearGradient id="paint15_linear_1_4590" x1="8.7786" y1="15.034" x2="22.5161" y2="18.241" gradientUnits="userSpaceOnUse">
<stop offset="0.05" stop-color="#FF3F00"/>
<stop offset="1" stop-color="#FF6A03"/>
</linearGradient>
<linearGradient id="paint16_linear_1_4590" x1="8.99059" y1="14.1267" x2="22.728" y2="17.3336" gradientUnits="userSpaceOnUse">
<stop stop-color="#FFA900"/>
<stop offset="1" stop-color="#FF9600"/>
</linearGradient>
<linearGradient id="paint17_linear_1_4590" x1="11.3574" y1="14.6327" x2="20.3927" y2="16.7419" gradientUnits="userSpaceOnUse">
<stop stop-color="#FF7C04"/>
<stop offset="1" stop-color="#D92000"/>
</linearGradient>
<linearGradient id="paint18_linear_1_4590" x1="18.0628" y1="16.0944" x2="31.4429" y2="12.7559" gradientUnits="userSpaceOnUse">
<stop offset="0.05" stop-color="#FF3F00"/>
<stop offset="1" stop-color="#FF6A03"/>
</linearGradient>
<linearGradient id="paint19_linear_1_4590" x1="17.7381" y1="15.414" x2="31.421" y2="11.9999" gradientUnits="userSpaceOnUse">
<stop offset="0.05" stop-color="#FF3F00"/>
<stop offset="1" stop-color="#FF6A03"/>
</linearGradient>
<linearGradient id="paint20_linear_1_4590" x1="17.5093" y1="14.51" x2="31.1921" y2="11.0959" gradientUnits="userSpaceOnUse">
<stop stop-color="#FFA900"/>
<stop offset="1" stop-color="#FF9600"/>
</linearGradient>
<linearGradient id="paint21_linear_1_4590" x1="19.8388" y1="13.8829" x2="28.841" y2="11.6367" gradientUnits="userSpaceOnUse">
<stop stop-color="#FF7C04"/>
<stop offset="1" stop-color="#D92000"/>
</linearGradient>
<linearGradient id="paint22_linear_1_4590" x1="19.3545" y1="10.5166" x2="32.5093" y2="14.6694" gradientUnits="userSpaceOnUse">
<stop offset="0.05" stop-color="#FF3F00"/>
<stop offset="1" stop-color="#FF6A03"/>
</linearGradient>
<linearGradient id="paint23_linear_1_4590" x1="19.425" y1="9.76803" x2="32.8775" y2="14.0147" gradientUnits="userSpaceOnUse">
<stop offset="0.05" stop-color="#FF3F00"/>
<stop offset="1" stop-color="#FF6A03"/>
</linearGradient>
<linearGradient id="paint24_linear_1_4590" x1="19.7056" y1="8.87522" x2="33.158" y2="13.1219" gradientUnits="userSpaceOnUse">
<stop stop-color="#FFA900"/>
<stop offset="1" stop-color="#FFC600"/>
</linearGradient>
<linearGradient id="paint25_linear_1_4590" x1="22.0213" y1="9.55886" x2="30.8691" y2="12.352" gradientUnits="userSpaceOnUse">
<stop stop-color="#FF7C04"/>
<stop offset="1" stop-color="#D92000"/>
</linearGradient>
<clipPath id="clip0_1_4590">
<rect width="45" height="43.9166" fill="white" transform="translate(0 0.662964)"/>
</clipPath>
</defs>
</svg>
