<svg xmlns="http://www.w3.org/2000/svg" width="215.618" height="217.883" viewBox="0 0 215.618 217.883"><path d="M135.332,218.341a5.074,5.074,0,0,1-4.921-3.869l-4.01-15.11a5.212,5.212,0,0,1,3.645-6.356,5.146,5.146,0,0,1,6.289,3.684l4.01,15.111a5.213,5.213,0,0,1-3.646,6.356,3.516,3.516,0,0,1-1.367.184Zm-55.049,0a6.9,6.9,0,0,1-1.367-.184,5.213,5.213,0,0,1-3.645-6.356l4.192-15.94a5.146,5.146,0,0,1,6.288-3.686,5.213,5.213,0,0,1,3.646,6.358l-4.192,15.938a4.977,4.977,0,0,1-4.922,3.869ZM183,190.517a5.569,5.569,0,0,1-3.646-1.474L168.325,177.9a5.268,5.268,0,0,1,0-7.371,5.131,5.131,0,0,1,7.291,0l11.028,11.147a5.271,5.271,0,0,1,0,7.371A5.138,5.138,0,0,1,183,190.517Zm-150.379,0a5.569,5.569,0,0,1-3.647-1.474,5.271,5.271,0,0,1,0-7.371l11.576-11.7a5.131,5.131,0,0,1,7.29,0,5.264,5.264,0,0,1,0,7.37l-11.573,11.7a4.994,4.994,0,0,1-3.646,1.474Zm177.812-48.093a6.888,6.888,0,0,1-1.367-.185l-14.947-4.053a5.216,5.216,0,0,1-3.647-6.358,5.107,5.107,0,0,1,6.289-3.686l14.947,4.054a5.214,5.214,0,0,1,3.646,6.358,5.073,5.073,0,0,1-4.921,3.869Zm-205.336,0a5.076,5.076,0,0,1-4.922-3.869A5.214,5.214,0,0,1,3.819,132.2l15.767-4.238a5.148,5.148,0,0,1,6.289,3.686A5.214,5.214,0,0,1,22.229,138L6.462,142.24a6.9,6.9,0,0,1-1.367.185Zm15.857-51.41a6.988,6.988,0,0,1-1.367-.184L3.819,86.593A5.215,5.215,0,0,1,.173,80.236,5.147,5.147,0,0,1,6.462,76.55l15.767,4.238a5.216,5.216,0,0,1,3.646,6.358,5.077,5.077,0,0,1-4.922,3.869Zm174.532-.184a5.077,5.077,0,0,1-4.922-3.869,5.215,5.215,0,0,1,3.646-6.358l14.947-4.054a5.106,5.106,0,0,1,6.289,3.686,5.216,5.216,0,0,1-3.646,6.358l-14.947,4.053A6.991,6.991,0,0,1,195.485,90.831ZM44.284,50.293a5.567,5.567,0,0,1-3.646-1.475l-11.575-11.7a5.266,5.266,0,0,1,0-7.37,5.132,5.132,0,0,1,7.292,0l11.483,11.7a5.263,5.263,0,0,1,0,7.37,4.933,4.933,0,0,1-3.554,1.475Zm127.687-.553a5.57,5.57,0,0,1-3.646-1.474,5.268,5.268,0,0,1,0-7.371l11.027-11.147a5.132,5.132,0,0,1,7.292,0,5.269,5.269,0,0,1,0,7.37L175.616,48.266A5.569,5.569,0,0,1,171.971,49.74ZM84.477,26.8a5.077,5.077,0,0,1-4.922-3.869L75.364,6.99A5.212,5.212,0,0,1,79.008.633,5.106,5.106,0,0,1,85.3,4.318l4.192,15.94a5.216,5.216,0,0,1-3.646,6.358,6.988,6.988,0,0,1-1.367.184Zm46.845-.829a6.991,6.991,0,0,1-1.367-.185,5.214,5.214,0,0,1-3.646-6.358l4.012-15.11A5.143,5.143,0,0,1,136.607.633a5.213,5.213,0,0,1,3.646,6.356L136.245,22.1a5.077,5.077,0,0,1-4.922,3.871Z" transform="translate(0 -0.458)" fill="#ef60a3" fill-rule="evenodd"/></svg>