<svg xmlns="http://www.w3.org/2000/svg" xmlns:xlink="http://www.w3.org/1999/xlink" width="1366" height="419" viewBox="0 0 1366 419">
    <defs>
        <clipPath id="a">
            <rect width="1366" height="419" transform="translate(0 5520)" fill="#fff" stroke="#707070" stroke-width="1" />
        </clipPath>
    </defs>
    <g transform="translate(0 -5520)" clip-path="url(#a)">
        <path
            d="M734.59,29.163c-.024,3.807-3-6.2,61.35,12.35,110.6,37.9,252.232,45.808,366.978,26.966,0,0,61.906-9.651,239.482-53.4.8-.194,1.624-.412,2.423-.582,0,0,10.113-2.449,19.618-4.656a1269.966,1269.966,0,0,1,252.407-32.469C1810.51-26.164,1939.8-6.595,2063.91,44.061q40.667,16.586,79.73,36.761V395.646c-105.24-.17-207.4-.63-312.642-.63H739.751c4.1-27.644-3.589-56.961-6.645-84.726-2.036-18.623-1.7-37.416-1.067-56.136Z"
            transform="translate(-765.641 5543.354)" fill="#0d004d" />
    </g>
</svg>