<svg xmlns="http://www.w3.org/2000/svg" xmlns:xlink="http://www.w3.org/1999/xlink" width="1366" height="376" viewBox="0 0 1366 376"><defs><clipPath id="a"><rect width="1366" height="376" transform="translate(0 452)" fill="#fff" stroke="#707070" stroke-width="1"/></clipPath><linearGradient id="b" x1="0.5" x2="0.5" y2="1" gradientUnits="objectBoundingBox"><stop offset="0" stop-color="#503a7e"/><stop offset="1" stop-color="#8456bf"/></linearGradient><filter id="c" x="-146.409" y="64.009" width="1633.11" height="477.542" filterUnits="userSpaceOnUse"><feOffset dy="5" input="SourceAlpha"/><feGaussianBlur stdDeviation="16.5" result="d"/><feFlood flood-color="#a37bf2"/><feComposite operator="in" in2="d"/><feComposite in="SourceGraphic"/></filter><linearGradient id="e" x1="0.5" x2="0.5" y2="1" gradientUnits="objectBoundingBox"><stop offset="0" stop-color="#2c1b54"/><stop offset="1" stop-color="#8456bf"/></linearGradient><filter id="f" x="-155.409" y="-82.734" width="1651.11" height="656.271" filterUnits="userSpaceOnUse"><feOffset dy="-12" input="SourceAlpha"/><feGaussianBlur stdDeviation="21.5" result="g"/><feFlood flood-color="#38255e"/><feComposite operator="in" in2="g"/><feComposite in="SourceGraphic"/></filter><filter id="h" x="-60.693" y="-36.879" width="1538.393" height="612.73" filterUnits="userSpaceOnUse"><feOffset dy="-12" input="SourceAlpha"/><feGaussianBlur stdDeviation="17.5" result="i"/><feFlood flood-opacity="0.412"/><feComposite operator="in" in2="i"/><feComposite in="SourceGraphic"/></filter></defs><g transform="translate(0 -452)" clip-path="url(#a)"><g transform="translate(0 2650)" fill="#fff" stroke="#707070" stroke-width="1"><rect width="1366" height="728" stroke="none"/><rect x="0.5" y="0.5" width="1365" height="727" fill="none"/></g><g transform="translate(-84.909 572.509)" style="isolation:isolate"><g transform="matrix(1, 0, 0, 1, 84.91, -120.51)" filter="url(#c)" style="mix-blend-mode:exclusion;isolation:isolate"><path d="M-178.728,1230.921a120.731,120.731,0,0,1,9.133-45.227c10.646-25.342,42.422-41.072,62.689-62.507,19.368-20.484,29.435-44.154,49.274-64.675C-21.758,1021.4,18.3,994.9,76.47,976.01c59.691-19.379,130.4-18.9,192.522-5.414,82.211,17.847,136.745,65.549,203.574,100.473,35.1,18.342,65.371,38.06,100.8,53.107,27.007,11.47,61.871,25.849,96,36.017,99.754,29.719,174.289,42.982,280,25.359,53.351-8.894,119.974-28.043,172.8-50.718,70.5-30.262,124.281-68.3,164.4-111.5,14.545-15.659,30.255-6.943,44.8-22.6l-70.5,314.716H-161.226c-4.994-15.425-9.475-30.961-13.165-46.559A155.533,155.533,0,0,1-178.728,1230.921Z" transform="translate(93.83 -840.4)" opacity="0.15" fill="url(#b)"/></g></g><g transform="translate(-84.909 451.766)" style="isolation:isolate"><g transform="matrix(1, 0, 0, 1, 84.91, 0.23)" filter="url(#f)"><path d="M-178.728,1353.328c.224-22.3,3.013-44.558,9.133-65.73,10.646-36.83,42.422-59.691,62.689-90.844,19.368-29.771,29.435-64.171,49.274-93.995,35.874-53.931,75.933-92.456,134.1-119.9,59.691-28.164,130.4-27.467,192.522-7.869,82.211,25.938,136.745,95.265,203.574,146.022,35.1,26.658,65.371,55.314,100.8,77.182,27.007,16.67,61.871,37.568,96,52.345,99.754,43.192,174.289,62.467,280,36.855,53.351-12.926,119.974-40.756,172.8-73.71,70.5-43.981,124.281-99.269,164.4-162.043,14.545-22.758,30.255-10.091,44.8-32.849l-70.5,457.39H-161.226c-4.994-22.418-9.475-45-13.165-67.666A324.533,324.533,0,0,1-178.728,1353.328Z" transform="translate(93.83 -961.14)" opacity="0.1" fill="url(#e)"/></g></g><g transform="matrix(1, 0, 0, 1, 0, 452)" filter="url(#h)"><path d="M2018.922,1493.823c.308-13.925,34.6-44.155,43.648-53.735a463.633,463.633,0,0,1,56.553-50.818c63.981-48.623,140.809-80.619,219.625-82.544,75.845-1.853,148.049,30.875,208.016,79.391,96.231,77.856,185.423,177.054,298.583,226.05,210.544,91.162,432.845-40.914,553.068-229.021,14.545-22.758,32.254-42.818,46.8-65.576l-11.3,496.81H2011.823Z" transform="translate(-2020.02 -1279.03)" fill="#fff"/></g></g></svg>