<svg xmlns="http://www.w3.org/2000/svg" width="663.349" height="539.77" viewBox="0 0 663.349 539.77"><g transform="translate(-429.139 -147.786)"><g transform="translate(461.112 175.289)"><path d="M482.515,119.383a33.547,33.547,0,1,1,33.546-33.548A33.585,33.585,0,0,1,482.515,119.383Zm0-64.1a30.558,30.558,0,1,0,30.557,30.557A30.591,30.591,0,0,0,482.515,55.278Z" transform="translate(-448.967 -52.289)" fill="#a74aff"/></g><g transform="translate(544.474 244.182)"><path d="M495.729,102.539a9.889,9.889,0,1,1,9.889-9.889A9.9,9.9,0,0,1,495.729,102.539Zm0-16.789a6.9,6.9,0,1,0,6.9,6.9A6.907,6.907,0,0,0,495.729,85.751Z" transform="translate(-485.84 -82.762)" fill="#6877ff"/></g><g transform="translate(482.973 583.095)"><path d="M494.425,370.027A41.475,41.475,0,1,1,535.9,328.55,41.523,41.523,0,0,1,494.425,370.027Zm0-79.962a38.486,38.486,0,1,0,38.486,38.486A38.531,38.531,0,0,0,494.425,290.065Z" transform="translate(-452.951 -287.076)" fill="#bca9ff"/></g><g transform="translate(1009.537 500.144)"><path d="M494.425,370.027A41.475,41.475,0,1,1,535.9,328.55,41.523,41.523,0,0,1,494.425,370.027Zm0-79.962a38.486,38.486,0,1,0,38.486,38.486A38.531,38.531,0,0,0,494.425,290.065Z" transform="translate(-452.951 -287.076)" fill="#bca9ff"/></g><g transform="translate(429.139 661.38)"><path d="M442.224,357.167a13.088,13.088,0,1,1,13.088-13.088A13.1,13.1,0,0,1,442.224,357.167Zm0-23.185a10.1,10.1,0,1,0,10.1,10.1A10.107,10.107,0,0,0,442.224,333.983Z" transform="translate(-429.139 -330.992)" fill="#a74aff"/></g><circle cx="10.072" cy="10.072" r="10.072" transform="translate(585.35 581.37)" fill="#e6deff"/><circle cx="10.072" cy="10.072" r="10.072" transform="translate(453.35 331.306)" fill="#e6deff"/><circle cx="5.378" cy="5.378" r="5.378" transform="translate(555.169 341.378)" fill="#ff00cf"/><g transform="translate(432.552 517.785)"><g transform="translate(13.922 18.511)"><rect width="4.52" height="16.894" transform="matrix(0.847, -0.532, 0.532, 0.847, 0, 2.403)" fill="#bca9ff"/></g><g transform="translate(7.889 20.639)"><rect width="11.907" height="4.523" transform="translate(0 11.589) rotate(-76.74)" fill="#bca9ff"/></g><g transform="translate(16.501 12.863)"><rect width="17.096" height="4.522" transform="matrix(0.994, -0.108, 0.108, 0.994, 0, 1.853)" fill="#bca9ff"/></g><g transform="translate(12.063)"><rect width="14.755" height="4.523" transform="translate(0 13.928) rotate(-70.733)" fill="#bca9ff"/></g><g transform="translate(3.18 7.944)"><rect width="4.522" height="8.011" transform="matrix(0.691, -0.723, 0.723, 0.691, 0, 3.269)" fill="#bca9ff"/></g><g transform="translate(0 16.516)"><rect width="9.799" height="4.521" transform="translate(0 3.972) rotate(-23.913)" fill="#bca9ff"/></g></g><g transform="translate(577.552 147.785)"><g transform="translate(13.922 18.511)"><rect width="4.52" height="16.894" transform="matrix(0.847, -0.532, 0.532, 0.847, 0, 2.403)" fill="#bca9ff"/></g><g transform="translate(7.889 20.639)"><rect width="11.907" height="4.523" transform="translate(0 11.589) rotate(-76.74)" fill="#bca9ff"/></g><g transform="translate(16.501 12.863)"><rect width="17.096" height="4.522" transform="matrix(0.994, -0.108, 0.108, 0.994, 0, 1.853)" fill="#bca9ff"/></g><g transform="translate(12.063)"><rect width="14.755" height="4.523" transform="translate(0 13.928) rotate(-70.733)" fill="#bca9ff"/></g><g transform="translate(3.18 7.944)"><rect width="4.522" height="8.011" transform="matrix(0.691, -0.723, 0.723, 0.691, 0, 3.269)" fill="#bca9ff"/></g><g transform="translate(0 16.516)"><rect width="9.799" height="4.521" transform="translate(0 3.972) rotate(-23.913)" fill="#bca9ff"/></g></g></g></svg>