<svg width="142" height="61" viewBox="0 0 142 61" fill="none" xmlns="http://www.w3.org/2000/svg">
<g filter="url(#filter0_d_885_1712)">
<rect x="1" y="1" width="66.4209" height="26.0298" rx="4.7123" fill="#6B00E2"/>
<rect x="1" y="1" width="66.4209" height="26.0298" rx="4.7123" stroke="black" stroke-width="0.673185"/>
</g>
<mask id="mask0_885_1712" style="mask-type:alpha" maskUnits="userSpaceOnUse" x="1" y="1" width="67" height="27">
<rect x="1" y="1" width="66.4209" height="26.0298" rx="4.7123" fill="#6B00E2"/>
</mask>
<g mask="url(#mask0_885_1712)">
<rect x="11.7734" y="19.1797" width="19.4093" height="4.73728" transform="rotate(-45 11.7734 19.1797)" stroke="#9B41FF" stroke-width="1.54193"/>
<rect x="25.4922" y="22.5293" width="19.4093" height="4.73728" transform="rotate(-135 25.4922 22.5293)" stroke="#9B41FF" stroke-width="1.54193"/>
</g>
<circle cx="52.0755" cy="14.2982" r="7.51692" fill="white" stroke="black" stroke-width="1.15645"/>
<path d="M48.2227 12.7558L52.0775 16.6107L59.5944 9.09375" stroke="black" stroke-width="1.54193"/>
<g filter="url(#filter1_d_885_1712)">
<rect x="72.5781" y="1" width="66.4209" height="26.0298" rx="4.7123" fill="#FFB72A"/>
<rect x="72.5781" y="1" width="66.4209" height="26.0298" rx="4.7123" stroke="black" stroke-width="0.673185"/>
</g>
<mask id="mask1_885_1712" style="mask-type:alpha" maskUnits="userSpaceOnUse" x="72" y="1" width="67" height="27">
<rect x="72.5781" y="1" width="66.4209" height="26.0298" rx="4.7123" fill="#6B00E2"/>
</mask>
<g mask="url(#mask1_885_1712)">
<rect x="86.9375" y="21.4199" width="14.8101" height="14.8101" transform="rotate(-90 86.9375 21.4199)" stroke="#FFD176" stroke-width="1.54193"/>
<path d="M111.242 11.0234H118.181" stroke="white" stroke-width="2.3129"/>
<path d="M111.242 17.5762H124.349" stroke="white" stroke-width="2.3129"/>
</g>
<g filter="url(#filter2_d_885_1712)">
<rect x="72.5781" y="31.9668" width="66.4209" height="26.0298" rx="4.7123" fill="#28DE7C"/>
<rect x="72.5781" y="31.9668" width="66.4209" height="26.0298" rx="4.7123" stroke="black" stroke-width="0.673185"/>
</g>
<mask id="mask2_885_1712" style="mask-type:alpha" maskUnits="userSpaceOnUse" x="72" y="31" width="67" height="27">
<rect x="72.5781" y="31.9668" width="66.4209" height="26.0298" rx="4.7123" fill="#6B00E2"/>
</mask>
<g mask="url(#mask2_885_1712)">
<rect x="86.9375" y="52.3867" width="14.8101" height="14.8101" rx="7.40504" transform="rotate(-90 86.9375 52.3867)" stroke="#79FFB7" stroke-width="1.54193"/>
<path d="M111.242 41.4766H118.181" stroke="white" stroke-width="2.3129"/>
<path d="M111.242 48.0293H124.349" stroke="white" stroke-width="2.3129"/>
</g>
<g filter="url(#filter3_d_885_1712)">
<rect x="1" y="31.9668" width="66.4209" height="26.0298" rx="4.7123" fill="#FE4E13"/>
<rect x="1" y="31.9668" width="66.4209" height="26.0298" rx="4.7123" stroke="black" stroke-width="0.673185"/>
</g>
<mask id="mask3_885_1712" style="mask-type:alpha" maskUnits="userSpaceOnUse" x="1" y="31" width="67" height="27">
<rect x="1" y="31.9668" width="66.4209" height="26.0298" rx="4.7123" fill="#6B00E2"/>
</mask>
<g mask="url(#mask3_885_1712)">
<path d="M20.4883 38.25L27.9321 50.4789L13.0444 50.4789L20.4883 38.25Z" stroke="#FF8056" stroke-width="1.54193"/>
<path d="M41.8594 41.4766H48.7981" stroke="white" stroke-width="2.3129"/>
<path d="M41.8594 48.0293H54.9658" stroke="white" stroke-width="2.3129"/>
</g>
<defs>
<filter id="filter0_d_885_1712" x="0.664062" y="0.664062" width="68.8889" height="28.7227" filterUnits="userSpaceOnUse" color-interpolation-filters="sRGB">
<feFlood flood-opacity="0" result="BackgroundImageFix"/>
<feColorMatrix in="SourceAlpha" type="matrix" values="0 0 0 0 0 0 0 0 0 0 0 0 0 0 0 0 0 0 127 0" result="hardAlpha"/>
<feOffset dx="1.79516" dy="2.01956"/>
<feComposite in2="hardAlpha" operator="out"/>
<feColorMatrix type="matrix" values="0 0 0 0 0 0 0 0 0 0 0 0 0 0 0 0 0 0 1 0"/>
<feBlend mode="normal" in2="BackgroundImageFix" result="effect1_dropShadow_885_1712"/>
<feBlend mode="normal" in="SourceGraphic" in2="effect1_dropShadow_885_1712" result="shape"/>
</filter>
<filter id="filter1_d_885_1712" x="72.2422" y="0.664062" width="68.8889" height="28.7227" filterUnits="userSpaceOnUse" color-interpolation-filters="sRGB">
<feFlood flood-opacity="0" result="BackgroundImageFix"/>
<feColorMatrix in="SourceAlpha" type="matrix" values="0 0 0 0 0 0 0 0 0 0 0 0 0 0 0 0 0 0 127 0" result="hardAlpha"/>
<feOffset dx="1.79516" dy="2.01956"/>
<feComposite in2="hardAlpha" operator="out"/>
<feColorMatrix type="matrix" values="0 0 0 0 0 0 0 0 0 0 0 0 0 0 0 0 0 0 1 0"/>
<feBlend mode="normal" in2="BackgroundImageFix" result="effect1_dropShadow_885_1712"/>
<feBlend mode="normal" in="SourceGraphic" in2="effect1_dropShadow_885_1712" result="shape"/>
</filter>
<filter id="filter2_d_885_1712" x="72.2422" y="31.6309" width="68.8889" height="28.7227" filterUnits="userSpaceOnUse" color-interpolation-filters="sRGB">
<feFlood flood-opacity="0" result="BackgroundImageFix"/>
<feColorMatrix in="SourceAlpha" type="matrix" values="0 0 0 0 0 0 0 0 0 0 0 0 0 0 0 0 0 0 127 0" result="hardAlpha"/>
<feOffset dx="1.79516" dy="2.01956"/>
<feComposite in2="hardAlpha" operator="out"/>
<feColorMatrix type="matrix" values="0 0 0 0 0 0 0 0 0 0 0 0 0 0 0 0 0 0 1 0"/>
<feBlend mode="normal" in2="BackgroundImageFix" result="effect1_dropShadow_885_1712"/>
<feBlend mode="normal" in="SourceGraphic" in2="effect1_dropShadow_885_1712" result="shape"/>
</filter>
<filter id="filter3_d_885_1712" x="0.664062" y="31.6309" width="68.8889" height="28.7227" filterUnits="userSpaceOnUse" color-interpolation-filters="sRGB">
<feFlood flood-opacity="0" result="BackgroundImageFix"/>
<feColorMatrix in="SourceAlpha" type="matrix" values="0 0 0 0 0 0 0 0 0 0 0 0 0 0 0 0 0 0 127 0" result="hardAlpha"/>
<feOffset dx="1.79516" dy="2.01956"/>
<feComposite in2="hardAlpha" operator="out"/>
<feColorMatrix type="matrix" values="0 0 0 0 0 0 0 0 0 0 0 0 0 0 0 0 0 0 1 0"/>
<feBlend mode="normal" in2="BackgroundImageFix" result="effect1_dropShadow_885_1712"/>
<feBlend mode="normal" in="SourceGraphic" in2="effect1_dropShadow_885_1712" result="shape"/>
</filter>
</defs>
</svg>
