<svg width="27" height="26" viewBox="0 0 27 26" fill="none" xmlns="http://www.w3.org/2000/svg">
<g clip-path="url(#clip0_885_1858)">
<path d="M7.5599 2.39523C7.66203 1.9398 8.17749 1.63716 8.63598 1.7651C9.79237 2.07368 10.949 2.38316 12.1045 2.69491C12.4798 2.79251 12.7455 3.14776 12.7639 3.52297C12.8644 4.33122 12.9662 5.1398 13.0681 5.94798C13.5765 5.27913 14.082 4.60863 14.5911 3.94039C14.7591 3.71236 15.0446 3.57358 15.3322 3.58525C15.4726 3.58932 15.6075 3.63312 15.7426 3.66845C17.9761 4.26819 20.2105 4.86437 22.4441 5.46541C22.904 5.58352 23.197 6.10112 23.0601 6.54595C22.1022 10.1258 21.1419 13.7049 20.1831 17.2845C20.1271 17.4971 20.0734 17.7133 19.9638 17.906C19.7104 18.374 19.2262 18.7117 18.6917 18.7915C18.4263 18.8342 18.1526 18.8109 17.8938 18.7386C16.7623 18.4358 15.6313 18.1324 14.4998 17.8296C14.3103 18.5334 14.122 19.2379 13.9333 19.9419C13.8577 20.2176 13.7968 20.4998 13.6713 20.7583C13.396 21.3516 12.8859 21.8311 12.2745 22.0817C11.739 22.3089 11.1256 22.3505 10.5587 22.2075C9.86312 22.0279 9.25464 21.5524 8.90743 20.9332C8.5696 20.3501 8.47807 19.639 8.64987 18.9946C8.87636 18.1445 9.10568 17.2951 9.33218 16.4449C8.18762 16.1374 7.04203 15.8322 5.89769 15.5238C5.39639 15.3942 4.96076 15.0388 4.73867 14.5776C4.54651 14.1919 4.51132 13.7388 4.6298 13.3289C5.60633 9.68445 6.58246 6.03988 7.5599 2.39523ZM9.05865 3.68981C8.45443 5.94317 7.85102 8.19676 7.2472 10.4502C11.2653 11.5281 15.2842 12.6046 19.3027 13.6809C19.9066 11.427 20.5104 9.17356 21.1142 6.92009C19.2995 6.43341 17.4843 5.94702 15.6693 5.46113C14.8381 6.55643 14.0085 7.65346 13.1762 8.74804C12.9729 9.02393 12.5974 9.15941 12.2588 9.07465C11.9046 8.99672 11.6208 8.68501 11.5767 8.33137C11.4017 6.96304 11.2321 5.59403 11.0589 4.22534C10.392 4.04666 9.7257 3.86769 9.05865 3.68981ZM6.79391 12.1419C6.64307 12.7049 6.49171 13.2682 6.34126 13.8312C7.69088 14.1937 9.0404 14.5549 10.3902 14.9166C10.585 14.9696 10.7937 15.0077 10.9558 15.1356C11.2352 15.3413 11.372 15.7155 11.2842 16.0461C10.9808 17.1962 10.6644 18.3433 10.3645 19.4948C10.2505 19.9751 10.6348 20.4963 11.1358 20.5414C11.5653 20.5775 11.989 20.2829 12.1036 19.8763C12.4078 18.7553 12.7043 17.6313 13.0078 16.5097C13.0968 16.1777 13.4041 15.9203 13.7515 15.8835C13.9547 15.8547 14.1537 15.9258 14.3481 15.9771C15.6975 16.3387 17.0472 16.7007 18.3968 17.0615C18.5477 16.4985 18.6986 15.9352 18.8496 15.3718C14.8313 14.2947 10.8126 13.2175 6.79391 12.1419Z" fill="black"/>
</g>
<defs>
<clipPath id="clip0_885_1858">
<rect width="21.3962" height="21" fill="white" transform="translate(5.43359) rotate(15)"/>
</clipPath>
</defs>
</svg>
