<svg width="26" height="26" viewBox="0 0 26 26" fill="none" xmlns="http://www.w3.org/2000/svg">
<path d="M23.8346 10.0208H2.16797C1.7238 10.0208 1.35547 9.65242 1.35547 9.20825C1.35547 8.76409 1.7238 8.39575 2.16797 8.39575H23.8346C24.2788 8.39575 24.6471 8.76409 24.6471 9.20825C24.6471 9.65242 24.2788 10.0208 23.8346 10.0208Z" fill="#0067E8"/>
<path d="M8.66667 18.6875H6.5C6.05583 18.6875 5.6875 18.3192 5.6875 17.875C5.6875 17.4308 6.05583 17.0625 6.5 17.0625H8.66667C9.11083 17.0625 9.47917 17.4308 9.47917 17.875C9.47917 18.3192 9.11083 18.6875 8.66667 18.6875Z" fill="#0067E8"/>
<path d="M15.7083 18.6875H11.375C10.9308 18.6875 10.5625 18.3192 10.5625 17.875C10.5625 17.4308 10.9308 17.0625 11.375 17.0625H15.7083C16.1525 17.0625 16.5208 17.4308 16.5208 17.875C16.5208 18.3192 16.1525 18.6875 15.7083 18.6875Z" fill="#0067E8"/>
<path d="M19.0246 23.0209H6.97797C2.6663 23.0209 1.35547 21.7209 1.35547 17.4526V8.54758C1.35547 4.27925 2.6663 2.97925 6.97797 2.97925H19.0138C23.3255 2.97925 24.6363 4.27925 24.6363 8.54758V17.4417C24.6471 21.7209 23.3363 23.0209 19.0246 23.0209ZM6.97797 4.60425C3.5763 4.60425 2.98047 5.18925 2.98047 8.54758V17.4417C2.98047 20.8001 3.5763 21.3851 6.97797 21.3851H19.0138C22.4155 21.3851 23.0113 20.8001 23.0113 17.4417V8.54758C23.0113 5.18925 22.4155 4.60425 19.0138 4.60425H6.97797Z" fill="#0067E8"/>
</svg>
