<svg width="21" height="21" viewBox="0 0 21 21" fill="none" xmlns="http://www.w3.org/2000/svg">
<path d="M10.5 19.9062C5.31125 19.9062 1.09375 15.6888 1.09375 10.5C1.09375 5.31125 5.31125 1.09375 10.5 1.09375C15.6888 1.09375 19.9062 5.31125 19.9062 10.5C19.9062 15.6888 15.6888 19.9062 10.5 19.9062ZM10.5 2.40625C6.0375 2.40625 2.40625 6.0375 2.40625 10.5C2.40625 14.9625 6.0375 18.5938 10.5 18.5938C14.9625 18.5938 18.5938 14.9625 18.5938 10.5C18.5938 6.0375 14.9625 2.40625 10.5 2.40625Z" fill="white"/>
<path d="M8.02533 13.632C7.85908 13.632 7.69283 13.5707 7.56158 13.4395C7.43954 13.316 7.37109 13.1493 7.37109 12.9757C7.37109 12.8021 7.43954 12.6354 7.56158 12.512L12.5141 7.55945C12.7678 7.3057 13.1878 7.3057 13.4416 7.55945C13.6953 7.8132 13.6953 8.2332 13.4416 8.48695L8.48908 13.4395C8.36658 13.5707 8.19158 13.632 8.02533 13.632Z" fill="white"/>
<path d="M12.9778 13.632C12.8116 13.632 12.6453 13.5707 12.5141 13.4395L7.56158 8.48695C7.43954 8.36346 7.37109 8.19683 7.37109 8.0232C7.37109 7.84958 7.43954 7.68295 7.56158 7.55945C7.81533 7.3057 8.23533 7.3057 8.48908 7.55945L13.4416 12.512C13.6953 12.7657 13.6953 13.1857 13.4416 13.4395C13.3103 13.5707 13.1441 13.632 12.9778 13.632Z" fill="white"/>
</svg>
