<svg width="29" height="32" viewBox="0 0 29 32" fill="none" xmlns="http://www.w3.org/2000/svg">
<g filter="url(#filter0_d_885_1286)">
<path d="M26.3917 10.4629L22.5938 5.72161L18.8682 4.20299L13.4759 4.531L8.11242 6.14808L4.35766 11.9382L2.73427 15.7185L3.26488 20.9582L4.41925 24.5267L8.86561 27.4734L19.2352 26.7339L24.1609 21.5641L26.2201 16.3315L26.3917 10.4629Z" fill="#FFD646"/>
</g>
<mask id="mask0_885_1286" style="mask-type:alpha" maskUnits="userSpaceOnUse" x="2" y="4" width="25" height="24">
<path d="M26.3878 10.4629L22.5899 5.72161L18.8643 4.20299L13.472 4.531L8.10851 6.14808L4.35375 11.9382L2.73037 15.7185L3.26098 20.9582L4.41534 24.5267L8.8617 27.4734L19.2313 26.7339L24.157 21.5641L26.2162 16.3315L26.3878 10.4629Z" fill="#FFD646"/>
</mask>
<g mask="url(#mask0_885_1286)">
<path d="M26.3878 10.4629L22.5899 5.72161L18.8643 4.20299L13.472 4.531L8.10851 6.14808L4.35375 11.9382L2.73037 15.7185L3.26098 20.9582L4.41534 24.5267L8.8617 27.4734L19.2313 26.7339L24.157 21.5641L26.2162 16.3315L26.3878 10.4629Z" fill="#FFD646"/>
<path d="M6.98828 0.703125L23.9848 31.8479" stroke="#FFFBEF" stroke-width="6.0619"/>
<path d="M1.30859 3.05859L18.3051 34.2034" stroke="#FFFBEF" stroke-width="3.7304"/>
</g>
<path d="M23.833 11.7763L20.8272 8.1147L17.89 6.93269L13.6482 7.16523L9.43375 8.38961L6.5005 12.8304L5.23699 15.7327L5.67376 19.7657L6.5952 22.5153L10.1047 24.7986L18.2615 24.2678L22.1185 20.3086L23.7196 16.2905L23.833 11.7763Z" fill="#FDBA0E"/>
<path fill-rule="evenodd" clip-rule="evenodd" d="M21.5044 8.92713L19.3431 8.05734L15.1012 8.28989L10.8868 9.51426L7.95355 13.955L6.69004 16.8573L7.12681 20.8904L7.96826 23.4013L6.6043 22.5139L5.68286 19.7643L5.24609 15.7312L6.5096 12.8289L9.44285 8.38817L13.6573 7.16379L17.8991 6.93125L20.8363 8.11326L21.5044 8.92713Z" fill="#E9850F"/>
<g filter="url(#filter1_d_885_1286)">
<path d="M11.0398 13.2694C11.0805 12.9193 11.4468 12.6446 11.7736 12.7192C14.0149 13.2307 16.4741 13.0695 18.8695 12.2541C19.2188 12.1352 19.5264 12.3657 19.4857 12.7159L19.0211 16.7135C18.7512 19.0351 16.6418 21.0411 14.3095 21.194C11.9772 21.3468 10.3053 19.5887 10.5752 17.267L11.0398 13.2694Z" fill="#FFDC61"/>
</g>
<g filter="url(#filter2_d_885_1286)">
<path d="M13.5367 12.0255L13.6137 11.3638C13.6418 11.1216 13.9001 10.9352 14.1218 10.9969L14.5501 11.1162L15.1037 10.8256C15.3644 10.6887 15.6533 10.6692 15.8864 10.7729L16.3879 10.9958L16.8603 10.8157C17.0996 10.7245 17.3174 10.8797 17.2894 11.1214L17.2123 11.7846C17.1941 11.9407 17.0738 12.0846 16.9179 12.1366L16.779 12.183C15.7958 12.511 14.7885 12.5758 13.868 12.3703L13.753 12.3447C13.6069 12.3121 13.5186 12.1817 13.5367 12.0255Z" fill="#FFDC61"/>
</g>
<path d="M14.5331 17.8729C14.6048 17.9424 14.7808 17.9309 14.8699 17.8509C14.9954 17.7382 15.1498 17.6608 15.3075 17.6346C15.3673 17.6247 15.4213 17.5698 15.4095 17.5148C15.3498 17.239 15.1072 17.0527 14.7932 17.0733C14.4791 17.0939 14.1891 17.315 14.064 17.603C14.039 17.6604 14.0811 17.709 14.1394 17.7112C14.2934 17.7169 14.4321 17.7751 14.5331 17.8729Z" fill="#E59E34"/>
<circle cx="1.4046" cy="1.4046" r="1.4046" transform="matrix(0.997859 -0.0654031 -0.115457 0.993312 12.0859 14.6328)" fill="#E69E34"/>
<path d="M12.912 15.6658V15.6658C13.1782 15.341 13.6438 15.3105 13.838 15.6051V15.6051" stroke="#FFDC61" stroke-width="0.570988" stroke-linecap="round"/>
<circle cx="1.4046" cy="1.4046" r="1.4046" transform="matrix(0.997859 -0.0654031 -0.115457 0.993312 15.3281 14.4199)" fill="#E69E34"/>
<path d="M16.1542 15.4529V15.4529C16.4204 15.1281 16.886 15.0976 17.0802 15.3922V15.3922" stroke="#FFDC61" stroke-width="0.570988" stroke-linecap="round"/>
<mask id="mask1_885_1286" style="mask-type:alpha" maskUnits="userSpaceOnUse" x="2" y="4" width="25" height="24">
<path d="M26.3956 10.4629L22.5977 5.72161L18.8721 4.20299L13.4798 4.531L8.11632 6.14808L4.36157 11.9382L2.73818 15.7185L3.2688 20.9582L4.42316 24.5267L8.86951 27.4734L19.2391 26.7339L24.1648 21.5641L26.224 16.3315L26.3956 10.4629Z" fill="#FFD646"/>
</mask>
<g mask="url(#mask1_885_1286)">
<path d="M6.99219 0.703125L19.9199 24.4639" stroke="#FFFBEF" stroke-opacity="0.25" stroke-width="6.0619"/>
<path d="M1.30859 3.05859L13.9755 26.2048" stroke="#FFFBEF" stroke-opacity="0.25" stroke-width="3.7304"/>
</g>
<defs>
<filter id="filter0_d_885_1286" x="2.73438" y="4.20312" width="25.9878" height="24.9016" filterUnits="userSpaceOnUse" color-interpolation-filters="sRGB">
<feFlood flood-opacity="0" result="BackgroundImageFix"/>
<feColorMatrix in="SourceAlpha" type="matrix" values="0 0 0 0 0 0 0 0 0 0 0 0 0 0 0 0 0 0 127 0" result="hardAlpha"/>
<feOffset dx="2.3315" dy="1.63205"/>
<feComposite in2="hardAlpha" operator="out"/>
<feColorMatrix type="matrix" values="0 0 0 0 0.725 0 0 0 0 0.493 0 0 0 0 0.145 0 0 0 1 0"/>
<feBlend mode="normal" in2="BackgroundImageFix" result="effect1_dropShadow_885_1286"/>
<feBlend mode="normal" in="SourceGraphic" in2="effect1_dropShadow_885_1286" result="shape"/>
</filter>
<filter id="filter1_d_885_1286" x="10.5469" y="12.2227" width="9.64086" height="9.67992" filterUnits="userSpaceOnUse" color-interpolation-filters="sRGB">
<feFlood flood-opacity="0" result="BackgroundImageFix"/>
<feColorMatrix in="SourceAlpha" type="matrix" values="0 0 0 0 0 0 0 0 0 0 0 0 0 0 0 0 0 0 127 0" result="hardAlpha"/>
<feOffset dx="0.69945" dy="0.69945"/>
<feComposite in2="hardAlpha" operator="out"/>
<feColorMatrix type="matrix" values="0 0 0 0 0.575 0 0 0 0 0.358193 0 0 0 0 0.0311458 0 0 0 1 0"/>
<feBlend mode="normal" in2="BackgroundImageFix" result="effect1_dropShadow_885_1286"/>
<feBlend mode="normal" in="SourceGraphic" in2="effect1_dropShadow_885_1286" result="shape"/>
</filter>
<filter id="filter2_d_885_1286" x="13.5352" y="10.707" width="3.99096" height="2.24755" filterUnits="userSpaceOnUse" color-interpolation-filters="sRGB">
<feFlood flood-opacity="0" result="BackgroundImageFix"/>
<feColorMatrix in="SourceAlpha" type="matrix" values="0 0 0 0 0 0 0 0 0 0 0 0 0 0 0 0 0 0 127 0" result="hardAlpha"/>
<feOffset dx="0.23315" dy="0.4663"/>
<feComposite in2="hardAlpha" operator="out"/>
<feColorMatrix type="matrix" values="0 0 0 0 0.576471 0 0 0 0 0.356863 0 0 0 0 0.0313726 0 0 0 1 0"/>
<feBlend mode="normal" in2="BackgroundImageFix" result="effect1_dropShadow_885_1286"/>
<feBlend mode="normal" in="SourceGraphic" in2="effect1_dropShadow_885_1286" result="shape"/>
</filter>
</defs>
</svg>
