<svg width="18" height="17" viewBox="0 0 18 17" fill="none" xmlns="http://www.w3.org/2000/svg">
<g clip-path="url(#clip0_885_1584)">
<path d="M11.61 9.06387V12.0148C11.61 14.474 10.6263 15.4576 8.16717 15.4576H5.21622C2.75709 15.4576 1.77344 14.474 1.77344 12.0148V9.06387C1.77344 6.60475 2.75709 5.62109 5.21622 5.62109H8.16717C10.6263 5.62109 11.61 6.60475 11.61 9.06387Z" stroke="white" stroke-width="1.40522" stroke-linecap="round" stroke-linejoin="round"/>
<path d="M15.8248 4.84708V7.79803C15.8248 10.2572 14.8411 11.2408 12.382 11.2408H11.6091V9.06273C11.6091 6.6036 10.6255 5.61995 8.16637 5.61995H5.98828V4.84708C5.98828 2.38795 6.97193 1.4043 9.43106 1.4043H12.382C14.8411 1.4043 15.8248 2.38795 15.8248 4.84708Z" stroke="white" stroke-width="1.40522" stroke-linecap="round" stroke-linejoin="round"/>
</g>
<defs>
<clipPath id="clip0_885_1584">
<rect width="16.8626" height="16.8626" fill="white" transform="translate(0.367188)"/>
</clipPath>
</defs>
</svg>
