<svg width="407" height="406" viewBox="0 0 407 406" fill="none" xmlns="http://www.w3.org/2000/svg">
<path d="M346.364 345.352C384.252 307.464 405.537 256.076 405.537 202.494C405.537 148.912 384.252 97.5247 346.364 59.6365C308.476 21.7483 257.088 0.462891 203.506 0.462891C149.924 0.46289 98.5365 21.7483 60.6483 59.6365C41.8872 78.396 27.0048 100.667 16.8507 125.178C6.69666 149.689 1.46986 175.961 1.46875 202.492C1.46651 256.074 22.7498 307.462 60.6364 345.352C98.523 383.242 149.91 404.529 203.492 404.531C257.074 404.534 308.462 383.25 346.352 345.364L346.364 345.352Z" fill="url(#paint0_linear_378_3314)"/>
<path d="M25.9541 134.922C26.9511 134.922 27.9256 134.626 28.7544 134.072C29.5832 133.518 30.2289 132.73 30.6099 131.809C30.9908 130.888 31.0899 129.874 30.8946 128.897C30.6992 127.919 30.2182 127.021 29.5124 126.317C28.8066 125.613 27.9078 125.134 26.9297 124.941C25.9516 124.748 24.9382 124.849 24.0179 125.233C23.0975 125.616 22.3114 126.263 21.7593 127.093C21.2071 127.924 20.9137 128.899 20.916 129.896C20.9223 131.229 21.4556 132.505 22.3994 133.447C23.3432 134.389 24.621 134.919 25.9541 134.922Z" fill="url(#paint1_radial_378_3314)"/>
<path d="M381.404 270.401C380.407 270.399 379.431 270.692 378.601 271.245C377.771 271.797 377.124 272.583 376.74 273.503C376.357 274.424 376.256 275.437 376.449 276.415C376.642 277.393 377.121 278.292 377.825 278.998C378.529 279.704 379.427 280.185 380.404 280.38C381.382 280.575 382.396 280.476 383.317 280.095C384.238 279.714 385.026 279.069 385.58 278.24C386.134 277.411 386.43 276.436 386.43 275.439C386.43 274.105 385.901 272.826 384.958 271.881C384.016 270.937 382.738 270.405 381.404 270.401Z" fill="url(#paint2_radial_378_3314)"/>
<path d="M26.5644 271.821C25.2722 271.884 24.0537 272.442 23.1615 273.379C22.2692 274.316 21.7715 275.56 21.7715 276.854C21.7715 278.147 22.2692 279.391 23.1615 280.328C24.0537 281.265 25.2722 281.823 26.5644 281.886C27.2302 281.892 27.8903 281.764 28.5056 281.509C29.1209 281.255 29.6787 280.879 30.146 280.405C30.8519 279.701 31.3323 278.802 31.5261 277.824C31.7199 276.846 31.6183 275.832 31.2343 274.912C30.8503 273.992 30.2013 273.206 29.3697 272.656C28.5381 272.106 27.5616 271.815 26.5644 271.821Z" fill="url(#paint3_radial_378_3314)"/>
<path d="M380.759 133.441C381.424 133.45 382.084 133.325 382.699 133.072C383.315 132.82 383.873 132.446 384.34 131.973C384.815 131.505 385.192 130.948 385.45 130.333C385.707 129.718 385.84 129.058 385.84 128.391C385.84 127.725 385.707 127.065 385.45 126.45C385.192 125.835 384.815 125.277 384.34 124.81C383.873 124.337 383.315 123.963 382.699 123.71C382.084 123.458 381.424 123.332 380.759 123.341C380.099 123.341 379.445 123.471 378.835 123.724C378.225 123.976 377.671 124.347 377.205 124.813C376.738 125.28 376.368 125.834 376.115 126.444C375.862 127.054 375.732 127.707 375.732 128.367C375.732 129.027 375.862 129.681 376.115 130.291C376.368 130.901 376.738 131.455 377.205 131.921C377.671 132.388 378.225 132.758 378.835 133.011C379.445 133.264 380.099 133.394 380.759 133.394V133.441Z" fill="url(#paint4_radial_378_3314)"/>
<path d="M130.919 375.306C129.922 375.303 128.946 375.597 128.116 376.15C127.285 376.702 126.638 377.489 126.255 378.41C125.872 379.331 125.771 380.345 125.965 381.324C126.159 382.302 126.64 383.201 127.345 383.906C128.05 384.612 128.949 385.092 129.927 385.286C130.906 385.48 131.92 385.379 132.841 384.996C133.762 384.613 134.549 383.966 135.101 383.135C135.654 382.305 135.948 381.329 135.945 380.332C135.942 379 135.412 377.723 134.47 376.781C133.528 375.839 132.251 375.309 130.919 375.306Z" fill="url(#paint5_radial_378_3314)"/>
<path d="M276.403 29.9571C277.4 29.9571 278.375 29.6613 279.204 29.1072C280.032 28.553 280.678 27.7655 281.059 26.8442C281.44 25.9229 281.539 24.9093 281.344 23.9317C281.148 22.9541 280.667 22.0564 279.962 21.3523C279.256 20.6481 278.357 20.1693 277.379 19.9762C276.401 19.7832 275.387 19.8846 274.467 20.2678C273.547 20.651 272.761 21.2986 272.208 22.1286C271.656 22.9587 271.363 23.934 271.365 24.9309C271.368 26.265 271.901 27.5434 272.845 28.4857C273.79 29.4279 275.069 29.9571 276.403 29.9571Z" fill="url(#paint6_radial_378_3314)"/>
<path d="M277.884 374.697C276.551 374.697 275.272 375.227 274.33 376.17C273.387 377.112 272.857 378.391 272.857 379.724C272.857 381.057 273.387 382.335 274.33 383.278C275.272 384.22 276.551 384.75 277.884 384.75C278.548 384.756 279.208 384.629 279.823 384.377C280.438 384.125 280.996 383.752 281.465 383.281C282.171 382.577 282.651 381.678 282.845 380.7C283.039 379.722 282.937 378.708 282.553 377.788C282.169 376.868 281.52 376.082 280.689 375.532C279.857 374.982 278.881 374.691 277.884 374.697Z" fill="url(#paint7_radial_378_3314)"/>
<path d="M132.996 29.097C133.7 28.391 134.179 27.492 134.372 26.5137C134.564 25.5354 134.463 24.5219 134.079 23.6015C133.696 22.6811 133.048 21.8952 132.217 21.3433C131.387 20.7914 130.411 20.4983 129.414 20.5012C128.749 20.4953 128.088 20.6233 127.473 20.8776C126.858 21.1319 126.3 21.5073 125.833 21.9816C125.359 22.4501 124.983 23.0079 124.727 23.6226C124.47 24.2374 124.338 24.897 124.338 25.5632C124.338 26.2293 124.47 26.8889 124.727 27.5037C124.983 28.1184 125.359 28.6762 125.833 29.1447C126.301 29.6183 126.859 29.9943 127.474 30.2509C128.089 30.5075 128.748 30.6396 129.414 30.6396C130.08 30.6396 130.74 30.5075 131.355 30.2509C131.97 29.9943 132.527 29.6183 132.996 29.1447V29.097Z" fill="url(#paint8_radial_378_3314)"/>
<path d="M203.518 406C149.56 406.007 97.8092 384.583 59.6442 346.441C21.4793 308.298 0.0253244 256.559 0 202.602V202.482C0.411325 148.781 22.0327 97.4188 60.1517 59.5906C98.2707 21.7625 149.797 0.535156 203.5 0.535156C257.203 0.535156 308.729 21.7625 346.848 59.5906C384.967 97.4188 406.589 148.781 407 202.482V202.59C406.978 256.543 385.53 308.28 347.373 346.424C309.215 384.568 257.471 405.997 203.518 406ZM2.94884 202.351V202.459C2.94884 255.653 24.0802 306.668 61.6942 344.282C99.3082 381.896 150.324 403.028 203.518 403.028C256.712 403.028 307.728 381.896 345.342 344.282C382.956 306.668 404.087 255.653 404.087 202.459V202.351C404.087 149.157 382.956 98.1414 345.342 60.5274C307.728 22.9134 256.712 1.78204 203.518 1.78204C150.324 1.78204 99.3082 22.9134 61.6942 60.5274C24.0802 98.1414 2.94884 149.157 2.94884 202.351Z" fill="url(#paint9_linear_378_3314)"/>
<g style="mix-blend-mode:color-dodge">
<path d="M203.518 406C149.56 406.007 97.8092 384.583 59.6442 346.441C21.4793 308.298 0.0253244 256.559 0 202.602V202.482C0.411325 148.781 22.0327 97.4188 60.1517 59.5906C98.2707 21.7625 149.797 0.535156 203.5 0.535156C257.203 0.535156 308.729 21.7625 346.848 59.5906C384.967 97.4188 406.589 148.781 407 202.482V202.59C406.978 256.543 385.53 308.28 347.373 346.424C309.215 384.568 257.471 405.997 203.518 406ZM2.94884 202.351V202.459C2.94884 255.653 24.0802 306.668 61.6942 344.282C99.3082 381.896 150.324 403.028 203.518 403.028C256.712 403.028 307.728 381.896 345.342 344.282C382.956 306.668 404.087 255.653 404.087 202.459V202.351C404.087 149.157 382.956 98.1414 345.342 60.5274C307.728 22.9134 256.712 1.78204 203.518 1.78204C150.324 1.78204 99.3082 22.9134 61.6942 60.5274C24.0802 98.1414 2.94884 149.157 2.94884 202.351Z" fill="url(#paint10_linear_378_3314)"/>
</g>
<path d="M203.518 379.221C156.656 379.221 111.714 360.606 78.578 327.47C45.4419 294.334 26.8262 249.391 26.8262 202.53C26.8262 155.668 45.4419 110.726 78.578 77.5897C111.714 44.4536 156.656 25.8379 203.518 25.8379H203.649C250.511 25.8379 295.453 44.4536 328.589 77.5897C361.725 110.726 380.341 155.668 380.341 202.53C380.341 249.391 361.725 294.334 328.589 327.47C295.453 360.606 250.511 379.221 203.649 379.221H203.518ZM203.399 28.7987C157.319 28.7987 113.127 47.1037 80.5438 79.6868C47.9606 112.27 29.6556 156.462 29.6556 202.542C29.6556 248.621 47.9606 292.813 80.5438 325.396C113.127 357.98 157.319 376.285 203.399 376.285H203.518C248.977 375.361 292.263 356.655 324.086 324.179C355.909 291.703 373.733 248.046 373.733 202.577C373.733 157.109 355.909 113.452 324.086 80.9762C292.263 48.5003 248.977 29.7935 203.518 28.8703L203.399 28.7987Z" fill="#E6E7E8"/>
<circle cx="203" cy="202" r="165" fill="white"/>
<defs>
<linearGradient id="paint0_linear_378_3314" x1="379.613" y1="92.0021" x2="-20.5822" y2="343.107" gradientUnits="userSpaceOnUse">
<stop stop-color="#F72226"/>
<stop offset="0.08" stop-color="#EF1E24"/>
<stop offset="0.24" stop-color="#E21820"/>
<stop offset="0.26" stop-color="#E72321"/>
<stop offset="0.32" stop-color="#F23A23"/>
<stop offset="0.38" stop-color="#F94A25"/>
<stop offset="0.44" stop-color="#FE5426"/>
<stop offset="0.53" stop-color="#FF5726"/>
<stop offset="0.54" stop-color="#FD4726"/>
<stop offset="0.55" stop-color="#FA3626"/>
<stop offset="0.57" stop-color="#F82B26"/>
<stop offset="0.6" stop-color="#F72426"/>
<stop offset="0.68" stop-color="#F72226"/>
<stop offset="0.83" stop-color="#C41C22"/>
<stop offset="0.94" stop-color="#A11820"/>
<stop offset="1" stop-color="#94171F"/>
</linearGradient>
<radialGradient id="paint1_radial_378_3314" cx="0" cy="0" r="1" gradientUnits="userSpaceOnUse" gradientTransform="translate(25.9541 129.884) scale(5.03811 5.03811)">
<stop offset="0.01" stop-color="#FFFFBB"/>
<stop offset="1" stop-color="#E1B141"/>
</radialGradient>
<radialGradient id="paint2_radial_378_3314" cx="0" cy="0" r="1" gradientUnits="userSpaceOnUse" gradientTransform="translate(381.368 275.38) scale(5.02618 5.02616)">
<stop offset="0.01" stop-color="#FFFFBB"/>
<stop offset="1" stop-color="#E1B141"/>
</radialGradient>
<radialGradient id="paint3_radial_378_3314" cx="0" cy="0" r="1" gradientUnits="userSpaceOnUse" gradientTransform="translate(26.5644 276.848) scale(5.02617 5.02616)">
<stop offset="0.01" stop-color="#FFFFBB"/>
<stop offset="1" stop-color="#E1B141"/>
</radialGradient>
<radialGradient id="paint4_radial_378_3314" cx="0" cy="0" r="1" gradientUnits="userSpaceOnUse" gradientTransform="translate(380.747 128.415) scale(5.02618 5.02616)">
<stop offset="0.01" stop-color="#FFFFBB"/>
<stop offset="1" stop-color="#E1B141"/>
</radialGradient>
<radialGradient id="paint5_radial_378_3314" cx="0" cy="0" r="1" gradientUnits="userSpaceOnUse" gradientTransform="translate(130.919 380.332) scale(5.02619 5.02617)">
<stop offset="0.01" stop-color="#FFFFBB"/>
<stop offset="1" stop-color="#E1B141"/>
</radialGradient>
<radialGradient id="paint6_radial_378_3314" cx="0" cy="0" r="1" gradientUnits="userSpaceOnUse" gradientTransform="translate(276.403 24.9309) scale(5.02615 5.02616)">
<stop offset="0.01" stop-color="#FFFFBB"/>
<stop offset="1" stop-color="#E1B141"/>
</radialGradient>
<radialGradient id="paint7_radial_378_3314" cx="0" cy="0" r="1" gradientUnits="userSpaceOnUse" gradientTransform="translate(277.872 379.724) scale(5.02616 5.02617)">
<stop offset="0.01" stop-color="#FFFFBB"/>
<stop offset="1" stop-color="#E1B141"/>
</radialGradient>
<radialGradient id="paint8_radial_378_3314" cx="0" cy="0" r="1" gradientUnits="userSpaceOnUse" gradientTransform="translate(129.438 25.5393) scale(5.02614 5.02616)">
<stop offset="0.01" stop-color="#FFFFBB"/>
<stop offset="1" stop-color="#E1B141"/>
</radialGradient>
<linearGradient id="paint9_linear_378_3314" x1="59.5984" y1="58.6034" x2="347.399" y2="346.404" gradientUnits="userSpaceOnUse">
<stop stop-color="#F72226"/>
<stop offset="0.21" stop-color="#F01E24"/>
<stop offset="0.53" stop-color="#DB141E"/>
<stop offset="0.92" stop-color="#B90315"/>
<stop offset="0.98" stop-color="#B30013"/>
</linearGradient>
<linearGradient id="paint10_linear_378_3314" x1="59.5984" y1="58.6034" x2="347.399" y2="346.404" gradientUnits="userSpaceOnUse">
<stop stop-color="#D1D3D4"/>
<stop offset="1" stop-color="#231F20"/>
</linearGradient>
</defs>
</svg>
