<svg width="67" height="63" viewBox="0 0 67 63" fill="none" xmlns="http://www.w3.org/2000/svg">
<g clip-path="url(#clip0_378_3348)">
<path d="M56.9506 2.35965C55.3906 1.49965 41.7606 3.77965 30.1606 3.35965C25.8906 3.51965 21.8206 0.359638 18.7506 0.539638C17.0006 0.659638 16.0906 0.539642 14.7506 0.699642C12.1106 0.989641 10.1306 4.93966 9.48063 5.30966C0.660631 10.4297 0.230631 51.3097 3.73063 55.3097C7.82063 60.0497 16.2706 61.3697 30.1206 61.6197C43.9806 61.3697 45.6806 64.6197 62.1206 58.6197C67.1906 56.7497 71.5506 10.4496 56.9506 2.35965Z" fill="#944D23"/>
<path d="M56.4193 1.94998C54.8793 1.05998 38.8194 0.43 27.2294 0C23.3994 0.14 21.6194 0.31 18.7494 0.5C18.4794 0.5 16.6094 6.23 16.3494 6.25C16.0894 6.27 15.7193 0.589995 15.4193 0.619995C10.5893 0.979995 7.50936 1.41998 6.58936 1.94998C-2.23064 7.06998 -1.17065 53.22 3.76935 55.27C4.63935 55.63 13.3694 58.02 27.2294 58.27C32.8194 58.17 46.1194 57.73 49.8694 57.2C50.4094 57.13 50.8194 51.95 51.3094 51.87C51.9694 51.77 52.6894 56.77 53.3094 56.67C55.3409 56.3553 57.3464 55.8907 59.3094 55.28C64.1694 53.22 65.2293 7.06998 56.4193 1.94998Z" fill="#FFDBB3"/>
</g>
<defs>
<clipPath id="clip0_378_3348">
<rect width="66.92" height="62.25" fill="white"/>
</clipPath>
</defs>
</svg>
