<svg width="18" height="18" viewBox="0 0 18 18" fill="none" xmlns="http://www.w3.org/2000/svg">
<path d="M16.5 17.3337H1.5C1.15833 17.3337 0.875 17.0503 0.875 16.7087C0.875 16.367 1.15833 16.0837 1.5 16.0837H16.5C16.8417 16.0837 17.125 16.367 17.125 16.7087C17.125 17.0503 16.8417 17.3337 16.5 17.3337ZM14.85 1.902C13.2333 0.285336 11.65 0.243669 9.99167 1.902L8.98333 2.91034C8.9 2.99367 8.86667 3.127 8.9 3.24367C9.21871 4.33732 9.80807 5.33294 10.6136 6.13843C11.4191 6.94393 12.4147 7.53329 13.5083 7.852C13.5674 7.87134 13.6307 7.87379 13.6911 7.85906C13.7514 7.84434 13.8065 7.81303 13.85 7.76867L14.85 6.76034C15.675 5.94367 16.075 5.152 16.075 4.352C16.0833 3.527 15.6833 2.727 14.85 1.902ZM12.0083 8.60867C11.7667 8.492 11.5333 8.37534 11.3083 8.242C11.1256 8.13313 10.9476 8.01635 10.775 7.892C10.6333 7.80034 10.4667 7.667 10.3083 7.53367C10.2573 7.49649 10.2099 7.45464 10.1667 7.40867C9.89167 7.17534 9.58333 6.87534 9.30833 6.542C9.28333 6.52534 9.24167 6.467 9.18333 6.392C9.1 6.292 8.95833 6.12534 8.83333 5.93367C8.71455 5.77694 8.60599 5.61271 8.50833 5.442C8.375 5.217 8.25833 4.992 8.14167 4.75867C8.12432 4.72135 8.10737 4.68385 8.09083 4.64617C7.9675 4.36867 7.605 4.28784 7.39083 4.502L2.61667 9.27617C2.50833 9.3845 2.40833 9.59284 2.38333 9.7345L1.93333 12.9262C1.85 13.4928 2.00833 14.0262 2.35833 14.3845C2.65833 14.6762 3.075 14.8345 3.525 14.8345C3.625 14.8345 3.725 14.8262 3.825 14.8095L7.025 14.3595C7.175 14.3345 7.38333 14.2345 7.48333 14.1262L12.2517 9.35867C12.4683 9.142 12.3858 8.77117 12.105 8.65034C12.0727 8.63652 12.0405 8.62263 12.0083 8.60867Z" fill="#0066FF"/>
</svg>
