<svg width="21" height="21" viewBox="0 0 21 21" fill="none" xmlns="http://www.w3.org/2000/svg">
<path d="M13.125 19.9062H7.875C3.12375 19.9062 1.09375 17.8762 1.09375 13.125V7.875C1.09375 3.12375 3.12375 1.09375 7.875 1.09375H9.625C9.98375 1.09375 10.2812 1.39125 10.2812 1.75C10.2812 2.10875 9.98375 2.40625 9.625 2.40625H7.875C3.84125 2.40625 2.40625 3.84125 2.40625 7.875V13.125C2.40625 17.1588 3.84125 18.5938 7.875 18.5938H13.125C17.1588 18.5938 18.5938 17.1588 18.5938 13.125V11.375C18.5938 11.0162 18.8913 10.7188 19.25 10.7188C19.6087 10.7188 19.9062 11.0162 19.9062 11.375V13.125C19.9062 17.8762 17.8762 19.9062 13.125 19.9062Z" fill="white"/>
<path d="M7.43937 15.477C6.90562 15.477 6.41562 15.2845 6.05687 14.9345C5.62812 14.5058 5.44437 13.8845 5.54062 13.2283L5.91687 10.5945C5.98687 10.087 6.31937 9.43078 6.67812 9.07203L13.5731 2.17703C15.3144 0.435781 17.0819 0.435781 18.8231 2.17703C19.7769 3.13078 20.2056 4.10203 20.1181 5.07328C20.0394 5.86078 19.6194 6.63078 18.8231 7.41828L11.9281 14.3133C11.5694 14.672 10.9131 15.0045 10.4056 15.0745L7.77187 15.4508C7.65812 15.477 7.54437 15.477 7.43937 15.477ZM14.5006 3.10453L7.60562 9.99953C7.43937 10.1658 7.24687 10.5508 7.21187 10.7783L6.83562 13.412C6.80062 13.6658 6.85312 13.8758 6.98437 14.007C7.11562 14.1383 7.32562 14.1908 7.57937 14.1558L10.2131 13.7795C10.4406 13.7445 10.8344 13.552 10.9919 13.3858L17.8869 6.49078C18.4556 5.92203 18.7531 5.41453 18.7969 4.94203C18.8494 4.37328 18.5519 3.76953 17.8869 3.09578C16.4869 1.69578 15.5244 2.08953 14.5006 3.10453Z" fill="white"/>
<path d="M17.3706 8.60051C17.3093 8.60051 17.2481 8.59176 17.1956 8.57426C16.0584 8.25047 15.0228 7.6417 14.1867 6.80565C13.3506 5.96959 12.7419 4.93392 12.4181 3.79676C12.3721 3.62855 12.394 3.44901 12.4791 3.2968C12.5642 3.14459 12.7057 3.0319 12.8731 2.98301C13.2231 2.88676 13.5818 3.08801 13.6781 3.43801C14.2031 5.30176 15.6818 6.78051 17.5456 7.30551C17.8956 7.40176 18.0968 7.76926 18.0006 8.11926C17.9218 8.41676 17.6593 8.60051 17.3706 8.60051Z" fill="white"/>
</svg>
