<svg width="25" height="25" viewBox="0 0 25 25" fill="none" xmlns="http://www.w3.org/2000/svg">
<path d="M11.9951 3.25466C12.312 3.07595 12.7227 3.08229 13.0337 3.27175C13.3399 3.45143 13.5396 3.79665 13.5406 4.15212C13.5435 4.85085 13.541 5.55007 13.5415 6.2488C14.4966 6.25368 15.4517 6.24147 16.4063 6.25514C18.232 6.30495 20.0264 7.03298 21.3775 8.261C22.8325 9.56471 23.7676 11.4319 23.9273 13.3801C24.0874 15.1575 23.6148 16.9832 22.605 18.4553C21.6709 19.8303 20.2886 20.8972 18.7163 21.4397C17.8814 21.7332 16.9956 21.8748 16.1114 21.8738C13.9478 21.8748 11.7842 21.8738 9.62112 21.8743C9.06643 21.8723 8.50979 21.8884 7.95803 21.8216C6.42532 21.6482 4.94973 21.0051 3.7803 19.9993C2.66262 19.0491 1.82376 17.7761 1.39114 16.3743C0.868679 14.6936 0.935085 12.8352 1.5845 11.1985C2.12161 9.82985 3.05667 8.62184 4.24368 7.75563C5.53714 6.80446 7.13088 6.27077 8.73635 6.25173C9.64358 6.24538 10.5513 6.25173 11.4585 6.24831C11.459 5.54909 11.4566 4.84987 11.4595 4.15065C11.4595 3.78346 11.6743 3.43044 11.9951 3.25466ZM8.12942 8.37917C6.55276 8.57057 5.08108 9.46071 4.17141 10.7615C3.34768 11.9168 2.98733 13.387 3.17239 14.7927C3.33792 16.1282 3.99954 17.3933 4.9971 18.2957C6.022 19.2371 7.40042 19.78 8.79251 19.7893C11.168 19.7932 13.5435 19.7898 15.9185 19.7913C17.0196 19.8235 18.1319 19.5549 19.0767 18.9837C20.5137 18.1365 21.542 16.6326 21.7998 14.9837C22.0254 13.614 21.7344 12.1658 20.9854 10.9964C20.1822 9.71852 18.8545 8.78395 17.3784 8.46608C16.6436 8.29177 15.8843 8.33864 15.1363 8.33278C13.0698 8.33278 11.0034 8.33278 8.93704 8.33278C8.66702 8.33278 8.397 8.34401 8.12942 8.37917Z" fill="#9D44FF"/>
<path d="M7.77713 11.0962C8.08474 10.8995 8.49783 10.8843 8.81912 11.0582C9.14871 11.229 9.3699 11.5874 9.37185 11.959C9.37674 12.313 9.37088 12.6665 9.37381 13.0201C9.74783 13.0235 10.1219 13.0127 10.4954 13.0245C11.0227 13.0508 11.4695 13.5367 11.4558 14.064C11.4666 14.5904 11.0193 15.0733 10.4929 15.0982C10.1204 15.1104 9.74685 15.0997 9.37381 15.1031C9.37088 15.4571 9.37674 15.8111 9.37185 16.1651C9.36941 16.5372 9.14675 16.8956 8.81619 17.066C8.48416 17.2452 8.05398 17.2207 7.74441 17.0044C7.46902 16.8184 7.29226 16.4942 7.29129 16.1612C7.28787 15.8086 7.29129 15.4566 7.29031 15.104C6.91043 15.0977 6.53006 15.1128 6.15066 15.0967C5.63064 15.0621 5.19461 14.5811 5.2073 14.0606C5.19558 13.5411 5.63113 13.0606 6.15066 13.0259C6.52957 13.0113 6.90994 13.024 7.28933 13.0201C7.29226 12.6665 7.28738 12.3135 7.29129 11.96C7.29275 11.6138 7.48416 11.2789 7.77713 11.0962Z" fill="#9D44FF"/>
<path d="M18.5157 11.4851C19 11.3635 19.5406 11.6482 19.7164 12.115C19.8707 12.4905 19.7764 12.9509 19.4864 13.2346C19.2129 13.5154 18.7749 13.616 18.4068 13.4832C18.0123 13.3513 17.7212 12.9632 17.709 12.5466C17.6768 12.0589 18.0381 11.5857 18.5157 11.4851Z" fill="#9D44FF"/>
<path d="M16.3749 14.6234C16.8719 14.4667 17.4506 14.7499 17.6337 15.2367C17.7718 15.5736 17.7132 15.9803 17.4867 16.265C17.2504 16.5726 16.8334 16.7259 16.454 16.6424C16.0018 16.5555 15.642 16.1366 15.6273 15.6761C15.5941 15.2074 15.9227 14.7479 16.3749 14.6234Z" fill="#9D44FF"/>
</svg>
