<svg width="44" height="117" viewBox="0 0 44 117" fill="none" xmlns="http://www.w3.org/2000/svg">
<path d="M16.7894 116.615L0.144531 116.615L8.466 104L16.7894 116.615Z" fill="#FF836F"/>
<path d="M43.6449 116.615L27 116.615L35.3215 104L43.6449 116.615Z" fill="#FF836F"/>
<path d="M16.7894 91.6151L0.144531 91.6151L8.466 79L16.7894 91.6151Z" fill="#FF836F"/>
<path d="M43.6449 91.6151L27 91.6151L35.3215 79L43.6449 91.6151Z" fill="#FF836F"/>
<path d="M16.7894 66.6151L0.144531 66.6151L8.466 54L16.7894 66.6151Z" fill="#FF836F"/>
<path d="M43.6449 66.6151L27 66.6151L35.3215 54L43.6449 66.6151Z" fill="#FF836F"/>
<path d="M16.7894 40.6151L0.144531 40.6151L8.466 28L16.7894 40.6151Z" fill="#FF836F"/>
<path d="M43.6449 40.6151L27 40.6151L35.3215 28L43.6449 40.6151Z" fill="#FF836F"/>
<path d="M16.7894 12.6151L0.144531 12.6151L8.466 0L16.7894 12.6151Z" fill="#FF836F"/>
<path d="M43.6449 12.6151L27 12.6151L35.3215 0L43.6449 12.6151Z" fill="#FF836F"/>
</svg>
