<svg width="40" height="112" viewBox="0 0 40 112" fill="none" xmlns="http://www.w3.org/2000/svg">
<rect x="0.988281" y="102.316" width="4" height="13" transform="rotate(-45 0.988281 102.316)" fill="#A24EFF"/>
<rect x="10.1836" y="99.4883" width="4" height="13" transform="rotate(45 10.1836 99.4883)" fill="#A24EFF"/>
<rect x="0.988281" y="77.8281" width="4" height="13" transform="rotate(-45 0.988281 77.8281)" fill="#A24EFF"/>
<rect x="10.1836" y="75" width="4" height="13" transform="rotate(45 10.1836 75)" fill="#A24EFF"/>
<rect x="0.988281" y="53.8281" width="4" height="13" transform="rotate(-45 0.988281 53.8281)" fill="#A24EFF"/>
<rect x="10.1836" y="51" width="4" height="13" transform="rotate(45 10.1836 51)" fill="#A24EFF"/>
<rect x="0.988281" y="27.8281" width="4" height="13" transform="rotate(-45 0.988281 27.8281)" fill="#A24EFF"/>
<rect x="10.1836" y="25" width="4" height="13" transform="rotate(45 10.1836 25)" fill="#A24EFF"/>
<rect x="0.988281" y="2.82812" width="4" height="13" transform="rotate(-45 0.988281 2.82812)" fill="#A24EFF"/>
<rect x="10.1836" width="4" height="13" transform="rotate(45 10.1836 0)" fill="#A24EFF"/>
<rect x="27" y="102.316" width="4" height="13" transform="rotate(-45 27 102.316)" fill="#A24EFF"/>
<rect x="36.1953" y="99.4883" width="4" height="13" transform="rotate(45 36.1953 99.4883)" fill="#A24EFF"/>
<rect x="27" y="77.8281" width="4" height="13" transform="rotate(-45 27 77.8281)" fill="#A24EFF"/>
<rect x="36.1953" y="75" width="4" height="13" transform="rotate(45 36.1953 75)" fill="#A24EFF"/>
<rect x="27" y="53.8281" width="4" height="13" transform="rotate(-45 27 53.8281)" fill="#A24EFF"/>
<rect x="36.1953" y="51" width="4" height="13" transform="rotate(45 36.1953 51)" fill="#A24EFF"/>
<rect x="27" y="27.8281" width="4" height="13" transform="rotate(-45 27 27.8281)" fill="#A24EFF"/>
<rect x="36.1953" y="25" width="4" height="13" transform="rotate(45 36.1953 25)" fill="#A24EFF"/>
<rect x="27" y="2.82812" width="4" height="13" transform="rotate(-45 27 2.82812)" fill="#A24EFF"/>
<rect x="36.1953" width="4" height="13" transform="rotate(45 36.1953 0)" fill="#A24EFF"/>
</svg>
