<svg width="77" height="77" viewBox="0 0 77 77" fill="none" xmlns="http://www.w3.org/2000/svg">
<g filter="url(#filter0_d_929_5583)">
<path d="M42.8441 61.9513C44.53 60.6714 45.4534 58.7149 46.6685 57.041C47.3152 57.6576 47.3107 58.7615 46.6565 59.3706C47.5994 59.9466 47.7107 61.4851 46.7272 62.0761C47.431 62.825 47.4069 64.1455 46.5572 64.7741C45.8519 65.3456 44.912 65.2313 44.0743 65.3742C43.6773 65.4208 43.2772 65.4358 42.8817 65.4779C42.7599 66.2329 43.2306 67.2495 42.5358 67.8045C40.5055 68.4121 38.3128 68.6391 36.2269 68.1564C35.7607 68.0421 35.1291 68.0376 34.9275 67.5097C34.8132 66.8781 34.8599 66.2284 34.8313 65.5892C33.759 65.5005 32.5694 65.5486 31.6445 64.9095C30.8519 64.3305 30.8805 63.1454 31.4144 62.3994C30.7031 61.8204 30.6188 60.7286 31.1798 60.0187L31.2279 60.0579C31.819 60.5241 32.3679 61.0429 32.986 61.4775C33.9109 62.1769 34.9576 62.6762 35.9968 63.18C34.4418 63.0957 32.9454 62.6295 31.4144 62.4055C31.4159 62.5228 31.4174 62.7574 31.4174 62.8747C35.687 64.2086 40.3085 64.2116 44.6623 63.2958C44.9872 63.2627 44.915 62.9153 44.8428 62.7017C43.5224 62.9514 42.1929 63.1875 40.8484 63.2552C41.4816 62.7709 42.2606 62.5092 42.8441 61.9513Z" fill="#7900FF"/>
</g>
<path d="M34.4304 16.6955C37.6112 16.0082 40.9694 16.1736 44.0719 17.1512C44.6194 17.3106 45.1412 17.5467 45.6886 17.7106C48.928 21.7231 51.1418 26.5972 51.79 31.7285C52.4261 36.5501 51.6727 41.6468 49.2033 45.8788C47.3625 49.0581 44.4494 51.6809 40.9528 52.887C40.9243 50.7469 40.8205 48.6084 40.8731 46.4698C40.9619 43.8831 41.0927 41.2979 41.2296 38.7142C43.4072 37.7682 45.5082 36.5501 47.2121 34.8792C48.146 33.9258 49.0408 32.6956 48.9175 31.2894C48.6513 29.4306 46.6271 28.0996 44.8058 28.4756C43.4238 28.6576 42.3139 29.7148 41.7815 30.9616C40.7378 33.2911 40.7167 35.8974 40.5332 38.3969C39.6339 38.8134 38.6774 39.0842 37.7119 39.2932C37.5194 37.3065 37.2698 35.2612 36.3223 33.4731C35.7057 32.2895 34.7507 31.2518 33.522 30.6924C32.1384 30.0352 30.4105 29.9133 29.0554 30.7044C28.0403 31.2819 27.4177 32.4023 27.3199 33.5498C27.2041 34.8868 27.5335 36.2959 28.3681 37.3652C29.3081 38.5488 30.6375 39.403 32.0888 39.8166C33.7657 40.3083 35.5478 40.2617 37.2562 39.979C37.5014 42.3025 37.9044 44.6065 38.1902 46.9255C38.4714 49.1859 38.3917 51.4899 37.9164 53.7202C35.7057 54.0841 33.4363 54.0225 31.2316 53.651C30.4796 53.3397 29.7608 52.9517 29.0524 52.5561C29.1306 52.296 29.2103 51.9801 29.0103 51.7531C28.6614 51.4793 28.2403 51.3214 27.8628 51.0974C23.9166 48.8505 20.9268 45.008 19.6635 40.6512C18.104 35.35 19.2304 29.3659 22.5811 24.976C22.9932 24.3955 23.509 23.9022 23.9512 23.3473C24.1196 23.1728 24.0219 22.9337 23.9948 22.7277C26.7184 19.6823 30.436 17.5437 34.4304 16.6955ZM28.3125 22.0058C27.9576 22.1066 27.7049 22.3983 27.5004 22.6886C26.6898 23.9022 26.1003 25.2452 25.5604 26.5957C24.4234 29.6742 23.8038 32.9708 23.9722 36.2583C24.1978 39.024 24.9768 41.8002 26.583 44.0937C28.0719 46.3194 30.236 48.0339 32.6332 49.1934C33.2979 49.5032 34.0093 49.8235 34.7597 49.7589C35.2696 49.7378 35.6275 49.2054 35.623 48.7257C35.641 47.9888 35.1463 47.3316 34.5281 46.9782C33.528 46.4082 32.4257 46.0277 31.4677 45.3825C28.0794 43.1146 26.3048 39.027 26.0657 35.0492C25.9664 32.288 26.5138 29.5328 27.4026 26.9266C27.9922 25.4753 28.9005 24.1173 29.1276 22.5412C29.2103 22.0885 28.6915 21.8013 28.3125 22.0058Z" fill="#FFC960"/>
<path d="M44.5875 29.1323C46.3335 28.5292 48.6405 30.0752 48.3382 32.0092C48.0826 33.4334 46.9697 34.4952 45.9034 35.3825C44.4807 36.521 42.8746 37.4083 41.2188 38.1602C41.3676 35.9735 41.4308 33.7297 42.2083 31.6543C42.6249 30.5504 43.4009 29.4676 44.5875 29.1323Z" fill="#FFC960"/>
<path d="M28.6048 31.8946C29.2635 31.0359 30.3809 30.6284 31.4427 30.6825C33.1887 30.7637 34.822 31.83 35.6912 33.3324C36.7951 35.1551 37.0568 37.3253 37.2538 39.4052C34.9753 39.736 32.5014 39.6112 30.4952 38.3735C29.4545 37.7313 28.5296 36.8109 28.122 35.6364C27.6739 34.4107 27.7912 32.9429 28.6048 31.8946Z" fill="#FFC960"/>
<path d="M37.8281 39.7391C38.7816 39.524 39.7336 39.2894 40.6555 38.957C40.296 43.6613 40.2855 48.3835 40.3863 53.0968C39.7757 53.3193 39.144 53.4803 38.5034 53.59C38.7214 52.4832 38.8673 51.3597 38.9094 50.2318C39.0252 46.6991 38.1304 43.2432 37.8281 39.7391Z" fill="#FFC960"/>
<g filter="url(#filter1_d_929_5583)">
<path d="M45.6875 17.7109C49.8443 19.3006 53.3289 22.4934 55.4719 26.3749C57.9925 30.8641 58.5249 36.3729 57.054 41.2922C55.875 45.3362 53.2853 48.9125 49.906 51.409C48.9209 52.1775 47.8186 52.7745 46.7102 53.3415C46.3598 53.5129 46.244 53.934 46.2485 54.2965C46.2485 55.1341 46.2861 55.9703 46.3011 56.808C45.9748 56.6621 45.6213 56.5764 45.2634 56.5824C40.8495 56.7087 36.4325 56.7403 32.0185 56.8516C31.7057 56.8486 31.4937 57.1013 31.3027 57.3133C31.2861 56.0921 31.3012 54.8695 31.2305 53.6513C33.4352 54.0228 35.7046 54.0844 37.9153 53.7205C37.7695 54.5221 37.5003 55.2951 37.3559 56.0966C37.4491 56.3102 37.807 56.2666 37.8747 56.053C38.1635 55.256 38.3154 54.4168 38.5004 53.5911C39.141 53.4813 39.7727 53.3204 40.3832 53.0979C40.4269 53.9431 40.3517 54.7988 40.4705 55.638C40.5381 55.9237 41.0284 55.7568 40.9788 55.4831C41.0044 54.6183 40.9517 53.7521 40.9517 52.8873C44.4483 51.6812 47.3614 49.0584 49.2021 45.8791C51.6716 41.6471 52.425 36.5504 51.7889 31.7288C51.1407 26.5975 48.9269 21.7234 45.6875 17.7109Z" fill="#FFB72A"/>
</g>
<path d="M28.3129 22.0046C28.6919 21.8001 29.2108 22.0873 29.128 22.54C28.901 24.1161 27.9926 25.4741 27.4031 26.9254C26.5143 29.5316 25.9668 32.2868 26.0661 35.048C26.3052 39.0258 28.0798 43.1134 31.4681 45.3813C32.4261 46.0265 33.5285 46.407 34.5286 46.9769C35.1467 47.3304 35.6415 47.9876 35.6234 48.7245C35.6279 49.2042 35.27 49.7366 34.7602 49.7577C34.0097 49.8223 33.2984 49.502 32.6336 49.1922C30.2364 48.0327 28.0723 46.3182 26.5834 44.0925C24.9773 41.799 24.1982 39.0228 23.9727 36.2571C23.8042 32.9696 24.4238 29.673 25.5608 26.5945C26.1007 25.244 26.6902 23.901 27.5008 22.6874C27.7054 22.3971 27.958 22.1053 28.3129 22.0046Z" fill="#FFEECC"/>
<path d="M41.7809 30.9618C42.3133 29.7151 43.4232 28.6579 44.8053 28.4759C46.6265 28.0999 48.6507 29.4309 48.9169 31.2897C49.0403 32.6959 48.1454 33.926 47.2115 34.8795C45.5076 36.5504 43.4066 37.7685 41.229 38.7145C41.0921 41.2982 40.9613 43.8834 40.8725 46.4701C40.8199 48.6087 40.9237 50.7472 40.9522 52.8873C40.9522 53.752 41.0049 54.6183 40.9793 55.483C41.0289 55.7568 40.5387 55.9237 40.471 55.6379C40.3522 54.7988 40.4274 53.943 40.3838 53.0978C40.283 48.3846 40.2935 43.6623 40.653 38.9581C39.7311 39.2905 38.7791 39.5251 37.8256 39.7401C38.1279 43.2443 39.0227 46.7002 38.9069 50.2329C38.8648 51.3608 38.7189 52.4843 38.5009 53.5911C38.3159 54.4168 38.164 55.256 37.8753 56.053C37.8076 56.2666 37.4497 56.3102 37.3564 56.0966C37.5008 55.2951 37.77 54.522 37.9159 53.7205C38.3911 51.4902 38.4708 49.1862 38.1896 46.9258C37.9038 44.6068 37.5008 42.3028 37.2556 39.9793C35.5472 40.262 33.7651 40.3086 32.0882 39.8169C30.637 39.4033 29.3075 38.5491 28.3676 37.3655C27.5329 36.2962 27.2035 34.887 27.3193 33.5501C27.4171 32.4026 28.0397 31.2822 29.0548 30.7047C30.4099 29.9136 32.1379 30.0354 33.5214 30.6927C34.7501 31.2521 35.7051 32.2898 36.3217 33.4734C37.2692 35.2615 37.5188 37.3068 37.7113 39.2935C38.6768 39.0844 39.6333 38.8137 40.5327 38.3972C40.7161 35.8977 40.7372 33.2914 41.7809 30.9618ZM44.5887 29.1331C43.4021 29.4685 42.6261 30.5513 42.2095 31.6552C41.432 33.7305 41.3688 35.9744 41.2199 38.1611C42.8757 37.4091 44.4819 36.5218 45.9046 35.3833C46.9709 34.496 48.0838 33.4343 48.3394 32.0101C48.6417 30.076 46.3347 28.53 44.5887 29.1331ZM28.6052 31.8958C27.7916 32.944 27.6743 34.4118 28.1224 35.6375C28.53 36.812 29.4549 37.7324 30.4956 38.3746C32.5018 39.6123 34.9757 39.7371 37.2541 39.4063C37.0571 37.3264 36.7955 35.1562 35.6916 33.3335C34.8223 31.8311 33.1891 30.7648 31.443 30.6836C30.3813 30.6295 29.2639 31.037 28.6052 31.8958Z" fill="#010000"/>
<path d="M42.8792 58.8193C42.989 58.8058 43.2056 58.7772 43.3154 58.7637C43.574 58.9186 43.4642 59.3487 43.159 59.3532C39.5075 60.1397 35.7206 60.3473 32.0105 59.8856C31.609 59.8555 31.8481 59.2103 32.1925 59.3472C35.7552 59.6495 39.3736 59.5637 42.8792 58.8193Z" fill="#010000"/>
<path d="M31.4141 62.4062C32.945 62.6303 34.4414 63.0965 35.9965 63.1808C37.6056 63.3612 39.2329 63.3808 40.8481 63.256C42.1926 63.1883 43.522 62.9522 44.8424 62.7025C44.9146 62.9161 44.9868 63.2635 44.662 63.2966C40.3082 64.2124 35.6867 64.2094 31.4171 62.8755C31.4171 62.7582 31.4156 62.5236 31.4141 62.4062Z" fill="#010000"/>
<path d="M32.0165 56.8515C36.4304 56.7402 40.8474 56.7087 45.2614 56.5823C45.6193 56.5763 45.9727 56.662 46.2991 56.8079C46.4224 56.8831 46.5457 56.9598 46.6675 57.041C45.4524 58.7149 44.529 60.6714 42.8431 61.9513C42.2596 62.5092 41.4806 62.7709 40.8474 63.2552C39.2322 63.38 37.605 63.3604 35.9958 63.18C34.9566 62.6762 33.9099 62.1769 32.985 61.4775C32.3669 61.0429 31.818 60.5241 31.2269 60.0579C31.3367 59.9646 31.4495 59.8744 31.5608 59.7841C30.6449 59.3285 30.86 58.0426 31.3006 57.3132C31.4916 57.1012 31.7037 56.8485 32.0165 56.8515ZM42.8777 58.8186C39.3721 59.5631 35.7537 59.6488 32.1909 59.3465C31.8465 59.2096 31.6074 59.8548 32.009 59.8849C35.7191 60.3466 39.5059 60.1391 43.1574 59.3525C43.4627 59.348 43.5725 58.9179 43.3138 58.763C43.204 58.7765 42.9875 58.8051 42.8777 58.8186Z" fill="#7900FF"/>
<defs>
<filter id="filter0_d_929_5583" x="30.8125" y="57.041" width="17.6016" height="12.377" filterUnits="userSpaceOnUse" color-interpolation-filters="sRGB">
<feFlood flood-opacity="0" result="BackgroundImageFix"/>
<feColorMatrix in="SourceAlpha" type="matrix" values="0 0 0 0 0 0 0 0 0 0 0 0 0 0 0 0 0 0 127 0" result="hardAlpha"/>
<feOffset dx="1" dy="1"/>
<feComposite in2="hardAlpha" operator="out"/>
<feColorMatrix type="matrix" values="0 0 0 0 0 0 0 0 0 0 0 0 0 0 0 0 0 0 1 0"/>
<feBlend mode="normal" in2="BackgroundImageFix" result="effect1_dropShadow_929_5583"/>
<feBlend mode="normal" in="SourceGraphic" in2="effect1_dropShadow_929_5583" result="shape"/>
</filter>
<filter id="filter1_d_929_5583" x="31.2305" y="17.7109" width="28.6328" height="41.6016" filterUnits="userSpaceOnUse" color-interpolation-filters="sRGB">
<feFlood flood-opacity="0" result="BackgroundImageFix"/>
<feColorMatrix in="SourceAlpha" type="matrix" values="0 0 0 0 0 0 0 0 0 0 0 0 0 0 0 0 0 0 127 0" result="hardAlpha"/>
<feOffset dx="2" dy="2"/>
<feComposite in2="hardAlpha" operator="out"/>
<feColorMatrix type="matrix" values="0 0 0 0 0 0 0 0 0 0 0 0 0 0 0 0 0 0 1 0"/>
<feBlend mode="normal" in2="BackgroundImageFix" result="effect1_dropShadow_929_5583"/>
<feBlend mode="normal" in="SourceGraphic" in2="effect1_dropShadow_929_5583" result="shape"/>
</filter>
</defs>
</svg>
