<svg width="32" height="32" viewBox="0 0 32 32" fill="none" xmlns="http://www.w3.org/2000/svg">
<path d="M21.9201 4.13599C19.5067 4.13599 17.3467 5.30932 16.0001 7.10932C15.3123 6.18774 14.4191 5.43917 13.3915 4.92305C12.3638 4.40692 11.23 4.13743 10.0801 4.13599C5.98675 4.13599 2.66675 7.46932 2.66675 11.5893C2.66675 13.176 2.92008 14.6427 3.36008 16.0027C5.46675 22.6693 11.9601 26.656 15.1734 27.7493C15.6267 27.9093 16.3734 27.9093 16.8267 27.7493C20.0401 26.656 26.5334 22.6693 28.6401 16.0027C29.0801 14.6427 29.3334 13.176 29.3334 11.5893C29.3334 7.46932 26.0134 4.13599 21.9201 4.13599Z" fill="#FF3F00"/>
</svg>
