<svg width="22" height="23" viewBox="0 0 22 23" fill="none" xmlns="http://www.w3.org/2000/svg">
<path d="M20.0238 15.6099L17.2222 9.05805C16.712 7.85867 15.9512 7.17842 15.083 7.13367C14.2238 7.08891 13.3913 7.68861 12.7559 8.83429L11.0552 11.8864C10.6972 12.5309 10.187 12.9158 9.63209 12.9605C9.0682 13.0142 8.50431 12.7189 8.04783 12.1371L7.85091 11.8864C7.21542 11.0898 6.42777 10.705 5.62221 10.7855C4.81666 10.8661 4.12746 11.421 3.67098 12.325L2.12252 15.413C1.56758 16.5318 1.62129 17.8297 2.27468 18.8858C2.92808 19.942 4.0648 20.5775 5.30894 20.5775H16.7299C17.9293 20.5775 19.0481 19.9778 19.7105 18.9753C20.3907 17.9729 20.4981 16.7108 20.0238 15.6099ZM6.55397 8.05648C7.35633 8.05648 8.12583 7.73774 8.69319 7.17038C9.26054 6.60303 9.57928 5.83353 9.57928 5.03117C9.57928 4.22881 9.26054 3.45931 8.69319 2.89195C8.12583 2.3246 7.35633 2.00586 6.55397 2.00586C5.75161 2.00586 4.98211 2.3246 4.41475 2.89195C3.8474 3.45931 3.52866 4.22881 3.52866 5.03117C3.52866 5.83353 3.8474 6.60303 4.41475 7.17038C4.98211 7.73774 5.75161 8.05648 6.55397 8.05648Z" fill="#FFFAF0"/>
</svg>
