<svg width="222" height="137" viewBox="0 0 222 137" fill="none" xmlns="http://www.w3.org/2000/svg">
<path d="M69.1564 205.53C53.5831 196.539 41.2566 182.848 33.944 166.419C26.6315 149.991 24.7084 131.669 28.4506 114.08C32.1927 96.4911 41.4079 80.5388 54.775 68.51C68.1421 56.4813 84.9746 48.9938 102.859 47.121C120.744 45.2482 138.762 49.0864 154.331 58.0851C169.9 67.0839 182.22 80.7811 189.525 97.2132C196.829 113.645 198.744 131.968 194.993 149.555C191.242 167.142 182.019 183.09 168.646 195.112L163.695 189.605C175.905 178.628 184.325 164.068 187.75 148.01C191.174 131.953 189.427 115.224 182.757 100.222C176.088 85.2188 164.84 72.7131 150.625 64.4971C136.411 56.2811 119.96 52.7768 103.631 54.4867C87.3016 56.1965 71.9333 63.0327 59.7289 74.0151C47.5246 84.9976 39.111 99.5622 35.6944 115.621C32.2777 131.68 34.0335 148.408 40.71 163.408C47.3864 178.407 58.6407 190.907 72.8593 199.117L69.1564 205.53Z" fill="url(#paint0_linear_885_1484)"/>
<path d="M224.208 132.691C224.208 156.391 216.703 179.483 202.771 198.656C188.838 217.829 169.193 232.098 146.651 239.417C124.109 246.737 99.8283 246.731 77.2899 239.4C54.7516 232.07 35.113 217.792 21.1897 198.612C7.26631 179.433 -0.226773 156.337 -0.215325 132.637C-0.203876 108.936 7.31151 85.8481 21.2534 66.6821C35.1953 47.5161 54.8476 33.2567 77.393 25.9481C99.9384 18.6395 124.219 18.6571 146.754 25.9983L144.505 32.9024C123.428 26.0362 100.719 26.0197 79.6322 32.8554C58.5457 39.691 40.165 53.0277 27.1253 70.9535C14.0856 88.8792 7.05652 110.473 7.04581 132.64C7.03511 154.807 14.0433 176.408 27.0657 194.346C40.0881 212.285 58.4559 225.639 79.5357 232.495C100.616 239.351 123.325 239.357 144.408 232.511C165.491 225.665 183.866 212.319 196.897 194.387C209.928 176.455 216.946 154.858 216.946 132.691L224.208 132.691Z" fill="url(#paint1_linear_885_1484)"/>
<path d="M40.1835 257.377C14.0795 242.306 -6.58235 219.356 -18.8397 191.818C-31.0971 164.281 -34.3205 133.569 -28.0478 104.087C-21.7752 74.6043 -6.32861 47.8649 16.0774 27.7022C38.4834 7.53952 66.6982 -5.01108 96.6766 -8.15023C126.655 -11.2894 156.858 -4.85589 182.955 10.2279C209.051 25.3117 229.702 48.2712 241.946 75.8147C254.19 103.358 257.399 134.071 251.112 163.551C244.825 193.03 229.365 219.762 206.95 239.914L201.002 233.298C222.02 214.402 236.516 189.337 242.411 161.695C248.306 134.054 245.297 105.255 233.816 79.4287C222.336 53.6022 202.972 32.0741 178.502 17.9306C154.033 3.78715 125.713 -2.24528 97.6032 0.698179C69.4936 3.64164 43.0378 15.4098 22.0286 34.3156C1.0194 53.2213 -13.4642 78.2937 -19.3458 105.938C-25.2274 133.583 -22.205 162.38 -10.7117 188.201C0.78148 214.021 20.1552 235.54 44.6319 249.672L40.1835 257.377Z" fill="url(#paint2_linear_885_1484)"/>
<defs>
<linearGradient id="paint0_linear_885_1484" x1="222.427" y1="169.539" x2="78.7775" y2="64.2726" gradientUnits="userSpaceOnUse">
<stop stop-color="#E2E2E2"/>
<stop offset="1" stop-color="#E9E9E9" stop-opacity="0"/>
</linearGradient>
<linearGradient id="paint1_linear_885_1484" x1="82.1234" y1="-18.5346" x2="56.636" y2="214.796" gradientUnits="userSpaceOnUse">
<stop stop-color="#E2E2E2"/>
<stop offset="1" stop-color="#E9E9E9" stop-opacity="0"/>
</linearGradient>
<linearGradient id="paint2_linear_885_1484" x1="297.098" y1="197.048" x2="56.3106" y2="20.5994" gradientUnits="userSpaceOnUse">
<stop stop-color="#E2E2E2"/>
<stop offset="1" stop-color="#E9E9E9" stop-opacity="0"/>
</linearGradient>
</defs>
</svg>
