<svg width="28" height="24" viewBox="0 0 28 24" fill="none" xmlns="http://www.w3.org/2000/svg">
<path d="M19.9193 0.135986C17.506 0.135986 15.346 1.30932 13.9993 3.10932C13.3115 2.18774 12.4184 1.43917 11.3907 0.923045C10.3631 0.406917 9.22931 0.137434 8.07935 0.135986C3.98602 0.135986 0.666016 3.46932 0.666016 7.58932C0.666016 9.17599 0.919349 10.6427 1.35935 12.0027C3.46602 18.6693 9.95935 22.656 13.1727 23.7493C13.626 23.9093 14.3727 23.9093 14.826 23.7493C18.0393 22.656 24.5327 18.6693 26.6393 12.0027C27.0793 10.6427 27.3327 9.17599 27.3327 7.58932C27.3327 3.46932 24.0127 0.135986 19.9193 0.135986Z" fill="#FF3F00" fill-opacity="0.34"/>
</svg>
