<svg width="32" height="32" viewBox="0 0 32 32" fill="none" xmlns="http://www.w3.org/2000/svg">
<path d="M21.9193 4.13599C19.506 4.13599 17.346 5.30932 15.9993 7.10932C15.3115 6.18774 14.4184 5.43917 13.3907 4.92305C12.3631 4.40692 11.2293 4.13743 10.0793 4.13599C5.98602 4.13599 2.66602 7.46932 2.66602 11.5893C2.66602 13.176 2.91935 14.6427 3.35935 16.0027C5.46602 22.6693 11.9593 26.656 15.1727 27.7493C15.626 27.9093 16.3727 27.9093 16.826 27.7493C20.0393 26.656 26.5327 22.6693 28.6393 16.0027C29.0793 14.6427 29.3327 13.176 29.3327 11.5893C29.3327 7.46932 26.0127 4.13599 21.9193 4.13599Z" fill="#FF3F00" fill-opacity="0.34"/>
</svg>
