<svg width="88" height="53" viewBox="0 0 88 53" fill="none" xmlns="http://www.w3.org/2000/svg">
<path d="M84.3269 14.458C84.1062 12.6857 82.4214 11.478 80.6722 11.8382L62.4799 15.5844C61.2589 15.8358 60.3828 16.9108 60.3828 18.1574V30.7829C60.3828 34.5642 59.6175 38.3063 58.1329 41.784V41.784C57.902 42.325 58.2989 42.926 58.8872 42.926H64.4788C76.902 42.926 86.5159 32.041 84.9811 19.7129L84.3269 14.458Z" fill="#6B00E2"/>
<path d="M3.54422 14.458C3.76486 12.6857 5.4497 11.478 7.19894 11.8382L25.3912 15.5844C26.6121 15.8358 27.4883 16.9108 27.4883 18.1574V30.7829C27.4883 34.5642 28.2536 38.3063 29.7382 41.784V41.784C29.9691 42.325 29.5722 42.926 28.9839 42.926H23.3923C10.9691 42.926 1.35517 32.041 2.88999 19.7129L3.54422 14.458Z" fill="#6B00E2"/>
<path d="M23.3398 12.0552C23.3398 10.3344 24.9884 9.09303 26.6422 9.56845V9.56845C37.9847 12.829 50.0162 12.829 61.3587 9.56845V9.56845C63.0126 9.09303 64.6611 10.3344 64.6611 12.0552V31.7029C64.6611 43.1135 55.411 52.3635 44.0005 52.3635V52.3635C32.5899 52.3635 23.3398 43.1135 23.3398 31.7029V12.0552Z" fill="#7900FF"/>
<path d="M34.9453 6.70449V3.15827C34.9453 2.11279 35.9703 1.37508 36.9617 1.70705L39.4204 2.53037L42.215 1.15633C43.2752 0.63504 44.5168 0.632802 45.5789 1.15027L48.4116 2.53037L50.9153 1.6996C51.9059 1.3709 52.9277 2.10842 52.9277 3.15214V6.70449V6.70449C52.9277 7.47186 52.4169 8.14543 51.678 8.35245L51.0197 8.53687C46.3607 9.84217 41.4318 9.8363 36.7759 8.51991L36.1942 8.35542C35.4554 8.14654 34.9453 7.47225 34.9453 6.70449V6.70449Z" fill="#FFB72A"/>
<path d="M43.3016 36.1048C43.6305 36.4445 44.3694 36.4445 44.6983 36.1048C45.2828 35.5011 46.0784 35.1158 46.9258 35.046C47.18 35.025 47.3863 34.8018 47.312 34.5578C46.8801 33.1383 45.5606 32.1055 44 32.1055C42.4393 32.1055 41.1198 33.1383 40.6879 34.5578C40.6137 34.8018 40.8199 35.025 41.0741 35.046C41.9215 35.1159 42.7171 35.5011 43.3016 36.1048Z" fill="#FFB72A"/>
<circle cx="36.1463" cy="26.0037" r="6.85725" fill="white"/>
<path d="M33.9414 24.5339V24.5339C35.068 23.0115 37.3455 23.0115 38.4721 24.5339V24.5339" stroke="#7900FF" stroke-width="2.44902" stroke-linecap="round"/>
<circle cx="51.994" cy="26.0037" r="6.85725" fill="white"/>
<path d="M49.7891 24.5339V24.5339C50.9156 23.0115 53.1932 23.0115 54.3197 24.5339V24.5339" stroke="#7900FF" stroke-width="2.44902" stroke-linecap="round"/>
</svg>
