<svg width="22" height="22" viewBox="0 0 22 22" fill="none" xmlns="http://www.w3.org/2000/svg">
<g clip-path="url(#clip0_885_422)">
<path d="M10.933 0.930441C11.2136 0.879308 11.5178 0.965676 11.7236 1.16462C11.9105 1.33779 12.0171 1.59173 12.0128 1.84611C12.0137 2.50611 12.0132 3.16611 12.0132 3.82611C12.0205 4.12216 11.877 4.41736 11.636 4.58966C11.3816 4.77829 11.0271 4.81868 10.7375 4.69193C10.4126 4.557 10.1832 4.22142 10.1815 3.86907C10.1793 3.18114 10.1789 2.49278 10.1815 1.80486C10.184 1.38333 10.5188 0.999621 10.933 0.930441Z" fill="#0066FF"/>
<path d="M4.5614 3.57939C4.8798 3.5317 5.20077 3.67607 5.40831 3.91541C5.85819 4.36787 6.31152 4.81689 6.76054 5.27021C6.96034 5.4756 7.05144 5.77853 7.0003 6.06041C6.9496 6.36634 6.73089 6.63748 6.44257 6.75134C6.11687 6.88798 5.71554 6.81193 5.46417 6.56314C4.9898 6.09306 4.51886 5.61955 4.04577 5.14818C3.81976 4.93162 3.71663 4.5956 3.78796 4.28966C3.86401 3.92228 4.18929 3.62494 4.5614 3.57939Z" fill="#0066FF"/>
<path d="M17.3323 3.58968C17.6984 3.51406 18.0971 3.69023 18.2883 4.01078C18.5032 4.3498 18.4546 4.82718 18.1753 5.1155C17.7551 5.54089 17.3301 5.96199 16.9077 6.38523C16.7707 6.51972 16.6426 6.67312 16.4634 6.75347C16.1412 6.91117 15.7291 6.85359 15.4636 6.61168C15.0828 6.29371 15.0502 5.66035 15.3974 5.30543C15.8752 4.82246 16.3577 4.34421 16.8377 3.86296C16.97 3.7246 17.1432 3.62492 17.3323 3.58968Z" fill="#0066FF"/>
<path d="M11.5322 6.46616C11.854 6.36175 12.2295 6.45456 12.4637 6.69948C13.4168 7.65253 14.3711 8.60429 15.322 9.55905C15.6636 9.8998 15.6542 10.5065 15.3061 10.8395C11.9838 14.1623 8.66013 17.4834 5.33779 20.8053C5.00693 21.161 4.39291 21.1748 4.04959 20.8302C3.08795 19.8707 2.12845 18.9086 1.16853 17.947C0.833376 17.6123 0.834665 17.0171 1.17111 16.6837C4.49904 13.3528 7.82912 10.024 11.1588 6.69433C11.264 6.59163 11.3908 6.50956 11.5322 6.46616ZM10.2573 10.2006C10.7768 10.7153 11.2911 11.2357 11.8085 11.753C12.3284 11.2335 12.85 10.7162 13.3656 10.1933C12.8453 9.67593 12.3288 9.15515 11.8089 8.63737C11.2928 9.15987 10.7665 9.67206 10.2573 10.2006ZM3.13435 17.3153C3.64912 17.8366 4.16904 18.3518 4.68424 18.8721C6.6333 16.9351 8.57205 14.9873 10.5164 13.0455C9.99775 12.5252 9.47869 12.0057 8.95791 11.4875C7.01744 13.431 5.07525 15.3727 3.13435 17.3153Z" fill="#0066FF"/>
<path d="M17.9226 10.0196C18.0193 9.99472 18.1198 9.99042 18.2195 9.99042C18.7931 9.99128 19.3668 9.99085 19.9404 9.99085C20.1153 9.99128 20.2962 9.97968 20.4642 10.0407C20.7581 10.1391 20.9923 10.3973 21.0593 10.7007C21.1263 10.9766 21.0524 11.2816 20.8681 11.4973C20.6941 11.7066 20.4242 11.8286 20.1527 11.8243C19.4935 11.8248 18.8344 11.8243 18.1757 11.8243C17.6798 11.8488 17.2235 11.4105 17.2347 10.913C17.2239 10.5035 17.5251 10.1155 17.9226 10.0196Z" fill="#0066FF"/>
<path d="M15.9552 14.9707C16.2371 14.9324 16.5318 15.0369 16.7299 15.2405C17.2039 15.7128 17.6769 16.1854 18.15 16.6581C18.376 16.8802 18.4714 17.224 18.3902 17.5308C18.3155 17.8449 18.0589 18.1061 17.747 18.1895C17.4346 18.2797 17.0797 18.1847 16.8528 17.9527C16.372 17.4728 15.8907 16.9937 15.4116 16.5124C15.1689 16.2662 15.0894 15.8769 15.2157 15.5555C15.3296 15.244 15.626 15.0106 15.9552 14.9707Z" fill="#0066FF"/>
</g>
<defs>
<clipPath id="clip0_885_422">
<rect width="22" height="22" fill="white"/>
</clipPath>
</defs>
</svg>
