<svg width="22" height="22" viewBox="0 0 22 22" fill="none" xmlns="http://www.w3.org/2000/svg">
<path d="M4.54968 9.66211C3.58564 9.66211 2.79688 10.4509 2.79688 11.4149C2.79688 12.379 3.58564 13.1677 4.54968 13.1677C5.51373 13.1677 6.30249 12.379 6.30249 11.4149C6.30249 10.4509 5.51373 9.66211 4.54968 9.66211ZM16.8193 9.66211C15.8553 9.66211 15.0665 10.4509 15.0665 11.4149C15.0665 12.379 15.8553 13.1677 16.8193 13.1677C17.7834 13.1677 18.5722 12.379 18.5722 11.4149C18.5722 10.4509 17.7834 9.66211 16.8193 9.66211ZM10.6845 9.66211C9.72047 9.66211 8.93171 10.4509 8.93171 11.4149C8.93171 12.379 9.72047 13.1677 10.6845 13.1677C11.6486 13.1677 12.4373 12.379 12.4373 11.4149C12.4373 10.4509 11.6486 9.66211 10.6845 9.66211Z" stroke="black" stroke-width="1.31461"/>
</svg>
