<svg width="1920" height="95" viewBox="0 0 1920 95" fill="none" xmlns="http://www.w3.org/2000/svg">
<mask id="mask0_885_1455" style="mask-type:alpha" maskUnits="userSpaceOnUse" x="0" y="0" width="1920" height="95">
<rect width="1920" height="95" fill="#D9D9D9"/>
</mask>
<g mask="url(#mask0_885_1455)">
<rect width="1920" height="95" fill="#DDDDDD"/>
<path d="M1965.58 -24.6806C1955.28 5.57424 1933.39 30.5001 1904.71 44.6135C1876.04 58.727 1842.94 60.8719 1812.68 50.5765C1782.43 40.281 1757.5 18.3886 1743.39 -10.2848C1729.27 -38.9581 1727.13 -72.0637 1737.42 -102.318L1747.35 -98.9418C1737.95 -71.3187 1739.9 -41.0929 1752.79 -14.9137C1765.68 11.2655 1788.43 31.2536 1816.06 40.6534C1843.68 50.0533 1873.91 48.0949 1900.09 35.2092C1926.26 22.3234 1946.25 -0.434219 1955.65 -28.0573L1965.58 -24.6806Z" fill="url(#paint0_linear_885_1455)"/>
<path d="M1242.36 -205.749C1261.37 -216.725 1283.01 -222.299 1304.96 -221.87C1326.91 -221.442 1348.32 -215.026 1366.88 -203.317C1385.45 -191.608 1400.47 -175.05 1410.31 -155.43C1420.15 -135.81 1424.45 -113.875 1422.74 -91.9909C1421.03 -70.1072 1413.37 -49.1071 1400.59 -31.2577C1387.82 -13.4083 1370.41 0.612247 1350.24 9.29022C1330.08 17.9682 1307.93 20.9739 1286.19 17.9829C1264.44 14.9919 1243.92 6.11778 1226.85 -7.68139L1233.44 -15.833C1249.03 -3.23417 1267.76 4.86803 1287.61 7.59887C1307.47 10.3297 1327.69 7.58542 1346.1 -0.33769C1364.51 -8.2608 1380.4 -21.0617 1392.07 -37.3585C1403.73 -53.6552 1410.73 -72.8287 1412.29 -92.8088C1413.85 -112.789 1409.93 -132.817 1400.94 -150.73C1391.95 -168.643 1378.24 -183.761 1361.29 -194.451C1344.34 -205.142 1324.79 -210.999 1304.75 -211.39C1284.72 -211.782 1264.95 -206.692 1247.6 -196.672L1242.36 -205.749Z" fill="url(#paint1_linear_885_1455)"/>
<path d="M1436 -63.5C1436 -45.933 1432.16 -28.5785 1424.75 -12.6521C1417.33 3.27426 1406.53 17.3873 1393.09 28.6982C1379.65 40.0092 1363.89 48.2445 1346.94 52.8273C1329.98 57.4101 1312.22 58.2296 1294.91 55.2283L1296.7 44.9006C1312.51 47.6408 1328.72 46.8926 1344.2 42.7085C1359.68 38.5243 1374.07 31.0053 1386.34 20.6782C1398.61 10.3512 1408.48 -2.53417 1415.24 -17.0752C1422.01 -31.6162 1425.52 -47.4611 1425.52 -63.5H1436Z" fill="url(#paint2_linear_885_1455)"/>
<path d="M1479 -39.5C1479 -15.0567 1471.57 8.80872 1457.69 28.9285C1443.8 49.0482 1424.13 64.4709 1401.28 73.1493L1397.56 63.3504C1418.42 55.4268 1436.38 41.3458 1449.06 22.9761C1461.73 4.60654 1468.52 -17.1829 1468.52 -39.5L1479 -39.5Z" fill="url(#paint3_linear_885_1455)"/>
<path d="M1102.83 97.5557C1115.06 84.9372 1129.89 75.1434 1146.29 68.8606C1162.7 62.5778 1180.28 59.9578 1197.8 61.1843C1215.33 62.4108 1232.37 67.4539 1247.74 75.9606C1263.11 84.4672 1276.44 96.2316 1286.78 110.43L1278.31 116.602C1268.86 103.639 1256.7 92.8982 1242.67 85.1315C1228.63 77.3648 1213.07 72.7603 1197.07 71.6405C1181.07 70.5208 1165.02 72.9128 1150.04 78.6491C1135.07 84.3854 1121.52 93.3272 1110.36 104.848L1102.83 97.5557Z" fill="url(#paint4_linear_885_1455)"/>
<path d="M901.946 69.2255C889.725 81.8441 874.892 91.6378 858.487 97.9206C842.082 104.203 824.501 106.823 806.977 105.597C789.453 104.371 772.409 99.3273 757.039 90.8207C741.669 82.314 728.345 70.5497 718 56.3518L726.471 50.1792C735.916 63.1421 748.082 73.8831 762.115 81.6498C776.148 89.4164 791.709 94.0209 807.709 95.1407C823.709 96.2605 839.76 93.8684 854.738 88.1321C869.716 82.3958 883.258 73.454 894.417 61.9331L901.946 69.2255Z" fill="url(#paint5_linear_885_1455)"/>
<path d="M543.479 1.73694C561.044 1.45635 578.457 5.01961 594.5 12.1771C610.543 19.3346 624.827 29.9132 636.351 43.1719C647.875 56.4305 656.361 72.0486 661.214 88.9319C666.067 105.815 667.17 123.555 664.446 140.91L654.091 139.284C656.578 123.439 655.571 107.242 651.14 91.8276C646.709 76.4129 638.962 62.1534 628.44 50.0481C617.918 37.9427 604.877 28.2843 590.229 21.7494C575.582 15.2145 559.683 11.9612 543.646 12.2174L543.479 1.73694Z" fill="url(#paint6_linear_885_1455)"/>
<path d="M475.192 75.8223C460.121 84.8477 443.258 90.4686 425.786 92.2914C408.314 94.1142 390.654 92.0948 374.045 86.3745C357.435 80.6543 342.277 71.3716 329.633 59.1768C316.988 46.982 307.163 32.1699 300.845 15.7783L310.626 12.0087C316.394 26.9744 325.364 40.498 336.909 51.6321C348.454 62.7661 362.293 71.2413 377.458 76.464C392.623 81.6866 408.746 83.5304 424.698 81.8662C440.651 80.2019 456.046 75.0699 469.807 66.8296L475.192 75.8223Z" fill="url(#paint7_linear_885_1455)"/>
<path d="M109.781 34.1504C124.852 25.125 141.714 19.504 159.187 17.6812C176.659 15.8584 194.318 17.8779 210.928 23.5981C227.537 29.3184 242.695 38.601 255.34 50.7959C267.985 62.9907 277.81 77.8027 284.128 94.1943L274.347 97.964C268.579 82.9982 259.608 69.4746 248.064 58.3406C236.519 47.2065 222.679 38.7313 207.515 33.5087C192.35 28.286 176.227 26.4422 160.274 28.1065C144.322 29.7707 128.926 34.9027 115.166 43.143L109.781 34.1504Z" fill="url(#paint8_linear_885_1455)"/>
<path d="M1014.41 145.436C1017.09 123.359 1024.57 102.136 1036.32 83.2534C1048.07 64.3707 1063.8 48.2852 1082.42 36.1237C1101.04 23.9623 1122.1 16.019 1144.11 12.8503C1166.12 9.68157 1188.56 11.3641 1209.85 17.7801L1206.03 30.4856C1186.58 24.6278 1166.1 23.0916 1146 25.9846C1125.9 28.8777 1106.68 36.13 1089.68 47.2336C1072.68 58.3372 1058.31 73.0235 1047.59 90.2636C1036.86 107.504 1030.03 126.881 1027.58 147.037L1014.41 145.436Z" fill="url(#paint9_linear_885_1455)"/>
<path d="M990.373 21.3471C987.69 43.424 980.211 64.6471 968.463 83.5298C956.714 102.412 940.978 118.498 922.359 130.659C903.739 142.821 882.686 150.764 860.673 153.933C838.661 157.102 816.222 155.419 794.928 149.003L798.756 136.298C818.198 142.155 838.685 143.692 858.783 140.799C878.88 137.906 898.102 130.653 915.102 119.55C932.102 108.446 946.469 93.7597 957.196 76.5195C967.923 59.2794 974.75 39.9023 977.2 19.7458L990.373 21.3471Z" fill="url(#paint10_linear_885_1455)"/>
<path d="M447.097 -26.9353C464.605 -40.6485 484.9 -50.3677 506.56 -55.4121C528.22 -60.4564 550.72 -60.704 572.486 -56.1374C594.251 -51.5708 614.755 -42.3005 632.561 -28.976C650.367 -15.6514 665.044 1.40523 675.564 20.999L663.873 27.2762C654.268 9.3868 640.868 -6.18612 624.611 -18.3517C608.354 -30.5172 589.633 -38.9811 569.761 -43.1504C549.889 -47.3198 529.345 -47.0938 509.57 -42.4882C489.794 -37.8826 471.265 -29.0088 455.279 -16.4885L447.097 -26.9353Z" fill="url(#paint11_linear_885_1455)"/>
<path d="M572.996 52.4613C564.69 73.0914 551.974 91.6559 535.738 106.854C519.503 122.053 500.14 133.518 479.007 140.446C457.875 147.374 435.483 149.597 413.4 146.961C391.318 144.324 370.078 136.891 351.171 125.183L358.157 113.901C375.42 124.591 394.812 131.377 414.973 133.784C435.135 136.192 455.579 134.161 474.874 127.836C494.168 121.511 511.846 111.043 526.67 97.1669C541.493 83.2905 553.103 66.3408 560.687 47.5053L572.996 52.4613Z" fill="url(#paint12_linear_885_1455)"/>
<path d="M11.9763 57.5113C20.2824 36.8812 32.9987 18.3167 49.2344 3.1183C65.4701 -12.0801 84.8325 -23.5449 105.965 -30.4729C127.098 -37.4009 149.49 -39.6245 171.573 -36.9879C193.655 -34.3514 214.894 -26.9185 233.802 -15.2099L226.816 -3.92814C209.553 -14.6182 190.161 -21.4046 169.999 -23.8118C149.838 -26.219 129.394 -24.1888 110.099 -17.8634C90.8046 -11.5381 73.1264 -1.07061 58.303 12.8058C43.4795 26.6822 31.8694 43.6318 24.2858 62.4674L11.9763 57.5113Z" fill="url(#paint13_linear_885_1455)"/>
</g>
<defs>
<linearGradient id="paint0_linear_885_1455" x1="1716.18" y1="-18.1749" x2="1919.23" y2="179.791" gradientUnits="userSpaceOnUse">
<stop stop-color="#EEEEEE"/>
<stop offset="1" stop-color="#EEEEEE" stop-opacity="0"/>
</linearGradient>
<linearGradient id="paint1_linear_885_1455" x1="1434.27" y1="-46.3493" x2="1411.92" y2="-329.052" gradientUnits="userSpaceOnUse">
<stop stop-color="#EEEEEE"/>
<stop offset="1" stop-color="#EEEEEE" stop-opacity="0"/>
</linearGradient>
<linearGradient id="paint2_linear_885_1455" x1="1202" y1="23" x2="1458" y2="145" gradientUnits="userSpaceOnUse">
<stop stop-color="#EEEEEE"/>
<stop offset="1" stop-color="#EEEEEE" stop-opacity="0"/>
</linearGradient>
<linearGradient id="paint3_linear_885_1455" x1="1245" y1="47" x2="1501" y2="169" gradientUnits="userSpaceOnUse">
<stop stop-color="#EEEEEE"/>
<stop offset="1" stop-color="#EEEEEE" stop-opacity="0"/>
</linearGradient>
<linearGradient id="paint4_linear_885_1455" x1="1331.1" y1="198.221" x2="1232.09" y2="-67.518" gradientUnits="userSpaceOnUse">
<stop stop-color="#EEEEEE"/>
<stop offset="1" stop-color="#EEEEEE" stop-opacity="0"/>
</linearGradient>
<linearGradient id="paint5_linear_885_1455" x1="673.682" y1="-31.4396" x2="772.691" y2="234.299" gradientUnits="userSpaceOnUse">
<stop stop-color="#EEEEEE"/>
<stop offset="1" stop-color="#EEEEEE" stop-opacity="0"/>
</linearGradient>
<linearGradient id="paint6_linear_885_1455" x1="633.706" y1="234.325" x2="751.601" y2="-23.5905" gradientUnits="userSpaceOnUse">
<stop stop-color="#EEEEEE"/>
<stop offset="1" stop-color="#EEEEEE" stop-opacity="0"/>
</linearGradient>
<linearGradient id="paint7_linear_885_1455" x1="280.759" y1="-80.492" x2="307.617" y2="201.817" gradientUnits="userSpaceOnUse">
<stop stop-color="#EEEEEE"/>
<stop offset="1" stop-color="#EEEEEE" stop-opacity="0"/>
</linearGradient>
<linearGradient id="paint8_linear_885_1455" x1="304.214" y1="190.465" x2="277.356" y2="-91.8448" gradientUnits="userSpaceOnUse">
<stop stop-color="#EEEEEE"/>
<stop offset="1" stop-color="#EEEEEE" stop-opacity="0"/>
</linearGradient>
<linearGradient id="paint9_linear_885_1455" x1="1321.7" y1="72.4759" x2="1018.61" y2="-119.952" gradientUnits="userSpaceOnUse">
<stop stop-color="#EEEEEE"/>
<stop offset="1" stop-color="#EEEEEE" stop-opacity="0"/>
</linearGradient>
<linearGradient id="paint10_linear_885_1455" x1="683.085" y1="94.3073" x2="986.17" y2="286.735" gradientUnits="userSpaceOnUse">
<stop stop-color="#EEEEEE"/>
<stop offset="1" stop-color="#EEEEEE" stop-opacity="0"/>
</linearGradient>
<linearGradient id="paint11_linear_885_1455" x1="715.973" y1="138.759" x2="637.727" y2="-211.621" gradientUnits="userSpaceOnUse">
<stop stop-color="#EEEEEE"/>
<stop offset="1" stop-color="#EEEEEE" stop-opacity="0"/>
</linearGradient>
<linearGradient id="paint12_linear_885_1455" x1="257.296" y1="43.4035" x2="500.249" y2="307.719" gradientUnits="userSpaceOnUse">
<stop stop-color="#EEEEEE"/>
<stop offset="1" stop-color="#EEEEEE" stop-opacity="0"/>
</linearGradient>
<linearGradient id="paint13_linear_885_1455" x1="327.677" y1="66.5691" x2="84.7238" y2="-197.746" gradientUnits="userSpaceOnUse">
<stop stop-color="#EEEEEE"/>
<stop offset="1" stop-color="#EEEEEE" stop-opacity="0"/>
</linearGradient>
</defs>
</svg>
