<svg width="1128" height="106" viewBox="0 0 1128 106" fill="none" xmlns="http://www.w3.org/2000/svg">
<g filter="url(#filter0_d_168_3085)">
<rect x="1128" width="106" height="1128" rx="15" transform="rotate(90 1128 0)" fill="url(#paint0_linear_168_3085)" shape-rendering="crispEdges"/>
</g>
<path opacity="0.2" fill-rule="evenodd" clip-rule="evenodd" d="M707.183 -188.69C615.789 -87.6741 625.994 70.5474 730.063 164.704C818.354 244.584 945.785 252.642 1038.2 191.566C956.704 241.665 847.078 233.194 770.587 163.988C678.24 80.4374 669.156 -59.9972 750.297 -149.681C831.439 -239.365 972.079 -244.337 1064.43 -160.787C1140.92 -91.5764 1160.29 16.6667 1118.56 102.762C1170.12 4.70757 1149.39 -121.296 1061.1 -201.181C957.028 -295.338 798.577 -289.706 707.183 -188.69ZM1083.97 152.212L1084.16 152.006C1084.24 151.92 1084.31 151.834 1084.39 151.748C1111.49 121.284 1108.3 73.9072 1077.06 45.6394C1045.66 17.2279 997.875 18.9469 970.33 49.3919C942.785 79.8369 945.842 127.553 977.244 155.964C1008.49 184.233 1055.95 182.673 1083.56 152.667C1083.63 152.584 1083.71 152.501 1083.79 152.417L1083.97 152.212ZM1097.3 133.627C1120.26 92.3686 1111.94 38.4728 1074.4 4.50322C1030.89 -34.8657 964.658 -32.4946 926.471 9.71222C888.285 51.9191 892.533 118.052 936.047 157.421C973.594 191.392 1028.05 194.285 1066.82 167.321C1038.97 183.306 1002.32 180 976.573 156.706C944.782 127.942 941.655 79.5959 969.589 48.721C997.522 17.8462 1045.94 16.1345 1077.73 44.8978C1103.48 68.1912 1110.42 104.328 1097.3 133.627ZM935.376 158.163C971.254 190.624 1022.47 194.978 1061.04 172.214C1011.55 205.956 942.527 202.015 894.848 158.878C839.223 108.551 833.784 24.0002 882.612 -29.9685C931.44 -83.9371 1016.11 -86.9603 1071.74 -36.6339C1119.41 6.50161 1130.22 74.78 1101.59 127.394C1120.39 86.7404 1110.95 36.2213 1075.07 3.76168C1031.17 -35.9592 964.305 -33.5954 925.73 9.04131C887.154 51.678 891.473 118.442 935.376 158.163ZM853.654 160.334C911.489 212.66 995.116 217.629 1055.35 177.05C1006.03 206.652 940.213 201.27 894.177 159.619C838.163 108.941 832.653 23.7592 881.87 -30.6394C931.087 -85.0379 1016.39 -88.0537 1072.41 -37.3754C1118.45 4.28033 1130.37 69.2474 1105.82 121.27C1140.2 57.2888 1126.92 -25.4391 1069.08 -77.771C1001.34 -139.055 898.227 -135.38 838.757 -69.6491C779.287 -3.9186 785.918 99.05 853.654 160.334ZM1049.57 181.928C989.537 218.319 909.151 211.893 852.983 161.075C784.858 99.4396 778.157 -4.15965 838.015 -70.32C897.874 -136.48 1001.62 -140.148 1069.75 -78.5126C1125.92 -27.6969 1140.33 51.6421 1110.12 115.008C1150.16 39.6811 1134.38 -57.4169 1066.42 -118.908C986.569 -191.15 865.008 -186.822 794.897 -109.33C724.786 -31.8375 732.608 89.5488 812.455 161.79C880.423 223.284 978.617 229.297 1049.57 181.928ZM1063.75 -160.045C1141.88 -89.366 1160.14 22.1642 1114.35 108.85C1150.3 34.1249 1133.41 -59.6461 1067.09 -119.65C986.851 -192.243 864.656 -187.923 794.156 -110.001C723.656 -32.0785 731.548 89.9384 811.784 162.532C878.106 222.536 973.097 229.99 1043.86 186.764C962.177 240.968 849.379 233.927 771.257 163.247C679.299 80.0477 670.286 -59.7561 751.039 -149.01C831.791 -238.265 971.797 -243.244 1063.75 -160.045ZM729.392 165.445C815.996 243.8 940.148 253.327 1032.36 196.482C929.227 264.305 787.266 255.191 688.861 166.16C572.681 61.0462 561.285 -115.593 663.321 -228.371C765.356 -341.149 942.251 -347.432 1058.43 -242.319C1156.82 -153.3 1180.06 -12.9845 1122.9 96.3987C1170.23 -1.02179 1148.36 -123.58 1061.77 -201.923C957.31 -296.431 798.225 -290.807 706.442 -189.361C614.659 -87.9151 624.934 70.9371 729.392 165.445ZM646.996 168.358C775.179 284.331 970.137 277.904 1083.4 154.326C1083.84 153.848 1084.28 153.367 1084.72 152.883C1085.16 152.398 1085.59 151.912 1086.03 151.425C1197.68 26.3954 1184.62 -168.226 1056.44 -284.197C927.764 -400.62 731.79 -393.692 618.724 -268.722C505.658 -143.753 518.316 51.9347 646.996 168.358ZM647.667 167.616C519.376 51.545 506.788 -143.512 619.465 -268.052C732.143 -392.591 927.482 -399.527 1055.77 -283.456C1164.38 -185.198 1190.06 -30.3389 1127.04 90.4295C1180.23 -18.3793 1155.9 -155.478 1059.1 -243.06C942.533 -348.526 765.004 -342.25 662.579 -229.042C560.155 -115.834 571.621 61.4359 688.191 166.902C784.983 254.474 923.806 265.004 1026.76 201.245C912.887 275.981 756.258 265.864 647.667 167.616Z" fill="#F4F5F5"/>
<defs>
<filter id="filter0_d_168_3085" x="-234" y="-165" width="1596" height="574" filterUnits="userSpaceOnUse" color-interpolation-filters="sRGB">
<feFlood flood-opacity="0" result="BackgroundImageFix"/>
<feColorMatrix in="SourceAlpha" type="matrix" values="0 0 0 0 0 0 0 0 0 0 0 0 0 0 0 0 0 0 127 0" result="hardAlpha"/>
<feOffset dy="69"/>
<feGaussianBlur stdDeviation="117"/>
<feComposite in2="hardAlpha" operator="out"/>
<feColorMatrix type="matrix" values="0 0 0 0 0.31026 0 0 0 0 0.649199 0 0 0 0 0.670833 0 0 0 0.02 0"/>
<feBlend mode="normal" in2="BackgroundImageFix" result="effect1_dropShadow_168_3085"/>
<feBlend mode="normal" in="SourceGraphic" in2="effect1_dropShadow_168_3085" result="shape"/>
</filter>
<linearGradient id="paint0_linear_168_3085" x1="1181" y1="0" x2="1181" y2="1128" gradientUnits="userSpaceOnUse">
<stop stop-color="#7900FF"/>
<stop offset="0.348443" stop-color="#7900FF" stop-opacity="0.684874"/>
<stop offset="0.703595" stop-color="#7501F5" stop-opacity="0.73367"/>
<stop offset="1" stop-color="#6009C1"/>
</linearGradient>
</defs>
</svg>
