<svg width="10" height="10" viewBox="0 0 10 10" fill="none" xmlns="http://www.w3.org/2000/svg">
<path d="M3.04149 8.22103L6.95816 8.22103C7.26649 8.22103 7.57899 8.0002 7.68316 7.7127L9.40816 2.88353C9.62066 2.2752 9.46649 1.99603 9.29982 1.87103C9.13316 1.74603 8.82066 1.67103 8.29566 2.04603L6.67066 3.20853C6.62066 3.2377 6.57482 3.2502 6.54149 3.24186C6.50399 3.22936 6.47482 3.19603 6.45399 3.1377L5.72066 1.18353C5.49982 0.600196 5.17482 0.512696 4.99982 0.512696C4.82482 0.512696 4.49982 0.600196 4.27899 1.18353L3.54566 3.1377C3.52482 3.19186 3.49566 3.22936 3.45816 3.24186C3.42066 3.25436 3.37482 3.24186 3.32899 3.20436L1.80399 2.11686C1.24566 1.71686 0.920657 1.79603 0.74149 1.9252C0.56649 2.05853 0.40399 2.35436 0.633157 3.0002L2.31649 7.7127C2.42066 8.0002 2.73316 8.22103 3.04149 8.22103ZM8.88316 2.42103C8.87482 2.47936 8.85816 2.5627 8.81649 2.67103L7.09149 7.5002C7.07482 7.54186 6.99982 7.59603 6.95816 7.59603L3.04149 7.59603C2.99566 7.59603 2.92066 7.54186 2.90816 7.5002L1.22482 2.79186C1.16649 2.63353 1.14982 2.5252 1.14566 2.4627C1.20816 2.48353 1.30399 2.52936 1.44149 2.62936L2.96649 3.71686C3.17482 3.8627 3.42066 3.90853 3.64149 3.84186C3.86232 3.7752 4.04149 3.6002 4.13316 3.3627L4.86649 1.40853C4.92066 1.2627 4.97066 1.19186 4.99982 1.15853C5.02899 1.19186 5.07899 1.2627 5.13316 1.40436L5.86649 3.35853C5.95399 3.59603 6.13316 3.77103 6.35816 3.8377C6.57899 3.90436 6.82899 3.85853 7.03316 3.7127L8.65816 2.5502C8.75399 2.48353 8.82899 2.44186 8.88316 2.42103Z" fill="white"/>
<path d="M2.70768 9.479L7.29102 9.479C7.46185 9.479 7.60352 9.33734 7.60352 9.1665C7.60352 8.99567 7.46185 8.854 7.29102 8.854L2.70768 8.854C2.53685 8.854 2.39518 8.99567 2.39518 9.1665C2.39518 9.33734 2.53685 9.479 2.70768 9.479Z" fill="white"/>
<path d="M3.95768 6.146L6.04102 6.146C6.21185 6.146 6.35352 6.00433 6.35352 5.8335C6.35352 5.66266 6.21185 5.521 6.04102 5.521L3.95768 5.521C3.78685 5.521 3.64518 5.66266 3.64518 5.8335C3.64518 6.00433 3.78685 6.146 3.95768 6.146Z" fill="white"/>
</svg>
