<svg width="20" height="21" viewBox="0 0 20 21" fill="none" xmlns="http://www.w3.org/2000/svg">
<g filter="url(#filter0_d_885_1841)">
<path d="M0.507812 4.75745C0.507812 2.12998 2.6378 0 5.26526 0H13.9306C16.5581 0 18.6881 2.12998 18.6881 4.75745V9.53228C18.6881 14.0343 15.7206 17.9977 11.4007 19.2654L10.6306 19.4914C9.95636 19.6892 9.23952 19.6892 8.56532 19.4914L7.79513 19.2654C3.47524 17.9977 0.507812 14.0343 0.507812 9.53228V4.75745Z" fill="url(#paint0_linear_885_1841)"/>
</g>
<g filter="url(#filter1_d_885_1841)">
<path d="M8.82271 3.93253C9.23698 3.40149 10.0401 3.40149 10.4544 3.93253L11.246 4.94736C11.3656 5.10065 11.526 5.21715 11.7087 5.28351L12.9185 5.72282C13.5516 5.95271 13.7997 6.71654 13.4227 7.27462L12.7022 8.34114C12.5933 8.50223 12.5321 8.69073 12.5255 8.88503L12.4815 10.1714C12.4585 10.8445 11.8087 11.3166 11.1615 11.1304L9.92449 10.7747C9.73764 10.721 9.53944 10.721 9.3526 10.7747L8.11563 11.1304C7.46835 11.3166 6.8186 10.8445 6.79559 10.1714L6.75163 8.88503C6.74499 8.69073 6.68374 8.50223 6.57491 8.34114L5.85438 7.27462C5.47734 6.71654 5.72553 5.95271 6.35859 5.72282L7.56839 5.28351C7.75113 5.21715 7.91148 5.10065 8.03105 4.94736L8.82271 3.93253Z" fill="url(#paint1_linear_885_1841)" shape-rendering="crispEdges"/>
</g>
<g filter="url(#filter2_d_885_1841)">
<path d="M9.43854 14.3021C9.54041 14.1715 9.7379 14.1715 9.83977 14.3021L10.0344 14.5516C10.0638 14.5893 10.1033 14.618 10.1482 14.6343L10.4457 14.7423C10.6014 14.7989 10.6624 14.9867 10.5697 15.1239L10.3925 15.3862C10.3657 15.4258 10.3507 15.4721 10.349 15.5199L10.3382 15.8362C10.3326 16.0018 10.1728 16.1178 10.0136 16.0721L9.70947 15.9846C9.66352 15.9714 9.61478 15.9714 9.56884 15.9846L9.26467 16.0721C9.1055 16.1178 8.94572 16.0018 8.94007 15.8362L8.92926 15.5199C8.92762 15.4721 8.91256 15.4258 8.8858 15.3862L8.70862 15.1239C8.61591 14.9867 8.67694 14.7989 8.83261 14.7423L9.1301 14.6343C9.17503 14.618 9.21446 14.5893 9.24387 14.5516L9.43854 14.3021Z" fill="url(#paint2_linear_885_1841)"/>
</g>
<g filter="url(#filter3_d_885_1841)">
<path d="M5.45807 12.8197C5.55994 12.6891 5.75743 12.6891 5.8593 12.8197L6.05397 13.0692C6.08337 13.1069 6.1228 13.1356 6.16774 13.1519L6.46523 13.2599C6.6209 13.3164 6.68193 13.5043 6.58922 13.6415L6.41204 13.9038C6.38527 13.9434 6.37021 13.9897 6.36858 14.0375L6.35777 14.3538C6.35211 14.5193 6.19234 14.6354 6.03317 14.5896L5.729 14.5022C5.68305 14.489 5.63432 14.489 5.58837 14.5022L5.2842 14.5896C5.12503 14.6354 4.96525 14.5193 4.9596 14.3538L4.94879 14.0375C4.94715 13.9897 4.93209 13.9434 4.90533 13.9038L4.72815 13.6415C4.63544 13.5043 4.69647 13.3164 4.85214 13.2599L5.14963 13.1519C5.19457 13.1356 5.23399 13.1069 5.2634 13.0692L5.45807 12.8197Z" fill="url(#paint3_linear_885_1841)"/>
</g>
<g filter="url(#filter4_d_885_1841)">
<path d="M13.4151 12.8197C13.517 12.6891 13.7145 12.6891 13.8163 12.8197L14.011 13.0692C14.0404 13.1069 14.0798 13.1356 14.1248 13.1519L14.4223 13.2599C14.5779 13.3164 14.639 13.5043 14.5462 13.6415L14.3691 13.9038C14.3423 13.9434 14.3272 13.9897 14.3256 14.0375L14.3148 14.3538C14.3091 14.5193 14.1494 14.6354 13.9902 14.5896L13.686 14.5022C13.6401 14.489 13.5913 14.489 13.5454 14.5022L13.2412 14.5896C13.0821 14.6354 12.9223 14.5193 12.9166 14.3538L12.9058 14.0375C12.9042 13.9897 12.8891 13.9434 12.8624 13.9038L12.6852 13.6415C12.5925 13.5043 12.6535 13.3164 12.8092 13.2599L13.1067 13.1519C13.1516 13.1356 13.191 13.1069 13.2204 13.0692L13.4151 12.8197Z" fill="url(#paint4_linear_885_1841)"/>
</g>
<mask id="mask0_885_1841" style="mask-type:alpha" maskUnits="userSpaceOnUse" x="0" y="0" width="19" height="20">
<path d="M0.507812 4.75745C0.507812 2.12998 2.6378 0 5.26526 0H13.9306C16.5581 0 18.6881 2.12998 18.6881 4.75745V9.53228C18.6881 14.0343 15.7206 17.9977 11.4007 19.2654L10.6306 19.4914C9.95636 19.6892 9.23952 19.6892 8.56532 19.4914L7.79513 19.2654C3.47524 17.9977 0.507812 14.0343 0.507812 9.53228V4.75745Z" fill="#FDBA0E"/>
</mask>
<g mask="url(#mask0_885_1841)">
<path d="M15.6211 -6.54688L18.9881 -3.72056L-0.425883 19.4077L-3.79292 16.5814L15.6211 -6.54688Z" fill="white" fill-opacity="0.36"/>
<path d="M11.1797 -6.55469L12.8461 -5.15593L-6.56796 17.9724L-8.23433 16.5736L11.1797 -6.55469Z" fill="white" fill-opacity="0.36"/>
</g>
<defs>
<filter id="filter0_d_885_1841" x="0.507812" y="0" width="18.7259" height="20.4209" filterUnits="userSpaceOnUse" color-interpolation-filters="sRGB">
<feFlood flood-opacity="0" result="BackgroundImageFix"/>
<feColorMatrix in="SourceAlpha" type="matrix" values="0 0 0 0 0 0 0 0 0 0 0 0 0 0 0 0 0 0 127 0" result="hardAlpha"/>
<feOffset dx="0.546188" dy="0.780269"/>
<feComposite in2="hardAlpha" operator="out"/>
<feColorMatrix type="matrix" values="0 0 0 0 0 0 0 0 0 0 0 0 0 0 0 0 0 0 1 0"/>
<feBlend mode="normal" in2="BackgroundImageFix" result="effect1_dropShadow_885_1841"/>
<feBlend mode="normal" in="SourceGraphic" in2="effect1_dropShadow_885_1841" result="shape"/>
</filter>
<filter id="filter1_d_885_1841" x="5.67578" y="3.53516" width="8.44313" height="8.0506" filterUnits="userSpaceOnUse" color-interpolation-filters="sRGB">
<feFlood flood-opacity="0" result="BackgroundImageFix"/>
<feColorMatrix in="SourceAlpha" type="matrix" values="0 0 0 0 0 0 0 0 0 0 0 0 0 0 0 0 0 0 127 0" result="hardAlpha"/>
<feOffset dx="0.517352" dy="0.413882"/>
<feComposite in2="hardAlpha" operator="out"/>
<feColorMatrix type="matrix" values="0 0 0 0 0 0 0 0 0 0 0 0 0 0 0 0 0 0 1 0"/>
<feBlend mode="normal" in2="BackgroundImageFix" result="effect1_dropShadow_885_1841"/>
<feBlend mode="normal" in="SourceGraphic" in2="effect1_dropShadow_885_1841" result="shape"/>
</filter>
<filter id="filter2_d_885_1841" x="8.66406" y="14.2051" width="2.07644" height="1.97873" filterUnits="userSpaceOnUse" color-interpolation-filters="sRGB">
<feFlood flood-opacity="0" result="BackgroundImageFix"/>
<feColorMatrix in="SourceAlpha" type="matrix" values="0 0 0 0 0 0 0 0 0 0 0 0 0 0 0 0 0 0 127 0" result="hardAlpha"/>
<feOffset dx="0.127218" dy="0.101774"/>
<feComposite in2="hardAlpha" operator="out"/>
<feColorMatrix type="matrix" values="0 0 0 0 0 0 0 0 0 0 0 0 0 0 0 0 0 0 1 0"/>
<feBlend mode="normal" in2="BackgroundImageFix" result="effect1_dropShadow_885_1841"/>
<feBlend mode="normal" in="SourceGraphic" in2="effect1_dropShadow_885_1841" result="shape"/>
</filter>
<filter id="filter3_d_885_1841" x="4.68359" y="12.7227" width="2.07644" height="1.97873" filterUnits="userSpaceOnUse" color-interpolation-filters="sRGB">
<feFlood flood-opacity="0" result="BackgroundImageFix"/>
<feColorMatrix in="SourceAlpha" type="matrix" values="0 0 0 0 0 0 0 0 0 0 0 0 0 0 0 0 0 0 127 0" result="hardAlpha"/>
<feOffset dx="0.127218" dy="0.101774"/>
<feComposite in2="hardAlpha" operator="out"/>
<feColorMatrix type="matrix" values="0 0 0 0 0 0 0 0 0 0 0 0 0 0 0 0 0 0 1 0"/>
<feBlend mode="normal" in2="BackgroundImageFix" result="effect1_dropShadow_885_1841"/>
<feBlend mode="normal" in="SourceGraphic" in2="effect1_dropShadow_885_1841" result="shape"/>
</filter>
<filter id="filter4_d_885_1841" x="12.6406" y="12.7227" width="2.07644" height="1.97873" filterUnits="userSpaceOnUse" color-interpolation-filters="sRGB">
<feFlood flood-opacity="0" result="BackgroundImageFix"/>
<feColorMatrix in="SourceAlpha" type="matrix" values="0 0 0 0 0 0 0 0 0 0 0 0 0 0 0 0 0 0 127 0" result="hardAlpha"/>
<feOffset dx="0.127218" dy="0.101774"/>
<feComposite in2="hardAlpha" operator="out"/>
<feColorMatrix type="matrix" values="0 0 0 0 0 0 0 0 0 0 0 0 0 0 0 0 0 0 1 0"/>
<feBlend mode="normal" in2="BackgroundImageFix" result="effect1_dropShadow_885_1841"/>
<feBlend mode="normal" in="SourceGraphic" in2="effect1_dropShadow_885_1841" result="shape"/>
</filter>
<linearGradient id="paint0_linear_885_1841" x1="10.8464" y1="15.6054" x2="3.31678" y2="-1.1704" gradientUnits="userSpaceOnUse">
<stop stop-color="#FDBA0E"/>
<stop offset="1" stop-color="#FFFEFA"/>
</linearGradient>
<linearGradient id="paint1_linear_885_1841" x1="6.22402" y1="2.88672" x2="13.0013" y2="12.1473" gradientUnits="userSpaceOnUse">
<stop stop-color="#FDBA0E"/>
<stop offset="1" stop-color="#FDBA0E" stop-opacity="0"/>
</linearGradient>
<linearGradient id="paint2_linear_885_1841" x1="8.79952" y1="14.0449" x2="10.4661" y2="16.3221" gradientUnits="userSpaceOnUse">
<stop stop-color="white"/>
<stop offset="1" stop-color="#FFCC48"/>
</linearGradient>
<linearGradient id="paint3_linear_885_1841" x1="4.81905" y1="12.5625" x2="6.4856" y2="14.8397" gradientUnits="userSpaceOnUse">
<stop stop-color="white"/>
<stop offset="1" stop-color="#FFCC48"/>
</linearGradient>
<linearGradient id="paint4_linear_885_1841" x1="12.7761" y1="12.5625" x2="14.4426" y2="14.8397" gradientUnits="userSpaceOnUse">
<stop stop-color="white"/>
<stop offset="1" stop-color="#FFCC48"/>
</linearGradient>
</defs>
</svg>
