<svg width="13" height="15" viewBox="0 0 13 15" fill="none" xmlns="http://www.w3.org/2000/svg">
<g filter="url(#filter0_d_891_41)">
<path d="M0.078125 3.62843C0.078125 1.85103 1.519 0.410156 3.2964 0.410156H9.15826C10.9357 0.410156 12.3765 1.85103 12.3765 3.62843V6.85847C12.3765 9.90397 10.3692 12.5851 7.44687 13.4426L6.92586 13.5955C6.46979 13.7293 5.98487 13.7293 5.5288 13.5955L5.00779 13.4426C2.08551 12.5851 0.078125 9.90397 0.078125 6.85847V3.62843Z" fill="url(#paint0_linear_891_41)"/>
</g>
<g filter="url(#filter1_d_891_41)">
<path d="M5.70303 3.07074C5.98326 2.71151 6.52656 2.71151 6.8068 3.07074L7.34233 3.75725C7.42322 3.86094 7.53169 3.93975 7.65531 3.98464L8.4737 4.28182C8.90195 4.43733 9.06984 4.95404 8.81479 5.33157L8.32737 6.05303C8.25375 6.16201 8.21232 6.28952 8.20782 6.42096L8.17808 7.29113C8.16252 7.74648 7.72298 8.06582 7.28511 7.93991L6.44834 7.6993C6.32195 7.66296 6.18787 7.66296 6.06148 7.6993L5.22471 7.93991C4.78684 8.06582 4.3473 7.74648 4.33174 7.29113L4.302 6.42096C4.29751 6.28952 4.25607 6.16201 4.18245 6.05303L3.69504 5.33157C3.43998 4.95404 3.60787 4.43733 4.03612 4.28182L4.85451 3.98464C4.97813 3.93975 5.0866 3.86094 5.16749 3.75725L5.70303 3.07074Z" fill="url(#paint1_linear_891_41)" shape-rendering="crispEdges"/>
</g>
<g filter="url(#filter2_d_891_41)">
<path d="M6.12088 10.0861C6.18979 9.99774 6.32339 9.99774 6.3923 10.0861L6.52399 10.2549C6.54388 10.2804 6.57055 10.2998 6.60095 10.3108L6.80219 10.3839C6.9075 10.4221 6.94878 10.5492 6.88606 10.642L6.76621 10.8194C6.7481 10.8462 6.73792 10.8776 6.73681 10.9099L6.7295 11.1239C6.72567 11.2358 6.61759 11.3144 6.50992 11.2834L6.30415 11.2242C6.27307 11.2153 6.2401 11.2153 6.20902 11.2242L6.00326 11.2834C5.89559 11.3144 5.7875 11.2358 5.78368 11.1239L5.77636 10.9099C5.77526 10.8776 5.76507 10.8462 5.74697 10.8194L5.62711 10.642C5.56439 10.5492 5.60568 10.4221 5.71098 10.3839L5.91223 10.3108C5.94262 10.2998 5.9693 10.2804 5.98919 10.2549L6.12088 10.0861Z" fill="url(#paint2_linear_891_41)"/>
</g>
<g filter="url(#filter3_d_891_41)">
<path d="M3.42556 9.08217C3.49448 8.99383 3.62807 8.99383 3.69698 9.08217L3.82867 9.25098C3.84856 9.27648 3.87524 9.29586 3.90563 9.3069L4.10688 9.37998C4.21219 9.41822 4.25347 9.54527 4.19075 9.63811L4.0709 9.81552C4.05279 9.84232 4.0426 9.87367 4.0415 9.90599L4.03419 10.12C4.03036 10.2319 3.92228 10.3105 3.8146 10.2795L3.60884 10.2203C3.57776 10.2114 3.54479 10.2114 3.51371 10.2203L3.30795 10.2795C3.20027 10.3105 3.09219 10.2319 3.08836 10.12L3.08105 9.90599C3.07995 9.87367 3.06976 9.84232 3.05165 9.81552L2.9318 9.63811C2.86908 9.54527 2.91036 9.41822 3.01567 9.37998L3.21691 9.3069C3.24731 9.29586 3.27398 9.27648 3.29388 9.25098L3.42556 9.08217Z" fill="url(#paint3_linear_891_41)"/>
</g>
<g filter="url(#filter4_d_891_41)">
<path d="M8.80838 9.08217C8.87729 8.99383 9.01089 8.99383 9.0798 9.08217L9.21149 9.25098C9.23138 9.27648 9.25805 9.29586 9.28845 9.3069L9.48969 9.37998C9.595 9.41822 9.63628 9.54527 9.57356 9.63811L9.45371 9.81552C9.4356 9.84232 9.42542 9.87367 9.42431 9.90599L9.417 10.12C9.41317 10.2319 9.30509 10.3105 9.19742 10.2795L8.99165 10.2203C8.96057 10.2114 8.9276 10.2114 8.89652 10.2203L8.69076 10.2795C8.58309 10.3105 8.475 10.2319 8.47118 10.12L8.46386 9.90599C8.46276 9.87367 8.45257 9.84232 8.43447 9.81552L8.31461 9.63811C8.25189 9.54527 8.29318 9.41822 8.39848 9.37998L8.59973 9.3069C8.63012 9.29586 8.6568 9.27648 8.67669 9.25098L8.80838 9.08217Z" fill="url(#paint4_linear_891_41)"/>
</g>
<mask id="mask0_891_41" style="mask-type:alpha" maskUnits="userSpaceOnUse" x="0" y="0" width="13" height="14">
<path d="M0.078125 3.62843C0.078125 1.85103 1.519 0.410156 3.2964 0.410156H9.15826C10.9357 0.410156 12.3765 1.85103 12.3765 3.62843V6.85847C12.3765 9.90397 10.3692 12.5851 7.44687 13.4426L6.92586 13.5955C6.46979 13.7293 5.98487 13.7293 5.5288 13.5955L5.00779 13.4426C2.08551 12.5851 0.078125 9.90397 0.078125 6.85847V3.62843Z" fill="#FDBA0E"/>
</mask>
<g mask="url(#mask0_891_41)">
<path d="M10.3008 -4.01758L12.5785 -2.10566L-0.554527 13.54L-2.83223 11.628L10.3008 -4.01758Z" fill="white" fill-opacity="0.36"/>
<path d="M7.29688 -4.02344L8.42412 -3.07722L-4.70889 12.5684L-5.83614 11.6222L7.29688 -4.02344Z" fill="white" fill-opacity="0.36"/>
</g>
<defs>
<filter id="filter0_d_891_41" x="0.078125" y="0.410156" width="12.6664" height="13.813" filterUnits="userSpaceOnUse" color-interpolation-filters="sRGB">
<feFlood flood-opacity="0" result="BackgroundImageFix"/>
<feColorMatrix in="SourceAlpha" type="matrix" values="0 0 0 0 0 0 0 0 0 0 0 0 0 0 0 0 0 0 127 0" result="hardAlpha"/>
<feOffset dx="0.36948" dy="0.527829"/>
<feComposite in2="hardAlpha" operator="out"/>
<feColorMatrix type="matrix" values="0 0 0 0 0 0 0 0 0 0 0 0 0 0 0 0 0 0 1 0"/>
<feBlend mode="normal" in2="BackgroundImageFix" result="effect1_dropShadow_891_41"/>
<feBlend mode="normal" in="SourceGraphic" in2="effect1_dropShadow_891_41" result="shape"/>
</filter>
<filter id="filter1_d_891_41" x="3.57422" y="2.80078" width="5.70935" height="5.44599" filterUnits="userSpaceOnUse" color-interpolation-filters="sRGB">
<feFlood flood-opacity="0" result="BackgroundImageFix"/>
<feColorMatrix in="SourceAlpha" type="matrix" values="0 0 0 0 0 0 0 0 0 0 0 0 0 0 0 0 0 0 127 0" result="hardAlpha"/>
<feOffset dx="0.349973" dy="0.279979"/>
<feComposite in2="hardAlpha" operator="out"/>
<feColorMatrix type="matrix" values="0 0 0 0 0 0 0 0 0 0 0 0 0 0 0 0 0 0 1 0"/>
<feBlend mode="normal" in2="BackgroundImageFix" result="effect1_dropShadow_891_41"/>
<feBlend mode="normal" in="SourceGraphic" in2="effect1_dropShadow_891_41" result="shape"/>
</filter>
<filter id="filter2_d_891_41" x="5.59766" y="10.0195" width="1.40247" height="1.34033" filterUnits="userSpaceOnUse" color-interpolation-filters="sRGB">
<feFlood flood-opacity="0" result="BackgroundImageFix"/>
<feColorMatrix in="SourceAlpha" type="matrix" values="0 0 0 0 0 0 0 0 0 0 0 0 0 0 0 0 0 0 127 0" result="hardAlpha"/>
<feOffset dx="0.086059" dy="0.0688472"/>
<feComposite in2="hardAlpha" operator="out"/>
<feColorMatrix type="matrix" values="0 0 0 0 0 0 0 0 0 0 0 0 0 0 0 0 0 0 1 0"/>
<feBlend mode="normal" in2="BackgroundImageFix" result="effect1_dropShadow_891_41"/>
<feBlend mode="normal" in="SourceGraphic" in2="effect1_dropShadow_891_41" result="shape"/>
</filter>
<filter id="filter3_d_891_41" x="2.90234" y="9.01562" width="1.40247" height="1.34033" filterUnits="userSpaceOnUse" color-interpolation-filters="sRGB">
<feFlood flood-opacity="0" result="BackgroundImageFix"/>
<feColorMatrix in="SourceAlpha" type="matrix" values="0 0 0 0 0 0 0 0 0 0 0 0 0 0 0 0 0 0 127 0" result="hardAlpha"/>
<feOffset dx="0.086059" dy="0.0688472"/>
<feComposite in2="hardAlpha" operator="out"/>
<feColorMatrix type="matrix" values="0 0 0 0 0 0 0 0 0 0 0 0 0 0 0 0 0 0 1 0"/>
<feBlend mode="normal" in2="BackgroundImageFix" result="effect1_dropShadow_891_41"/>
<feBlend mode="normal" in="SourceGraphic" in2="effect1_dropShadow_891_41" result="shape"/>
</filter>
<filter id="filter4_d_891_41" x="8.28516" y="9.01562" width="1.40247" height="1.34033" filterUnits="userSpaceOnUse" color-interpolation-filters="sRGB">
<feFlood flood-opacity="0" result="BackgroundImageFix"/>
<feColorMatrix in="SourceAlpha" type="matrix" values="0 0 0 0 0 0 0 0 0 0 0 0 0 0 0 0 0 0 127 0" result="hardAlpha"/>
<feOffset dx="0.086059" dy="0.0688472"/>
<feComposite in2="hardAlpha" operator="out"/>
<feColorMatrix type="matrix" values="0 0 0 0 0 0 0 0 0 0 0 0 0 0 0 0 0 0 1 0"/>
<feBlend mode="normal" in2="BackgroundImageFix" result="effect1_dropShadow_891_41"/>
<feBlend mode="normal" in="SourceGraphic" in2="effect1_dropShadow_891_41" result="shape"/>
</filter>
<linearGradient id="paint0_linear_891_41" x1="7.07186" y1="10.9667" x2="1.97831" y2="-0.381587" gradientUnits="userSpaceOnUse">
<stop stop-color="#FDBA0E"/>
<stop offset="1" stop-color="#FFFEFA"/>
</linearGradient>
<linearGradient id="paint1_linear_891_41" x1="3.94509" y1="2.36328" x2="8.52974" y2="8.6278" gradientUnits="userSpaceOnUse">
<stop stop-color="#FDBA0E"/>
<stop offset="1" stop-color="#FDBA0E" stop-opacity="0"/>
</linearGradient>
<linearGradient id="paint2_linear_891_41" x1="5.6886" y1="9.91211" x2="6.81597" y2="11.4526" gradientUnits="userSpaceOnUse">
<stop stop-color="white"/>
<stop offset="1" stop-color="#FFCC48"/>
</linearGradient>
<linearGradient id="paint3_linear_891_41" x1="2.99328" y1="8.9082" x2="4.12066" y2="10.4487" gradientUnits="userSpaceOnUse">
<stop stop-color="white"/>
<stop offset="1" stop-color="#FFCC48"/>
</linearGradient>
<linearGradient id="paint4_linear_891_41" x1="8.3761" y1="8.9082" x2="9.50347" y2="10.4487" gradientUnits="userSpaceOnUse">
<stop stop-color="white"/>
<stop offset="1" stop-color="#FFCC48"/>
</linearGradient>
</defs>
</svg>
