<svg width="22" height="22" viewBox="0 0 22 22" fill="none" xmlns="http://www.w3.org/2000/svg">
<g clip-path="url(#clip0_885_418)">
<path d="M7.28774 1.95767C8.41782 1.25212 9.752 0.877862 11.0845 0.897198C12.4848 0.910518 13.8766 1.35739 15.023 2.16091C16.1079 2.91587 16.9703 3.9845 17.4799 5.20396C18.0308 6.50935 18.1713 7.98274 17.8774 9.36892C17.7682 9.91161 17.577 10.4328 17.3562 10.9386C18.5138 12.2663 19.6615 13.6026 20.816 14.9329C20.9424 15.0717 21.039 15.241 21.0682 15.4284C21.134 15.7842 20.963 16.1692 20.654 16.3578C20.517 16.4472 20.3545 16.4871 20.1938 16.5052C19.1007 16.6414 18.008 16.7806 16.9149 16.9151C16.7731 18.0374 16.6347 19.1598 16.4916 20.2817C16.447 20.6607 16.144 20.9911 15.7685 21.0624C15.4213 21.1393 15.0427 20.9881 14.8378 20.6993C13.5586 18.9943 12.2803 17.2889 11.0002 15.5848C9.72063 17.2898 8.44188 18.9952 7.16227 20.7002C6.95645 20.9881 6.57833 21.1398 6.23157 21.0624C5.85774 20.9915 5.55481 20.6637 5.5097 20.2864C5.36532 19.1632 5.22782 18.0392 5.08559 16.9155C3.95251 16.7686 2.81813 16.6311 1.68505 16.4867C1.33571 16.4325 1.03364 16.158 0.948564 15.8147C0.866064 15.5165 0.95458 15.1843 1.16384 14.9583C2.32442 13.619 3.47985 12.2745 4.64474 10.939C4.34653 10.2743 4.12395 9.57173 4.03329 8.84685C3.8395 7.4061 4.10934 5.90778 4.79427 4.6256C5.37177 3.53763 6.24017 2.60606 7.28774 1.95767ZM10.4184 2.78224C9.23767 2.91243 8.1093 3.46372 7.28259 4.31665C6.44126 5.17216 5.91618 6.32845 5.82251 7.5247C5.71724 8.76907 6.08462 10.0457 6.83313 11.0451C7.60313 12.0858 8.77575 12.818 10.0493 13.0509C11.1717 13.2627 12.3615 13.0827 13.3743 12.5555C14.5263 11.9634 15.4398 10.9261 15.8798 9.70751C16.2394 8.7231 16.2936 7.62825 16.0211 6.61548C15.7036 5.39774 14.9233 4.30849 13.8727 3.61583C12.8659 2.94466 11.6203 2.64302 10.4184 2.78224ZM5.68415 12.5323C5.00567 13.3169 4.3272 14.1015 3.64958 14.887C4.4402 14.9849 5.23083 15.0825 6.02102 15.1834C6.44298 15.2307 6.79188 15.6007 6.82325 16.0226C6.89673 16.6152 6.9702 17.2081 7.04497 17.8007C7.80509 16.7913 8.56134 15.7794 9.31973 14.7688C7.91766 14.4134 6.62989 13.6271 5.68415 12.5323ZM16.3047 12.534C15.3659 13.6306 14.0751 14.4079 12.6795 14.7654C13.4357 15.7764 14.1928 16.787 14.9529 17.7955C15.0389 17.1806 15.1059 16.5632 15.1884 15.9474C15.2456 15.5667 15.5657 15.247 15.9455 15.1886C16.7473 15.0863 17.55 14.9905 18.3518 14.8861C17.6677 14.1036 16.9957 13.31 16.3047 12.534Z" fill="#FFBF43"/>
<path d="M10.8016 6.1238C11.2665 6.07352 11.7504 6.20458 12.119 6.49419C12.529 6.80657 12.7945 7.29985 12.8276 7.81462C12.8611 8.25934 12.7245 8.71481 12.4495 9.0663C12.119 9.49856 11.5875 9.76798 11.0435 9.77657C10.518 9.7929 9.99295 9.56559 9.64233 9.17458C9.24487 8.74446 9.08202 8.11669 9.21178 7.54649C9.36776 6.79755 10.0398 6.19555 10.8016 6.1238Z" fill="#FFBF43"/>
</g>
<defs>
<clipPath id="clip0_885_418">
<rect width="22" height="22" fill="white"/>
</clipPath>
</defs>
</svg>
