<svg width="106" height="106" viewBox="0 0 106 106" fill="none" xmlns="http://www.w3.org/2000/svg">
<g filter="url(#filter0_d_929_5601)">
<path d="M56.1603 28.4098C58.2131 26.0795 62.0507 27.1704 62.5708 30.2321L64.4458 41.2707C64.6551 42.5029 65.4735 43.5455 66.6207 44.0415L76.8982 48.4843C79.7488 49.7166 79.8971 53.7035 77.146 55.1442L67.2271 60.3385C66.1199 60.9184 65.3812 62.0189 65.2641 63.2633L64.2146 74.4106C63.9235 77.5025 60.1776 78.8756 57.9572 76.7043L49.952 68.8761C49.0584 68.0022 47.7834 67.6398 46.5638 67.9129L35.6377 70.3595C32.6072 71.0381 30.1438 67.8998 31.5227 65.1172L36.494 55.0847C37.049 53.9648 36.9997 52.6402 36.3631 51.5647L30.6599 41.9294C29.078 39.2569 31.3014 35.9443 34.374 36.3958L45.4517 38.0236C46.6882 38.2053 47.9328 37.7491 48.7589 36.8113L56.1603 28.4098Z" fill="#FFB72A"/>
</g>
<mask id="mask0_929_5601" style="mask-type:alpha" maskUnits="userSpaceOnUse" x="30" y="27" width="50" height="51">
<path d="M56.1603 28.4098C58.2131 26.0795 62.0507 27.1704 62.5708 30.2321L64.4458 41.2707C64.6551 42.5029 65.4735 43.5455 66.6207 44.0415L76.8982 48.4843C79.7488 49.7166 79.8971 53.7035 77.146 55.1442L67.2271 60.3385C66.1199 60.9184 65.3812 62.0189 65.2641 63.2633L64.2145 74.4106C63.9235 77.5025 60.1776 78.8756 57.9572 76.7043L49.952 68.876C49.0584 68.0022 47.7834 67.6398 46.5638 67.9129L35.6377 70.3594C32.6072 71.038 30.1438 67.8998 31.5227 65.1171L36.494 55.0847C37.049 53.9648 36.9997 52.6402 36.3631 51.5647L30.6599 41.9294C29.078 39.2569 31.3014 35.9443 34.374 36.3958L45.4517 38.0236C46.6882 38.2053 47.9328 37.7491 48.7589 36.8113L56.1603 28.4098Z" fill="#FFB72A"/>
</mask>
<g mask="url(#mask0_929_5601)">
<path d="M58.2566 11.9567C60.3095 9.62645 64.1471 10.7174 64.6671 13.7791L68.1556 34.3167C68.3649 35.5489 69.1834 36.5916 70.3306 37.0875L89.4522 45.3536C92.3028 46.5859 92.4512 50.5728 89.7 52.0135L71.2456 61.6778C70.1384 62.2576 69.3997 63.3582 69.2825 64.6025L67.3299 85.3426C67.0388 88.4345 63.2929 89.8076 61.0725 87.6363L46.1785 73.0715C45.2849 72.1977 44.0099 71.8352 42.7903 72.1083L22.4619 76.6603C19.4314 77.3389 16.9679 74.2007 18.3468 71.418L27.5963 52.7522C28.1512 51.6323 28.1019 50.3077 27.4653 49.2322L16.8543 31.3053C15.2724 28.6328 17.4958 25.3202 20.5684 25.7717L41.1789 28.8004C42.4154 28.9821 43.66 28.5259 44.4862 27.5881L58.2566 11.9567Z" fill="url(#paint0_linear_929_5601)"/>
<path d="M29.6534 32.0992L66.6972 85.598" stroke="#FFF5E3" stroke-opacity="0.5" stroke-width="4"/>
<path d="M22.9073 36.527L59.9511 90.0257" stroke="#FFF5E3" stroke-opacity="0.67" stroke-width="5"/>
</g>
<defs>
<filter id="filter0_d_929_5601" x="30.1367" y="27.1543" width="51.0981" height="52.1898" filterUnits="userSpaceOnUse" color-interpolation-filters="sRGB">
<feFlood flood-opacity="0" result="BackgroundImageFix"/>
<feColorMatrix in="SourceAlpha" type="matrix" values="0 0 0 0 0 0 0 0 0 0 0 0 0 0 0 0 0 0 127 0" result="hardAlpha"/>
<feOffset dx="2.10981" dy="1.58236"/>
<feComposite in2="hardAlpha" operator="out"/>
<feColorMatrix type="matrix" values="0 0 0 0 0 0 0 0 0 0 0 0 0 0 0 0 0 0 1 0"/>
<feBlend mode="normal" in2="BackgroundImageFix" result="effect1_dropShadow_929_5601"/>
<feBlend mode="normal" in="SourceGraphic" in2="effect1_dropShadow_929_5601" result="shape"/>
</filter>
<linearGradient id="paint0_linear_929_5601" x1="63.3714" y1="6.15078" x2="-46.5354" y2="-9.8059" gradientUnits="userSpaceOnUse">
<stop stop-color="#FFC249"/>
<stop offset="1" stop-color="#FFCE6D" stop-opacity="0"/>
</linearGradient>
</defs>
</svg>
