<svg width="464" height="1194" viewBox="0 0 464 1194" fill="none" xmlns="http://www.w3.org/2000/svg">
<g filter="url(#filter0_d_105_10210)">
<rect x="89" y="85" width="286" height="1016" rx="42" fill="url(#paint0_linear_105_10210)"/>
</g>
<g clip-path="url(#clip0_105_10210)">
<g style="mix-blend-mode:overlay" filter="url(#filter1_d_105_10210)">
<path d="M49.1359 848.626L0.736796 782.525L33.7829 707.559L115.228 698.695L163.627 764.797L130.581 839.762L49.1359 848.626Z" fill="#00095E" fill-opacity="0.51"/>
<path d="M151.581 616.232L103.182 550.131L136.228 475.165L217.673 466.301L266.073 532.403L233.026 607.368L151.581 616.232Z" fill="#00095E" fill-opacity="0.51"/>
<path d="M254.027 383.839L205.627 317.737L238.674 242.772L320.119 233.908L368.518 300.009L335.472 374.975L254.027 383.839Z" fill="#00095E" fill-opacity="0.51"/>
<path d="M356.472 151.445L308.073 85.3437L341.119 10.378L422.564 1.51401L470.963 67.6156L437.917 142.581L356.472 151.445Z" fill="#00095E" fill-opacity="0.51"/>
<path d="M16.6437 556.749L-31.7554 490.647L1.29075 415.681L82.736 406.817L131.135 472.919L98.089 547.885L16.6437 556.749Z" fill="#00095E" fill-opacity="0.51"/>
<path d="M119.089 324.355L70.6899 258.254L103.736 183.288L185.181 174.424L233.58 240.526L200.534 315.491L119.089 324.355Z" fill="#00095E" fill-opacity="0.51"/>
<path d="M221.534 91.9617L173.135 25.86L206.181 -49.1056L287.627 -57.9697L336.026 8.13197L302.98 83.0976L221.534 91.9617Z" fill="#00095E" fill-opacity="0.51"/>
<path d="M32.8937 702.687L-15.5054 636.586L17.5408 561.62L98.986 552.756L147.385 618.858L114.339 693.823L32.8937 702.687Z" fill="#00095E" fill-opacity="0.51"/>
<path d="M135.331 470.294L86.9321 404.192L119.978 329.227L201.423 320.363L249.823 386.464L216.776 461.43L135.331 470.294Z" fill="#00095E" fill-opacity="0.51"/>
<path d="M237.777 237.9L189.377 171.798L222.424 96.8328L303.869 87.9687L352.268 154.07L319.222 229.036L237.777 237.9Z" fill="#00095E" fill-opacity="0.51"/>
<path d="M0.393707 410.811L-48.0054 344.709L-14.9592 269.744L66.486 260.88L114.885 326.981L81.839 401.947L0.393707 410.811Z" fill="#00095E" fill-opacity="0.51"/>
<path d="M102.839 178.417L54.4399 112.316L87.4861 37.3499L168.931 28.4859L217.33 94.5875L184.284 169.553L102.839 178.417Z" fill="#00095E" fill-opacity="0.51"/>
<path d="M-37.0594 1226.96L-85.4585 1160.86L-52.4124 1085.89L29.0329 1077.03L77.432 1143.13L44.3858 1218.09L-37.0594 1226.96Z" fill="#00095E" fill-opacity="0.51"/>
<path d="M65.3859 994.564L16.9868 928.462L50.0329 853.497L131.478 844.633L179.877 910.734L146.831 985.7L65.3859 994.564Z" fill="#00095E" fill-opacity="0.51"/>
<path d="M167.831 762.17L119.432 696.069L152.478 621.103L233.923 612.239L282.323 678.341L249.276 753.306L167.831 762.17Z" fill="#00095E" fill-opacity="0.51"/>
<path d="M270.277 529.777L221.877 463.675L254.924 388.709L336.369 379.845L384.768 445.947L351.722 520.913L270.277 529.777Z" fill="#00095E" fill-opacity="0.51"/>
<path d="M372.714 297.383L324.315 231.281L357.361 156.316L438.806 147.452L487.205 213.553L454.159 288.519L372.714 297.383Z" fill="#00095E" fill-opacity="0.51"/>
<path d="M200.323 1054.05L151.924 987.945L184.97 912.98L266.416 904.116L314.815 970.217L281.769 1045.18L200.323 1054.05Z" fill="#00095E" fill-opacity="0.51"/>
<path d="M302.769 821.654L254.37 755.552L287.416 680.586L368.861 671.722L417.26 737.824L384.214 812.79L302.769 821.654Z" fill="#00095E" fill-opacity="0.51"/>
<path d="M405.214 589.26L356.815 523.158L389.861 448.192L471.306 439.328L519.705 505.43L486.659 580.396L405.214 589.26Z" fill="#00095E" fill-opacity="0.51"/>
<path d="M335.261 1113.53L286.862 1047.43L319.908 972.463L401.353 963.599L449.752 1029.7L416.706 1104.67L335.261 1113.53Z" fill="#00095E" fill-opacity="0.51"/>
<path d="M437.706 881.136L389.307 815.035L422.353 740.069L503.798 731.205L552.198 797.307L519.151 872.272L437.706 881.136Z" fill="#00095E" fill-opacity="0.51"/>
<path d="M81.6359 1140.5L33.2368 1074.4L66.2829 999.435L147.728 990.571L196.127 1056.67L163.081 1131.64L81.6359 1140.5Z" fill="#00095E" fill-opacity="0.51"/>
<path d="M184.081 908.109L135.682 842.007L168.728 767.042L250.173 758.178L298.573 824.279L265.526 899.245L184.081 908.109Z" fill="#00095E" fill-opacity="0.51"/>
<path d="M286.519 675.715L238.12 609.614L271.166 534.648L352.611 525.784L401.01 591.886L367.964 666.851L286.519 675.715Z" fill="#00095E" fill-opacity="0.51"/>
<path d="M388.964 443.322L340.565 377.22L373.611 302.255L455.056 293.391L503.455 359.492L470.409 434.458L388.964 443.322Z" fill="#00095E" fill-opacity="0.51"/>
<path d="M216.573 1199.99L168.174 1133.88L201.22 1058.92L282.666 1050.05L331.065 1116.16L298.019 1191.12L216.573 1199.99Z" fill="#00095E" fill-opacity="0.51"/>
<path d="M319.019 967.592L270.62 901.49L303.666 826.525L385.111 817.661L433.51 883.762L400.464 958.728L319.019 967.592Z" fill="#00095E" fill-opacity="0.51"/>
<path d="M421.456 735.198L373.057 669.096L406.103 594.131L487.548 585.267L535.948 651.368L502.901 726.334L421.456 735.198Z" fill="#00095E" fill-opacity="0.51"/>
</g>
</g>
<defs>
<filter id="filter0_d_105_10210" x="0" y="0" width="464" height="1194" filterUnits="userSpaceOnUse" color-interpolation-filters="sRGB">
<feFlood flood-opacity="0" result="BackgroundImageFix"/>
<feColorMatrix in="SourceAlpha" type="matrix" values="0 0 0 0 0 0 0 0 0 0 0 0 0 0 0 0 0 0 127 0" result="hardAlpha"/>
<feOffset dy="4"/>
<feGaussianBlur stdDeviation="44.5"/>
<feComposite in2="hardAlpha" operator="out"/>
<feColorMatrix type="matrix" values="0 0 0 0 0 0 0 0 0 0 0 0 0 0 0 0 0 0 0.04 0"/>
<feBlend mode="normal" in2="BackgroundImageFix" result="effect1_dropShadow_105_10210"/>
<feBlend mode="normal" in="SourceGraphic" in2="effect1_dropShadow_105_10210" result="shape"/>
</filter>
<filter id="filter1_d_105_10210" x="-405.336" y="-107.97" width="1212.42" height="1503.89" filterUnits="userSpaceOnUse" color-interpolation-filters="sRGB">
<feFlood flood-opacity="0" result="BackgroundImageFix"/>
<feColorMatrix in="SourceAlpha" type="matrix" values="0 0 0 0 0 0 0 0 0 0 0 0 0 0 0 0 0 0 127 0" result="hardAlpha"/>
<feOffset/>
<feGaussianBlur stdDeviation="25"/>
<feComposite in2="hardAlpha" operator="out"/>
<feColorMatrix type="matrix" values="0 0 0 0 0 0 0 0 0 0 0 0 0 0 0 0 0 0 0.25 0"/>
<feBlend mode="normal" in2="BackgroundImageFix" result="effect1_dropShadow_105_10210"/>
<feBlend mode="normal" in="SourceGraphic" in2="effect1_dropShadow_105_10210" result="shape"/>
</filter>
<linearGradient id="paint0_linear_105_10210" x1="78.4939" y1="661" x2="265.332" y2="-41.4397" gradientUnits="userSpaceOnUse">
<stop stop-color="#1C2F38"/>
<stop offset="1" stop-color="#25292C"/>
</linearGradient>
<clipPath id="clip0_105_10210">
<rect width="286" height="1018" fill="white" transform="translate(89 85)"/>
</clipPath>
</defs>
</svg>
