<svg width="22" height="22" viewBox="0 0 22 22" fill="none" xmlns="http://www.w3.org/2000/svg">
<g clip-path="url(#clip0_885_437)">
<path d="M6.90434 0H15.0968C15.4242 0.0386719 15.7323 0.23375 15.8848 0.529375C16.0593 0.849063 16.0373 1.26414 15.8285 1.56277C15.6476 1.83305 15.3275 2.00148 15.0022 1.99891C12.4383 2.0002 9.87391 1.99891 7.30954 1.99977C7.16817 1.99934 7.0268 2.00492 6.88586 1.9916C6.5477 1.9568 6.23961 1.73121 6.09739 1.42355C5.94141 1.09656 5.98309 0.686641 6.20395 0.39918C6.36895 0.175312 6.63106 0.0373828 6.90434 0Z" fill="#28DE7C"/>
<path d="M8.94069 4.24158C10.5645 3.85787 12.2957 3.93564 13.8769 4.47017C15.3834 4.97505 16.7473 5.89244 17.7893 7.09212C19.0779 8.56294 19.8629 10.4652 19.9811 12.4181C20.0954 14.1493 19.6979 15.9123 18.8403 17.4214C18.0862 18.759 16.9832 19.8972 15.6705 20.6943C14.3178 21.5227 12.7413 21.9688 11.157 22.0001H10.8489C9.56116 21.9731 8.27812 21.6766 7.11667 21.1176C5.19983 20.204 3.62933 18.5897 2.77296 16.6458C2.01886 14.9563 1.8139 13.0304 2.18214 11.2176C2.51386 9.55767 3.33241 8.00005 4.50589 6.78017C5.69827 5.53021 7.25804 4.63517 8.94069 4.24158ZM10.2078 6.04669C8.99999 6.18376 7.83081 6.6431 6.85413 7.36669C5.82159 8.12595 5.00304 9.17353 4.52007 10.3612C3.95417 11.7396 3.85019 13.3011 4.2223 14.7436C4.56304 16.0833 5.31671 17.3122 6.35097 18.2288C7.13987 18.9335 8.09163 19.4547 9.11085 19.7391C10.3221 20.0803 11.6258 20.0846 12.8397 19.7546C14.2529 19.3747 15.5343 18.5326 16.4503 17.393C17.3806 16.247 17.9298 14.799 17.9929 13.3247C18.0535 12.0572 17.7622 10.7745 17.1542 9.66037C16.4366 8.33693 15.2812 7.25498 13.91 6.63236C12.7606 6.10255 11.4642 5.90318 10.2078 6.04669Z" fill="#28DE7C"/>
<path d="M10.4276 7.38125C10.7409 7.15524 11.1882 7.14106 11.5165 7.34387C11.8164 7.52047 12.0063 7.86251 12.0007 8.21012C12.0007 9.47254 12.0024 10.735 11.9994 11.997C13.0131 12.0047 14.0267 11.9952 15.0399 12.0017C15.5044 12.0098 15.9259 12.3863 15.9878 12.846C16.066 13.289 15.8 13.7582 15.3832 13.9237C15.2066 14.001 15.0115 14.0036 14.8225 13.9997C13.5489 13.9984 12.2753 14.0002 11.0021 13.9989C10.6176 14.004 10.2442 13.763 10.0895 13.4115C10.0194 13.2628 9.99838 13.0974 10.0001 12.935C10.0018 11.3589 10.0001 9.78321 10.001 8.20711C9.99623 7.88356 10.1617 7.56516 10.4276 7.38125Z" fill="#28DE7C"/>
</g>
<defs>
<clipPath id="clip0_885_437">
<rect width="22" height="22" fill="white"/>
</clipPath>
</defs>
</svg>
