<svg width="24" height="24" viewBox="0 0 24 24" fill="none" xmlns="http://www.w3.org/2000/svg">
<path d="M12 22C17.523 22 22 17.523 22 12C22 6.477 17.523 2 12 2C6.477 2 2 6.477 2 12C2 17.523 6.477 22 12 22Z" stroke="black" stroke-width="1.5" stroke-linecap="round" stroke-linejoin="round"/>
<path d="M8.00984 14.5092C8.18984 14.8092 8.40984 15.0892 8.65984 15.3392C9.54677 16.223 10.7478 16.7192 11.9998 16.7192C13.2519 16.7192 14.4529 16.223 15.3398 15.3392C16.0571 14.6155 16.5202 13.6786 16.6598 12.6692M7.33984 11.3292C7.47984 10.3492 7.90984 9.40925 8.65984 8.65925C9.54677 7.77551 10.7478 7.2793 11.9998 7.2793C13.2519 7.2793 14.4529 7.77551 15.3398 8.65925C15.5998 8.91925 15.8098 9.19925 15.9898 9.48925" stroke="black" stroke-width="1.5" stroke-linecap="round" stroke-linejoin="round"/>
<path d="M7.82031 17.1803V14.5103H10.4903M16.1803 6.82031V9.49031H13.5103" stroke="black" stroke-width="1.5" stroke-linecap="round" stroke-linejoin="round"/>
</svg>
