<svg width="44" height="54" viewBox="0 0 44 54" fill="none" xmlns="http://www.w3.org/2000/svg">
<path d="M29.2109 12.3125C33.9796 14.3501 38.1703 17.7318 41.1282 21.9953C40.5432 22.7244 39.8226 23.3394 39.0221 23.8188C37.6081 19.1772 34.3249 15.1449 30.0685 12.8162C29.776 12.6592 29.4892 12.4923 29.2109 12.3125Z" fill="black"/>
<path d="M19.5308 15.5073C19.5036 15.1777 19.5721 14.6869 20.0045 14.6883C20.4525 14.6013 20.6651 15.0693 20.6066 15.4446C20.5981 15.9283 20.6523 16.4205 20.5581 16.8985C20.4297 17.3081 19.8418 17.3737 19.6049 17.027C19.4722 16.5333 19.545 16.0124 19.5308 15.5073Z" fill="black"/>
<path d="M30.506 19.061C30.7101 18.877 30.8799 18.6358 31.1367 18.5231C31.5191 18.379 31.9372 18.7999 31.8002 19.1823C31.6875 19.4363 31.4563 19.6104 31.2723 19.8101C30.9869 20.0798 30.7372 20.3952 30.4004 20.6021C30.0009 20.779 29.5372 20.3124 29.7212 19.9143C29.931 19.5861 30.242 19.3421 30.506 19.061Z" fill="black"/>
<path d="M20.747 19.627C21.1623 20.1463 21.5432 20.6928 21.957 21.2165C22.104 21.3635 22.1525 21.5632 22.1668 21.7658C21.9499 21.7715 21.733 21.7787 21.5176 21.7844C21.5176 23.6907 21.5461 25.5984 21.5318 27.5062C21.6545 27.5846 21.7787 27.6631 21.9028 27.7402C24.29 26.349 26.6843 24.9692 29.08 23.5937C29.1827 23.7406 29.2855 23.8905 29.3925 24.0374C29.1742 23.6479 28.9102 23.2769 28.8003 22.8388C29.578 22.8174 30.3514 22.9444 31.1304 22.9202C31.3973 23.2369 31.129 23.6065 31.0163 23.929C30.7709 24.4355 30.6253 24.9991 30.2757 25.4472C29.9761 25.3987 29.9219 25.0519 29.7849 24.8393C27.4362 26.2206 25.0691 27.5675 22.7119 28.9316C22.9373 29.9804 22.271 31.1347 21.2079 31.3744C20.0522 31.7055 18.7651 30.7951 18.6866 29.5965C18.5639 28.6448 19.2217 27.7644 20.0864 27.4291C20.0679 25.5485 20.0607 23.6664 20.0536 21.7858C19.8153 21.7801 19.5784 21.7744 19.3416 21.7644C19.6954 20.9882 20.2576 20.3218 20.747 19.627Z" fill="black"/>
<path d="M9.94997 20.7533C9.7816 20.3395 10.1754 19.9129 10.6035 19.997C11.1029 20.4108 11.5809 20.8646 11.9861 21.3726C12.2672 21.7849 11.6779 22.3571 11.2741 22.066C10.7875 21.6779 10.3652 21.2142 9.94997 20.7533Z" fill="black"/>
<path d="M33.7087 25.8942C33.5846 25.4119 34.1782 25.2207 34.552 25.3106C34.8631 25.6216 34.9016 26.0839 35.0186 26.4863C35.7734 29.5484 35.4881 32.8445 34.2567 35.7453C33.1423 38.4007 31.2474 40.728 28.8545 42.3346C28.5064 42.5815 28.0555 42.3603 27.8828 42.0107C27.9114 41.7396 28.0226 41.4771 28.2666 41.3344C29.0043 40.825 29.7007 40.2543 30.3299 39.6136C30.0745 39.3696 29.782 39.157 29.5794 38.8645C29.4381 38.4792 29.869 38.0355 30.26 38.1696C30.5596 38.3351 30.7936 38.5919 31.0505 38.816C33.0139 36.4802 34.1368 33.4795 34.2738 30.4373C33.8942 30.4017 33.5033 30.4188 33.1337 30.3146C32.7199 30.162 32.7071 29.4913 33.1266 29.3387C33.5033 29.2516 33.8942 29.3372 34.2752 29.3515C34.2281 28.1786 34.0041 27.0257 33.7087 25.8942Z" fill="black"/>
<path d="M6.21383 30.6173C6.15247 30.2449 6.51775 29.9909 6.85735 30.0494C7.71918 30.0451 8.58102 30.0451 9.44285 30.0465C9.65974 30.0622 9.94368 30.0308 10.075 30.2477C10.3218 30.5574 10.1249 31.121 9.69683 31.1081C8.78078 31.1467 7.86044 31.111 6.94296 31.1224C6.61906 31.1481 6.19242 31.0154 6.21383 30.6173Z" fill="black"/>
<path d="M11.335 39.9553C11.7117 39.6 12.0427 39.1948 12.4551 38.878C12.8617 38.5841 13.4453 39.152 13.1756 39.5686C12.8788 39.9767 12.4836 40.3006 12.1354 40.6645C11.9043 40.9841 11.3721 41.1068 11.0795 40.8129C10.8527 40.5047 11.091 40.158 11.335 39.9553Z" fill="black"/>
<path d="M20.422 42.0273C20.4947 41.5236 21.3637 41.525 21.4336 42.0301C21.5021 42.6109 21.4593 43.1987 21.4622 43.7838C21.5121 44.1662 21.1311 44.5628 20.743 44.4073C20.4519 44.3502 20.382 44.0263 20.3934 43.7752C20.3963 43.193 20.3535 42.6066 20.422 42.0273Z" fill="black"/>
<path d="M29.4129 46.34C30.3347 45.8434 31.2479 45.3226 32.0897 44.6934C32.4037 45.3697 32.7832 46.0132 33.0643 46.7053C31.8286 46.8751 30.5658 46.8237 29.3516 46.5355C29.3673 46.4869 29.3972 46.3899 29.4129 46.34Z" fill="black"/>
<path d="M10.5352 45.2539C11.4712 45.8204 12.4258 46.3583 13.4303 46.7978C13.1877 47.116 12.9437 47.437 12.6726 47.7324L12.5385 47.8794C11.768 47.086 11.1045 46.1985 10.5352 45.2539Z" fill="black"/>
<g filter="url(#filter0_d_929_5384)">
<path d="M15.8699 0.313017C18.1286 -0.0708125 20.4373 -0.0679586 22.7132 0.140365C24.4097 0.294468 26.1462 0.569855 27.6559 1.40743C28.9729 2.1223 29.966 3.455 30.1872 4.94609L30.1444 5.04882C29.5879 5.22005 29.0228 5.37272 28.4935 5.61672C28.2966 4.70494 27.8799 3.78461 27.0809 3.25096C26.2747 2.69447 25.2944 2.4833 24.3441 2.32491C22.0525 1.98674 19.7224 1.84976 17.4123 2.05666C15.9997 2.19364 14.5743 2.4519 13.283 3.05833C11.7334 3.74608 10.6375 5.35132 10.5491 7.04217C9.94834 6.91803 9.33621 6.84811 8.72266 6.83384C8.82682 4.86618 9.93407 3.00839 11.5507 1.8997C12.842 1.0393 14.3531 0.579843 15.8699 0.313017Z" fill="#7900FF"/>
</g>
<path d="M7.0354 47.7529C7.61043 47.0609 8.50794 46.6813 9.40259 46.6856C10.5484 46.7284 11.61 47.4461 12.0865 48.4877C12.4461 49.3596 12.4076 50.3997 11.9196 51.2159C11.3717 52.1776 10.2601 52.7798 9.15431 52.7056C8.07845 52.6585 7.06822 51.975 6.61019 51.0033C6.09652 49.9603 6.26774 48.6261 7.0354 47.7529Z" fill="#7900FF"/>
<path d="M30.3219 48.5451C30.924 47.5249 32.104 46.8913 33.294 47.0283C34.203 47.141 35.0562 47.6718 35.5271 48.4637C36.0864 49.3641 36.1093 50.5655 35.5842 51.4873C35.0334 52.5061 33.8519 53.1339 32.7005 53.0198C31.616 52.9399 30.6172 52.2122 30.1963 51.2133C29.8196 50.3658 29.8952 49.3598 30.3219 48.5451Z" fill="#7900FF"/>
<g filter="url(#filter1_d_929_5384)">
<path d="M30.2855 6.04372C32.236 5.53575 34.3435 5.68415 36.1999 6.47464C39.3376 7.96144 41.6548 10.9322 42.5309 14.2711C42.6693 14.9945 42.7949 15.7237 42.832 16.4613C42.9504 18.4347 42.3454 20.4323 41.134 21.9948C38.1761 17.7313 33.9854 14.3496 29.2167 12.312C28.4163 11.9153 27.5644 11.6385 26.7197 11.3574C26.0805 11.1691 25.4455 10.9251 24.7734 10.9037C25.6082 8.4637 27.8198 6.66156 30.2855 6.04372Z" fill="#28DE7C"/>
</g>
<g filter="url(#filter2_d_929_5384)">
<path d="M1.8316 11.1583C3.18571 9.42182 5.24755 8.22325 7.45064 8.01635C9.60237 7.78377 11.8369 8.3431 13.5976 9.60874C13.8473 9.85845 14.1541 9.6701 14.4152 9.54882C14.839 10.081 15.2314 10.639 15.541 11.2468C11.991 12.3327 8.72627 14.4273 6.38477 17.3224C6.15647 17.4423 5.90106 17.5422 5.7441 17.7591C4.28583 19.5926 3.17572 21.7015 2.49082 23.9431C1.87584 23.1898 1.31935 22.385 0.889864 21.5118C1.04539 21.3434 1.26799 21.1664 1.21377 20.9053C1.02684 20.3531 0.682967 19.8666 0.503181 19.3115C-0.508475 16.6047 0.0408725 13.4142 1.8316 11.1583Z" fill="#28DE7C"/>
</g>
<path d="M32.0931 44.6934C32.5839 45.4211 32.9207 46.2387 33.2974 47.0292C32.1074 46.8922 30.9273 47.5257 30.3252 48.5459C29.9699 47.9381 29.6774 47.2888 29.2422 46.7309C29.2707 46.6824 29.3278 46.584 29.3549 46.5355C30.5692 46.8237 31.832 46.8751 33.0676 46.7053C32.7865 46.0132 32.407 45.3697 32.0931 44.6934Z" fill="#28DE7C"/>
<path d="M10.3399 45.1035C10.3884 45.1406 10.4868 45.2148 10.5368 45.2519C11.1061 46.1965 11.7696 47.084 12.5401 47.8774L12.6742 47.7304C12.4702 47.9758 12.2761 48.2284 12.0878 48.4866C11.6112 47.445 10.5496 46.7273 9.40382 46.6845L9.3125 46.6745C9.65067 46.148 9.99027 45.6229 10.3399 45.1035Z" fill="#28DE7C"/>
<path d="M18.1792 7.53232C18.7542 7.05003 19.5804 7.08713 20.2896 7.05859C20.8603 7.11852 21.6051 7.12566 21.9747 7.62934C22.0418 8.5825 21.9804 9.53993 22.0018 10.4959C20.7091 10.4703 19.412 10.486 18.1293 10.6729C18.1692 9.62697 18.0679 8.57251 18.1792 7.53232Z" fill="#6760FC"/>
<g filter="url(#filter3_d_929_5384)">
<path d="M18.1271 10.6748C19.4099 10.4879 20.7069 10.4722 21.9997 10.4979C22.6332 10.5321 23.2753 10.5778 23.8946 10.7262C24.1557 10.9059 24.4596 10.9373 24.7678 10.9045C25.4399 10.9259 26.0748 11.1699 26.7141 11.3583C27.5588 11.6394 28.4106 11.9162 29.2111 12.3128C29.4894 12.4926 29.7762 12.6596 30.0687 12.8165C34.325 15.1452 37.6083 19.1775 39.0223 23.8192C40.3622 28.1926 40.0782 33.0539 38.1705 37.2176C36.8306 40.1783 34.7089 42.7752 32.0891 44.6944C31.2473 45.3236 30.3341 45.8444 29.4123 46.341C24.4853 48.8152 18.4896 48.9793 13.4299 46.7976C12.4253 46.3581 11.4708 45.8202 10.5347 45.2537C10.4848 45.2166 10.3863 45.1424 10.3378 45.1053C9.42747 44.4561 8.53425 43.7769 7.74376 42.9836C7.89786 42.8708 8.13044 42.7981 8.16897 42.5855C8.26742 42.2644 7.96921 42.0304 7.78799 41.8135C4.93567 38.8884 3.14922 34.9502 2.82817 30.8765C2.45433 26.5317 3.76848 22.0641 6.44673 18.6211C6.62081 18.3685 6.89191 18.096 6.79061 17.7621C6.75351 17.5466 6.51665 17.4681 6.38252 17.324C8.72402 14.4289 11.9887 12.3342 15.5388 11.2484C16.3864 10.9958 17.2525 10.8004 18.1271 10.6748ZM19.5269 15.5076C16.1367 15.8643 12.9148 17.4953 10.6046 19.998C10.1766 19.9138 9.78277 20.3405 9.95114 20.7542C7.86647 23.3612 6.74352 26.7115 6.85624 30.0489C6.51665 29.9904 6.15136 30.2444 6.21272 30.6168C6.19132 31.0149 6.61795 31.1476 6.94185 31.1219C7.26005 34.4737 8.87955 37.6627 11.3338 39.9557C11.0898 40.1583 10.8515 40.5051 11.0784 40.8133C11.3709 41.1072 11.9031 40.9845 12.1343 40.6649C14.4743 42.5255 17.3952 43.6642 20.3902 43.7755C20.3788 44.0266 20.4487 44.3505 20.7398 44.4076C21.1279 44.5631 21.5088 44.1664 21.4589 43.784C23.6962 43.7141 25.9407 43.1377 27.8813 42.0119C28.0539 42.3614 28.5048 42.5826 28.853 42.3358C31.2458 40.7291 33.1407 38.4019 34.2551 35.7464C35.4865 32.8456 35.7719 29.5495 35.0171 26.4874C34.9001 26.0851 34.8616 25.6228 34.5505 25.3117C33.8899 23.2627 32.7712 21.3592 31.2715 19.8111C31.4556 19.6113 31.6868 19.4372 31.7995 19.1833C31.9365 18.8009 31.5184 18.3799 31.136 18.524C30.8791 18.6368 30.7093 18.8779 30.5053 19.062C27.8342 16.6391 24.2071 15.3107 20.6028 15.4448C20.6613 15.0696 20.4487 14.6016 20.0006 14.6886C19.5683 14.6872 19.4998 15.178 19.5269 15.5076Z" fill="#FC5B63"/>
</g>
<path d="M10.6038 19.996C12.9139 17.4933 16.1358 15.8624 19.5261 15.5056C19.5403 16.0108 19.4676 16.5316 19.6003 17.0253C19.8371 17.372 20.425 17.3064 20.5534 16.8968C20.6476 16.4188 20.5934 15.9266 20.6019 15.4429C24.2062 15.3087 27.8333 16.6372 30.5044 19.06C30.2405 19.3411 29.9294 19.5851 29.7197 19.9133C29.5356 20.3114 29.9993 20.7779 30.3989 20.601C30.7356 20.3941 30.9853 20.0788 31.2707 19.8091C32.7703 21.3573 33.889 23.2607 34.5496 25.3097C34.1758 25.2198 33.5822 25.411 33.7064 25.8933C34.0017 27.0248 34.2257 28.1777 34.2728 29.3506C33.8919 29.3364 33.5009 29.2507 33.1242 29.3378C32.7047 29.4905 32.7175 30.1611 33.1313 30.3138C33.5009 30.4179 33.8918 30.4008 34.2714 30.4365C34.1344 33.4786 33.0115 36.4793 31.0481 38.8151C30.7912 38.5911 30.5572 38.3342 30.2576 38.1687C29.8666 38.0346 29.4357 38.4784 29.577 38.8636C29.7796 39.1561 30.0721 39.3687 30.3275 39.6127C29.6983 40.2534 29.0019 40.8241 28.2643 41.3335C28.0203 41.4762 27.909 41.7388 27.8804 42.0099C25.9399 43.1357 23.6954 43.7121 21.458 43.7821C21.4552 43.197 21.498 42.6092 21.4295 42.0284C21.3596 41.5233 20.4906 41.5219 20.4179 42.0256C20.3494 42.6049 20.3922 43.1913 20.3893 43.7735C17.3943 43.6622 14.4735 42.5236 12.1334 40.6629C12.4816 40.2991 12.8768 39.9751 13.1736 39.5671C13.4433 39.1504 12.8597 38.5825 12.453 38.8765C12.0407 39.1932 11.7096 39.5985 11.3329 39.9537C8.8787 37.6608 7.2592 34.4717 6.94101 31.12C7.85849 31.1085 8.77882 31.1442 9.69488 31.1057C10.1229 31.1185 10.3199 30.5549 10.073 30.2453C9.94173 30.0284 9.65778 30.0598 9.44089 30.0441C8.57906 30.0427 7.71723 30.0427 6.85539 30.0469C6.74267 26.7095 7.86562 23.3592 9.95029 20.7523C10.3655 21.2131 10.7879 21.6769 11.2744 22.065C11.6782 22.3561 12.2675 21.7839 11.9864 21.3715C11.5812 20.8636 11.1032 20.4098 10.6038 19.996ZM20.7446 19.625C20.2552 20.3199 19.693 20.9863 19.3391 21.7625C19.576 21.7725 19.8129 21.7782 20.0511 21.7839C20.0583 23.6645 20.0654 25.5466 20.084 27.4272C19.2193 27.7625 18.5615 28.6429 18.6842 29.5946C18.7627 30.7932 20.0497 31.7035 21.2055 31.3725C22.2685 31.1328 22.9349 29.9784 22.7094 28.9297C25.0666 27.5656 27.4338 26.2186 29.7824 24.8374C29.9194 25.05 29.9736 25.3967 30.2733 25.4453C30.6229 24.9972 30.7684 24.4336 31.0138 23.9271C31.1266 23.6046 31.3948 23.235 31.128 22.9183C30.3489 22.9425 29.5756 22.8155 28.7979 22.8369C28.9078 23.275 29.1717 23.646 29.3901 24.0355C29.283 23.8885 29.1803 23.7387 29.0776 23.5917C26.6818 24.9673 24.2875 26.347 21.9004 27.7383C21.7762 27.6612 21.6521 27.5827 21.5294 27.5042C21.5437 25.5965 21.5151 23.6888 21.5151 21.7825C21.7306 21.7768 21.9475 21.7696 22.1644 21.7639C22.1501 21.5613 22.1016 21.3615 21.9546 21.2146C21.5408 20.6909 21.1598 20.1444 20.7446 19.625Z" fill="white"/>
<defs>
<filter id="filter0_d_929_5384" x="8.72266" y="0" width="22.9631" height="7.36402" filterUnits="userSpaceOnUse" color-interpolation-filters="sRGB">
<feFlood flood-opacity="0" result="BackgroundImageFix"/>
<feColorMatrix in="SourceAlpha" type="matrix" values="0 0 0 0 0 0 0 0 0 0 0 0 0 0 0 0 0 0 127 0" result="hardAlpha"/>
<feOffset dx="1.49822" dy="0.321047"/>
<feComposite in2="hardAlpha" operator="out"/>
<feColorMatrix type="matrix" values="0 0 0 0 0 0 0 0 0 0 0 0 0 0 0 0 0 0 1 0"/>
<feBlend mode="normal" in2="BackgroundImageFix" result="effect1_dropShadow_929_5384"/>
<feBlend mode="normal" in="SourceGraphic" in2="effect1_dropShadow_929_5384" result="shape"/>
</filter>
<filter id="filter1_d_929_5384" x="24.7734" y="5.74805" width="18.9303" height="17.6373" filterUnits="userSpaceOnUse" color-interpolation-filters="sRGB">
<feFlood flood-opacity="0" result="BackgroundImageFix"/>
<feColorMatrix in="SourceAlpha" type="matrix" values="0 0 0 0 0 0 0 0 0 0 0 0 0 0 0 0 0 0 127 0" result="hardAlpha"/>
<feOffset dx="0.856126" dy="1.3912"/>
<feComposite in2="hardAlpha" operator="out"/>
<feColorMatrix type="matrix" values="0 0 0 0 0 0 0 0 0 0 0 0 0 0 0 0 0 0 1 0"/>
<feBlend mode="normal" in2="BackgroundImageFix" result="effect1_dropShadow_929_5384"/>
<feBlend mode="normal" in="SourceGraphic" in2="effect1_dropShadow_929_5384" result="shape"/>
</filter>
<filter id="filter2_d_929_5384" x="0" y="7.96484" width="17.4693" height="16.2996" filterUnits="userSpaceOnUse" color-interpolation-filters="sRGB">
<feFlood flood-opacity="0" result="BackgroundImageFix"/>
<feColorMatrix in="SourceAlpha" type="matrix" values="0 0 0 0 0 0 0 0 0 0 0 0 0 0 0 0 0 0 127 0" result="hardAlpha"/>
<feOffset dx="1.92628" dy="0.321047"/>
<feComposite in2="hardAlpha" operator="out"/>
<feColorMatrix type="matrix" values="0 0 0 0 0 0 0 0 0 0 0 0 0 0 0 0 0 0 1 0"/>
<feBlend mode="normal" in2="BackgroundImageFix" result="effect1_dropShadow_929_5384"/>
<feBlend mode="normal" in="SourceGraphic" in2="effect1_dropShadow_929_5384" result="shape"/>
</filter>
<filter id="filter3_d_929_5384" x="2.76562" y="10.4883" width="40.2964" height="38.048" filterUnits="userSpaceOnUse" color-interpolation-filters="sRGB">
<feFlood flood-opacity="0" result="BackgroundImageFix"/>
<feColorMatrix in="SourceAlpha" type="matrix" values="0 0 0 0 0 0 0 0 0 0 0 0 0 0 0 0 0 0 127 0" result="hardAlpha"/>
<feOffset dx="3.21047" dy="0.214031"/>
<feComposite in2="hardAlpha" operator="out"/>
<feColorMatrix type="matrix" values="0 0 0 0 0 0 0 0 0 0 0 0 0 0 0 0 0 0 1 0"/>
<feBlend mode="normal" in2="BackgroundImageFix" result="effect1_dropShadow_929_5384"/>
<feBlend mode="normal" in="SourceGraphic" in2="effect1_dropShadow_929_5384" result="shape"/>
</filter>
</defs>
</svg>
