<svg width="103" height="105" viewBox="0 0 103 105" fill="none" xmlns="http://www.w3.org/2000/svg">
<path d="M50 3.1582C57.9515 3.1582 65.7883 5.02965 72.86 8.61722C79.9317 12.2048 86.0345 17.405 90.6617 23.7863C95.289 30.1677 98.3073 37.546 99.4661 45.3091C100.625 53.0721 99.891 60.996 97.3251 68.423C94.7591 75.85 90.4353 82.5661 84.7123 88.0137C78.9893 93.4613 72.0323 97.4835 64.4187 99.7463C56.805 102.009 48.7542 102.447 40.9346 101.025C33.1149 99.6019 25.7518 96.3593 19.4564 91.5659" stroke="#F03944" stroke-width="4.50872"/>
<path d="M14.6447 87.3904C13.0544 85.8211 11.5733 84.1477 10.2113 82.3816" stroke="#F03944" stroke-width="4.50872"/>
</svg>
