<svg width="22" height="23" viewBox="0 0 22 23" fill="none" xmlns="http://www.w3.org/2000/svg">
<path d="M10.9204 0.554688C4.99154 0.554688 0.179688 5.36654 0.179688 11.2954C0.179688 17.2243 4.99154 22.0362 10.9204 22.0362C16.8493 22.0362 21.6612 17.2243 21.6612 11.2954C21.6612 5.36654 16.8493 0.554688 10.9204 0.554688ZM5.28154 13.5939C5.28154 14.0343 4.91635 14.3995 4.47598 14.3995C4.03561 14.3995 3.67043 14.0343 3.67043 13.5939V8.99691C3.67043 8.55654 4.03561 8.19135 4.47598 8.19135C4.91635 8.19135 5.28154 8.55654 5.28154 8.99691V13.5939ZM8.50376 15.1299C8.50376 15.5702 8.13858 15.9354 7.69821 15.9354C7.25784 15.9354 6.89265 15.5702 6.89265 15.1299V7.46098C6.89265 7.02061 7.25784 6.65543 7.69821 6.65543C8.13858 6.65543 8.50376 7.02061 8.50376 7.46098V15.1299ZM11.726 16.6658C11.726 17.1062 11.3608 17.4714 10.9204 17.4714C10.4801 17.4714 10.1149 17.1062 10.1149 16.6658V5.92506C10.1149 5.48469 10.4801 5.1195 10.9204 5.1195C11.3608 5.1195 11.726 5.48469 11.726 5.92506V16.6658ZM14.9482 15.1299C14.9482 15.5702 14.583 15.9354 14.1426 15.9354C13.7023 15.9354 13.3371 15.5702 13.3371 15.1299V7.46098C13.3371 7.02061 13.7023 6.65543 14.1426 6.65543C14.583 6.65543 14.9482 7.02061 14.9482 7.46098V15.1299ZM18.1704 13.5939C18.1704 14.0343 17.8052 14.3995 17.3649 14.3995C16.9245 14.3995 16.5593 14.0343 16.5593 13.5939V8.99691C16.5593 8.55654 16.9245 8.19135 17.3649 8.19135C17.8052 8.19135 18.1704 8.55654 18.1704 8.99691V13.5939Z" fill="#6B00E2"/>
</svg>
