<svg width="26" height="27" viewBox="0 0 26 27" fill="none" xmlns="http://www.w3.org/2000/svg">
<path d="M12.9204 2.55469C6.99154 2.55469 2.17969 7.36654 2.17969 13.2954C2.17969 19.2243 6.99154 24.0362 12.9204 24.0362C18.8493 24.0362 23.6612 19.2243 23.6612 13.2954C23.6612 7.36654 18.8493 2.55469 12.9204 2.55469ZM7.28154 15.5939C7.28154 16.0343 6.91635 16.3995 6.47598 16.3995C6.03561 16.3995 5.67043 16.0343 5.67043 15.5939V10.9969C5.67043 10.5565 6.03561 10.1914 6.47598 10.1914C6.91635 10.1914 7.28154 10.5565 7.28154 10.9969V15.5939ZM10.5038 17.1299C10.5038 17.5702 10.1386 17.9354 9.69821 17.9354C9.25784 17.9354 8.89265 17.5702 8.89265 17.1299V9.46098C8.89265 9.02061 9.25784 8.65543 9.69821 8.65543C10.1386 8.65543 10.5038 9.02061 10.5038 9.46098V17.1299ZM13.726 18.6658C13.726 19.1062 13.3608 19.4714 12.9204 19.4714C12.4801 19.4714 12.1149 19.1062 12.1149 18.6658V7.92506C12.1149 7.48469 12.4801 7.1195 12.9204 7.1195C13.3608 7.1195 13.726 7.48469 13.726 7.92506V18.6658ZM16.9482 17.1299C16.9482 17.5702 16.583 17.9354 16.1426 17.9354C15.7023 17.9354 15.3371 17.5702 15.3371 17.1299V9.46098C15.3371 9.02061 15.7023 8.65543 16.1426 8.65543C16.583 8.65543 16.9482 9.02061 16.9482 9.46098V17.1299ZM20.1704 15.5939C20.1704 16.0343 19.8052 16.3995 19.3649 16.3995C18.9245 16.3995 18.5593 16.0343 18.5593 15.5939V10.9969C18.5593 10.5565 18.9245 10.1914 19.3649 10.1914C19.8052 10.1914 20.1704 10.5565 20.1704 10.9969V15.5939Z" fill="#6B00E2"/>
</svg>
