<?xml version="1.0" encoding="iso-8859-1"?>
<!-- Generator: Adobe Illustrator 18.0.0, SVG Export Plug-In . SVG Version: 6.00 Build 0)  -->
<!DOCTYPE svg PUBLIC "-//W3C//DTD SVG 1.1//EN" "http://www.w3.org/Graphics/SVG/1.1/DTD/svg11.dtd">
<svg version="1.1" id="Capa_1" xmlns="http://www.w3.org/2000/svg" xmlns:xlink="http://www.w3.org/1999/xlink" x="0px" y="0px"
	 viewBox="0 0 444.888 444.888" style="enable-background:new 0 0 444.888 444.888;" xml:space="preserve">
<path d="M325.883,258.78c10.459-9.522,16.792-23.188,16.792-37.9v-13.453c21.823-4.217,38.359-23.455,38.359-46.491
	c0-21.179-17.196-38.414-38.359-38.483V65.693C342.675,29.47,313.205,0,276.981,0h-81.037C159.72,0,130.25,29.47,130.25,65.693
	v34.704H72.853c-4.971,0-9,4.03-9,9s4.029,9,9,9h57.397v4.054c-21.164,0.069-38.36,17.304-38.36,38.483
	c0,23.037,16.537,42.274,38.36,46.491v13.453c0,14.714,6.335,28.382,16.795,37.903c-28.345,25.337-44.938,61.893-44.938,100.245
	v76.86c0,4.971,4.029,9,9,9h250.71c4.971,0,9-4.029,9-9v-76.86c0-35.891-13.974-69.631-39.346-95.004
	C329.668,262.22,327.791,260.482,325.883,258.78z M306.208,277.585c0,20.733-31.938,38.25-69.74,38.25
	c-37.809,0-69.75-17.517-69.75-38.25c0-2.395,0.45-4.776,1.314-7.126l42.345,14.968c8.41,2.973,17.248,4.459,26.086,4.459
	s17.676-1.486,26.088-4.459l42.343-14.968C305.758,272.809,306.208,275.19,306.208,277.585z M148.25,179.327
	c14.393-3.956,25-17.15,25-32.782v-28.148h126.425v28.148c0,15.632,10.607,28.825,25,32.782v41.552
	c0,14.054-8.903,26.643-22.153,31.327h-0.001l-45.97,16.25c-12.955,4.578-27.223,4.579-40.176,0l-45.973-16.25
	c-13.25-4.684-22.152-17.273-22.152-31.327V179.327z M274.505,100.397h-43.49V84.883c0-3.985,3.242-7.228,7.228-7.228h29.035
	c3.985,0,7.228,3.242,7.228,7.228V100.397z M324.675,159.764c-4.222-2.884-7-7.732-7-13.219v-28.148h7V159.764z M363.035,160.935
	c0,13.05-8.561,24.133-20.359,27.943v-48.423C353.912,140.524,363.035,149.681,363.035,160.935z M148.25,65.693
	C148.25,39.395,169.646,18,195.944,18h81.037c26.299,0,47.694,21.395,47.694,47.693v34.704h-32.17V84.883
	c0-13.91-11.317-25.228-25.228-25.228h-29.035c-13.91,0-25.228,11.317-25.228,25.228v15.514H148.25V65.693z M155.25,118.397v28.148
	c0,5.487-2.778,10.335-7,13.218v-41.367H155.25z M109.89,160.935c0-11.254,9.123-20.411,20.36-20.48v48.423
	C118.451,185.068,109.89,173.985,109.89,160.935z M352.818,426.888h-232.71v-67.86c0-28.412,10.52-55.686,28.927-76.717
	c3.634,29.247,40.715,51.525,87.432,51.525c46.743,0,83.837-22.307,87.429-51.582c18.7,21.237,28.922,48.217,28.922,76.774V426.888z
	"/>
<g>
</g>
<g>
</g>
<g>
</g>
<g>
</g>
<g>
</g>
<g>
</g>
<g>
</g>
<g>
</g>
<g>
</g>
<g>
</g>
<g>
</g>
<g>
</g>
<g>
</g>
<g>
</g>
<g>
</g>
</svg>
