<?xml version="1.0" encoding="iso-8859-1"?>
<!-- Generator: Adobe Illustrator 18.0.0, SVG Export Plug-In . SVG Version: 6.00 Build 0)  -->
<!DOCTYPE svg PUBLIC "-//W3C//DTD SVG 1.1//EN" "http://www.w3.org/Graphics/SVG/1.1/DTD/svg11.dtd">
<svg version="1.1" id="Capa_1" xmlns="http://www.w3.org/2000/svg" xmlns:xlink="http://www.w3.org/1999/xlink" x="0px" y="0px"
	 viewBox="0 0 453.429 453.429" style="enable-background:new 0 0 453.429 453.429;" xml:space="preserve">
<g>
	<path d="M316.135,267.321c10.46-9.52,16.795-23.186,16.795-37.901v-13.454c21.822-4.218,38.356-23.455,38.356-46.491
		c0-16.251-10.13-30.171-24.402-35.806v-13.495C346.884,53.91,292.974,0,226.71,0c-66.265,0-120.175,53.91-120.175,120.175v13.499
		c-14.268,5.637-24.393,19.554-24.393,35.802c0,23.036,16.535,42.273,38.357,46.491v13.454c0,14.717,6.335,28.385,16.796,37.904
		c-28.345,25.337-44.937,61.893-44.937,100.245v76.86c0,4.97,4.029,9,9,9h250.71c4.971,0,9-4.03,9-9v-76.86
		c0-35.891-13.974-69.631-39.346-95.004C319.919,270.761,318.043,269.024,316.135,267.321z M226.714,366.845l-79.535-84.173
		c1.904-1.788,3.869-3.52,5.901-5.184l67.092,71.003c1.7,1.799,4.066,2.819,6.542,2.819s4.842-1.02,6.542-2.819l67.088-70.999
		c2.026,1.658,4.004,3.379,5.916,5.17L226.714,366.845z M226.714,298.424c8.837,0,17.675-1.486,26.086-4.459l10.831-3.829
		l-36.917,39.07l-36.918-39.071l10.835,3.83C209.041,296.938,217.877,298.424,226.714,298.424z M246.801,276.994
		c-3.612,1.276-7.328,2.184-11.087,2.748v-17.299c0-4.97-4.029-9-9-9s-9,4.03-9,9v17.299c-3.759-0.565-7.474-1.472-11.085-2.748
		l-45.974-16.251c-13.252-4.679-22.155-17.267-22.155-31.323v-77.671c0-12.968,3.277-25.457,9.477-36.119
		c5.058-8.698,11.265-15.065,18.447-18.923c5.621-3.018,11.976-4.53,18.997-4.53c4.372,0,9.004,0.587,13.874,1.761
		c17.938,4.326,36.9,4.326,54.838,0c12.691-3.06,23.75-2.129,32.871,2.769c7.184,3.858,13.391,10.224,18.448,18.923
		c6.199,10.663,9.477,23.152,9.477,36.118l0.001,77.671c0,14.056-8.904,26.644-22.16,31.325L246.801,276.994z M353.286,169.476
		c0,13.049-8.56,24.132-20.357,27.942l-0.001-45.669c0-0.92-0.017-1.838-0.044-2.755
		C344.141,149.04,353.286,158.208,353.286,169.476z M100.143,169.476c0-11.267,9.145-20.435,20.401-20.482
		c-0.027,0.917-0.044,1.835-0.044,2.756v45.668C108.702,193.608,100.143,182.525,100.143,169.476z M132.416,106.583
		c-3.299,5.673-5.932,11.746-7.881,18.083v-4.491C124.535,63.835,170.37,18,226.71,18c56.339,0,102.174,45.835,102.174,102.175
		v4.462c-1.948-6.326-4.577-12.389-7.871-18.053c-15.551-26.744-40.805-37.448-71.099-30.143c-15.178,3.66-31.223,3.66-46.4,0
		C173.216,69.133,147.966,79.839,132.416,106.583z M110.359,367.569c0-26.139,8.906-51.314,24.663-71.552l82.692,87.513v51.899
		H110.359V367.569z M343.069,435.429H235.714V383.53l82.74-87.563c15.96,20.365,24.615,45.317,24.615,71.602V435.429z"/>
	<path d="M268.027,201.064l-4.142,2.833c-2.184,1.494-5.172,1.141-6.943-0.815l-0.62-0.685c-5.03-5.55-12.189-8.297-19.638-7.54
		c-3.621,0.368-7.008,1.533-9.97,3.374c-2.962-1.841-6.349-3.006-9.97-3.374c-7.459-0.758-14.608,1.991-19.641,7.542l-0.615,0.68
		c-1.776,1.959-4.763,2.313-6.945,0.817l-4.143-2.834c-4.103-2.806-9.702-1.756-12.51,2.346c-2.807,4.103-1.756,9.703,2.346,12.51
		l4.143,2.833c3.979,2.723,8.566,4.048,13.13,4.048c6.409,0,12.769-2.614,17.319-7.635l0.615-0.679
		c1.57-1.733,3.476-1.823,4.48-1.72c0.999,0.102,2.852,0.573,4.042,2.586c1.619,2.74,4.565,4.422,7.748,4.422
		s6.129-1.681,7.748-4.422c1.19-2.013,3.043-2.484,4.042-2.586c0.999-0.101,2.908-0.014,4.477,1.717l0.62,0.685
		c7.787,8.592,20.878,10.134,30.448,3.585l4.142-2.834c4.103-2.807,5.152-8.408,2.346-12.51
		C277.729,199.306,272.128,198.257,268.027,201.064z"/>
</g>
<g>
</g>
<g>
</g>
<g>
</g>
<g>
</g>
<g>
</g>
<g>
</g>
<g>
</g>
<g>
</g>
<g>
</g>
<g>
</g>
<g>
</g>
<g>
</g>
<g>
</g>
<g>
</g>
<g>
</g>
</svg>
