<svg xmlns="http://www.w3.org/2000/svg" xmlns:xlink="http://www.w3.org/1999/xlink" viewBox="0 0 625.929 454.015">
    <defs>
        <filter id="a" x="0" y="0" width="625.929" height="454.015" filterUnits="userSpaceOnUse">
            <feOffset dy="5" input="SourceAlpha" />
            <feGaussianBlur stdDeviation="6" result="b" />
            <feFlood flood-color="#34009b" flood-opacity="0.212" />
            <feComposite operator="in" in2="b" />
            <feComposite in="SourceGraphic" />
        </filter>
    </defs>
    <g transform="matrix(1, 0, 0, 1, 0, 0)" filter="url(#a)">
        <path
            d="M-1947.253,2054.743c-23.249,4.01-47.341,9.521-71.015,6.08-17.788-2.585-37.963-9.747-49.608-29.685-9.825-16.822-13.99-38.987-14.393-60.188-.511-26.96,5.574-52.877,7.058-79.592,2.35-42.293,1.922-85.28-3.181-127.188-2.562-21.041-1.4-44.094,6.065-63.386,8.677-22.413,24.8-34.358,42.072-41.361,17.541-7.113,36.029-8.972,54.242-9.381,52.051-1.168,104.157,1.189,156.109,5.537q2.531.212,5.062.417c24.16,1.962,48.364,3.458,72.568,3.458q19.7-.014,39.383-1.111c12.778-.727,25.764-3.365,38.525-3.365l.728-.087a33.8,33.8,0,0,1,3.931-.484c39.652-5,79.825-9.315,119.042,3.059,23.782,7.565,40,33.846,45.341,65.666,4.631,27.594,3.28,58.073-.348,85.748-3.692,28.158-10.129,55.647-11.961,84.243-1.313,20.5-.345,41.36,4.507,60.951,4.6,18.575,7.891,39.038,2.34,57.947-10.41,35.459-40.524,46.18-65.78,49.385-51.773,6.572-103.45,8.739-155.239,1.51-42.02-5.865-83.992-12.231-126.291-12.231-25.763-.651-51.6-1.7-77.326.925l-.714.073C-1933.2,2052.424-1940.231,2053.532-1947.253,2054.743Z"
            transform="translate(2100.3 -1636.41)" fill="#f6ebff" />
    </g>
</svg>