<svg xmlns="http://www.w3.org/2000/svg" viewBox="0 0 980 533.415">
    <path
        d="M-1857.959,2166.642c-38.621,5.116-78.644,12.149-117.971,7.759-29.55-3.3-63.064-12.437-82.41-37.88-16.321-21.466-23.241-49.75-23.909-76.8-.849-34.4,9.259-67.475,11.725-101.565,3.9-53.969,3.192-108.823-5.285-162.3-4.256-26.849-2.331-56.268,10.075-80.885,14.414-28.6,41.2-43.844,69.891-52.779,29.14-9.076,59.852-11.449,90.107-11.97,86.469-1.49,173.028,1.517,259.332,7.065q4.2.27,8.409.533c40.135,2.5,80.342,4.412,120.551,4.412q32.721-.018,65.425-1.418c21.227-.928,42.8-4.294,64-4.294l1.209-.111c2.148-.2,4.376-.618,6.531-.618,65.871-6.381,132.606-11.886,197.754,3.9,39.506,9.654,66.447,43.189,75.32,83.794,7.694,35.212,5.449,74.106-.578,109.421-6.134,35.932-16.827,71.01-19.87,107.5-2.182,26.164-.573,52.778,7.487,77.778,7.642,23.7,13.108,49.815,3.886,73.945-17.294,45.248-67.318,58.929-109.274,63.019-86.007,8.386-171.853,11.151-257.886,1.927-69.8-7.484-139.529-15.608-209.8-15.608-42.8-.831-85.721-2.17-128.456,1.18l-1.187.094C-1834.608,2163.682-1846.293,2165.1-1857.959,2166.642Z"
        transform="translate(2082.298 -1649.413)" fill="#aed8cf" />
</svg>