<svg xmlns="http://www.w3.org/2000/svg" xmlns:xlink="http://www.w3.org/1999/xlink" width="1366.569" height="728.114" viewBox="0 0 1366.569 728.114">
    <defs>
        <linearGradient id="a" x1="0.5" x2="0.5" y2="1" gradientUnits="objectBoundingBox">
            <stop offset="0" stop-color="#e9ddff" />
            <stop offset="1" stop-color="#c9affc" />
        </linearGradient>
    </defs>
    <path
        d="M13377.412,2768.8c-4.957-2.026-9.018-6.229-12.76-10.535a93.428,93.428,0,0,1-10.6-15.034c-1.105-1.944-2.65-3.7-4.348-1.641-1.236,1.5-1.793,3.633-2.645,5.439a64.965,64.965,0,0,1-5.281,9.429,29.209,29.209,0,0,1-9.7,9.237c-6.676,3.6-14.609,2.809-21.242-.906-7.088-3.977-12.184-10.824-16.91-18.166-1.605-2.5-3.145-5.082-4.828-7.513-.74-1.064-3.1-3.461-2.416-5.089a20.391,20.391,0,0,1-2.164,3.791c-3.324,4.794-5.879,10.061-8.641,15.336-2.443,4.677-5.281,9.23-9.141,12.163a18.491,18.491,0,0,1-14.758,3.3c-5.049-.962-9.787-3.75-13.908-7.424-7.768-6.9-13.371-16.7-18.521-26.427-.742-1.415-.928-1.978-2.014-.721-2.4,2.775-4.072,6.277-6.346,9.148a15.293,15.293,0,0,1-7.967,5.432c-4.32,1.133-8.887-.048-12.863-2.39-8.283-4.883-14.477-13.605-19.045-23.138-.92-1.923-1.936-3.97-2.994-5.865-.316-.556-.652-1.1-1-1.641l-2.869-.007a86.489,86.489,0,0,1-5.811,14.45c-2.439,4.855-5.035,10-8.551,13.818-6.455,7.005-15.57,5.893-22.383.2-1.105-.92-2.361-3.448-3.482-.913a79.206,79.206,0,0,1-8.508,15.109c-3.352,4.547-7.26,9.052-12.363,10.2-3.48.783-7.08.028-10.453-1.277-12.457-4.821-22.3-16.524-29.436-29.5-1.332-2.431-2.588-4.91-3.8-7.438a58.048,58.048,0,0,0-3.5-7.163c-1.256-1.875-2.932,2.788-3.455,3.722q-1.216,2.184-2.41,4.382c-1.07,1.964-2.129,3.935-3.193,5.906-2.5,4.615-5.543,9.416-10.014,11.243a10.389,10.389,0,0,1-3.475.762c-3.5.158-6.881-1.621-9.951-3.468a42.25,42.25,0,0,1-14.752-16.071c-1.7-3.118-2.92-6.552-4.746-9.594.309.522-1.113,3.049-1.318,3.51-2.41,5.309-4.752,10.865-7.768,15.707-2.363,3.791-5.453,7.129-9.217,8.4a12.692,12.692,0,0,1-8.385-.275,24.425,24.425,0,0,1-7.527-4.7,67.924,67.924,0,0,1-10.322-11.573,70.338,70.338,0,0,1-7.418-13.248c-1.051.714-1.553,3.2-1.971,4.505-1.566,4.849-2.906,9.54-5.707,13.6a17.894,17.894,0,0,1-8.922,7.149,12.051,12.051,0,0,1-12.025-3.015c-2.576-2.507-4.238-6.051-5.975-9.388a43.321,43.321,0,0,0-2.871-4.945c-.549-.783-2.822-4.135-3.75-3.53a1.806,1.806,0,0,0-.5.618c-1.277,2.143-2.74,4.244-3.846,6.517-1.084,2.232-1.834,4.7-2.932,6.93-1.711,3.5-3.365,7.033-5.068,10.529a30.722,30.722,0,0,1-4.912,6.991,25.711,25.711,0,0,1-5.281,4.78,17.179,17.179,0,0,1-3.289,1.49,24.342,24.342,0,0,1-19.105-.989,29.14,29.14,0,0,1-8.545-6.421c-2.74-2.96-4.883-6.607-7.424-9.807-1.168-1.47-5.287-7.026-7.217-5.165a4.337,4.337,0,0,0-.811,1.325c-3.174,6.868-7.143,13.6-12.2,18.584-5.008,4.924-12.83,5.735-18.859,3.88l-.035-.007a35.764,35.764,0,0,1-15.658-9.484c-6.154-6.751-11-14.834-16.82-21.936.1.117-2.279,4.176-2.465,4.457a53.308,53.308,0,0,0-2.891,5.837c-3.057,6.463-6.662,12.355-11.951,16.3-8.152,6.1-18.062,6.82-26.379.783-4.566-3.317-8.625-8.022-12.148-12.857-3.875-5.309-6.436-12.163-10.859-16.867-.02,1.387-1.49,3.084-2.176,4.121-3.311,4.965-7.432,9.45-12.473,11.558-5.729,2.39-11.441.838-16.414-3.2-4.752-3.867-8.3-9.478-11.682-15.006-1.236-2.019-2.467-4.059-3.744-6.044q-1.646-2.544-3.357-5.041l-5.371-.014c-2.754,8.729-6.1,17.286-11.936,23.193-7.047,7.129-18.928,8.427-24.648-.288-5.254,10.741-12.514,21.6-22.645,23.557-10.857,2.1-20.994-6.71-29.029-15.858a222.911,222.911,0,0,1-19.223-25.342c-3.709,9.478-8.482,19.69-16.717,22.753-6.641,2.479-14-.563-19.449-5.81s-9.361-12.465-13.174-19.552c-1.324,12.925-10.838,23.873-21.5,24.751s-21.283-8.406-24.023-20.995c-3.564,13.234-15.961,21.393-27.252,19.271-11.229-2.115-20.617-13.228-24.018-26.462h-.047c-.234,10.776-7.068,20.823-15.721,23.062-8.689,2.253-18.344-3.613-22.094-13.434-.75,18.859-13.5,35.967-28.824,38.68s-31.531-9.271-36.648-27.087c-5.789,12.554-13.021,26.414-24.648,28.989-13.076,2.891-24.648-9.9-33.721-21.75-6.387-8.344-13.1-17.959-14.051-29h-.605l.48-609.341h.035c-.576-12.763,6.99-23.7,14.141-33.048,9.066-11.861,20.639-24.642,33.721-21.75,11.627,2.569,18.854,16.428,24.648,28.989,5.117-17.822,21.332-29.8,36.648-27.087s28.068,19.821,28.824,38.68c3.756-9.821,13.412-15.686,22.1-13.434s15.557,12.4,15.721,23.234c3.365-13.31,12.773-24.511,24.064-26.633s23.688,6.037,27.246,19.271c2.746-12.589,13.377-21.874,24.029-20.995s20.172,11.826,21.5,24.745c3.8-7.081,7.713-14.292,13.166-19.546s12.814-8.3,19.455-5.817c8.229,3.07,13.008,13.282,16.711,22.76a222.989,222.989,0,0,1,19.223-25.342c8.041-9.148,18.178-17.966,29.029-15.865,10.137,1.964,17.391,12.822,22.645,23.563,5.721-8.722,17.607-7.417,24.654-.288,6.932,7.012,10.348,17.778,13.438,28.115h.309a47.533,47.533,0,0,1,3.162-4.359q1.916-2.771,3.75-5.618c1.285-1.992,2.514-4.025,3.75-6.051,3.379-5.522,6.916-11.133,11.676-15,4.979-4.038,10.693-5.6,16.422-3.2,5.041,2.1,9.16,6.586,12.465,11.558.686,1.03,2.156,2.733,2.184,4.114,4.422-4.7,6.984-11.559,10.857-16.867,3.523-4.828,7.576-9.532,12.15-12.85,8.309-6.037,18.219-5.316,26.379.783,5.287,3.949,8.893,9.842,11.949,16.3a50.386,50.386,0,0,0,2.893,5.838c.186.289,2.555,4.347,2.457,4.464,5.824-7.1,10.674-15.192,16.826-21.936a35.641,35.641,0,0,1,15.66-9.484l.033-.014c6.031-1.847,13.854-1.037,18.854,3.887,5.061,4.986,9.031,11.717,12.2,18.584a4.41,4.41,0,0,0,.8,1.325c1.93,1.854,6.049-3.695,7.217-5.165,2.541-3.2,4.691-6.854,7.432-9.807a29.159,29.159,0,0,1,8.537-6.421,24.364,24.364,0,0,1,19.113-.989,17.47,17.47,0,0,1,3.289,1.49,26.083,26.083,0,0,1,5.281,4.773,30.915,30.915,0,0,1,4.9,6.992c1.709,3.5,3.365,7.039,5.074,10.528,1.092,2.239,1.848,4.7,2.934,6.93,1.105,2.28,2.568,4.382,3.838,6.518a1.851,1.851,0,0,0,.508.625c.928.6,3.2-2.747,3.75-3.537a42.939,42.939,0,0,0,2.871-4.938c1.73-3.344,3.4-6.882,5.975-9.4a12.048,12.048,0,0,1,12.027-3.008,17.772,17.772,0,0,1,8.914,7.149c2.809,4.059,4.148,8.75,5.707,13.592.426,1.312.926,3.8,1.971,4.505a70.613,70.613,0,0,1,7.418-13.241,67.706,67.706,0,0,1,10.328-11.573,24.1,24.1,0,0,1,7.527-4.7,12.674,12.674,0,0,1,8.379-.281c3.764,1.271,6.854,4.615,9.223,8.406,3.016,4.835,5.357,10.4,7.762,15.7.213.467,1.635,2.988,1.318,3.516,1.826-3.042,3.043-6.476,4.746-9.6a42.247,42.247,0,0,1,14.758-16.064c3.07-1.854,6.457-3.626,9.945-3.468a10.465,10.465,0,0,1,3.482.755c4.471,1.827,7.506,6.635,10.006,11.25,1.064,1.964,2.123,3.935,3.193,5.9.8,1.47,1.6,2.932,2.41,4.388.523.934,2.2,5.6,3.463,3.716a57.856,57.856,0,0,0,3.494-7.163c1.2-2.521,2.467-5.007,3.8-7.431,7.129-12.98,16.971-24.683,29.428-29.5,3.373-1.3,6.979-2.067,10.453-1.284,5.1,1.154,9.018,5.659,12.363,10.206a79.193,79.193,0,0,1,8.516,15.1c1.113,2.534,2.369.014,3.482-.913,6.8-5.694,15.92-6.806,22.381.206,3.518,3.812,6.113,8.962,8.545,13.818a83.716,83.716,0,0,1,6.324,16.27,3.485,3.485,0,0,1,.063,2.177,62.978,62.978,0,0,1,3.289-5.645c1.059-1.9,2.074-3.942,2.994-5.865,4.574-9.532,10.762-18.261,19.045-23.138,3.984-2.349,8.543-3.523,12.871-2.4a15.3,15.3,0,0,1,7.959,5.432c2.281,2.878,3.957,6.373,6.354,9.155,1.084,1.257,1.264.687,2.012-.721,5.15-9.732,10.756-19.525,18.516-26.434,4.127-3.674,8.859-6.463,13.908-7.424a18.512,18.512,0,0,1,14.758,3.3c3.859,2.939,6.7,7.493,9.148,12.17,2.762,5.268,5.316,10.535,8.633,15.336a20.225,20.225,0,0,1,2.164,3.784c-.674-1.621,1.676-4.018,2.416-5.089,1.684-2.424,3.223-5.007,4.828-7.506,4.727-7.342,9.822-14.2,16.916-18.166,6.635-3.722,14.561-4.505,21.242-.906a29.107,29.107,0,0,1,9.7,9.237,65.67,65.67,0,0,1,5.289,9.423c.844,1.806,1.408,3.942,2.637,5.439,1.7,2.067,3.242.309,4.348-1.635a93.832,93.832,0,0,1,10.611-15.041c3.742-4.306,7.8-8.5,12.752-10.528a16.434,16.434,0,0,1,11.5-.4,18.206,18.206,0,0,1,2.617,1.126c5.385,2.843,8.949,8.344,12.41,13.894a108.052,108.052,0,0,1,9.58,18.99c.955,2.534,1.758,6.586,4.629,3.935,3.248-3,5.063-7.562,8.619-10.288a12.853,12.853,0,0,1,15.969.227c4.574,3.605,7.375,9.752,9.553,15.666.445,1.209,2.746,5.192,1.51,6.346,5.027-4.7,7.426-11.888,11.277-17.829,2.734-4.21,6.146-7.96,10.309-9.7,5.357-2.232,11.449-.817,16.291,2.768a32.749,32.749,0,0,1,7.953,8.921,40.339,40.339,0,0,1,3.029,5.542c.549,1.291,1.9,2.96,1.605,4.526.4-2.143,1.979-3.791,3.188-5.3a48.291,48.291,0,0,1,4.465-4.842,29.675,29.675,0,0,1,10.645-6.779,14.108,14.108,0,0,1,9.588-.034c3.783,1.449,6.9,4.794,9.408,8.544,1.566,2.342,2.926,4.869,4.3,7.376.578,1.058,1.168,2.1,1.752,3.146.453.8,1.1,2.644,1.758,3.146,1.072.817,2.707-1.635,3.365-2.363,3.8-4.2,6.785-9.354,10.645-13.482a20.169,20.169,0,0,1,14.328-6.655c8.172-.1,12.41,23.186,15.473,32.238.006.018-.01.035-.049.052l-.082,614.914c.041.021.063.034.055.055-3.062,9.052-7.225,25.473-15.4,25.383a20.2,20.2,0,0,1-14.328-6.655c-3.865-4.128-6.84-9.292-10.645-13.489-.666-.728-2.293-3.173-3.371-2.356-.652.5-1.3,2.342-1.752,3.146-.59,1.044-1.174,2.088-1.752,3.146-1.373,2.507-2.74,5.027-4.3,7.369-2.506,3.757-5.625,7.1-9.408,8.544a14.13,14.13,0,0,1-9.6-.028,29.929,29.929,0,0,1-10.645-6.779,47.8,47.8,0,0,1-4.457-4.849c-1.215-1.5-2.789-3.152-3.187-5.3.289,1.573-1.064,3.235-1.613,4.533a39.333,39.333,0,0,1-3.029,5.542,32.554,32.554,0,0,1-7.945,8.914c-4.842,3.585-10.934,5.007-16.291,2.775-4.162-1.738-7.582-5.487-10.309-9.7-3.859-5.948-6.256-13.131-11.277-17.829,1.23,1.147-1.07,5.13-1.518,6.339-2.17,5.913-4.971,12.06-9.553,15.672a12.868,12.868,0,0,1-15.967.227c-3.559-2.727-5.371-7.294-8.613-10.288-2.871-2.658-3.682,1.4-4.635,3.928a108.4,108.4,0,0,1-9.574,19c-3.461,5.549-7.025,11.05-12.418,13.894a17.829,17.829,0,0,1-2.615,1.126,16.411,16.411,0,0,1-5.193.845A16.75,16.75,0,0,1,13377.412,2768.8Z"
        transform="translate(-12226.611 -2041.934)" fill="url(#a)" />
</svg>