<svg xmlns="http://www.w3.org/2000/svg" xmlns:xlink="http://www.w3.org/1999/xlink" width="1366" height="727.682" viewBox="0 0 1366 727.682">
    <defs>
        <linearGradient id="a" x1="0.5" y1="1" x2="0.5" gradientUnits="objectBoundingBox">
            <stop offset="0" stop-color="#ffd9e0" />
            <stop offset="1" stop-color="#fcb4c3" />
        </linearGradient>
    </defs>
    <path
        d="M1174.89,727.681a17.712,17.712,0,0,1-3.165-.926c-5.1-2.024-9.274-6.215-13.125-10.516a93.285,93.285,0,0,1-10.92-15.012c-1.141-1.941-2.723-3.7-4.473-1.636-1.271,1.495-1.846,3.626-2.719,5.43a64.688,64.688,0,0,1-5.437,9.41,29.708,29.708,0,0,1-9.986,9.224c-6.875,3.6-15.035,2.81-21.865-.9-7.3-3.97-12.54-10.81-17.406-18.139-1.654-2.494-3.237-5.072-4.968-7.5-.762-1.068-3.184-3.459-2.487-5.083a20.313,20.313,0,0,1-2.23,3.783c-3.417,4.789-6.048,10.051-8.888,15.313-2.52,4.667-5.437,9.216-9.414,12.145a19.5,19.5,0,0,1-15.187,3.295,31.008,31.008,0,0,1-14.314-7.412c-7.988-6.9-13.762-16.674-19.062-26.394-.766-1.407-.953-1.971-2.07-.716-2.463,2.776-4.19,6.265-6.531,9.136a15.794,15.794,0,0,1-8.2,5.426c-4.451,1.129-9.151-.049-13.246-2.391-8.518-4.873-14.893-13.582-19.6-23.1-.946-1.918-1.994-3.962-3.081-5.853a61.634,61.634,0,0,1-3.39-5.639,3.343,3.343,0,0,1-.06,2.17,82.406,82.406,0,0,1-6.509,16.247c-2.5,4.85-5.178,9.99-8.8,13.8-6.649,7-16.029,5.887-23.037.2-1.14-.922-2.437-3.443-3.585-.911a78.247,78.247,0,0,1-8.762,15.084c-3.446,4.537-7.47,9.033-12.72,10.181-3.581.786-7.291.026-10.76-1.273-12.82-4.812-22.951-16.5-30.29-29.452-1.373-2.425-2.669-4.908-3.912-7.424a57.3,57.3,0,0,0-3.6-7.153c-1.3-1.872-3.024,2.779-3.558,3.713-.835,1.453-1.663,2.917-2.482,4.378-1.1,1.96-2.192,3.931-3.287,5.891-2.574,4.61-5.7,9.407-10.3,11.233a11.118,11.118,0,0,1-3.58.759c-3.6.153-7.081-1.616-10.238-3.466a42.678,42.678,0,0,1-15.19-16.042c-1.75-3.119-3-6.547-4.881-9.581.32.522-1.144,3.047-1.357,3.507-2.479,5.3-4.889,10.849-7.993,15.675-2.432,3.79-5.616,7.123-9.49,8.393a13.409,13.409,0,0,1-8.626-.278,25.148,25.148,0,0,1-7.748-4.69,68.491,68.491,0,0,1-10.626-11.553,69.62,69.62,0,0,1-7.634-13.227c-1.079.709-1.594,3.195-2.029,4.5-1.614,4.835-2.986,9.521-5.876,13.57a18.285,18.285,0,0,1-9.177,7.139A12.656,12.656,0,0,1,704.647,698c-2.651-2.5-4.367-6.04-6.151-9.376a43.146,43.146,0,0,0-2.956-4.93c-.568-.786-2.9-4.13-3.859-3.531a1.859,1.859,0,0,0-.518.621c-1.311,2.139-2.817,4.236-3.958,6.505-1.117,2.23-1.891,4.69-3.016,6.92-1.761,3.489-3.465,7.02-5.219,10.513a30.84,30.84,0,0,1-5.053,6.981,26.511,26.511,0,0,1-5.434,4.766,18.376,18.376,0,0,1-3.386,1.491,25.783,25.783,0,0,1-19.668-.988,29.908,29.908,0,0,1-8.789-6.413c-2.821-2.951-5.032-6.6-7.644-9.787-1.205-1.468-5.45-7.012-7.429-5.163a4.241,4.241,0,0,0-.831,1.327c-3.272,6.855-7.351,13.578-12.56,18.558-5.152,4.91-13.2,5.723-19.409,3.877l-.034-.011a37.008,37.008,0,0,1-16.113-9.472c-6.338-6.738-11.326-14.81-17.32-21.9a50.508,50.508,0,0,1-2.532,4.458,51.534,51.534,0,0,0-2.978,5.827c-3.142,6.448-6.855,12.331-12.3,16.274-8.393,6.089-18.592,6.809-27.148.785-4.705-3.317-8.881-8.014-12.507-12.838-3.984-5.3-6.627-12.145-11.175-16.839-.022,1.381-1.537,3.077-2.246,4.111-3.4,4.96-7.645,9.436-12.829,11.538-5.9,2.39-11.78.839-16.9-3.191-4.9-3.863-8.537-9.464-12.019-14.981-1.273-2.021-2.54-4.054-3.859-6.036q-1.886-2.843-3.858-5.609a44.2,44.2,0,0,1-3.3-4.439H431.4c-3.186,10.347-6.7,21.135-13.855,28.156-7.253,7.115-19.484,8.415-25.372-.29-5.411,10.726-12.876,21.567-23.3,23.522-11.177,2.1-21.608-6.7-29.883-15.832A225.23,225.23,0,0,1,319.2,677.3c-3.809,9.464-8.724,19.66-17.2,22.725-6.837,2.471-14.417-.564-20.026-5.807s-9.627-12.446-13.551-19.519c-1.373,12.9-11.161,23.831-22.127,24.712s-21.909-8.4-24.735-20.964c-3.664,13.212-16.43,21.364-28.044,19.24s-21.3-13.3-24.766-26.591c-.167,10.817-7.233,20.948-16.175,23.2s-18.881-3.606-22.753-13.41c-.773,18.825-13.894,35.907-29.665,38.615s-32.452-9.25-37.717-27.042c-5.964,12.538-13.4,26.375-25.368,28.941C23.612,724.288,8.285,699.5,8.285,699.5S.462,681.854,0,669.094V52.569C.067,42.426,1.526,32.287,7.232,25.051,16.57,13.211,23.609,3.713,37.08,6.6,49.038,9.166,56.48,23,62.445,35.545,67.714,17.753,84.4,5.792,100.162,8.5s28.892,19.789,29.665,38.618c3.867-9.8,13.8-15.66,22.749-13.41,7.878,1.978,14.3,10.07,15.831,19.358h1.537c4.19-11.553,13.1-20.842,23.576-22.756,11.615-2.12,24.38,6.028,28.04,19.24,2.83-12.568,13.774-21.838,24.739-20.96,10.9.873,20.636,11.679,22.1,24.475h.153c3.881-7,7.873-14.1,13.422-19.282C287.587,28.54,295.167,25.5,302,27.976c8.473,3.062,13.388,13.258,17.2,22.721a223.851,223.851,0,0,1,19.79-25.3c8.275-9.132,18.7-17.933,29.879-15.836,10.428,1.956,17.894,12.8,23.3,23.522,5.888-8.706,18.119-7.405,25.372-.286,5.341,5.243,8.655,12.583,11.317,20.27h8.491q.733-1.075,1.456-2.162c1.319-1.986,2.582-4.019,3.859-6.04,3.481-5.513,7.119-11.119,12.019-14.978,5.117-4.034,11-5.585,16.9-3.195,5.185,2.1,9.428,6.577,12.829,11.538.709,1.033,2.22,2.731,2.25,4.11,4.545-4.693,7.187-11.538,11.168-16.838,3.626-4.823,7.8-9.521,12.507-12.834,8.556-6.029,18.76-5.308,27.152.781,5.437,3.946,9.151,9.826,12.3,16.277a51.322,51.322,0,0,0,2.978,5.827c.187.286,2.632,4.339,2.532,4.454,5.994-7.088,10.982-15.165,17.315-21.9a36.949,36.949,0,0,1,16.117-9.472l.034-.011c6.208-1.846,14.257-1.038,19.4,3.877,5.208,4.981,9.292,11.7,12.56,18.558a4.318,4.318,0,0,0,.831,1.323c1.983,1.853,6.227-3.691,7.428-5.159,2.616-3.191,4.828-6.84,7.648-9.792a29.893,29.893,0,0,1,8.786-6.409,25.756,25.756,0,0,1,19.671-.988,18.225,18.225,0,0,1,3.386,1.488,26.625,26.625,0,0,1,5.434,4.77,30.989,30.989,0,0,1,5.053,6.978c1.754,3.5,3.458,7.027,5.219,10.512,1.125,2.231,1.9,4.694,3.016,6.921,1.141,2.269,2.642,4.37,3.958,6.509a1.8,1.8,0,0,0,.518.617c.953.6,3.287-2.745,3.856-3.527a42.4,42.4,0,0,0,2.959-4.934c1.784-3.336,3.5-6.871,6.146-9.376a12.681,12.681,0,0,1,12.381-3.009,18.265,18.265,0,0,1,9.174,7.138c2.891,4.054,4.266,8.736,5.876,13.575.438,1.308.953,3.79,2.028,4.5a70.073,70.073,0,0,1,7.634-13.224,68.528,68.528,0,0,1,10.631-11.553,25.1,25.1,0,0,1,7.744-4.69,13.444,13.444,0,0,1,8.629-.282c3.874,1.273,7.053,4.606,9.486,8.392,3.1,4.827,5.518,10.379,7.992,15.675.218.464,1.682,2.985,1.358,3.512,1.879-3.039,3.13-6.467,4.884-9.586A42.64,42.64,0,0,1,807.65,24.4c3.157-1.853,6.639-3.623,10.235-3.466a11,11,0,0,1,3.58.759c4.6,1.823,7.729,6.62,10.3,11.229,1.1,1.964,2.186,3.931,3.288,5.891q1.234,2.2,2.482,4.377c.537.934,2.264,5.59,3.558,3.714a56.9,56.9,0,0,0,3.6-7.15c1.239-2.52,2.535-5,3.909-7.424,7.339-12.956,17.471-24.643,30.289-29.452,3.474-1.3,7.184-2.063,10.765-1.277,5.25,1.148,9.274,5.643,12.72,10.184a78.6,78.6,0,0,1,8.762,15.084c1.147,2.528,2.441.012,3.58-.914,7.013-5.685,16.393-6.8,23.042.2,3.62,3.81,6.288,8.953,8.8,13.8a87.12,87.12,0,0,1,5.57,13.1h4.194c.066-.106.13-.217.192-.328,1.09-1.887,2.135-3.935,3.084-5.853,4.706-9.518,11.077-18.23,19.6-23.1,4.095-2.341,8.8-3.515,13.243-2.387a15.781,15.781,0,0,1,8.2,5.423c2.344,2.871,4.068,6.364,6.535,9.136,1.117,1.255,1.3.69,2.07-.717,5.3-9.715,11.07-19.5,19.057-26.393a31.076,31.076,0,0,1,14.315-7.409,19.51,19.51,0,0,1,15.191,3.291c3.977,2.928,6.894,7.481,9.414,12.148,2.84,5.261,5.471,10.52,8.885,15.309a20.04,20.04,0,0,1,2.23,3.783c-.7-1.625,1.728-4.011,2.49-5.083,1.731-2.421,3.314-5,4.968-7.5,4.862-7.329,10.1-14.17,17.406-18.139,6.829-3.714,14.99-4.5,21.86-.9a29.583,29.583,0,0,1,9.986,9.22,65.006,65.006,0,0,1,5.438,9.411c.873,1.8,1.452,3.935,2.719,5.43,1.75,2.063,3.335.309,4.472-1.633A93.328,93.328,0,0,1,1158.6,11.759c3.851-4.3,8.03-8.491,13.128-10.512a17.431,17.431,0,0,1,11.839-.4,18.74,18.74,0,0,1,2.693,1.125c5.544,2.84,9.211,8.331,12.774,13.872a106.764,106.764,0,0,1,9.86,18.962c.983,2.528,1.811,6.577,4.766,3.927,3.34-2.993,5.2-7.549,8.868-10.272a13.56,13.56,0,0,1,16.435.225c4.713,3.6,7.6,9.742,9.834,15.645.457,1.209,2.825,5.182,1.56,6.333,5.166-4.694,7.636-11.866,11.606-17.8,2.806-4.206,6.322-7.95,10.607-9.685,5.513-2.23,11.785-.812,16.766,2.768a32.933,32.933,0,0,1,8.183,8.9,39.373,39.373,0,0,1,3.115,5.532c.568,1.292,1.96,2.955,1.662,4.523.409-2.139,2.029-3.786,3.275-5.289a49.486,49.486,0,0,1,4.591-4.835,30.81,30.81,0,0,1,10.959-6.768,14.96,14.96,0,0,1,9.871-.031c3.893,1.445,7.1,4.782,9.681,8.53,1.609,2.337,3.013,4.857,4.427,7.363.59,1.052,1.2,2.1,1.8,3.138.461.8,1.125,2.638,1.8,3.142,1.105.815,2.784-1.628,3.466-2.357,3.916-4.19,6.981-9.342,10.963-13.463A23.056,23.056,0,0,1,1366,31.819V696.2a17.476,17.476,0,0,1-2.866-2.543c-3.977-4.122-7.043-9.273-10.959-13.459-.682-.733-2.36-3.176-3.465-2.361-.68.5-1.343,2.345-1.8,3.142-.606,1.045-1.212,2.086-1.807,3.142-1.41,2.506-2.813,5.026-4.423,7.363-2.578,3.745-5.789,7.081-9.686,8.53a14.949,14.949,0,0,1-9.868-.034,30.874,30.874,0,0,1-10.963-6.764,48.891,48.891,0,0,1-4.586-4.839c-1.251-1.5-2.871-3.149-3.28-5.288.3,1.567-1.094,3.234-1.658,4.523a40,40,0,0,1-3.116,5.532,33.02,33.02,0,0,1-8.186,8.907c-4.981,3.577-11.249,4.995-16.763,2.765-4.285-1.732-7.8-5.479-10.611-9.681-3.97-5.937-6.437-13.106-11.606-17.8,1.265,1.151-1.1,5.128-1.56,6.337-2.238,5.9-5.121,12.038-9.834,15.641a13.549,13.549,0,0,1-16.435.225c-3.659-2.719-5.528-7.276-8.868-10.273-2.952-2.65-3.784,1.4-4.766,3.928a106.7,106.7,0,0,1-9.857,18.966c-3.561,5.54-7.23,11.031-12.774,13.868a18.951,18.951,0,0,1-2.7,1.125,17.244,17.244,0,0,1-2.04.529Z"
        transform="translate(1366 727.681) rotate(180)" fill="url(#a)" />
</svg>