<svg width="276" height="1016" viewBox="0 0 276 1016" fill="none" xmlns="http://www.w3.org/2000/svg">
<g style="mix-blend-mode:overlay" filter="url(#filter0_d_168_3525)">
<path d="M-39.8602 763.626L-88.2593 697.524L-55.2132 622.558L26.2321 613.694L74.6312 679.796L41.585 754.762L-39.8602 763.626Z" fill="#00095E" fill-opacity="0.51"/>
<path d="M62.5832 531.232L14.1841 465.131L47.2302 390.165L128.675 381.301L177.075 447.402L144.028 522.368L62.5832 531.232Z" fill="#00095E" fill-opacity="0.51"/>
<path d="M165.026 298.839L116.627 232.737L149.673 157.771L231.118 148.907L279.517 215.009L246.471 289.975L165.026 298.839Z" fill="#00095E" fill-opacity="0.51"/>
<path d="M267.469 66.4451L219.07 0.343433L252.116 -74.6222L333.561 -83.4863L381.96 -17.3846L348.914 57.581L267.469 66.4451Z" fill="#00095E" fill-opacity="0.51"/>
<path d="M-72.3563 471.749L-120.755 405.647L-87.7092 330.681L-6.264 321.817L42.1351 387.919L9.08895 462.885L-72.3563 471.749Z" fill="#00095E" fill-opacity="0.51"/>
<path d="M30.0871 239.355L-18.312 173.254L14.7341 98.2879L96.1794 89.4239L144.578 155.526L111.532 230.491L30.0871 239.355Z" fill="#00095E" fill-opacity="0.51"/>
<path d="M132.53 6.96167L84.1313 -59.14L117.177 -134.106L198.623 -142.97L247.022 -76.868L213.976 -1.90237L132.53 6.96167Z" fill="#00095E" fill-opacity="0.51"/>
<path d="M-56.1082 617.687L-104.507 551.586L-71.4612 476.62L9.98404 467.756L58.3831 533.858L25.337 608.823L-56.1082 617.687Z" fill="#00095E" fill-opacity="0.51"/>
<path d="M46.3351 385.294L-2.06399 319.192L30.9822 244.226L112.427 235.362L160.827 301.464L127.78 376.43L46.3351 385.294Z" fill="#00095E" fill-opacity="0.51"/>
<path d="M148.778 152.9L100.379 86.7985L133.426 11.8328L214.871 2.96881L263.27 69.0704L230.224 144.036L148.778 152.9Z" fill="#00095E" fill-opacity="0.51"/>
<path d="M-88.6024 325.81L-137.001 259.709L-103.955 184.743L-22.5101 175.879L25.889 241.981L-7.15714 316.946L-88.6024 325.81Z" fill="#00095E" fill-opacity="0.51"/>
<path d="M13.84 93.4167L-34.5591 27.3151L-1.51296 -47.6506L79.9323 -56.5146L128.331 9.58704L95.2852 84.5527L13.84 93.4167Z" fill="#00095E" fill-opacity="0.51"/>
<path d="M-126.057 1141.96L-174.457 1075.86L-141.41 1000.89L-59.9652 992.026L-11.5661 1058.13L-44.6122 1133.09L-126.057 1141.96Z" fill="#00095E" fill-opacity="0.51"/>
<path d="M-23.6131 909.564L-72.0122 843.463L-38.9661 768.497L42.4792 759.633L90.8783 825.735L57.8321 900.7L-23.6131 909.564Z" fill="#00095E" fill-opacity="0.51"/>
<path d="M78.8302 677.171L30.4311 611.069L63.4773 536.103L144.923 527.239L193.322 593.341L160.275 668.307L78.8302 677.171Z" fill="#00095E" fill-opacity="0.51"/>
<path d="M181.273 444.776L132.874 378.674L165.92 303.709L247.365 294.845L295.764 360.946L262.718 435.912L181.273 444.776Z" fill="#00095E" fill-opacity="0.51"/>
<path d="M283.715 212.383L235.316 146.281L268.363 71.3153L349.808 62.4512L398.207 128.553L365.161 203.519L283.715 212.383Z" fill="#00095E" fill-opacity="0.51"/>
<path d="M111.324 969.047L62.9253 902.945L95.9714 827.979L177.417 819.115L225.816 885.217L192.77 960.183L111.324 969.047Z" fill="#00095E" fill-opacity="0.51"/>
<path d="M213.769 736.653L165.37 670.551L198.416 595.586L279.861 586.722L328.26 652.823L295.214 727.789L213.769 736.653Z" fill="#00095E" fill-opacity="0.51"/>
<path d="M316.21 504.26L267.811 438.158L300.857 363.192L382.302 354.328L430.702 420.43L397.655 495.395L316.21 504.26Z" fill="#00095E" fill-opacity="0.51"/>
<path d="M246.263 1028.53L197.864 962.428L230.91 887.463L312.356 878.599L360.755 944.7L327.709 1019.67L246.263 1028.53Z" fill="#00095E" fill-opacity="0.51"/>
<path d="M-7.36606 1055.5L-55.7652 989.401L-22.719 914.435L58.7262 905.571L107.125 971.673L74.0792 1046.64L-7.36606 1055.5Z" fill="#00095E" fill-opacity="0.51"/>
<path d="M95.0783 823.109L46.6792 757.007L79.7253 682.042L161.171 673.178L209.57 739.279L176.524 814.245L95.0783 823.109Z" fill="#00095E" fill-opacity="0.51"/>
<path d="M197.522 590.716L149.123 524.614L182.169 449.648L263.614 440.784L312.014 506.886L278.967 581.852L197.522 590.716Z" fill="#00095E" fill-opacity="0.51"/>
<path d="M299.964 358.322L251.564 292.22L284.611 217.255L366.056 208.391L414.455 274.492L381.409 349.458L299.964 358.322Z" fill="#00095E" fill-opacity="0.51"/>
<path d="M127.572 1114.99L79.1733 1048.88L112.219 973.918L193.665 965.054L242.064 1031.16L209.018 1106.12L127.572 1114.99Z" fill="#00095E" fill-opacity="0.51"/>
<path d="M230.016 882.592L181.617 816.49L214.663 741.524L296.109 732.66L344.508 798.762L311.462 873.728L230.016 882.592Z" fill="#00095E" fill-opacity="0.51"/>
<path d="M332.458 650.198L284.059 584.096L317.105 509.131L398.55 500.267L446.95 566.368L413.903 641.334L332.458 650.198Z" fill="#00095E" fill-opacity="0.51"/>
</g>
<defs>
<filter id="filter0_d_168_3525" x="-494.331" y="-192.97" width="1212.42" height="1503.89" filterUnits="userSpaceOnUse" color-interpolation-filters="sRGB">
<feFlood flood-opacity="0" result="BackgroundImageFix"/>
<feColorMatrix in="SourceAlpha" type="matrix" values="0 0 0 0 0 0 0 0 0 0 0 0 0 0 0 0 0 0 127 0" result="hardAlpha"/>
<feOffset/>
<feGaussianBlur stdDeviation="25"/>
<feComposite in2="hardAlpha" operator="out"/>
<feColorMatrix type="matrix" values="0 0 0 0 0 0 0 0 0 0 0 0 0 0 0 0 0 0 0.25 0"/>
<feBlend mode="normal" in2="BackgroundImageFix" result="effect1_dropShadow_168_3525"/>
<feBlend mode="normal" in="SourceGraphic" in2="effect1_dropShadow_168_3525" result="shape"/>
</filter>
</defs>
</svg>
