<svg width="245" height="1016" viewBox="0 0 245 1016" fill="none" xmlns="http://www.w3.org/2000/svg">
<g style="mix-blend-mode:overlay" filter="url(#filter0_d_1_9385)">
<path d="M-39.8602 763.626L-88.2593 697.525L-55.2132 622.559L26.2321 613.695L74.6312 679.797L41.585 754.762L-39.8602 763.626Z" fill="#00095E" fill-opacity="0.51"/>
<path d="M62.5851 531.232L14.186 465.131L47.2322 390.165L128.677 381.301L177.077 447.403L144.03 522.368L62.5851 531.232Z" fill="#00095E" fill-opacity="0.51"/>
<path d="M165.027 298.839L116.627 232.737L149.674 157.772L231.119 148.908L279.518 215.009L246.472 289.975L165.027 298.839Z" fill="#00095E" fill-opacity="0.51"/>
<path d="M267.468 66.4453L219.069 0.343677L252.115 -74.622L333.56 -83.486L381.959 -17.3844L348.913 57.5813L267.468 66.4453Z" fill="#00095E" fill-opacity="0.51"/>
<path d="M-72.3563 471.749L-120.755 405.647L-87.7092 330.681L-6.264 321.817L42.1351 387.919L9.08895 462.885L-72.3563 471.749Z" fill="#00095E" fill-opacity="0.51"/>
<path d="M30.0851 239.355L-18.314 173.254L14.7322 98.288L96.1774 89.424L144.577 155.526L111.53 230.491L30.0851 239.355Z" fill="#00095E" fill-opacity="0.51"/>
<path d="M132.53 6.96167L84.1313 -59.14L117.177 -134.106L198.623 -142.97L247.022 -76.868L213.976 -1.90237L132.53 6.96167Z" fill="#00095E" fill-opacity="0.51"/>
<path d="M-56.1063 617.687L-104.505 551.586L-71.4592 476.62L9.986 467.756L58.3851 533.858L25.339 608.823L-56.1063 617.687Z" fill="#00095E" fill-opacity="0.51"/>
<path d="M46.3351 385.294L-2.06399 319.192L30.9822 244.227L112.427 235.363L160.827 301.464L127.78 376.43L46.3351 385.294Z" fill="#00095E" fill-opacity="0.51"/>
<path d="M148.777 152.9L100.377 86.7984L133.424 11.8327L214.869 2.96869L263.268 69.0703L230.222 144.036L148.777 152.9Z" fill="#00095E" fill-opacity="0.51"/>
<path d="M-88.6024 325.811L-137.001 259.709L-103.955 184.744L-22.5101 175.88L25.889 241.981L-7.15714 316.947L-88.6024 325.811Z" fill="#00095E" fill-opacity="0.51"/>
<path d="M13.839 93.4172L-34.5601 27.3156L-1.51393 -47.6501L79.9313 -56.5141L128.33 9.58753L95.2843 84.5532L13.839 93.4172Z" fill="#00095E" fill-opacity="0.51"/>
<path d="M-126.056 1141.96L-174.455 1075.86L-141.408 1000.89L-59.9632 992.026L-11.5641 1058.13L-44.6103 1133.09L-126.056 1141.96Z" fill="#00095E" fill-opacity="0.51"/>
<path d="M-23.6141 909.564L-72.0132 843.463L-38.9671 768.497L42.4782 759.633L90.8773 825.735L57.8311 900.7L-23.6141 909.564Z" fill="#00095E" fill-opacity="0.51"/>
<path d="M78.8312 677.17L30.4321 611.069L63.4783 536.103L144.923 527.239L193.323 593.341L160.276 668.306L78.8312 677.17Z" fill="#00095E" fill-opacity="0.51"/>
<path d="M181.273 444.777L132.874 378.675L165.92 303.71L247.365 294.846L295.764 360.947L262.718 435.913L181.273 444.777Z" fill="#00095E" fill-opacity="0.51"/>
<path d="M283.714 212.383L235.315 146.281L268.361 71.3158L349.806 62.4517L398.205 128.553L365.159 203.519L283.714 212.383Z" fill="#00095E" fill-opacity="0.51"/>
<path d="M111.323 969.047L62.9243 902.945L95.9704 827.98L177.416 819.116L225.815 885.217L192.769 960.183L111.323 969.047Z" fill="#00095E" fill-opacity="0.51"/>
<path d="M213.769 736.654L165.37 670.552L198.416 595.586L279.861 586.722L328.26 652.824L295.214 727.79L213.769 736.654Z" fill="#00095E" fill-opacity="0.51"/>
<path d="M246.265 1028.53L197.866 962.428L230.912 887.463L312.357 878.599L360.756 944.7L327.71 1019.67L246.265 1028.53Z" fill="#00095E" fill-opacity="0.51"/>
<path d="M-7.36411 1055.5L-55.7632 989.401L-22.7171 914.435L58.7282 905.571L107.127 971.673L74.0811 1046.64L-7.36411 1055.5Z" fill="#00095E" fill-opacity="0.51"/>
<path d="M95.0773 823.109L46.6782 757.007L79.7243 682.042L161.17 673.178L209.569 739.279L176.523 814.245L95.0773 823.109Z" fill="#00095E" fill-opacity="0.51"/>
<path d="M197.523 590.715L149.124 524.614L182.17 449.648L263.615 440.784L312.014 506.886L278.968 581.851L197.523 590.715Z" fill="#00095E" fill-opacity="0.51"/>
<path d="M299.964 358.322L251.565 292.22L284.611 217.254L366.056 208.39L414.455 274.492L381.409 349.458L299.964 358.322Z" fill="#00095E" fill-opacity="0.51"/>
<path d="M127.573 1114.99L79.1743 1048.88L112.22 973.918L193.666 965.054L242.065 1031.16L209.019 1106.12L127.573 1114.99Z" fill="#00095E" fill-opacity="0.51"/>
<path d="M230.015 882.592L181.616 816.49L214.662 741.525L296.107 732.661L344.506 798.762L311.46 873.728L230.015 882.592Z" fill="#00095E" fill-opacity="0.51"/>
</g>
<defs>
<filter id="filter0_d_1_9385" x="-494.328" y="-192.97" width="1212.41" height="1503.89" filterUnits="userSpaceOnUse" color-interpolation-filters="sRGB">
<feFlood flood-opacity="0" result="BackgroundImageFix"/>
<feColorMatrix in="SourceAlpha" type="matrix" values="0 0 0 0 0 0 0 0 0 0 0 0 0 0 0 0 0 0 127 0" result="hardAlpha"/>
<feOffset/>
<feGaussianBlur stdDeviation="25"/>
<feComposite in2="hardAlpha" operator="out"/>
<feColorMatrix type="matrix" values="0 0 0 0 0 0 0 0 0 0 0 0 0 0 0 0 0 0 0.25 0"/>
<feBlend mode="normal" in2="BackgroundImageFix" result="effect1_dropShadow_1_9385"/>
<feBlend mode="normal" in="SourceGraphic" in2="effect1_dropShadow_1_9385" result="shape"/>
</filter>
</defs>
</svg>
